<?xml version="1.0" encoding="UTF-8" standalone="no"?>
<!DOCTYPE svg PUBLIC "-//W3C//DTD SVG 1.1//EN"
 "http://www.w3.org/Graphics/SVG/1.1/DTD/svg11.dtd">
<!-- Generated by graphviz version 2.28.0 (20111028.1807)
 -->
<!-- Title: classes_monitors Pages: 1 -->
<svg width="2366pt" height="592pt"
 viewBox="0.00 0.00 2366.00 592.00" xmlns="http://www.w3.org/2000/svg" xmlns:xlink="http://www.w3.org/1999/xlink">
<g id="graph1" class="graph" transform="scale(1 1) rotate(0) translate(4 588)">
<title>classes_monitors</title>
<polygon fill="white" stroke="white" points="-4,5 -4,-588 2363,-588 2363,5 -4,5"/>
<!-- 0 -->
<g id="node1" class="node"><title>0</title>
<polygon fill="none" stroke="black" points="-0.200195,-263.2 -0.200195,-336.8 378.2,-336.8 378.2,-263.2 -0.200195,-263.2"/>
<text text-anchor="middle" x="189" y="-318.8" font-family="Times,serif" font-size="14.00">BalloonWindkesselAccordingToKJFristonEtAl2003NeuroImage</text>
<polyline fill="none" stroke="black" points="-0.200195,-312 378.2,-312 "/>
<polyline fill="none" stroke="black" points="-0.200195,-288 378.2,-288 "/>
<text text-anchor="start" x="7.7998" y="-270" font-family="Times,serif" font-size="14.00">record()</text>
</g>
<!-- 6 -->
<g id="node7" class="node"><title>6</title>
<polygon fill="none" stroke="black" points="1328.71,-424.8 1328.71,-583.2 1545.29,-583.2 1545.29,-424.8 1328.71,-424.8"/>
<text text-anchor="middle" x="1437" y="-565.2" font-family="Times,serif" font-size="14.00">Monitor</text>
<polyline fill="none" stroke="black" points="1328.71,-558.4 1545.29,-558.4 "/>
<text text-anchor="start" x="1336.71" y="-540.4" font-family="Times,serif" font-size="14.00">dt : NoneType</text>
<text text-anchor="start" x="1336.71" y="-523.6" font-family="Times,serif" font-size="14.00">voi : NoneType</text>
<text text-anchor="start" x="1336.71" y="-506.8" font-family="Times,serif" font-size="14.00">istep : NoneType, int</text>
<text text-anchor="start" x="1336.71" y="-490" font-family="Times,serif" font-size="14.00">period : Float</text>
<text text-anchor="start" x="1336.71" y="-473.2" font-family="Times,serif" font-size="14.00">variables_of_interest : IntegerArray</text>
<polyline fill="none" stroke="black" points="1328.71,-466.4 1545.29,-466.4 "/>
<text text-anchor="start" x="1336.71" y="-448.4" font-family="Times,serif" font-size="14.00">config_for_sim()</text>
<text text-anchor="start" x="1336.71" y="-431.6" font-family="Times,serif" font-size="14.00">record()</text>
</g>
<!-- 0&#45;&gt;6 -->
<g id="edge2" class="edge"><title>0&#45;&gt;6</title>
<path fill="none" stroke="black" d="M256.767,-336.936C294.165,-355.173 342.025,-375.961 387,-388 716.518,-476.204 1121.55,-496.944 1318.37,-501.691"/>
<polygon fill="none" stroke="black" points="1318.37,-505.192 1328.45,-501.925 1318.53,-498.194 1318.37,-505.192"/>
</g>
<!-- 1 -->
<g id="node2" class="node"><title>1</title>
<polygon fill="none" stroke="black" points="396.023,-220.8 396.023,-379.2 669.977,-379.2 669.977,-220.8 396.023,-220.8"/>
<text text-anchor="middle" x="533" y="-361.2" font-family="Times,serif" font-size="14.00">Bold</text>
<polyline fill="none" stroke="black" points="396.023,-354.4 669.977,-354.4 "/>
<text text-anchor="start" x="404.023" y="-336.4" font-family="Times,serif" font-size="14.00">hemodynamic_response_function : NoneType</text>
<text text-anchor="start" x="404.023" y="-319.6" font-family="Times,serif" font-size="14.00">hrf_kernel : HRFKernelEquation</text>
<text text-anchor="start" x="404.023" y="-302.8" font-family="Times,serif" font-size="14.00">hrf_length : Float</text>
<text text-anchor="start" x="404.023" y="-286" font-family="Times,serif" font-size="14.00">period : Float</text>
<polyline fill="none" stroke="black" points="396.023,-279.2 669.977,-279.2 "/>
<text text-anchor="start" x="404.023" y="-261.2" font-family="Times,serif" font-size="14.00">config_for_sim()</text>
<text text-anchor="start" x="404.023" y="-244.4" font-family="Times,serif" font-size="14.00">compute_hrf()</text>
<text text-anchor="start" x="404.023" y="-227.6" font-family="Times,serif" font-size="14.00">record()</text>
</g>
<!-- 1&#45;&gt;6 -->
<g id="edge4" class="edge"><title>1&#45;&gt;6</title>
<path fill="none" stroke="black" d="M656.425,-379.232C663.599,-382.459 670.818,-385.416 678,-388 895.132,-466.128 1165.76,-491.179 1318.18,-499.211"/>
<polygon fill="none" stroke="black" points="1318.34,-502.723 1328.5,-499.738 1318.69,-495.732 1318.34,-502.723"/>
</g>
<!-- 2 -->
<g id="node3" class="node"><title>2</title>
<polygon fill="none" stroke="black" points="404.731,-42.8 404.731,-133.2 527.269,-133.2 527.269,-42.8 404.731,-42.8"/>
<text text-anchor="middle" x="466" y="-115.2" font-family="Times,serif" font-size="14.00">BoldMultithreaded</text>
<polyline fill="none" stroke="black" points="404.731,-108.4 527.269,-108.4 "/>
<polyline fill="none" stroke="black" points="404.731,-84.4 527.269,-84.4 "/>
<text text-anchor="start" x="412.731" y="-66.4" font-family="Times,serif" font-size="14.00">config_for_sim()</text>
<text text-anchor="start" x="412.731" y="-49.6" font-family="Times,serif" font-size="14.00">record()</text>
</g>
<!-- 2&#45;&gt;1 -->
<g id="edge6" class="edge"><title>2&#45;&gt;1</title>
<path fill="none" stroke="black" d="M480.127,-133.279C487.308,-155.785 496.298,-183.963 504.817,-210.665"/>
<polygon fill="none" stroke="black" points="501.556,-211.959 507.93,-220.422 508.225,-209.832 501.556,-211.959"/>
</g>
<!-- 3 -->
<g id="node4" class="node"><title>3</title>
<polygon fill="none" stroke="black" points="545.562,-42.4 545.562,-133.6 656.438,-133.6 656.438,-42.4 545.562,-42.4"/>
<text text-anchor="middle" x="601" y="-115.6" font-family="Times,serif" font-size="14.00">BoldRegionROI</text>
<polyline fill="none" stroke="black" points="545.562,-108.8 656.438,-108.8 "/>
<text text-anchor="start" x="553.562" y="-90.8" font-family="Times,serif" font-size="14.00">region_mapping</text>
<polyline fill="none" stroke="black" points="545.562,-84 656.438,-84 "/>
<text text-anchor="start" x="553.562" y="-66" font-family="Times,serif" font-size="14.00">config_for_sim()</text>
<text text-anchor="start" x="553.562" y="-49.2" font-family="Times,serif" font-size="14.00">record()</text>
</g>
<!-- 3&#45;&gt;1 -->
<g id="edge8" class="edge"><title>3&#45;&gt;1</title>
<path fill="none" stroke="black" d="M586.496,-133.793C579.2,-156.322 570.097,-184.437 561.479,-211.051"/>
<polygon fill="none" stroke="black" points="558.081,-210.183 558.33,-220.775 564.741,-212.339 558.081,-210.183"/>
</g>
<!-- 4 -->
<g id="node5" class="node"><title>4</title>
<polygon fill="none" stroke="black" points="687.489,-229.2 687.489,-370.8 972.511,-370.8 972.511,-229.2 687.489,-229.2"/>
<text text-anchor="middle" x="830" y="-352.8" font-family="Times,serif" font-size="14.00">EEG</text>
<polyline fill="none" stroke="black" points="687.489,-346 972.511,-346 "/>
<text text-anchor="start" x="695.489" y="-328" font-family="Times,serif" font-size="14.00">projection_matrix_data : ProjectionSurfaceEEG</text>
<text text-anchor="start" x="695.489" y="-311.2" font-family="Times,serif" font-size="14.00">projection_matrix_data : ProjectionMatrix</text>
<polyline fill="none" stroke="black" points="687.489,-304.4 972.511,-304.4 "/>
<text text-anchor="start" x="695.489" y="-286.4" font-family="Times,serif" font-size="14.00">config_for_sim()</text>
<text text-anchor="start" x="695.489" y="-269.6" font-family="Times,serif" font-size="14.00">projection_matrix()</text>
<text text-anchor="start" x="695.489" y="-252.8" font-family="Times,serif" font-size="14.00">record()</text>
<text text-anchor="start" x="695.489" y="-236" font-family="Times,serif" font-size="14.00">sensors()</text>
</g>
<!-- 4&#45;&gt;6 -->
<g id="edge10" class="edge"><title>4&#45;&gt;6</title>
<path fill="none" stroke="black" d="M944.55,-370.869C956.963,-377.135 969.594,-382.992 982,-388 1092.44,-432.586 1225.1,-463.749 1318.6,-482.282"/>
<polygon fill="none" stroke="black" points="1318.18,-485.765 1328.67,-484.257 1319.53,-478.896 1318.18,-485.765"/>
</g>
<!-- 5 -->
<g id="node6" class="node"><title>5</title>
<polygon fill="none" stroke="black" points="990.757,-263.2 990.757,-336.8 1091.24,-336.8 1091.24,-263.2 990.757,-263.2"/>
<text text-anchor="middle" x="1041" y="-318.8" font-family="Times,serif" font-size="14.00">GlobalAverage</text>
<polyline fill="none" stroke="black" points="990.757,-312 1091.24,-312 "/>
<polyline fill="none" stroke="black" points="990.757,-288 1091.24,-288 "/>
<text text-anchor="start" x="998.757" y="-270" font-family="Times,serif" font-size="14.00">record()</text>
</g>
<!-- 5&#45;&gt;6 -->
<g id="edge12" class="edge"><title>5&#45;&gt;6</title>
<path fill="none" stroke="black" d="M1058.7,-336.879C1068.93,-354.423 1083.3,-374.593 1101,-388 1164.58,-436.177 1249.72,-465.031 1318.39,-481.788"/>
<polygon fill="none" stroke="black" points="1317.86,-485.259 1328.4,-484.174 1319.48,-478.45 1317.86,-485.259"/>
</g>
<!-- 7 -->
<g id="node8" class="node"><title>7</title>
<polygon fill="none" stroke="black" points="1109.71,-212.4 1109.71,-387.6 1326.29,-387.6 1326.29,-212.4 1109.71,-212.4"/>
<text text-anchor="middle" x="1218" y="-369.6" font-family="Times,serif" font-size="14.00">Raw</text>
<polyline fill="none" stroke="black" points="1109.71,-362.8 1326.29,-362.8 "/>
<text text-anchor="start" x="1117.71" y="-344.8" font-family="Times,serif" font-size="14.00">dt</text>
<text text-anchor="start" x="1117.71" y="-328" font-family="Times,serif" font-size="14.00">period</text>
<text text-anchor="start" x="1117.71" y="-311.2" font-family="Times,serif" font-size="14.00">istep : int</text>
<text text-anchor="start" x="1117.71" y="-294.4" font-family="Times,serif" font-size="14.00">voi</text>
<text text-anchor="start" x="1117.71" y="-277.6" font-family="Times,serif" font-size="14.00">period : Float</text>
<text text-anchor="start" x="1117.71" y="-260.8" font-family="Times,serif" font-size="14.00">variables_of_interest : IntegerArray</text>
<polyline fill="none" stroke="black" points="1109.71,-254 1326.29,-254 "/>
<text text-anchor="start" x="1117.71" y="-236" font-family="Times,serif" font-size="14.00">config_for_sim()</text>
<text text-anchor="start" x="1117.71" y="-219.2" font-family="Times,serif" font-size="14.00">record()</text>
</g>
<!-- 7&#45;&gt;6 -->
<g id="edge14" class="edge"><title>7&#45;&gt;6</title>
<path fill="none" stroke="black" d="M1312.15,-387.838C1322.88,-397.743 1333.82,-407.833 1344.54,-417.717"/>
<polygon fill="none" stroke="black" points="1342.19,-420.315 1351.92,-424.522 1346.94,-415.169 1342.19,-420.315"/>
</g>
<!-- 8 -->
<g id="node9" class="node"><title>8</title>
<polygon fill="none" stroke="black" points="1344.35,-229.2 1344.35,-370.8 1529.65,-370.8 1529.65,-229.2 1344.35,-229.2"/>
<text text-anchor="middle" x="1437" y="-352.8" font-family="Times,serif" font-size="14.00">SEEG</text>
<polyline fill="none" stroke="black" points="1344.35,-346 1529.65,-346 "/>
<text text-anchor="start" x="1352.35" y="-328" font-family="Times,serif" font-size="14.00">projection_matrix : NoneType</text>
<text text-anchor="start" x="1352.35" y="-311.2" font-family="Times,serif" font-size="14.00">sensors : SensorsInternal</text>
<text text-anchor="start" x="1352.35" y="-294.4" font-family="Times,serif" font-size="14.00">sensors : SensorsInternal</text>
<text text-anchor="start" x="1352.35" y="-277.6" font-family="Times,serif" font-size="14.00">sigma : Float</text>
<polyline fill="none" stroke="black" points="1344.35,-270.8 1529.65,-270.8 "/>
<text text-anchor="start" x="1352.35" y="-252.8" font-family="Times,serif" font-size="14.00">config_for_sim()</text>
<text text-anchor="start" x="1352.35" y="-236" font-family="Times,serif" font-size="14.00">record()</text>
</g>
<!-- 8&#45;&gt;6 -->
<g id="edge16" class="edge"><title>8&#45;&gt;6</title>
<path fill="none" stroke="black" d="M1437,-371.083C1437,-385.156 1437,-400.115 1437,-414.714"/>
<polygon fill="none" stroke="black" points="1433.5,-414.748 1437,-424.748 1440.5,-414.748 1433.5,-414.748"/>
</g>
<!-- 9 -->
<g id="node10" class="node"><title>9</title>
<polygon fill="none" stroke="black" points="1547.86,-229.2 1547.86,-370.8 1720.14,-370.8 1720.14,-229.2 1547.86,-229.2"/>
<text text-anchor="middle" x="1634" y="-352.8" font-family="Times,serif" font-size="14.00">SpatialAverage</text>
<polyline fill="none" stroke="black" points="1547.86,-346 1720.14,-346 "/>
<text text-anchor="start" x="1555.86" y="-328" font-family="Times,serif" font-size="14.00">spatial_mean : NoneType</text>
<text text-anchor="start" x="1555.86" y="-311.2" font-family="Times,serif" font-size="14.00">spatial_mask</text>
<text text-anchor="start" x="1555.86" y="-294.4" font-family="Times,serif" font-size="14.00">default_mask : Enumerate</text>
<text text-anchor="start" x="1555.86" y="-277.6" font-family="Times,serif" font-size="14.00">spatial_mask : IntegerArray</text>
<polyline fill="none" stroke="black" points="1547.86,-270.8 1720.14,-270.8 "/>
<text text-anchor="start" x="1555.86" y="-252.8" font-family="Times,serif" font-size="14.00">config_for_sim()</text>
<text text-anchor="start" x="1555.86" y="-236" font-family="Times,serif" font-size="14.00">record()</text>
</g>
<!-- 9&#45;&gt;6 -->
<g id="edge18" class="edge"><title>9&#45;&gt;6</title>
<path fill="none" stroke="black" d="M1565.65,-371.083C1551.14,-385.968 1535.65,-401.844 1520.64,-417.237"/>
<polygon fill="none" stroke="black" points="1517.79,-415.145 1513.32,-424.748 1522.8,-420.032 1517.79,-415.145"/>
</g>
<!-- 10 -->
<g id="node11" class="node"><title>10</title>
<polygon fill="none" stroke="black" points="1738.35,-237.6 1738.35,-362.4 1923.65,-362.4 1923.65,-237.6 1738.35,-237.6"/>
<text text-anchor="middle" x="1831" y="-344.4" font-family="Times,serif" font-size="14.00">SphericalEEG</text>
<polyline fill="none" stroke="black" points="1738.35,-337.6 1923.65,-337.6 "/>
<text text-anchor="start" x="1746.35" y="-319.6" font-family="Times,serif" font-size="14.00">projection_matrix : NoneType</text>
<text text-anchor="start" x="1746.35" y="-302.8" font-family="Times,serif" font-size="14.00">sensors : SensorsEEG</text>
<text text-anchor="start" x="1746.35" y="-286" font-family="Times,serif" font-size="14.00">sigma : Float</text>
<polyline fill="none" stroke="black" points="1738.35,-279.2 1923.65,-279.2 "/>
<text text-anchor="start" x="1746.35" y="-261.2" font-family="Times,serif" font-size="14.00">config_for_sim()</text>
<text text-anchor="start" x="1746.35" y="-244.4" font-family="Times,serif" font-size="14.00">record()</text>
</g>
<!-- 10&#45;&gt;6 -->
<g id="edge20" class="edge"><title>10&#45;&gt;6</title>
<path fill="none" stroke="black" d="M1765.08,-362.59C1753.53,-371.783 1741.27,-380.632 1729,-388 1674.91,-420.475 1610.01,-447.1 1555.14,-466.524"/>
<polygon fill="none" stroke="black" points="1553.65,-463.336 1545.37,-469.944 1555.97,-469.943 1553.65,-463.336"/>
</g>
<!-- 11 -->
<g id="node12" class="node"><title>11</title>
<polygon fill="none" stroke="black" points="1941.35,-246 1941.35,-354 2126.65,-354 2126.65,-246 1941.35,-246"/>
<text text-anchor="middle" x="2034" y="-336" font-family="Times,serif" font-size="14.00">SphericalMEG</text>
<polyline fill="none" stroke="black" points="1941.35,-329.2 2126.65,-329.2 "/>
<text text-anchor="start" x="1949.35" y="-311.2" font-family="Times,serif" font-size="14.00">projection_matrix : NoneType</text>
<text text-anchor="start" x="1949.35" y="-294.4" font-family="Times,serif" font-size="14.00">sensors : SensorsMEG</text>
<polyline fill="none" stroke="black" points="1941.35,-287.6 2126.65,-287.6 "/>
<text text-anchor="start" x="1949.35" y="-269.6" font-family="Times,serif" font-size="14.00">config_for_sim()</text>
<text text-anchor="start" x="1949.35" y="-252.8" font-family="Times,serif" font-size="14.00">record()</text>
</g>
<!-- 11&#45;&gt;6 -->
<g id="edge22" class="edge"><title>11&#45;&gt;6</title>
<path fill="none" stroke="black" d="M1981.38,-354.121C1966.44,-366.8 1949.46,-379.194 1932,-388 1811.94,-448.572 1659.36,-477.782 1555.56,-491.504"/>
<polygon fill="none" stroke="black" points="1554.82,-488.07 1545.35,-492.824 1555.72,-495.012 1554.82,-488.07"/>
</g>
<!-- 12 -->
<g id="node13" class="node"><title>12</title>
<polygon fill="none" stroke="black" points="2145.11,-263.2 2145.11,-336.8 2224.89,-336.8 2224.89,-263.2 2145.11,-263.2"/>
<text text-anchor="middle" x="2185" y="-318.8" font-family="Times,serif" font-size="14.00">SubSample</text>
<polyline fill="none" stroke="black" points="2145.11,-312 2224.89,-312 "/>
<polyline fill="none" stroke="black" points="2145.11,-288 2224.89,-288 "/>
<text text-anchor="start" x="2153.11" y="-270" font-family="Times,serif" font-size="14.00">record()</text>
</g>
<!-- 12&#45;&gt;6 -->
<g id="edge24" class="edge"><title>12&#45;&gt;6</title>
<path fill="none" stroke="black" d="M2172.79,-337.161C2164.84,-355.23 2152.61,-375.791 2135,-388 2043.22,-451.636 1729.53,-482.897 1555.58,-495.665"/>
<polygon fill="none" stroke="black" points="1555.07,-492.192 1545.35,-496.406 1555.58,-499.174 1555.07,-492.192"/>
</g>
<!-- 13 -->
<g id="node14" class="node"><title>13</title>
<polygon fill="none" stroke="black" points="2243.09,-254.8 2243.09,-345.2 2358.91,-345.2 2358.91,-254.8 2243.09,-254.8"/>
<text text-anchor="middle" x="2301" y="-327.2" font-family="Times,serif" font-size="14.00">TemporalAverage</text>
<polyline fill="none" stroke="black" points="2243.09,-320.4 2358.91,-320.4 "/>
<polyline fill="none" stroke="black" points="2243.09,-296.4 2358.91,-296.4 "/>
<text text-anchor="start" x="2251.09" y="-278.4" font-family="Times,serif" font-size="14.00">config_for_sim()</text>
<text text-anchor="start" x="2251.09" y="-261.6" font-family="Times,serif" font-size="14.00">record()</text>
</g>
<!-- 13&#45;&gt;6 -->
<g id="edge26" class="edge"><title>13&#45;&gt;6</title>
<path fill="none" stroke="black" d="M2276.11,-345.56C2264.98,-361.454 2250.41,-377.904 2233,-388 2120.26,-453.364 1748.74,-484.548 1555.75,-496.646"/>
<polygon fill="none" stroke="black" points="1555.33,-493.165 1545.56,-497.277 1555.76,-500.152 1555.33,-493.165"/>
</g>
<!-- 14 -->
<g id="node15" class="node"><title>14</title>
<polygon fill="none" stroke="black" points="674.689,-0.4 674.689,-175.6 779.311,-175.6 779.311,-0.4 674.689,-0.4"/>
<text text-anchor="middle" x="727" y="-157.6" font-family="Times,serif" font-size="14.00">config</text>
<polyline fill="none" stroke="black" points="674.689,-150.8 779.311,-150.8 "/>
<text text-anchor="start" x="682.689" y="-132.8" font-family="Times,serif" font-size="14.00">tau : Float</text>
<text text-anchor="start" x="682.689" y="-116" font-family="Times,serif" font-size="14.00">kappa : Float</text>
<text text-anchor="start" x="682.689" y="-99.2" font-family="Times,serif" font-size="14.00">period : Float</text>
<text text-anchor="start" x="682.689" y="-82.4" font-family="Times,serif" font-size="14.00">rho : Float</text>
<text text-anchor="start" x="682.689" y="-65.6" font-family="Times,serif" font-size="14.00">alpha : Float</text>
<text text-anchor="start" x="682.689" y="-48.8" font-family="Times,serif" font-size="14.00">nvcvar : Integer</text>
<text text-anchor="start" x="682.689" y="-32" font-family="Times,serif" font-size="14.00">gamma : Float</text>
<polyline fill="none" stroke="black" points="674.689,-25.2 779.311,-25.2 "/>
<text text-anchor="middle" x="727" y="-7.2" font-family="Times,serif" font-size="14.00"> </text>
</g>
</g>
</svg>
