<?xml version="1.0" encoding="UTF-8" standalone="no"?>
<!DOCTYPE svg PUBLIC "-//W3C//DTD SVG 1.1//EN"
 "http://www.w3.org/Graphics/SVG/1.1/DTD/svg11.dtd">
<!-- Generated by graphviz version 2.28.0 (20111028.1807)
 -->
<!-- Title: classes_integrators Pages: 1 -->
<svg width="664pt" height="566pt"
 viewBox="0.00 0.00 664.00 566.00" xmlns="http://www.w3.org/2000/svg" xmlns:xlink="http://www.w3.org/1999/xlink">
<g id="graph1" class="graph" transform="scale(1 1) rotate(0) translate(4 562)">
<title>classes_integrators</title>
<polygon fill="white" stroke="white" points="-4,5 -4,-562 661,-562 661,5 -4,5"/>
<!-- 0 -->
<g id="node1" class="node"><title>0</title>
<polygon fill="none" stroke="black" points="-0.258789,-258.4 -0.258789,-349.6 122.259,-349.6 122.259,-258.4 -0.258789,-258.4"/>
<text text-anchor="middle" x="61" y="-331.6" font-family="Times,serif" font-size="14.00">EulerDeterministic</text>
<polyline fill="none" stroke="black" points="-0.258789,-324.8 122.259,-324.8 "/>
<text text-anchor="start" x="7.74121" y="-306.8" font-family="Times,serif" font-size="14.00">dX</text>
<text text-anchor="start" x="7.74121" y="-290" font-family="Times,serif" font-size="14.00">device_info</text>
<polyline fill="none" stroke="black" points="-0.258789,-283.2 122.259,-283.2 "/>
<text text-anchor="start" x="7.74121" y="-265.2" font-family="Times,serif" font-size="14.00">scheme()</text>
</g>
<!-- 5 -->
<g id="node6" class="node"><title>5</title>
<polygon fill="none" stroke="black" points="241.403,-482.8 241.403,-557.2 312.597,-557.2 312.597,-482.8 241.403,-482.8"/>
<text text-anchor="middle" x="277" y="-539.2" font-family="Times,serif" font-size="14.00">Integrator</text>
<polyline fill="none" stroke="black" points="241.403,-532.4 312.597,-532.4 "/>
<text text-anchor="start" x="249.403" y="-514.4" font-family="Times,serif" font-size="14.00">dt : Float</text>
<polyline fill="none" stroke="black" points="241.403,-507.6 312.597,-507.6 "/>
<text text-anchor="start" x="249.403" y="-489.6" font-family="Times,serif" font-size="14.00">scheme()</text>
</g>
<!-- 0&#45;&gt;5 -->
<g id="edge2" class="edge"><title>0&#45;&gt;5</title>
<path fill="none" stroke="black" d="M97.1707,-349.611C120.781,-377.761 152.894,-414.285 184,-444 199.326,-458.641 217.236,-473.544 233.223,-486.166"/>
<polygon fill="none" stroke="black" points="231.351,-489.145 241.385,-492.546 235.662,-483.63 231.351,-489.145"/>
</g>
<!-- 1 -->
<g id="node2" class="node"><title>1</title>
<polygon fill="none" stroke="black" points="209.069,-164.8 209.069,-239.2 312.931,-239.2 312.931,-164.8 209.069,-164.8"/>
<text text-anchor="middle" x="261" y="-221.2" font-family="Times,serif" font-size="14.00">EulerStochastic</text>
<polyline fill="none" stroke="black" points="209.069,-214.4 312.931,-214.4 "/>
<text text-anchor="start" x="217.069" y="-196.4" font-family="Times,serif" font-size="14.00">device_info</text>
<polyline fill="none" stroke="black" points="209.069,-189.6 312.931,-189.6 "/>
<text text-anchor="start" x="217.069" y="-171.6" font-family="Times,serif" font-size="14.00">scheme()</text>
</g>
<!-- 6 -->
<g id="node7" class="node"><title>6</title>
<polygon fill="none" stroke="black" points="212.631,-368.8 212.631,-443.2 341.369,-443.2 341.369,-368.8 212.631,-368.8"/>
<text text-anchor="middle" x="277" y="-425.2" font-family="Times,serif" font-size="14.00">IntegratorStochastic</text>
<polyline fill="none" stroke="black" points="212.631,-418.4 341.369,-418.4 "/>
<text text-anchor="start" x="220.631" y="-400.4" font-family="Times,serif" font-size="14.00">noise : Noise</text>
<polyline fill="none" stroke="black" points="212.631,-393.6 341.369,-393.6 "/>
<text text-anchor="start" x="220.631" y="-375.6" font-family="Times,serif" font-size="14.00">configure()</text>
</g>
<!-- 1&#45;&gt;6 -->
<g id="edge4" class="edge"><title>1&#45;&gt;6</title>
<path fill="none" stroke="black" d="M263.897,-239.581C266.537,-272.901 270.447,-322.275 273.309,-358.407"/>
<polygon fill="none" stroke="black" points="269.845,-358.999 274.124,-368.691 276.823,-358.446 269.845,-358.999"/>
</g>
<!-- 2 -->
<g id="node3" class="node"><title>2</title>
<polygon fill="none" stroke="black" points="127.738,-266.8 127.738,-341.2 250.262,-341.2 250.262,-266.8 127.738,-266.8"/>
<text text-anchor="middle" x="189" y="-323.2" font-family="Times,serif" font-size="14.00">HeunDeterministic</text>
<polyline fill="none" stroke="black" points="127.738,-316.4 250.262,-316.4 "/>
<text text-anchor="start" x="135.738" y="-298.4" font-family="Times,serif" font-size="14.00">device_info</text>
<polyline fill="none" stroke="black" points="127.738,-291.6 250.262,-291.6 "/>
<text text-anchor="start" x="135.738" y="-273.6" font-family="Times,serif" font-size="14.00">scheme()</text>
</g>
<!-- 2&#45;&gt;5 -->
<g id="edge6" class="edge"><title>2&#45;&gt;5</title>
<path fill="none" stroke="black" d="M186.587,-341.283C186.103,-370.395 188.761,-411.604 204,-444 211.046,-458.978 222.32,-472.793 233.922,-484.376"/>
<polygon fill="none" stroke="black" points="231.507,-486.909 241.153,-491.29 236.344,-481.849 231.507,-486.909"/>
</g>
<!-- 3 -->
<g id="node4" class="node"><title>3</title>
<polygon fill="none" stroke="black" points="331.065,-164.8 331.065,-239.2 434.935,-239.2 434.935,-164.8 331.065,-164.8"/>
<text text-anchor="middle" x="383" y="-221.2" font-family="Times,serif" font-size="14.00">HeunStochastic</text>
<polyline fill="none" stroke="black" points="331.065,-214.4 434.935,-214.4 "/>
<text text-anchor="start" x="339.065" y="-196.4" font-family="Times,serif" font-size="14.00">device_info</text>
<polyline fill="none" stroke="black" points="331.065,-189.6 434.935,-189.6 "/>
<text text-anchor="start" x="339.065" y="-171.6" font-family="Times,serif" font-size="14.00">scheme()</text>
</g>
<!-- 3&#45;&gt;6 -->
<g id="edge8" class="edge"><title>3&#45;&gt;6</title>
<path fill="none" stroke="black" d="M363.804,-239.581C346.094,-273.33 319.742,-323.549 300.721,-359.796"/>
<polygon fill="none" stroke="black" points="297.6,-358.21 296.053,-368.691 303.799,-361.463 297.6,-358.21"/>
</g>
<!-- 4 -->
<g id="node5" class="node"><title>4</title>
<polygon fill="none" stroke="black" points="359.348,-369.2 359.348,-442.8 426.652,-442.8 426.652,-369.2 359.348,-369.2"/>
<text text-anchor="middle" x="393" y="-424.8" font-family="Times,serif" font-size="14.00">Identity</text>
<polyline fill="none" stroke="black" points="359.348,-418 426.652,-418 "/>
<polyline fill="none" stroke="black" points="359.348,-394 426.652,-394 "/>
<text text-anchor="start" x="367.348" y="-376" font-family="Times,serif" font-size="14.00">scheme()</text>
</g>
<!-- 4&#45;&gt;5 -->
<g id="edge10" class="edge"><title>4&#45;&gt;5</title>
<path fill="none" stroke="black" d="M359.136,-439.696C346.95,-451.462 333.033,-464.899 320.161,-477.327"/>
<polygon fill="none" stroke="black" points="317.487,-475.044 312.724,-484.507 322.35,-480.079 317.487,-475.044"/>
</g>
<!-- 6&#45;&gt;5 -->
<g id="edge12" class="edge"><title>6&#45;&gt;5</title>
<path fill="none" stroke="black" d="M277,-443.363C277,-452.557 277,-462.559 277,-472.189"/>
<polygon fill="none" stroke="black" points="273.5,-472.436 277,-482.436 280.5,-472.436 273.5,-472.436"/>
</g>
<!-- 7 -->
<g id="node8" class="node"><title>7</title>
<polygon fill="none" stroke="black" points="444.803,-368.8 444.803,-443.2 655.197,-443.2 655.197,-368.8 444.803,-368.8"/>
<text text-anchor="middle" x="550" y="-425.2" font-family="Times,serif" font-size="14.00">RungeKutta4thOrderDeterministic</text>
<polyline fill="none" stroke="black" points="444.803,-418.4 655.197,-418.4 "/>
<text text-anchor="start" x="452.803" y="-400.4" font-family="Times,serif" font-size="14.00">you_have_been_warned : bool</text>
<polyline fill="none" stroke="black" points="444.803,-393.6 655.197,-393.6 "/>
<text text-anchor="start" x="452.803" y="-375.6" font-family="Times,serif" font-size="14.00">scheme()</text>
</g>
<!-- 7&#45;&gt;5 -->
<g id="edge14" class="edge"><title>7&#45;&gt;5</title>
<path fill="none" stroke="black" d="M461.742,-443.209C415.265,-462.276 360.226,-484.856 322.383,-500.381"/>
<polygon fill="none" stroke="black" points="320.592,-497.333 312.669,-504.367 323.249,-503.809 320.592,-497.333"/>
</g>
<!-- 8 -->
<g id="node9" class="node"><title>8</title>
<polygon fill="none" stroke="black" points="149.248,-1 149.248,-109 292.752,-109 292.752,-1 149.248,-1"/>
<text text-anchor="middle" x="221" y="-91" font-family="Times,serif" font-size="14.00">integrator_device_info</text>
<polyline fill="none" stroke="black" points="149.248,-84.2 292.752,-84.2 "/>
<text text-anchor="start" x="157.248" y="-66.2" font-family="Times,serif" font-size="14.00">inst</text>
<polyline fill="none" stroke="black" points="149.248,-59.4 292.752,-59.4 "/>
<text text-anchor="start" x="157.248" y="-41.4" font-family="Times,serif" font-size="14.00">kernel()</text>
<text text-anchor="start" x="157.248" y="-24.6" font-family="Times,serif" font-size="14.00">n_inpr()</text>
<text text-anchor="start" x="157.248" y="-7.8" font-family="Times,serif" font-size="14.00">inpr()</text>
</g>
<!-- 8&#45;&gt;0 -->
<g id="edge16" class="edge"><title>8&#45;&gt;0</title>
<path fill="none" stroke="black" d="M149.017,-86.5086C130.974,-97.24 113.262,-110.979 100.917,-128 76.0968,-162.223 66.3728,-209.32 62.7154,-246.035"/>
<polygon fill="black" stroke="black" points="62.7102,-246.098 66.188,-252.415 61.6945,-258.054 58.2167,-251.737 62.7102,-246.098"/>
<text text-anchor="middle" x="134.042" y="-131.4" font-family="Times,serif" font-size="14.00" fill="green">device_info</text>
</g>
<!-- 8&#45;&gt;1 -->
<g id="edge18" class="edge"><title>8&#45;&gt;1</title>
<path fill="none" stroke="black" d="M238.562,-109.33C240.471,-115.601 242.326,-121.928 244,-128 246.184,-135.923 248.325,-144.379 250.312,-152.624"/>
<polygon fill="black" stroke="black" points="250.349,-152.785 255.618,-157.709 253.098,-164.466 247.83,-159.541 250.349,-152.785"/>
<text text-anchor="middle" x="282.042" y="-131.4" font-family="Times,serif" font-size="14.00" fill="green">device_info</text>
</g>
<!-- 8&#45;&gt;2 -->
<g id="edge20" class="edge"><title>8&#45;&gt;2</title>
<path fill="none" stroke="black" d="M181.472,-109.393C178.416,-115.442 175.793,-121.702 173.917,-128 161.533,-169.567 167.565,-218.964 175.373,-254.66"/>
<polygon fill="black" stroke="black" points="175.451,-254.995 180.711,-259.927 178.182,-266.68 172.921,-261.747 175.451,-254.995"/>
<text text-anchor="middle" x="207.042" y="-131.4" font-family="Times,serif" font-size="14.00" fill="green">device_info</text>
</g>
<!-- 8&#45;&gt;3 -->
<g id="edge22" class="edge"><title>8&#45;&gt;3</title>
<path fill="none" stroke="black" d="M292.842,-105.954C301.893,-113.06 310.832,-120.507 319,-128 328.129,-136.374 337.291,-145.957 345.716,-155.365"/>
<polygon fill="black" stroke="black" points="345.956,-155.639 352.919,-157.514 353.865,-164.663 346.903,-162.787 345.956,-155.639"/>
<text text-anchor="middle" x="370.042" y="-131.4" font-family="Times,serif" font-size="14.00" fill="green">device_info</text>
</g>
</g>
</svg>
