<?xml version="1.0" encoding="UTF-8" standalone="no"?>
<!DOCTYPE svg PUBLIC "-//W3C//DTD SVG 1.1//EN"
 "http://www.w3.org/Graphics/SVG/1.1/DTD/svg11.dtd">
<!-- Generated by graphviz version 2.28.0 (20111028.1807)
 -->
<!-- Title: classes_noise Pages: 1 -->
<svg width="409pt" height="784pt"
 viewBox="0.00 0.00 409.00 784.00" xmlns="http://www.w3.org/2000/svg" xmlns:xlink="http://www.w3.org/1999/xlink">
<g id="graph1" class="graph" transform="scale(1 1) rotate(0) translate(4 780)">
<title>classes_noise</title>
<polygon fill="white" stroke="white" points="-4,5 -4,-780 406,-780 406,5 -4,5"/>
<!-- 0 -->
<g id="node1" class="node"><title>0</title>
<polygon fill="none" stroke="black" points="-0.827637,-258.4 -0.827637,-349.6 110.828,-349.6 110.828,-258.4 -0.827637,-258.4"/>
<text text-anchor="middle" x="55" y="-331.6" font-family="Times,serif" font-size="14.00">Additive</text>
<polyline fill="none" stroke="black" points="-0.827637,-324.8 110.828,-324.8 "/>
<text text-anchor="start" x="7.17236" y="-306.8" font-family="Times,serif" font-size="14.00">device_info</text>
<text text-anchor="start" x="7.17236" y="-290" font-family="Times,serif" font-size="14.00">nsig : FloatArray</text>
<polyline fill="none" stroke="black" points="-0.827637,-283.2 110.828,-283.2 "/>
<text text-anchor="start" x="7.17236" y="-265.2" font-family="Times,serif" font-size="14.00">gfun()</text>
</g>
<!-- 3 -->
<g id="node4" class="node"><title>3</title>
<polygon fill="none" stroke="black" points="99.9102,-566.6 99.9102,-775.4 234.09,-775.4 234.09,-566.6 99.9102,-566.6"/>
<text text-anchor="middle" x="167" y="-757.4" font-family="Times,serif" font-size="14.00">Noise</text>
<polyline fill="none" stroke="black" points="99.9102,-750.6 234.09,-750.6 "/>
<text text-anchor="start" x="107.91" y="-732.6" font-family="Times,serif" font-size="14.00">dt : NoneType</text>
<text text-anchor="start" x="107.91" y="-715.8" font-family="Times,serif" font-size="14.00">ntau : Float</text>
<text text-anchor="start" x="107.91" y="-699" font-family="Times,serif" font-size="14.00">random_stream</text>
<polyline fill="none" stroke="black" points="99.9102,-692.2 234.09,-692.2 "/>
<text text-anchor="start" x="107.91" y="-674.2" font-family="Times,serif" font-size="14.00">configure_white()</text>
<text text-anchor="start" x="107.91" y="-657.4" font-family="Times,serif" font-size="14.00">coloured()</text>
<text text-anchor="start" x="107.91" y="-640.6" font-family="Times,serif" font-size="14.00">configure_coloured()</text>
<text text-anchor="start" x="107.91" y="-623.8" font-family="Times,serif" font-size="14.00">truncated_white()</text>
<text text-anchor="start" x="107.91" y="-607" font-family="Times,serif" font-size="14.00">white()</text>
<text text-anchor="start" x="107.91" y="-590.2" font-family="Times,serif" font-size="14.00">generate()</text>
<text text-anchor="start" x="107.91" y="-573.4" font-family="Times,serif" font-size="14.00">configure()</text>
</g>
<!-- 0&#45;&gt;3 -->
<g id="edge2" class="edge"><title>0&#45;&gt;3</title>
<path fill="none" stroke="black" d="M48.2953,-349.812C43.5914,-392.571 40.8295,-458.248 58,-512 66.0026,-537.052 79.4298,-561.674 94.1765,-583.749"/>
<polygon fill="none" stroke="black" points="91.3452,-585.809 99.8844,-592.081 97.12,-581.853 91.3452,-585.809"/>
</g>
<!-- 1 -->
<g id="node2" class="node"><title>1</title>
<polygon fill="none" stroke="black" points="67.4736,-394.4 67.4736,-485.6 266.526,-485.6 266.526,-394.4 67.4736,-394.4"/>
<text text-anchor="middle" x="167" y="-467.6" font-family="Times,serif" font-size="14.00">Multiplicative</text>
<polyline fill="none" stroke="black" points="67.4736,-460.8 266.526,-460.8 "/>
<text text-anchor="start" x="75.4736" y="-442.8" font-family="Times,serif" font-size="14.00">b : TemporalApplicableEquation</text>
<text text-anchor="start" x="75.4736" y="-426" font-family="Times,serif" font-size="14.00">nsig : FloatArray</text>
<polyline fill="none" stroke="black" points="67.4736,-419.2 266.526,-419.2 "/>
<text text-anchor="start" x="75.4736" y="-401.2" font-family="Times,serif" font-size="14.00">gfun()</text>
</g>
<!-- 1&#45;&gt;3 -->
<g id="edge4" class="edge"><title>1&#45;&gt;3</title>
<path fill="none" stroke="black" d="M167,-485.697C167,-505.946 167,-530.905 167,-555.842"/>
<polygon fill="none" stroke="black" points="163.5,-556.136 167,-566.136 170.5,-556.136 163.5,-556.136"/>
</g>
<!-- 2 -->
<g id="node3" class="node"><title>2</title>
<polygon fill="none" stroke="black" points="88.5068,-164.8 88.5068,-239.2 223.493,-239.2 223.493,-164.8 88.5068,-164.8"/>
<text text-anchor="middle" x="156" y="-221.2" font-family="Times,serif" font-size="14.00">MultiplicativeSimple</text>
<polyline fill="none" stroke="black" points="88.5068,-214.4 223.493,-214.4 "/>
<text text-anchor="start" x="96.5068" y="-196.4" font-family="Times,serif" font-size="14.00">device_info</text>
<polyline fill="none" stroke="black" points="88.5068,-189.6 223.493,-189.6 "/>
<text text-anchor="middle" x="156" y="-171.6" font-family="Times,serif" font-size="14.00"> </text>
</g>
<!-- 2&#45;&gt;1 -->
<g id="edge6" class="edge"><title>2&#45;&gt;1</title>
<path fill="none" stroke="black" d="M157.695,-239.358C159.495,-277.983 162.362,-339.498 164.439,-384.044"/>
<polygon fill="none" stroke="black" points="160.947,-384.3 164.908,-394.126 167.939,-383.974 160.947,-384.3"/>
</g>
<!-- 4 -->
<g id="node5" class="node"><title>4</title>
<polygon fill="none" stroke="black" points="284.462,-369.2 284.462,-510.8 401.538,-510.8 401.538,-369.2 284.462,-369.2"/>
<text text-anchor="middle" x="343" y="-492.8" font-family="Times,serif" font-size="14.00">RandomStream</text>
<polyline fill="none" stroke="black" points="284.462,-486 401.538,-486 "/>
<text text-anchor="start" x="292.462" y="-468" font-family="Times,serif" font-size="14.00">wraps</text>
<text text-anchor="start" x="292.462" y="-451.2" font-family="Times,serif" font-size="14.00">defaults : tuple</text>
<text text-anchor="start" x="292.462" y="-434.4" font-family="Times,serif" font-size="14.00">init_seed : Integer</text>
<polyline fill="none" stroke="black" points="284.462,-427.6 401.538,-427.6 "/>
<text text-anchor="start" x="292.462" y="-409.6" font-family="Times,serif" font-size="14.00">reset()</text>
<text text-anchor="start" x="292.462" y="-392.8" font-family="Times,serif" font-size="14.00">set_state()</text>
<text text-anchor="start" x="292.462" y="-376" font-family="Times,serif" font-size="14.00">configure()</text>
</g>
<!-- 4&#45;&gt;3 -->
<g id="edge8" class="edge"><title>4&#45;&gt;3</title>
<path fill="none" stroke="black" d="M289.238,-510.952C274.16,-530.571 257.492,-552.257 241.442,-573.141"/>
<polygon fill="black" stroke="black" points="241.431,-573.155 240.946,-580.35 234.119,-582.67 234.603,-575.475 241.431,-573.155"/>
<text text-anchor="middle" x="314.542" y="-533.4" font-family="Times,serif" font-size="14.00" fill="green">random_stream</text>
</g>
<!-- 5 -->
<g id="node6" class="node"><title>5</title>
<polygon fill="none" stroke="black" points="45.6826,-1 45.6826,-109 164.317,-109 164.317,-1 45.6826,-1"/>
<text text-anchor="middle" x="105" y="-91" font-family="Times,serif" font-size="14.00">noise_device_info</text>
<polyline fill="none" stroke="black" points="45.6826,-84.2 164.317,-84.2 "/>
<text text-anchor="start" x="53.6826" y="-66.2" font-family="Times,serif" font-size="14.00">inst</text>
<polyline fill="none" stroke="black" points="45.6826,-59.4 164.317,-59.4 "/>
<text text-anchor="start" x="53.6826" y="-41.4" font-family="Times,serif" font-size="14.00">kernel()</text>
<text text-anchor="start" x="53.6826" y="-24.6" font-family="Times,serif" font-size="14.00">n_nspr()</text>
<text text-anchor="start" x="53.6826" y="-7.8" font-family="Times,serif" font-size="14.00">nspr()</text>
</g>
<!-- 5&#45;&gt;0 -->
<g id="edge10" class="edge"><title>5&#45;&gt;0</title>
<path fill="none" stroke="black" d="M68.3887,-109.234C65.4047,-115.362 62.8131,-121.683 60.917,-128 49.4755,-166.119 48.1891,-211.019 49.6634,-245.795"/>
<polygon fill="black" stroke="black" points="49.6813,-246.134 53.9939,-251.914 50.3178,-258.117 46.0052,-252.338 49.6813,-246.134"/>
<text text-anchor="middle" x="94.0415" y="-131.4" font-family="Times,serif" font-size="14.00" fill="green">device_info</text>
</g>
<!-- 5&#45;&gt;2 -->
<g id="edge12" class="edge"><title>5&#45;&gt;2</title>
<path fill="none" stroke="black" d="M123.701,-109.169C128.765,-123.566 134.214,-139.061 139.169,-153.146"/>
<polygon fill="black" stroke="black" points="139.213,-153.271 144.977,-157.604 143.194,-164.592 137.43,-160.259 139.213,-153.271"/>
<text text-anchor="middle" x="170.042" y="-131.4" font-family="Times,serif" font-size="14.00" fill="green">device_info</text>
</g>
</g>
</svg>
