<?xml version="1.0" encoding="UTF-8" standalone="no"?>
<!DOCTYPE svg PUBLIC "-//W3C//DTD SVG 1.1//EN"
 "http://www.w3.org/Graphics/SVG/1.1/DTD/svg11.dtd">
<!-- Generated by graphviz version 2.28.0 (20111028.1807)
 -->
<!-- Title: classes_integrators Pages: 1 -->
<svg width="562pt" height="550pt"
 viewBox="0.00 0.00 562.00 550.00" xmlns="http://www.w3.org/2000/svg" xmlns:xlink="http://www.w3.org/1999/xlink">
<g id="graph1" class="graph" transform="scale(1 1) rotate(0) translate(4 546)">
<title>classes_integrators</title>
<polygon fill="white" stroke="white" points="-4,5 -4,-546 559,-546 559,5 -4,5"/>
<!-- 0 -->
<g id="node1" class="node"><title>0</title>
<polygon fill="none" stroke="black" points="-0.258789,-258.8 -0.258789,-333.2 122.259,-333.2 122.259,-258.8 -0.258789,-258.8"/>
<text text-anchor="middle" x="61" y="-315.2" font-family="Times,serif" font-size="14.00">EulerDeterministic</text>
<polyline fill="none" stroke="black" points="-0.258789,-308.4 122.259,-308.4 "/>
<text text-anchor="start" x="7.74121" y="-290.4" font-family="Times,serif" font-size="14.00">device_info</text>
<polyline fill="none" stroke="black" points="-0.258789,-283.6 122.259,-283.6 "/>
<text text-anchor="start" x="7.74121" y="-265.6" font-family="Times,serif" font-size="14.00">scheme()</text>
</g>
<!-- 4 -->
<g id="node5" class="node"><title>4</title>
<polygon fill="none" stroke="black" points="256.403,-466.8 256.403,-541.2 327.597,-541.2 327.597,-466.8 256.403,-466.8"/>
<text text-anchor="middle" x="292" y="-523.2" font-family="Times,serif" font-size="14.00">Integrator</text>
<polyline fill="none" stroke="black" points="256.403,-516.4 327.597,-516.4 "/>
<text text-anchor="start" x="264.403" y="-498.4" font-family="Times,serif" font-size="14.00">dt : Float</text>
<polyline fill="none" stroke="black" points="256.403,-491.6 327.597,-491.6 "/>
<text text-anchor="start" x="264.403" y="-473.6" font-family="Times,serif" font-size="14.00">scheme()</text>
</g>
<!-- 0&#45;&gt;4 -->
<g id="edge2" class="edge"><title>0&#45;&gt;4</title>
<path fill="none" stroke="black" d="M79.2838,-333.364C95.0061,-361.854 119.881,-401.047 150,-428 178.495,-453.5 217.218,-473.204 247.029,-486.004"/>
<polygon fill="none" stroke="black" points="245.794,-489.281 256.37,-489.915 248.498,-482.824 245.794,-489.281"/>
</g>
<!-- 1 -->
<g id="node2" class="node"><title>1</title>
<polygon fill="none" stroke="black" points="204.069,-164.8 204.069,-239.2 307.931,-239.2 307.931,-164.8 204.069,-164.8"/>
<text text-anchor="middle" x="256" y="-221.2" font-family="Times,serif" font-size="14.00">EulerStochastic</text>
<polyline fill="none" stroke="black" points="204.069,-214.4 307.931,-214.4 "/>
<text text-anchor="start" x="212.069" y="-196.4" font-family="Times,serif" font-size="14.00">device_info</text>
<polyline fill="none" stroke="black" points="204.069,-189.6 307.931,-189.6 "/>
<text text-anchor="start" x="212.069" y="-171.6" font-family="Times,serif" font-size="14.00">scheme()</text>
</g>
<!-- 5 -->
<g id="node6" class="node"><title>5</title>
<polygon fill="none" stroke="black" points="158.631,-352.8 158.631,-427.2 287.369,-427.2 287.369,-352.8 158.631,-352.8"/>
<text text-anchor="middle" x="223" y="-409.2" font-family="Times,serif" font-size="14.00">IntegratorStochastic</text>
<polyline fill="none" stroke="black" points="158.631,-402.4 287.369,-402.4 "/>
<text text-anchor="start" x="166.631" y="-384.4" font-family="Times,serif" font-size="14.00">noise : Noise</text>
<polyline fill="none" stroke="black" points="158.631,-377.6 287.369,-377.6 "/>
<text text-anchor="start" x="166.631" y="-359.6" font-family="Times,serif" font-size="14.00">configure()</text>
</g>
<!-- 1&#45;&gt;5 -->
<g id="edge4" class="edge"><title>1&#45;&gt;5</title>
<path fill="none" stroke="black" d="M249.559,-239.304C244.312,-268.877 236.871,-310.819 231.199,-342.787"/>
<polygon fill="none" stroke="black" points="227.726,-342.33 229.425,-352.787 234.618,-343.553 227.726,-342.33"/>
</g>
<!-- 2 -->
<g id="node3" class="node"><title>2</title>
<polygon fill="none" stroke="black" points="267.738,-258.8 267.738,-333.2 390.262,-333.2 390.262,-258.8 267.738,-258.8"/>
<text text-anchor="middle" x="329" y="-315.2" font-family="Times,serif" font-size="14.00">HeunDeterministic</text>
<polyline fill="none" stroke="black" points="267.738,-308.4 390.262,-308.4 "/>
<text text-anchor="start" x="275.738" y="-290.4" font-family="Times,serif" font-size="14.00">device_info</text>
<polyline fill="none" stroke="black" points="267.738,-283.6 390.262,-283.6 "/>
<text text-anchor="start" x="275.738" y="-265.6" font-family="Times,serif" font-size="14.00">scheme()</text>
</g>
<!-- 2&#45;&gt;4 -->
<g id="edge6" class="edge"><title>2&#45;&gt;4</title>
<path fill="none" stroke="black" d="M322.47,-333.354C316.307,-367.668 307.038,-419.274 300.342,-456.554"/>
<polygon fill="none" stroke="black" points="296.85,-456.202 298.527,-466.663 303.739,-457.439 296.85,-456.202"/>
</g>
<!-- 3 -->
<g id="node4" class="node"><title>3</title>
<polygon fill="none" stroke="black" points="82.0654,-164.8 82.0654,-239.2 185.935,-239.2 185.935,-164.8 82.0654,-164.8"/>
<text text-anchor="middle" x="134" y="-221.2" font-family="Times,serif" font-size="14.00">HeunStochastic</text>
<polyline fill="none" stroke="black" points="82.0654,-214.4 185.935,-214.4 "/>
<text text-anchor="start" x="90.0654" y="-196.4" font-family="Times,serif" font-size="14.00">device_info</text>
<polyline fill="none" stroke="black" points="82.0654,-189.6 185.935,-189.6 "/>
<text text-anchor="start" x="90.0654" y="-171.6" font-family="Times,serif" font-size="14.00">scheme()</text>
</g>
<!-- 3&#45;&gt;5 -->
<g id="edge8" class="edge"><title>3&#45;&gt;5</title>
<path fill="none" stroke="black" d="M151.371,-239.304C165.644,-269.133 185.939,-311.546 201.284,-343.615"/>
<polygon fill="none" stroke="black" points="198.199,-345.278 205.672,-352.787 204.513,-342.256 198.199,-345.278"/>
</g>
<!-- 5&#45;&gt;4 -->
<g id="edge10" class="edge"><title>5&#45;&gt;4</title>
<path fill="none" stroke="black" d="M245.402,-427.363C251.368,-437.046 257.885,-447.626 264.106,-457.722"/>
<polygon fill="none" stroke="black" points="261.249,-459.758 269.474,-466.436 267.209,-456.086 261.249,-459.758"/>
</g>
<!-- 6 -->
<g id="node7" class="node"><title>6</title>
<polygon fill="none" stroke="black" points="342.803,-352.8 342.803,-427.2 553.197,-427.2 553.197,-352.8 342.803,-352.8"/>
<text text-anchor="middle" x="448" y="-409.2" font-family="Times,serif" font-size="14.00">RungeKutta4thOrderDeterministic</text>
<polyline fill="none" stroke="black" points="342.803,-402.4 553.197,-402.4 "/>
<text text-anchor="start" x="350.803" y="-384.4" font-family="Times,serif" font-size="14.00">you_have_been_warned : bool</text>
<polyline fill="none" stroke="black" points="342.803,-377.6 553.197,-377.6 "/>
<text text-anchor="start" x="350.803" y="-359.6" font-family="Times,serif" font-size="14.00">scheme()</text>
</g>
<!-- 6&#45;&gt;4 -->
<g id="edge12" class="edge"><title>6&#45;&gt;4</title>
<path fill="none" stroke="black" d="M397.351,-427.363C377.667,-441.496 355.321,-457.539 336.29,-471.202"/>
<polygon fill="none" stroke="black" points="334.161,-468.422 328.079,-477.097 338.243,-474.108 334.161,-468.422"/>
</g>
<!-- 7 -->
<g id="node8" class="node"><title>7</title>
<polygon fill="none" stroke="black" points="124.248,-1 124.248,-109 267.752,-109 267.752,-1 124.248,-1"/>
<text text-anchor="middle" x="196" y="-91" font-family="Times,serif" font-size="14.00">integrator_device_info</text>
<polyline fill="none" stroke="black" points="124.248,-84.2 267.752,-84.2 "/>
<text text-anchor="start" x="132.248" y="-66.2" font-family="Times,serif" font-size="14.00">inst</text>
<polyline fill="none" stroke="black" points="124.248,-59.4 267.752,-59.4 "/>
<text text-anchor="start" x="132.248" y="-41.4" font-family="Times,serif" font-size="14.00">kernel()</text>
<text text-anchor="start" x="132.248" y="-24.6" font-family="Times,serif" font-size="14.00">n_inpr()</text>
<text text-anchor="start" x="132.248" y="-7.8" font-family="Times,serif" font-size="14.00">inpr()</text>
</g>
<!-- 7&#45;&gt;0 -->
<g id="edge14" class="edge"><title>7&#45;&gt;0</title>
<path fill="none" stroke="black" d="M124.201,-87.7968C107.395,-98.3559 91.1426,-111.687 79.917,-128 56.1688,-162.511 53.108,-210.838 54.9999,-246.631"/>
<polygon fill="black" stroke="black" points="55.0085,-246.755 59.4194,-252.459 55.8499,-258.725 51.439,-253.02 55.0085,-246.755"/>
<text text-anchor="middle" x="113.042" y="-131.4" font-family="Times,serif" font-size="14.00" fill="green">device_info</text>
</g>
<!-- 7&#45;&gt;1 -->
<g id="edge16" class="edge"><title>7&#45;&gt;1</title>
<path fill="none" stroke="black" d="M218.001,-109.169C223.959,-123.566 230.37,-139.061 236.198,-153.146"/>
<polygon fill="black" stroke="black" points="236.346,-153.503 242.336,-157.518 240.934,-164.592 234.944,-160.577 236.346,-153.503"/>
<text text-anchor="middle" x="267.042" y="-131.4" font-family="Times,serif" font-size="14.00" fill="green">device_info</text>
</g>
<!-- 7&#45;&gt;2 -->
<g id="edge18" class="edge"><title>7&#45;&gt;2</title>
<path fill="none" stroke="black" d="M267.913,-94.1343C281.3,-103.769 294.152,-115.106 304,-128 329.628,-161.553 334.333,-210.208 333.545,-246.354"/>
<polygon fill="black" stroke="black" points="333.536,-246.581 337.296,-252.734 333.063,-258.572 329.303,-252.419 333.536,-246.581"/>
<text text-anchor="middle" x="348.042" y="-131.4" font-family="Times,serif" font-size="14.00" fill="green">device_info</text>
</g>
<!-- 7&#45;&gt;3 -->
<g id="edge20" class="edge"><title>7&#45;&gt;3</title>
<path fill="none" stroke="black" d="M164.708,-109.226C161.542,-115.46 158.534,-121.806 155.917,-128 152.591,-135.87 149.549,-144.415 146.858,-152.792"/>
<polygon fill="black" stroke="black" points="146.806,-152.962 148.876,-159.87 143.296,-164.437 141.226,-157.53 146.806,-152.962"/>
<text text-anchor="middle" x="189.042" y="-131.4" font-family="Times,serif" font-size="14.00" fill="green">device_info</text>
</g>
</g>
</svg>
