<?xml version="1.0" encoding="UTF-8" standalone="no"?>
<!DOCTYPE svg PUBLIC "-//W3C//DTD SVG 1.1//EN"
 "http://www.w3.org/Graphics/SVG/1.1/DTD/svg11.dtd">
<!-- Generated by graphviz version 2.28.0 (20111028.1807)
 -->
<!-- Title: classes_coupling Pages: 1 -->
<svg width="908pt" height="546pt"
 viewBox="0.00 0.00 908.00 546.00" xmlns="http://www.w3.org/2000/svg" xmlns:xlink="http://www.w3.org/1999/xlink">
<g id="graph1" class="graph" transform="scale(1 1) rotate(0) translate(4 542)">
<title>classes_coupling</title>
<polygon fill="white" stroke="white" points="-4,5 -4,-542 905,-542 905,5 -4,5"/>
<!-- 0 -->
<g id="node1" class="node"><title>0</title>
<polygon fill="none" stroke="black" points="340.9,-463.2 340.9,-536.8 419.1,-536.8 419.1,-463.2 340.9,-463.2"/>
<text text-anchor="middle" x="380" y="-518.8" font-family="Times,serif" font-size="14.00">Coupling</text>
<polyline fill="none" stroke="black" points="340.9,-512 419.1,-512 "/>
<polyline fill="none" stroke="black" points="340.9,-488 419.1,-488 "/>
<text text-anchor="start" x="348.9" y="-470" font-family="Times,serif" font-size="14.00">configure()</text>
</g>
<!-- 1 -->
<g id="node2" class="node"><title>1</title>
<polygon fill="none" stroke="black" points="-0.265625,-248.4 -0.265625,-339.6 94.2656,-339.6 94.2656,-248.4 -0.265625,-248.4"/>
<text text-anchor="middle" x="47" y="-321.6" font-family="Times,serif" font-size="14.00">Difference</text>
<polyline fill="none" stroke="black" points="-0.265625,-314.8 94.2656,-314.8 "/>
<text text-anchor="start" x="7.73438" y="-296.8" font-family="Times,serif" font-size="14.00">a : FloatArray</text>
<text text-anchor="start" x="7.73438" y="-280" font-family="Times,serif" font-size="14.00">device_info</text>
<polyline fill="none" stroke="black" points="-0.265625,-273.2 94.2656,-273.2 "/>
<text text-anchor="middle" x="47" y="-255.2" font-family="Times,serif" font-size="14.00"> </text>
</g>
<!-- 1&#45;&gt;0 -->
<g id="edge2" class="edge"><title>1&#45;&gt;0</title>
<path fill="none" stroke="black" d="M56.3646,-339.773C64.4531,-367.758 78.9335,-402.453 104,-424 168.606,-479.534 270.587,-494.318 330.825,-498.029"/>
<polygon fill="none" stroke="black" points="330.672,-501.526 340.845,-498.568 331.048,-494.536 330.672,-501.526"/>
</g>
<!-- 2 -->
<g id="node3" class="node"><title>2</title>
<polygon fill="none" stroke="black" points="438.562,-223.2 438.562,-364.8 577.438,-364.8 577.438,-223.2 438.562,-223.2"/>
<text text-anchor="middle" x="508" y="-346.8" font-family="Times,serif" font-size="14.00">HyperbolicTangent</text>
<polyline fill="none" stroke="black" points="438.562,-340 577.438,-340 "/>
<text text-anchor="start" x="446.562" y="-322" font-family="Times,serif" font-size="14.00">a : FloatArray</text>
<text text-anchor="start" x="446.562" y="-305.2" font-family="Times,serif" font-size="14.00">sigma : FloatArray</text>
<text text-anchor="start" x="446.562" y="-288.4" font-family="Times,serif" font-size="14.00">normalise : Bool</text>
<text text-anchor="start" x="446.562" y="-271.6" font-family="Times,serif" font-size="14.00">b : FloatArray</text>
<text text-anchor="start" x="446.562" y="-254.8" font-family="Times,serif" font-size="14.00">midpoint : FloatArray</text>
<polyline fill="none" stroke="black" points="438.562,-248 577.438,-248 "/>
<text text-anchor="middle" x="508" y="-230" font-family="Times,serif" font-size="14.00"> </text>
</g>
<!-- 2&#45;&gt;0 -->
<g id="edge4" class="edge"><title>2&#45;&gt;0</title>
<path fill="none" stroke="black" d="M466.459,-364.973C454.831,-384.209 442.068,-405.001 430,-424 423.705,-433.91 416.805,-444.453 410.196,-454.407"/>
<polygon fill="none" stroke="black" points="407.121,-452.71 404.485,-462.972 412.945,-456.593 407.121,-452.71"/>
</g>
<!-- 3 -->
<g id="node4" class="node"><title>3</title>
<polygon fill="none" stroke="black" points="112.734,-248.4 112.734,-339.6 207.266,-339.6 207.266,-248.4 112.734,-248.4"/>
<text text-anchor="middle" x="160" y="-321.6" font-family="Times,serif" font-size="14.00">Kuramoto</text>
<polyline fill="none" stroke="black" points="112.734,-314.8 207.266,-314.8 "/>
<text text-anchor="start" x="120.734" y="-296.8" font-family="Times,serif" font-size="14.00">a : FloatArray</text>
<text text-anchor="start" x="120.734" y="-280" font-family="Times,serif" font-size="14.00">device_info</text>
<polyline fill="none" stroke="black" points="112.734,-273.2 207.266,-273.2 "/>
<text text-anchor="middle" x="160" y="-255.2" font-family="Times,serif" font-size="14.00"> </text>
</g>
<!-- 3&#45;&gt;0 -->
<g id="edge6" class="edge"><title>3&#45;&gt;0</title>
<path fill="none" stroke="black" d="M170.613,-339.668C179.035,-366.904 193.262,-400.818 216,-424 247.461,-456.076 295.186,-475.759 331.054,-486.863"/>
<polygon fill="none" stroke="black" points="330.25,-490.275 340.833,-489.77 332.245,-483.565 330.25,-490.275"/>
</g>
<!-- 4 -->
<g id="node5" class="node"><title>4</title>
<polygon fill="none" stroke="black" points="225.341,-240 225.341,-348 320.659,-348 320.659,-240 225.341,-240"/>
<text text-anchor="middle" x="273" y="-330" font-family="Times,serif" font-size="14.00">Linear</text>
<polyline fill="none" stroke="black" points="225.341,-323.2 320.659,-323.2 "/>
<text text-anchor="start" x="233.341" y="-305.2" font-family="Times,serif" font-size="14.00">a : FloatArray</text>
<text text-anchor="start" x="233.341" y="-288.4" font-family="Times,serif" font-size="14.00">device_info</text>
<text text-anchor="start" x="233.341" y="-271.6" font-family="Times,serif" font-size="14.00">b : FloatArray</text>
<polyline fill="none" stroke="black" points="225.341,-264.8 320.659,-264.8 "/>
<text text-anchor="middle" x="273" y="-246.8" font-family="Times,serif" font-size="14.00"> </text>
</g>
<!-- 4&#45;&gt;0 -->
<g id="edge8" class="edge"><title>4&#45;&gt;0</title>
<path fill="none" stroke="black" d="M294.024,-348.083C304.02,-371.77 316.686,-399.746 330,-424 335.591,-434.186 342.145,-444.772 348.633,-454.67"/>
<polygon fill="none" stroke="black" points="345.835,-456.782 354.292,-463.163 351.66,-452.901 345.835,-456.782"/>
</g>
<!-- 5 -->
<g id="node6" class="node"><title>5</title>
<polygon fill="none" stroke="black" points="595.307,-164.4 595.307,-423.6 742.693,-423.6 742.693,-164.4 595.307,-164.4"/>
<text text-anchor="middle" x="669" y="-405.6" font-family="Times,serif" font-size="14.00">PreSigmoidal</text>
<polyline fill="none" stroke="black" points="595.307,-398.8 742.693,-398.8 "/>
<text text-anchor="start" x="603.307" y="-380.8" font-family="Times,serif" font-size="14.00">sliceT : int, slice</text>
<text text-anchor="start" x="603.307" y="-364" font-family="Times,serif" font-size="14.00">meanOrNot</text>
<text text-anchor="start" x="603.307" y="-347.2" font-family="Times,serif" font-size="14.00">rightCall</text>
<text text-anchor="start" x="603.307" y="-330.4" font-family="Times,serif" font-size="14.00">G : FloatArray</text>
<text text-anchor="start" x="603.307" y="-313.6" font-family="Times,serif" font-size="14.00">H : FloatArray</text>
<text text-anchor="start" x="603.307" y="-296.8" font-family="Times,serif" font-size="14.00">dynamic : IntegerArray</text>
<text text-anchor="start" x="603.307" y="-280" font-family="Times,serif" font-size="14.00">Q : FloatArray</text>
<text text-anchor="start" x="603.307" y="-263.2" font-family="Times,serif" font-size="14.00">P : FloatArray</text>
<text text-anchor="start" x="603.307" y="-246.4" font-family="Times,serif" font-size="14.00">globalT : IntegerArray</text>
<text text-anchor="start" x="603.307" y="-229.6" font-family="Times,serif" font-size="14.00">theta : FloatArray</text>
<polyline fill="none" stroke="black" points="595.307,-222.8 742.693,-222.8 "/>
<text text-anchor="start" x="603.307" y="-204.8" font-family="Times,serif" font-size="14.00">configure()</text>
<text text-anchor="start" x="603.307" y="-188" font-family="Times,serif" font-size="14.00">call_static()</text>
<text text-anchor="start" x="603.307" y="-171.2" font-family="Times,serif" font-size="14.00">call_dynamic()</text>
</g>
<!-- 5&#45;&gt;0 -->
<g id="edge10" class="edge"><title>5&#45;&gt;0</title>
<path fill="none" stroke="black" d="M595.119,-416.094C592.161,-418.862 589.121,-421.507 586,-424 539.931,-460.808 474.173,-480.534 429.431,-490.372"/>
<polygon fill="none" stroke="black" points="428.438,-487.004 419.377,-492.494 429.884,-493.853 428.438,-487.004"/>
</g>
<!-- 6 -->
<g id="node7" class="node"><title>6</title>
<polygon fill="none" stroke="black" points="338.958,-248.4 338.958,-339.6 421.042,-339.6 421.042,-248.4 338.958,-248.4"/>
<text text-anchor="middle" x="380" y="-321.6" font-family="Times,serif" font-size="14.00">Scaling</text>
<polyline fill="none" stroke="black" points="338.958,-314.8 421.042,-314.8 "/>
<text text-anchor="start" x="346.958" y="-296.8" font-family="Times,serif" font-size="14.00">a : Float</text>
<text text-anchor="start" x="346.958" y="-280" font-family="Times,serif" font-size="14.00">device_info</text>
<polyline fill="none" stroke="black" points="338.958,-273.2 421.042,-273.2 "/>
<text text-anchor="middle" x="380" y="-255.2" font-family="Times,serif" font-size="14.00"> </text>
</g>
<!-- 6&#45;&gt;0 -->
<g id="edge12" class="edge"><title>6&#45;&gt;0</title>
<path fill="none" stroke="black" d="M380,-339.769C380,-373.357 380,-419.186 380,-453.055"/>
<polygon fill="none" stroke="black" points="376.5,-453.156 380,-463.156 383.5,-453.156 376.5,-453.156"/>
</g>
<!-- 7 -->
<g id="node8" class="node"><title>7</title>
<polygon fill="none" stroke="black" points="760.562,-214.8 760.562,-373.2 899.438,-373.2 899.438,-214.8 760.562,-214.8"/>
<text text-anchor="middle" x="830" y="-355.2" font-family="Times,serif" font-size="14.00">Sigmoidal</text>
<polyline fill="none" stroke="black" points="760.562,-348.4 899.438,-348.4 "/>
<text text-anchor="start" x="768.562" y="-330.4" font-family="Times,serif" font-size="14.00">pi_on_sqrt3</text>
<text text-anchor="start" x="768.562" y="-313.6" font-family="Times,serif" font-size="14.00">a : FloatArray</text>
<text text-anchor="start" x="768.562" y="-296.8" font-family="Times,serif" font-size="14.00">sigma : FloatArray</text>
<text text-anchor="start" x="768.562" y="-280" font-family="Times,serif" font-size="14.00">cmax : FloatArray</text>
<text text-anchor="start" x="768.562" y="-263.2" font-family="Times,serif" font-size="14.00">midpoint : FloatArray</text>
<text text-anchor="start" x="768.562" y="-246.4" font-family="Times,serif" font-size="14.00">cmin : FloatArray</text>
<polyline fill="none" stroke="black" points="760.562,-239.6 899.438,-239.6 "/>
<text text-anchor="middle" x="830" y="-221.6" font-family="Times,serif" font-size="14.00"> </text>
</g>
<!-- 7&#45;&gt;0 -->
<g id="edge14" class="edge"><title>7&#45;&gt;0</title>
<path fill="none" stroke="black" d="M796.035,-373.317C784.32,-392.467 769.399,-411.13 751,-424 699.528,-460.005 518.025,-484.061 429.411,-493.935"/>
<polygon fill="none" stroke="black" points="428.894,-490.47 419.336,-495.041 429.658,-497.429 428.894,-490.47"/>
</g>
<!-- 8 -->
<g id="node9" class="node"><title>8</title>
<polygon fill="none" stroke="black" points="146.962,-1 146.962,-109 285.038,-109 285.038,-1 146.962,-1"/>
<text text-anchor="middle" x="216" y="-91" font-family="Times,serif" font-size="14.00">coupling_device_info</text>
<polyline fill="none" stroke="black" points="146.962,-84.2 285.038,-84.2 "/>
<text text-anchor="start" x="154.962" y="-66.2" font-family="Times,serif" font-size="14.00">inst</text>
<polyline fill="none" stroke="black" points="146.962,-59.4 285.038,-59.4 "/>
<text text-anchor="start" x="154.962" y="-41.4" font-family="Times,serif" font-size="14.00">cfpr()</text>
<text text-anchor="start" x="154.962" y="-24.6" font-family="Times,serif" font-size="14.00">n_cfpr()</text>
<text text-anchor="start" x="154.962" y="-7.8" font-family="Times,serif" font-size="14.00">kernel()</text>
</g>
<!-- 8&#45;&gt;1 -->
<g id="edge16" class="edge"><title>8&#45;&gt;1</title>
<path fill="none" stroke="black" d="M146.801,-90.8122C131.397,-101.101 116.286,-113.551 104.917,-128 80.2558,-159.343 65.6534,-201.968 57.2805,-236.042"/>
<polygon fill="black" stroke="black" points="57.1787,-236.481 59.7214,-243.229 54.4704,-248.172 51.9278,-241.424 57.1787,-236.481"/>
<text text-anchor="middle" x="138.042" y="-131.4" font-family="Times,serif" font-size="14.00" fill="green">device_info</text>
</g>
<!-- 8&#45;&gt;3 -->
<g id="edge18" class="edge"><title>8&#45;&gt;3</title>
<path fill="none" stroke="black" d="M185.873,-109.368C183.198,-115.522 180.797,-121.811 178.917,-128 168.301,-162.951 163.56,-203.716 161.478,-235.982"/>
<polygon fill="black" stroke="black" points="161.456,-236.368 165.113,-242.583 160.782,-248.349 157.126,-242.134 161.456,-236.368"/>
<text text-anchor="middle" x="212.042" y="-131.4" font-family="Times,serif" font-size="14.00" fill="green">device_info</text>
</g>
<!-- 8&#45;&gt;4 -->
<g id="edge20" class="edge"><title>8&#45;&gt;4</title>
<path fill="none" stroke="black" d="M238.839,-109.028C241.121,-115.354 243.24,-121.776 245,-128 254.135,-160.315 260.729,-197.082 265.214,-227.696"/>
<polygon fill="black" stroke="black" points="265.269,-228.089 270.07,-233.47 266.949,-239.971 262.148,-234.59 265.269,-228.089"/>
<text text-anchor="middle" x="283.042" y="-131.4" font-family="Times,serif" font-size="14.00" fill="green">device_info</text>
</g>
<!-- 8&#45;&gt;6 -->
<g id="edge22" class="edge"><title>8&#45;&gt;6</title>
<path fill="none" stroke="black" d="M285.25,-94.9145C298.065,-104.463 310.41,-115.567 320,-128 344.563,-159.845 359.745,-202.695 368.691,-236.746"/>
<polygon fill="black" stroke="black" points="368.691,-236.749 374.026,-241.6 371.6,-248.391 366.265,-243.54 368.691,-236.749"/>
<text text-anchor="middle" x="364.042" y="-131.4" font-family="Times,serif" font-size="14.00" fill="green">device_info</text>
</g>
</g>
</svg>
