<?xml version="1.0" encoding="UTF-8" standalone="no"?>
<!DOCTYPE svg PUBLIC "-//W3C//DTD SVG 1.1//EN"
 "http://www.w3.org/Graphics/SVG/1.1/DTD/svg11.dtd">
<!-- Generated by graphviz version 2.28.0 (20111028.1807)
 -->
<!-- Title: classes_integrators Pages: 1 -->
<svg width="562pt" height="566pt"
 viewBox="0.00 0.00 562.00 566.00" xmlns="http://www.w3.org/2000/svg" xmlns:xlink="http://www.w3.org/1999/xlink">
<g id="graph1" class="graph" transform="scale(1 1) rotate(0) translate(4 562)">
<title>classes_integrators</title>
<polygon fill="white" stroke="white" points="-4,5 -4,-562 559,-562 559,5 -4,5"/>
<!-- 0 -->
<g id="node1" class="node"><title>0</title>
<polygon fill="none" stroke="black" points="-0.258789,-258.4 -0.258789,-349.6 122.259,-349.6 122.259,-258.4 -0.258789,-258.4"/>
<text text-anchor="middle" x="61" y="-331.6" font-family="Times,serif" font-size="14.00">EulerDeterministic</text>
<polyline fill="none" stroke="black" points="-0.258789,-324.8 122.259,-324.8 "/>
<text text-anchor="start" x="7.74121" y="-306.8" font-family="Times,serif" font-size="14.00">dX</text>
<text text-anchor="start" x="7.74121" y="-290" font-family="Times,serif" font-size="14.00">device_info</text>
<polyline fill="none" stroke="black" points="-0.258789,-283.2 122.259,-283.2 "/>
<text text-anchor="start" x="7.74121" y="-265.2" font-family="Times,serif" font-size="14.00">scheme()</text>
</g>
<!-- 4 -->
<g id="node5" class="node"><title>4</title>
<polygon fill="none" stroke="black" points="256.403,-482.8 256.403,-557.2 327.597,-557.2 327.597,-482.8 256.403,-482.8"/>
<text text-anchor="middle" x="292" y="-539.2" font-family="Times,serif" font-size="14.00">Integrator</text>
<polyline fill="none" stroke="black" points="256.403,-532.4 327.597,-532.4 "/>
<text text-anchor="start" x="264.403" y="-514.4" font-family="Times,serif" font-size="14.00">dt : Float</text>
<polyline fill="none" stroke="black" points="256.403,-507.6 327.597,-507.6 "/>
<text text-anchor="start" x="264.403" y="-489.6" font-family="Times,serif" font-size="14.00">scheme()</text>
</g>
<!-- 0&#45;&gt;4 -->
<g id="edge2" class="edge"><title>0&#45;&gt;4</title>
<path fill="none" stroke="black" d="M81.9137,-349.632C97.4771,-379.208 121,-417.328 150,-444 178.145,-469.886 216.893,-489.563 246.802,-502.253"/>
<polygon fill="none" stroke="black" points="245.599,-505.543 256.178,-506.127 248.273,-499.073 245.599,-505.543"/>
</g>
<!-- 1 -->
<g id="node2" class="node"><title>1</title>
<polygon fill="none" stroke="black" points="204.069,-164.8 204.069,-239.2 307.931,-239.2 307.931,-164.8 204.069,-164.8"/>
<text text-anchor="middle" x="256" y="-221.2" font-family="Times,serif" font-size="14.00">EulerStochastic</text>
<polyline fill="none" stroke="black" points="204.069,-214.4 307.931,-214.4 "/>
<text text-anchor="start" x="212.069" y="-196.4" font-family="Times,serif" font-size="14.00">device_info</text>
<polyline fill="none" stroke="black" points="204.069,-189.6 307.931,-189.6 "/>
<text text-anchor="start" x="212.069" y="-171.6" font-family="Times,serif" font-size="14.00">scheme()</text>
</g>
<!-- 5 -->
<g id="node6" class="node"><title>5</title>
<polygon fill="none" stroke="black" points="158.631,-368.8 158.631,-443.2 287.369,-443.2 287.369,-368.8 158.631,-368.8"/>
<text text-anchor="middle" x="223" y="-425.2" font-family="Times,serif" font-size="14.00">IntegratorStochastic</text>
<polyline fill="none" stroke="black" points="158.631,-418.4 287.369,-418.4 "/>
<text text-anchor="start" x="166.631" y="-400.4" font-family="Times,serif" font-size="14.00">noise : Noise</text>
<polyline fill="none" stroke="black" points="158.631,-393.6 287.369,-393.6 "/>
<text text-anchor="start" x="166.631" y="-375.6" font-family="Times,serif" font-size="14.00">configure()</text>
</g>
<!-- 1&#45;&gt;5 -->
<g id="edge4" class="edge"><title>1&#45;&gt;5</title>
<path fill="none" stroke="black" d="M250.024,-239.581C244.581,-272.901 236.515,-322.275 230.612,-358.407"/>
<polygon fill="none" stroke="black" points="227.09,-358.258 228.932,-368.691 233.998,-359.387 227.09,-358.258"/>
</g>
<!-- 2 -->
<g id="node3" class="node"><title>2</title>
<polygon fill="none" stroke="black" points="267.738,-266.8 267.738,-341.2 390.262,-341.2 390.262,-266.8 267.738,-266.8"/>
<text text-anchor="middle" x="329" y="-323.2" font-family="Times,serif" font-size="14.00">HeunDeterministic</text>
<polyline fill="none" stroke="black" points="267.738,-316.4 390.262,-316.4 "/>
<text text-anchor="start" x="275.738" y="-298.4" font-family="Times,serif" font-size="14.00">device_info</text>
<polyline fill="none" stroke="black" points="267.738,-291.6 390.262,-291.6 "/>
<text text-anchor="start" x="275.738" y="-273.6" font-family="Times,serif" font-size="14.00">scheme()</text>
</g>
<!-- 2&#45;&gt;4 -->
<g id="edge6" class="edge"><title>2&#45;&gt;4</title>
<path fill="none" stroke="black" d="M322.723,-341.302C316.464,-377.503 306.827,-433.246 300.017,-472.63"/>
<polygon fill="none" stroke="black" points="296.562,-472.07 298.307,-482.52 303.46,-473.262 296.562,-472.07"/>
</g>
<!-- 3 -->
<g id="node4" class="node"><title>3</title>
<polygon fill="none" stroke="black" points="82.0654,-164.8 82.0654,-239.2 185.935,-239.2 185.935,-164.8 82.0654,-164.8"/>
<text text-anchor="middle" x="134" y="-221.2" font-family="Times,serif" font-size="14.00">HeunStochastic</text>
<polyline fill="none" stroke="black" points="82.0654,-214.4 185.935,-214.4 "/>
<text text-anchor="start" x="90.0654" y="-196.4" font-family="Times,serif" font-size="14.00">device_info</text>
<polyline fill="none" stroke="black" points="82.0654,-189.6 185.935,-189.6 "/>
<text text-anchor="start" x="90.0654" y="-171.6" font-family="Times,serif" font-size="14.00">scheme()</text>
</g>
<!-- 3&#45;&gt;5 -->
<g id="edge8" class="edge"><title>3&#45;&gt;5</title>
<path fill="none" stroke="black" d="M150.117,-239.581C164.924,-273.187 186.926,-323.123 202.88,-359.334"/>
<polygon fill="none" stroke="black" points="199.768,-360.952 207.003,-368.691 206.174,-358.129 199.768,-360.952"/>
</g>
<!-- 5&#45;&gt;4 -->
<g id="edge10" class="edge"><title>5&#45;&gt;4</title>
<path fill="none" stroke="black" d="M245.402,-443.363C251.368,-453.046 257.885,-463.626 264.106,-473.722"/>
<polygon fill="none" stroke="black" points="261.249,-475.758 269.474,-482.436 267.209,-472.086 261.249,-475.758"/>
</g>
<!-- 6 -->
<g id="node7" class="node"><title>6</title>
<polygon fill="none" stroke="black" points="342.803,-368.8 342.803,-443.2 553.197,-443.2 553.197,-368.8 342.803,-368.8"/>
<text text-anchor="middle" x="448" y="-425.2" font-family="Times,serif" font-size="14.00">RungeKutta4thOrderDeterministic</text>
<polyline fill="none" stroke="black" points="342.803,-418.4 553.197,-418.4 "/>
<text text-anchor="start" x="350.803" y="-400.4" font-family="Times,serif" font-size="14.00">you_have_been_warned : bool</text>
<polyline fill="none" stroke="black" points="342.803,-393.6 553.197,-393.6 "/>
<text text-anchor="start" x="350.803" y="-375.6" font-family="Times,serif" font-size="14.00">scheme()</text>
</g>
<!-- 6&#45;&gt;4 -->
<g id="edge12" class="edge"><title>6&#45;&gt;4</title>
<path fill="none" stroke="black" d="M397.351,-443.363C377.667,-457.496 355.321,-473.539 336.29,-487.202"/>
<polygon fill="none" stroke="black" points="334.161,-484.422 328.079,-493.097 338.243,-490.108 334.161,-484.422"/>
</g>
<!-- 7 -->
<g id="node8" class="node"><title>7</title>
<polygon fill="none" stroke="black" points="124.248,-1 124.248,-109 267.752,-109 267.752,-1 124.248,-1"/>
<text text-anchor="middle" x="196" y="-91" font-family="Times,serif" font-size="14.00">integrator_device_info</text>
<polyline fill="none" stroke="black" points="124.248,-84.2 267.752,-84.2 "/>
<text text-anchor="start" x="132.248" y="-66.2" font-family="Times,serif" font-size="14.00">inst</text>
<polyline fill="none" stroke="black" points="124.248,-59.4 267.752,-59.4 "/>
<text text-anchor="start" x="132.248" y="-41.4" font-family="Times,serif" font-size="14.00">kernel()</text>
<text text-anchor="start" x="132.248" y="-24.6" font-family="Times,serif" font-size="14.00">n_inpr()</text>
<text text-anchor="start" x="132.248" y="-7.8" font-family="Times,serif" font-size="14.00">inpr()</text>
</g>
<!-- 7&#45;&gt;0 -->
<g id="edge14" class="edge"><title>7&#45;&gt;0</title>
<path fill="none" stroke="black" d="M124.201,-87.7968C107.395,-98.3559 91.1426,-111.687 79.917,-128 56.3374,-162.266 52.4842,-209.566 54.0465,-246.353"/>
<polygon fill="black" stroke="black" points="54.05,-246.412 58.3996,-252.164 54.7633,-258.391 50.4137,-252.64 54.05,-246.412"/>
<text text-anchor="middle" x="113.042" y="-131.4" font-family="Times,serif" font-size="14.00" fill="green">device_info</text>
</g>
<!-- 7&#45;&gt;1 -->
<g id="edge16" class="edge"><title>7&#45;&gt;1</title>
<path fill="none" stroke="black" d="M218.001,-109.169C223.959,-123.566 230.37,-139.061 236.198,-153.146"/>
<polygon fill="black" stroke="black" points="236.346,-153.503 242.336,-157.518 240.934,-164.592 234.944,-160.577 236.346,-153.503"/>
<text text-anchor="middle" x="267.042" y="-131.4" font-family="Times,serif" font-size="14.00" fill="green">device_info</text>
</g>
<!-- 7&#45;&gt;2 -->
<g id="edge18" class="edge"><title>7&#45;&gt;2</title>
<path fill="none" stroke="black" d="M267.913,-94.1343C281.3,-103.769 294.152,-115.106 304,-128 331.365,-163.827 335.557,-216.158 334.159,-254.257"/>
<polygon fill="black" stroke="black" points="334.141,-254.604 337.813,-260.81 333.497,-266.587 329.824,-260.381 334.141,-254.604"/>
<text text-anchor="middle" x="348.042" y="-131.4" font-family="Times,serif" font-size="14.00" fill="green">device_info</text>
</g>
<!-- 7&#45;&gt;3 -->
<g id="edge20" class="edge"><title>7&#45;&gt;3</title>
<path fill="none" stroke="black" d="M164.708,-109.226C161.542,-115.46 158.534,-121.806 155.917,-128 152.591,-135.87 149.549,-144.415 146.858,-152.792"/>
<polygon fill="black" stroke="black" points="146.806,-152.962 148.876,-159.87 143.296,-164.437 141.226,-157.53 146.806,-152.962"/>
<text text-anchor="middle" x="189.042" y="-131.4" font-family="Times,serif" font-size="14.00" fill="green">device_info</text>
</g>
</g>
</svg>
