<?xml version="1.0" encoding="UTF-8" standalone="no"?>
<!-- Generator: Adobe Illustrator 13.0.0, SVG Export Plug-In . SVG Version: 6.00 Build 14948)  -->

<svg
   xmlns:dc="http://purl.org/dc/elements/1.1/"
   xmlns:cc="http://creativecommons.org/ns#"
   xmlns:rdf="http://www.w3.org/1999/02/22-rdf-syntax-ns#"
   xmlns:svg="http://www.w3.org/2000/svg"
   xmlns="http://www.w3.org/2000/svg"
   xmlns:sodipodi="http://sodipodi.sourceforge.net/DTD/sodipodi-0.dtd"
   xmlns:inkscape="http://www.inkscape.org/namespaces/inkscape"
   version="1.1"
   id="Layer_1"
   x="0px"
   y="0px"
   width="1024"
   height="296"
   viewBox="0 0 1024 295.99999"
   enable-background="new 0 0 1084.661 717.955"
   xml:space="preserve"
   inkscape:version="0.47 r22583"
   sodipodi:docname="evil_tvb_logo_transparent.svg"><metadata
   id="metadata3248"><rdf:RDF><cc:Work
       rdf:about=""><dc:format>image/svg+xml</dc:format><dc:type
         rdf:resource="http://purl.org/dc/dcmitype/StillImage" /><dc:title /></cc:Work></rdf:RDF></metadata><defs
   id="defs3246"><inkscape:perspective
   sodipodi:type="inkscape:persp3d"
   inkscape:vp_x="0 : 358.97751 : 1"
   inkscape:vp_y="0 : 1000 : 0"
   inkscape:vp_z="1084.661 : 358.97751 : 1"
   inkscape:persp3d-origin="542.33051 : 239.31834 : 1"
   id="perspective3250" />
	
	
	
	
	
	
	
	
	
	
	
	
	
	
	
	
	
	
	
	
	
	
	
	
	
	
	
	
	
	
	
	
	
	
	
	
	
	
	
	
	
	
	
	
	
	
	
	
	
	
	
	
	
	
	
	
	
	
	
	
	
	
	
	
	
	
	
	
	
	
	
	
	
	
	
	
	
	
	
	
	
	
	
	
	
	
	
	
	
	
	
	
	
</defs><sodipodi:namedview
   pagecolor="#ffffff"
   bordercolor="#666666"
   borderopacity="1"
   objecttolerance="10"
   gridtolerance="10"
   guidetolerance="10"
   inkscape:pageopacity="0"
   inkscape:pageshadow="2"
   inkscape:window-width="1920"
   inkscape:window-height="1125"
   id="namedview3244"
   showgrid="false"
   inkscape:snap-bbox="false"
   showguides="true"
   inkscape:guide-bbox="true"
   inkscape:zoom="1.3148456"
   inkscape:cx="530.24362"
   inkscape:cy="97.93345"
   inkscape:window-x="0"
   inkscape:window-y="25"
   inkscape:window-maximized="1"
   inkscape:current-layer="g3652" />
<g
   id="g3652"
   transform="matrix(0.61146,0,0,0.61146,907.7555,148.288)"><g
     id="g2917"
     transform="translate(-47.493694,383.46761)"><g
       id="g3555"
       transform="translate(-846.47661,-930.37138)"><polygon
         points="302.926,624.811 302.926,715.408 302.926,715.408 325.576,715.408 325.576,624.811 "
         id="polygon3066"
         style="fill:#386766" /><polygon
         points="409.774,624.811 409.774,642.369 409.774,642.369 433.442,642.369 433.442,715.408 456.093,715.408 456.093,642.369 479.759,642.369 479.759,624.811 "
         id="polygon3070"
         style="fill:#386766" /><path
         clip-rule="evenodd"
         d="m 547.921,715.408 h 24.177 l 4.581,-14.25 h 33.465 l 4.581,14.25 h 24.302 L 604.799,624.81 h -23.412 l -33.466,90.598 0,0 z m 34.1,-31.047 11.197,-37.41 h 0.255 l 11.199,37.41 h -22.651 l 0,0 z"
         id="path3074"
         style="fill:#386766;fill-rule:evenodd" /><path
         clip-rule="evenodd"
         d="m 695.55,715.408 h 41.228 c 23.032,0 37.028,-7.125 37.028,-25.83 0,-13.361 -9.925,-19.85 -22.268,-20.74 v -0.254 c 12.343,-2.801 18.96,-8.908 18.96,-20.488 0,-16.924 -12.344,-23.285 -30.667,-23.285 H 695.55 v 90.597 l 0,0 z m 21.887,-38.174 h 22.522 c 8.396,0 11.196,3.309 11.196,10.816 0,5.854 -3.309,10.561 -15.27,10.561 h -18.449 v -21.377 l 10e-4,0 z m -0.256,-35.627 h 18.833 c 7.508,0 11.833,1.781 11.833,9.416 0,6.617 -4.58,9.414 -11.833,9.414 h -18.833 v -18.83 l 0,0 z"
         id="path3078"
         style="fill:#73accd;fill-rule:evenodd" /><path
         clip-rule="evenodd"
         d="m 850.278,715.408 h 24.174 l 4.584,-14.25 h 33.465 l 4.579,14.25 h 24.304 L 907.156,624.81 h -23.412 l -33.466,90.598 0,0 z m 34.101,-31.047 11.197,-37.41 h 0.253 l 11.199,37.41 h -22.649 l 0,0 z"
         id="path3082"
         style="fill:#73accd;fill-rule:evenodd" /><polygon
         points="0,642.369 23.668,642.369 23.668,715.408 46.319,715.408 46.319,642.369 69.984,642.369 69.984,624.811 0,624.811 0,642.369 "
         id="polygon3058"
         style="fill:#73accd" /><polygon
         points="92.36,624.811 69.711,624.811 69.711,715.408 69.711,715.408 92.36,715.408 92.36,677.234 126.08,677.234 126.08,715.408 148.73,715.408 148.73,624.811 126.08,624.811 126.08,657.387 92.36,657.387 "
         id="polygon3060"
         style="fill:#73accd" /><polygon
         points="157.3,624.811 157.3,715.408 227.794,715.408 227.794,715.408 227.794,697.85 179.949,697.85 179.949,676.473 221.05,676.473 221.05,658.912 179.949,658.912 179.949,642.369 230.669,642.369 223.977,624.811 "
         id="polygon3062"
         style="fill:#73accd" /><polygon
         points="249.218,715.408 273.266,715.408 304.567,624.811 280.774,624.811 261.687,689.451 261.431,689.451 242.982,624.811 218.932,624.811 249.218,715.408 "
         id="polygon3064"
         style="fill:#386766" /><path
         clip-rule="evenodd"
         d="m 356.797,641.607 h 20.742 c 7.25,0.127 12.087,3.816 12.087,12.217 0,8.396 -4.836,12.086 -12.087,12.213 h -20.742 v -24.43 l 0,0 z m -22.651,73.801 h 22.65 v -32.574 h 14.378 l 17.814,32.574 h 25.323 l -20.742,-36.391 c 11.325,-3.309 18.705,-12.725 18.705,-24.432 0,-20.359 -12.469,-29.775 -32.828,-29.775 h -45.3 v 90.598 l 0,0 z"
         id="path3068"
         style="fill:#386766;fill-rule:evenodd" /><path
         d="m 555.216,624.811 h -22.649 v 57.133 c 0,10.18 -3.945,17.688 -15.779,17.688 -11.707,0 -15.651,-7.508 -15.651,-17.688 v -57.133 h -22.648 v 59.041 c 0,24.814 20.995,34.104 38.3,34.104 17.434,0 38.428,-9.289 38.428,-34.104 v -59.041 l -10e-4,0 z"
         id="path3072"
         style="fill:#386766" /><polygon
         points="661.527,624.811 638.878,624.811 638.878,715.408 638.878,715.408 696.902,715.408 696.902,696.322 661.527,696.322 "
         id="polygon3076"
         style="fill:#386766" /><path
         clip-rule="evenodd"
         d="m 798.443,641.607 h 20.742 c 7.252,0.127 12.088,3.816 12.088,12.217 0,8.396 -4.836,12.086 -12.088,12.213 h -20.742 v -24.43 l 0,0 z m -22.648,73.801 h 22.648 v -32.574 h 14.38 l 17.814,32.574 h 25.321 l -20.742,-36.391 c 11.325,-3.309 18.705,-12.725 18.705,-24.432 0,-20.359 -12.469,-29.775 -32.827,-29.775 h -45.3 v 90.598 l 10e-4,0 z"
         id="path3080"
         style="fill:#73accd;fill-rule:evenodd" /><polygon
         points="941.556,715.408 964.205,715.408 964.205,624.811 941.556,624.811 941.556,715.408 "
         id="polygon3084"
         style="fill:#73accd" /><polygon
         points="995.681,624.811 972.776,624.811 972.776,715.408 972.776,715.408 993.392,715.408 993.392,658.404 993.646,658.404 1026.856,715.408 1049.505,715.408 1049.505,624.811 1028.892,624.811 1028.892,682.707 1028.638,682.707 "
         id="polygon3086"
         style="fill:#73accd" /><polygon
         points="1077.291,715.408 1077.291,694.031 1056.677,694.031 1056.677,715.408 1077.291,715.408 "
         id="polygon3088"
         style="fill:#73accd" /></g><g
       id="g3573"
       transform="translate(-1931.7306,-606.62365)"><polygon
         points="714.2,129.525 714.2,129.525 772.265,29.835 714.422,9.44 600.797,67.668 "
         id="polygon3090"
         style="fill:#bfd6e8" /><polygon
         points="714.2,129.525 691.729,168.181 600.797,67.668 714.2,129.525 "
         id="polygon3092"
         style="fill:#9ec7e7" /><polygon
         points="789.644,0 772.265,29.835 714.422,9.44 789.644,0 "
         id="polygon3094"
         style="fill:#73accd" /><polygon
         points="789.644,0 772.265,29.835 846.451,56.054 789.644,0 "
         id="polygon3096"
         style="fill:#6dbab6" /><polygon
         points="519.067,170.066 614.103,260.672 650.244,239.327 691.729,168.181 600.797,67.668 519.067,170.066 "
         id="polygon3098"
         style="fill:#8c9fac" /><polygon
         points="519.067,170.066 519.067,170.066 614.103,260.672 604.207,266.656 501.231,252.738 "
         id="polygon3100"
         style="fill:#e8a337" /><polygon
         points="529.352,311.911 604.207,266.656 501.231,252.738 529.352,311.911 "
         id="polygon3102"
         style="fill:#712c2f" /><polygon
         points="529.352,311.911 604.207,266.656 623.198,268.86 629.365,275.173 587.682,346.739 529.352,311.911 "
         id="polygon3104"
         style="fill:#8c9fac" /><polygon
         points="663.745,334.468 663.745,334.468 675.781,318.724 629.365,275.173 587.682,346.739 "
         id="polygon3106"
         style="fill:#737a84" /><polygon
         points="789.644,0 789.644,0 913.652,7.552 870.212,64.378 846.451,56.054 "
         id="polygon3108"
         style="fill:#73accd" /><polygon
         points="901.74,75.185 913.652,7.552 870.212,64.378 901.74,75.185 "
         id="polygon3110"
         style="fill:#8c9fac" /><polygon
         points="901.74,75.185 901.74,75.185 913.652,7.552 935.533,66.341 913.919,79.409 "
         id="polygon3112"
         style="fill:#73accd" /><polygon
         points="973.77,43.224 913.652,7.552 935.533,66.341 973.77,43.224 "
         id="polygon3114"
         style="fill:#6e8bc3" /><polygon
         points="973.77,43.224 973.77,43.224 1025.062,118.622 944.435,90.706 935.533,66.341 "
         id="polygon3116"
         style="fill:#375d68" /><polygon
         points="973.77,43.224 1025.062,118.622 1047.946,126.841 973.77,43.224 "
         id="polygon3118"
         style="fill:#1d3333" /><polygon
         points="1081.829,202.062 1025.062,118.622 1047.946,126.841 1081.829,202.062 "
         id="polygon3120"
         style="fill:#1d3333" /><polygon
         points="1081.829,202.062 1025.062,118.622 944.435,90.706 980.809,188.962 1017.981,225.007 1081.829,202.062 "
         id="polygon3122"
         style="fill:#42867b" /><polygon
         points="944.435,90.706 913.919,79.409 935.533,66.341 944.435,90.706 "
         id="polygon3124"
         style="fill:#8c9fac" /><polygon
         points="899.375,88.616 913.919,79.409 944.435,90.706 980.809,188.962 896.447,105.237 899.375,88.616 "
         id="polygon3126"
         style="fill:#73bb5a" /><polygon
         points="901.74,75.185 913.919,79.409 899.375,88.616 901.74,75.185 "
         id="polygon3128"
         style="fill:#73bb5a" /><polygon
         points="1081.829,202.062 1037.742,244.816 1017.981,225.007 1081.829,202.062 "
         id="polygon3130"
         style="fill:#4c9c50" /><polygon
         points="1081.829,202.062 1081.829,202.062 1037.742,244.816 1055.665,263.081 1084.661,245.287 "
         id="polygon3132"
         style="fill:#389a52" /><polygon
         points="1066.726,273.407 1055.665,263.081 1084.661,245.287 1066.726,273.407 "
         id="polygon3134"
         style="fill:#375d68" /><polygon
         points="1066.726,273.407 1066.726,273.407 1055.665,263.081 1017.12,286.733 1020.769,296.907 "
         id="polygon3136"
         style="fill:#375d68" /><polygon
         points="1011.278,270.479 1011.278,270.479 1037.742,244.816 1055.665,263.081 1017.12,286.733 "
         id="polygon3138"
         style="fill:#375d68" /><polygon
         points="1011.278,270.479 1011.278,270.479 1037.742,244.816 1017.981,225.007 997.479,232.375 "
         id="polygon3140"
         style="fill:#89c660" /><polygon
         points="980.809,188.962 1017.981,225.007 997.479,232.375 980.809,188.962 "
         id="polygon3142"
         style="fill:#386766" /><polygon
         points="623.198,268.86 623.198,268.86 614.103,260.672 650.244,239.327 632.244,270.231 "
         id="polygon3144"
         style="fill:#d02e4c" /><polygon
         points="663.745,334.468 680.754,346.945 650.629,357.023 663.745,334.468 "
         id="polygon3146"
         style="fill:#9d4d8b" /><polygon
         points="694.698,414.309 694.698,414.309 759.789,404.93 680.754,346.945 650.629,357.023 "
         id="polygon3148"
         style="fill:#65314d" /><polygon
         points="694.698,414.309 759.789,404.93 790.587,427.525 694.698,414.309 "
         id="polygon3150"
         style="fill:#65314d" /><polygon
         points="663.745,334.468 663.745,334.468 680.754,346.945 697.962,340.014 675.781,318.724 "
         id="polygon3152"
         style="fill:#8c9fac" /><polygon
         points="705.388,279.994 705.388,279.994 675.781,318.724 629.365,275.173 632.244,270.231 "
         id="polygon3154"
         style="fill:#df6435" /><polygon
         points="845.983,391.752 765.572,403.742 790.587,427.525 845.983,391.752 "
         id="polygon3156"
         style="fill:#65314d" /><polygon
         points="1048.89,325.128 1048.89,325.128 972.635,315.048 1010.225,290.965 1020.769,296.907 "
         id="polygon3158"
         style="fill:#264548" /><polygon
         points="1048.89,325.128 980.198,413.287 1020.769,397.416 1048.89,325.128 "
         id="polygon3160"
         style="fill:#46293d" /><polygon
         points="949.325,452.912 980.198,413.287 1020.769,397.416 949.325,452.912 "
         id="polygon3162"
         style="fill:#46293d" /><polygon
         points="949.325,452.912 910.287,437.461 891.096,444.416 949.325,452.912 "
         id="polygon3164"
         style="fill:#46293d" /><polygon
         points="860.043,417.141 910.287,437.461 891.096,444.416 860.043,417.141 "
         id="polygon3166"
         style="fill:#46293d" /><polygon
         points="949.325,452.912 910.287,437.461 929.482,430.98 949.325,452.912 "
         id="polygon3168"
         style="fill:#24503e" /><polygon
         points="949.325,452.912 980.198,413.287 929.482,430.98 949.325,452.912 "
         id="polygon3170"
         style="fill:#85663b" /><polygon
         points="972.635,315.048 1048.89,325.128 1048.89,325.128 980.198,413.287 929.482,430.98 890.565,387.963 954.707,325.339 "
         id="polygon3172"
         style="fill:#24503e" /><polygon
         points="910.287,437.461 910.287,437.461 929.482,430.98 890.565,387.963 860.043,417.141 "
         id="polygon3174"
         style="fill:#85663b" /><polygon
         points="845.983,391.752 845.983,391.752 877.233,373.227 890.565,387.963 860.043,417.141 "
         id="polygon3176"
         style="fill:#1d3333" /><polygon
         points="877.233,373.227 890.565,387.963 954.707,325.339 877.233,373.227 "
         id="polygon3178"
         style="fill:#375d68" /><polygon
         points="1010.225,290.965 1017.12,286.733 1020.769,296.907 1010.225,290.965 "
         id="polygon3180"
         style="fill:#264548" /><polygon
         points="966.418,313.983 966.418,313.983 972.635,315.048 1010.225,290.965 997.233,284.101 "
         id="polygon3182"
         style="fill:#375d68" /><polygon
         points="1011.278,270.479 1011.278,270.479 1017.12,286.733 1010.225,290.965 997.233,284.101 "
         id="polygon3184"
         style="fill:#264548" /><polygon
         points="1011.278,270.479 1011.278,270.479 997.479,232.375 940.149,252.978 997.233,284.101 "
         id="polygon3186"
         style="fill:#73bb5a" /><polygon
         points="980.809,188.962 997.479,232.375 940.149,252.978 876.549,218.217 896.447,105.237 980.809,188.962 "
         id="polygon3188"
         style="fill:#6dbab6" /><polygon
         points="940.149,252.978 876.549,218.217 865.551,280.65 940.149,252.978 "
         id="polygon3190"
         style="fill:#89c660" /><polygon
         points="966.418,313.983 862.064,300.45 865.551,280.65 940.149,252.978 997.233,284.101 966.418,313.983 "
         id="polygon3192"
         style="fill:#4c9c50" /><polygon
         points="966.418,313.983 862.064,300.45 853.968,347.511 877.233,373.227 954.707,325.339 966.418,313.983 "
         id="polygon3194"
         style="fill:#b57bb1" /><polygon
         points="845.983,391.752 853.968,347.511 877.233,373.227 845.983,391.752 "
         id="polygon3196"
         style="fill:#9d4d8b" /><polygon
         points="845.983,391.752 853.968,347.511 810.509,299.474 697.962,340.014 765.572,403.742 845.983,391.752 "
         id="polygon3198"
         style="fill:#813a8f" /><polygon
         points="765.572,403.742 765.572,403.742 759.789,404.93 680.754,346.945 697.962,340.014 "
         id="polygon3200"
         style="fill:#9d4d8b" /><polygon
         points="765.572,403.742 759.789,404.93 790.587,427.525 765.572,403.742 "
         id="polygon3202"
         style="fill:#9d4d8b" /><polygon
         points="623.198,268.86 604.207,266.656 614.103,260.672 623.198,268.86 "
         id="polygon3204"
         style="fill:#d02e4c" /><polygon
         points="623.198,268.86 629.365,275.173 632.244,270.231 623.198,268.86 "
         id="polygon3206"
         style="fill:#d02e4c" /><polygon
         points="705.388,279.994 804.488,292.819 810.509,299.474 697.962,340.014 675.781,318.724 705.388,279.994 "
         id="polygon3208"
         style="fill:#b57bb1" /><polygon
         points="853.968,347.511 853.968,347.511 810.509,299.474 823.233,294.995 862.064,300.45 "
         id="polygon3210"
         style="fill:#b57bb1" /><polygon
         points="865.551,280.65 823.233,294.995 862.064,300.45 865.551,280.65 "
         id="polygon3212"
         style="fill:#3a6d6b" /><polygon
         points="804.488,292.819 823.233,294.995 810.509,299.474 804.488,292.819 "
         id="polygon3214"
         style="fill:#24503e" /><polygon
         points="966.418,313.983 972.635,315.048 954.707,325.339 966.418,313.983 "
         id="polygon3216"
         style="fill:#375d68" /><polygon
         points="886.868,95.763 896.447,105.237 899.375,88.616 886.868,95.763 "
         id="polygon3218"
         style="fill:#73bb5a" /><polygon
         points="899.375,88.616 901.74,75.185 870.212,64.378 863.65,72.962 886.868,95.763 899.375,88.616 "
         id="polygon3220"
         style="fill:#6dbab6" /><polygon
         points="870.212,64.378 863.65,72.962 846.451,56.054 870.212,64.378 "
         id="polygon3222"
         style="fill:#73bb5a" /><polygon
         points="810.615,142.341 863.65,72.962 886.868,95.763 810.615,142.341 "
         id="polygon3224"
         style="fill:#73accd" /><polygon
         points="650.244,239.327 691.729,168.181 718.819,198.124 650.244,239.327 "
         id="polygon3226"
         style="fill:#df6435" /><polygon
         points="705.388,279.994 745.502,227.619 718.819,198.124 650.244,239.327 632.244,270.231 705.388,279.994 "
         id="polygon3228"
         style="fill:#e8a337" /><polygon
         points="804.488,292.819 745.502,227.619 705.388,279.994 804.488,292.819 "
         id="polygon3230"
         style="fill:#65314d" /><polygon
         points="714.2,129.525 714.2,129.525 691.729,168.181 718.819,198.124 775.755,162.94 "
         id="polygon3232"
         style="fill:#73accd" /><polygon
         points="775.755,162.94 714.2,129.525 714.2,129.525 772.265,29.835 846.451,56.054 863.65,72.962 810.615,142.341 "
         id="polygon3234"
         style="fill:#9ec7e7" /><polygon
         points="810.615,142.341 775.755,162.94 789.209,170.341 810.615,142.341 "
         id="polygon3236"
         style="fill:#6e8bc3" /><polygon
         points="789.209,170.341 789.209,170.341 745.502,227.619 718.819,198.124 775.755,162.94 "
         id="polygon3238"
         style="fill:#73accd" /><polygon
         points="876.549,218.217 789.209,170.341 789.209,170.341 745.502,227.619 804.488,292.819 823.233,294.995 865.551,280.65 "
         id="polygon3240"
         style="fill:#8c9fac" /><polygon
         points="789.209,170.341 810.615,142.341 886.868,95.763 896.447,105.237 876.549,218.217 789.209,170.341 "
         id="polygon3242"
         style="fill:#6e8bc3" /></g></g></g>
</svg>