<?xml version="1.0" encoding="UTF-8" standalone="no"?>
<!DOCTYPE svg PUBLIC "-//W3C//DTD SVG 1.1//EN"
 "http://www.w3.org/Graphics/SVG/1.1/DTD/svg11.dtd">
<!-- Generated by graphviz version 2.28.0 (20111028.1807)
 -->
<!-- Title: classes_models Pages: 1 -->
<svg width="2666pt" height="1184pt"
 viewBox="0.00 0.00 2666.00 1184.00" xmlns="http://www.w3.org/2000/svg" xmlns:xlink="http://www.w3.org/1999/xlink">
<g id="graph1" class="graph" transform="scale(1 1) rotate(0) translate(4 1180)">
<title>classes_models</title>
<polygon fill="white" stroke="white" points="-4,5 -4,-1180 2663,-1180 2663,5 -4,5"/>
<!-- 0 -->
<g id="node1" class="node"><title>0</title>
<polygon fill="none" stroke="black" points="-0.462402,-390 -0.462402,-750 204.462,-750 204.462,-390 -0.462402,-390"/>
<text text-anchor="middle" x="102" y="-732" font-family="Times,serif" font-size="14.00">Epileptor</text>
<polyline fill="none" stroke="black" points="-0.462402,-725.2 204.462,-725.2 "/>
<text text-anchor="start" x="7.5376" y="-707.2" font-family="Times,serif" font-size="14.00">cvar</text>
<text text-anchor="start" x="7.5376" y="-690.4" font-family="Times,serif" font-size="14.00">a : FloatArray</text>
<text text-anchor="start" x="7.5376" y="-673.6" font-family="Times,serif" font-size="14.00">slope : FloatArray</text>
<text text-anchor="start" x="7.5376" y="-656.8" font-family="Times,serif" font-size="14.00">c : FloatArray</text>
<text text-anchor="start" x="7.5376" y="-640" font-family="Times,serif" font-size="14.00">b : FloatArray</text>
<text text-anchor="start" x="7.5376" y="-623.2" font-family="Times,serif" font-size="14.00">d : FloatArray</text>
<text text-anchor="start" x="7.5376" y="-606.4" font-family="Times,serif" font-size="14.00">Iext2 : FloatArray</text>
<text text-anchor="start" x="7.5376" y="-589.6" font-family="Times,serif" font-size="14.00">state_variable_range : Dict</text>
<text text-anchor="start" x="7.5376" y="-572.8" font-family="Times,serif" font-size="14.00">ui_configurable_parameters : list</text>
<text text-anchor="start" x="7.5376" y="-556" font-family="Times,serif" font-size="14.00">aa : FloatArray</text>
<text text-anchor="start" x="7.5376" y="-539.2" font-family="Times,serif" font-size="14.00">tau : FloatArray</text>
<text text-anchor="start" x="7.5376" y="-522.4" font-family="Times,serif" font-size="14.00">s : FloatArray</text>
<text text-anchor="start" x="7.5376" y="-505.6" font-family="Times,serif" font-size="14.00">Kvf : FloatArray</text>
<text text-anchor="start" x="7.5376" y="-488.8" font-family="Times,serif" font-size="14.00">Iext : FloatArray</text>
<text text-anchor="start" x="7.5376" y="-472" font-family="Times,serif" font-size="14.00">variables_of_interest : Enumerate</text>
<text text-anchor="start" x="7.5376" y="-455.2" font-family="Times,serif" font-size="14.00">x0 : FloatArray</text>
<text text-anchor="start" x="7.5376" y="-438.4" font-family="Times,serif" font-size="14.00">r : FloatArray</text>
<text text-anchor="start" x="7.5376" y="-421.6" font-family="Times,serif" font-size="14.00">Kf : FloatArray</text>
<polyline fill="none" stroke="black" points="-0.462402,-414.8 204.462,-414.8 "/>
<text text-anchor="start" x="7.5376" y="-396.8" font-family="Times,serif" font-size="14.00">dfun()</text>
</g>
<!-- 8 -->
<g id="node9" class="node"><title>8</title>
<polygon fill="none" stroke="black" points="1283.86,-949.2 1283.86,-1174.8 1484.14,-1174.8 1484.14,-949.2 1283.86,-949.2"/>
<text text-anchor="middle" x="1384" y="-1156.8" font-family="Times,serif" font-size="14.00">Model</text>
<polyline fill="none" stroke="black" points="1283.86,-1150 1484.14,-1150 "/>
<text text-anchor="start" x="1291.86" y="-1132" font-family="Times,serif" font-size="14.00">number_of_modes : int</text>
<text text-anchor="start" x="1291.86" y="-1115.2" font-family="Times,serif" font-size="14.00">noise : Noise</text>
<text text-anchor="start" x="1291.86" y="-1098.4" font-family="Times,serif" font-size="14.00">ui_configurable_parameters : list</text>
<polyline fill="none" stroke="black" points="1283.86,-1091.6 1484.14,-1091.6 "/>
<text text-anchor="start" x="1291.86" y="-1073.6" font-family="Times,serif" font-size="14.00">dfun()</text>
<text text-anchor="start" x="1291.86" y="-1056.8" font-family="Times,serif" font-size="14.00">configure_initial()</text>
<text text-anchor="start" x="1291.86" y="-1040" font-family="Times,serif" font-size="14.00">configure()</text>
<text text-anchor="start" x="1291.86" y="-1023.2" font-family="Times,serif" font-size="14.00">stationary_trajectory()</text>
<text text-anchor="start" x="1291.86" y="-1006.4" font-family="Times,serif" font-size="14.00">nvar()</text>
<text text-anchor="start" x="1291.86" y="-989.6" font-family="Times,serif" font-size="14.00">initial()</text>
<text text-anchor="start" x="1291.86" y="-972.8" font-family="Times,serif" font-size="14.00">state_variables()</text>
<text text-anchor="start" x="1291.86" y="-956" font-family="Times,serif" font-size="14.00">update_derived_parameters()</text>
</g>
<!-- 0&#45;&gt;8 -->
<g id="edge2" class="edge"><title>0&#45;&gt;8</title>
<path fill="none" stroke="black" d="M122.592,-750.392C138.375,-809.582 165.958,-870.347 214,-910 373.964,-1042.03 1013.2,-1059.66 1273.18,-1061.27"/>
<polygon fill="none" stroke="black" points="1273.38,-1064.77 1283.4,-1061.32 1273.42,-1057.77 1273.38,-1064.77"/>
</g>
<!-- 1 -->
<g id="node2" class="node"><title>1</title>
<polygon fill="none" stroke="black" points="222.538,-373.2 222.538,-766.8 427.462,-766.8 427.462,-373.2 222.538,-373.2"/>
<text text-anchor="middle" x="325" y="-748.8" font-family="Times,serif" font-size="14.00">EpileptorPermittivityCoupling</text>
<polyline fill="none" stroke="black" points="222.538,-742 427.462,-742 "/>
<text text-anchor="start" x="230.538" y="-724" font-family="Times,serif" font-size="14.00">cvar</text>
<text text-anchor="start" x="230.538" y="-707.2" font-family="Times,serif" font-size="14.00">slope : FloatArray</text>
<text text-anchor="start" x="230.538" y="-690.4" font-family="Times,serif" font-size="14.00">aa : FloatArray</text>
<text text-anchor="start" x="230.538" y="-673.6" font-family="Times,serif" font-size="14.00">c : FloatArray</text>
<text text-anchor="start" x="230.538" y="-656.8" font-family="Times,serif" font-size="14.00">b : FloatArray</text>
<text text-anchor="start" x="230.538" y="-640" font-family="Times,serif" font-size="14.00">Kf : FloatArray</text>
<text text-anchor="start" x="230.538" y="-623.2" font-family="Times,serif" font-size="14.00">tau : FloatArray</text>
<text text-anchor="start" x="230.538" y="-606.4" font-family="Times,serif" font-size="14.00">state_variable_range : Dict</text>
<text text-anchor="start" x="230.538" y="-589.6" font-family="Times,serif" font-size="14.00">tt : FloatArray</text>
<text text-anchor="start" x="230.538" y="-572.8" font-family="Times,serif" font-size="14.00">Iext2 : FloatArray</text>
<text text-anchor="start" x="230.538" y="-556" font-family="Times,serif" font-size="14.00">Ks : FloatArray</text>
<text text-anchor="start" x="230.538" y="-539.2" font-family="Times,serif" font-size="14.00">ui_configurable_parameters : list</text>
<text text-anchor="start" x="230.538" y="-522.4" font-family="Times,serif" font-size="14.00">s : FloatArray</text>
<text text-anchor="start" x="230.538" y="-505.6" font-family="Times,serif" font-size="14.00">Kvf : FloatArray</text>
<text text-anchor="start" x="230.538" y="-488.8" font-family="Times,serif" font-size="14.00">a : FloatArray</text>
<text text-anchor="start" x="230.538" y="-472" font-family="Times,serif" font-size="14.00">Iext : FloatArray</text>
<text text-anchor="start" x="230.538" y="-455.2" font-family="Times,serif" font-size="14.00">variables_of_interest : Enumerate</text>
<text text-anchor="start" x="230.538" y="-438.4" font-family="Times,serif" font-size="14.00">x0 : FloatArray</text>
<text text-anchor="start" x="230.538" y="-421.6" font-family="Times,serif" font-size="14.00">r : FloatArray</text>
<text text-anchor="start" x="230.538" y="-404.8" font-family="Times,serif" font-size="14.00">d : FloatArray</text>
<polyline fill="none" stroke="black" points="222.538,-398 427.462,-398 "/>
<text text-anchor="start" x="230.538" y="-380" font-family="Times,serif" font-size="14.00">dfun()</text>
</g>
<!-- 1&#45;&gt;8 -->
<g id="edge4" class="edge"><title>1&#45;&gt;8</title>
<path fill="none" stroke="black" d="M351.199,-766.841C367.614,-820.345 394.156,-873.552 437,-910 561.42,-1015.85 1051.53,-1048.15 1273.6,-1057.46"/>
<polygon fill="none" stroke="black" points="1273.51,-1060.96 1283.65,-1057.87 1273.8,-1053.96 1273.51,-1060.96"/>
</g>
<!-- 2 -->
<g id="node3" class="node"><title>2</title>
<polygon fill="none" stroke="black" points="2229.54,-398.4 2229.54,-741.6 2434.46,-741.6 2434.46,-398.4 2229.54,-398.4"/>
<text text-anchor="middle" x="2332" y="-723.6" font-family="Times,serif" font-size="14.00">Generic2dOscillator</text>
<polyline fill="none" stroke="black" points="2229.54,-716.8 2434.46,-716.8 "/>
<text text-anchor="start" x="2237.54" y="-698.8" font-family="Times,serif" font-size="14.00">cvar</text>
<text text-anchor="start" x="2237.54" y="-682" font-family="Times,serif" font-size="14.00">a : FloatArray</text>
<text text-anchor="start" x="2237.54" y="-665.2" font-family="Times,serif" font-size="14.00">tau : FloatArray</text>
<text text-anchor="start" x="2237.54" y="-648.4" font-family="Times,serif" font-size="14.00">c : FloatArray</text>
<text text-anchor="start" x="2237.54" y="-631.6" font-family="Times,serif" font-size="14.00">b : FloatArray</text>
<text text-anchor="start" x="2237.54" y="-614.8" font-family="Times,serif" font-size="14.00">e : FloatArray</text>
<text text-anchor="start" x="2237.54" y="-598" font-family="Times,serif" font-size="14.00">d : FloatArray</text>
<text text-anchor="start" x="2237.54" y="-581.2" font-family="Times,serif" font-size="14.00">g : FloatArray</text>
<text text-anchor="start" x="2237.54" y="-564.4" font-family="Times,serif" font-size="14.00">f : FloatArray</text>
<text text-anchor="start" x="2237.54" y="-547.6" font-family="Times,serif" font-size="14.00">I : FloatArray</text>
<text text-anchor="start" x="2237.54" y="-530.8" font-family="Times,serif" font-size="14.00">ui_configurable_parameters : list</text>
<text text-anchor="start" x="2237.54" y="-514" font-family="Times,serif" font-size="14.00">beta : FloatArray</text>
<text text-anchor="start" x="2237.54" y="-497.2" font-family="Times,serif" font-size="14.00">state_variable_range : Dict</text>
<text text-anchor="start" x="2237.54" y="-480.4" font-family="Times,serif" font-size="14.00">device_info</text>
<text text-anchor="start" x="2237.54" y="-463.6" font-family="Times,serif" font-size="14.00">variables_of_interest : Enumerate</text>
<text text-anchor="start" x="2237.54" y="-446.8" font-family="Times,serif" font-size="14.00">alpha : FloatArray</text>
<text text-anchor="start" x="2237.54" y="-430" font-family="Times,serif" font-size="14.00">gamma : FloatArray</text>
<polyline fill="none" stroke="black" points="2229.54,-423.2 2434.46,-423.2 "/>
<text text-anchor="start" x="2237.54" y="-405.2" font-family="Times,serif" font-size="14.00">dfun()</text>
</g>
<!-- 2&#45;&gt;8 -->
<g id="edge6" class="edge"><title>2&#45;&gt;8</title>
<path fill="none" stroke="black" d="M2312.13,-742.026C2296.54,-803.239 2268.9,-867.524 2220,-910 2113.03,-1002.91 1695.73,-1041.41 1494.17,-1054.84"/>
<polygon fill="none" stroke="black" points="1493.9,-1051.35 1484.15,-1055.5 1494.36,-1058.34 1493.9,-1051.35"/>
</g>
<!-- 3 -->
<g id="node4" class="node"><title>3</title>
<polygon fill="none" stroke="black" points="668.538,-457.2 668.538,-682.8 873.462,-682.8 873.462,-457.2 668.538,-457.2"/>
<text text-anchor="middle" x="771" y="-664.8" font-family="Times,serif" font-size="14.00">Hopfield</text>
<polyline fill="none" stroke="black" points="668.538,-658 873.462,-658 "/>
<text text-anchor="start" x="676.538" y="-640" font-family="Times,serif" font-size="14.00">cvar</text>
<text text-anchor="start" x="676.538" y="-623.2" font-family="Times,serif" font-size="14.00">dfun</text>
<text text-anchor="start" x="676.538" y="-606.4" font-family="Times,serif" font-size="14.00">state_variable_range : Dict</text>
<text text-anchor="start" x="676.538" y="-589.6" font-family="Times,serif" font-size="14.00">variables_of_interest : Enumerate</text>
<text text-anchor="start" x="676.538" y="-572.8" font-family="Times,serif" font-size="14.00">dynamic : IntegerArray</text>
<text text-anchor="start" x="676.538" y="-556" font-family="Times,serif" font-size="14.00">tauT : FloatArray</text>
<text text-anchor="start" x="676.538" y="-539.2" font-family="Times,serif" font-size="14.00">ui_configurable_parameters : list</text>
<text text-anchor="start" x="676.538" y="-522.4" font-family="Times,serif" font-size="14.00">taux : FloatArray</text>
<polyline fill="none" stroke="black" points="668.538,-515.6 873.462,-515.6 "/>
<text text-anchor="start" x="676.538" y="-497.6" font-family="Times,serif" font-size="14.00">dfun()</text>
<text text-anchor="start" x="676.538" y="-480.8" font-family="Times,serif" font-size="14.00">configure()</text>
<text text-anchor="start" x="676.538" y="-464" font-family="Times,serif" font-size="14.00">dfunDyn()</text>
</g>
<!-- 3&#45;&gt;8 -->
<g id="edge8" class="edge"><title>3&#45;&gt;8</title>
<path fill="none" stroke="black" d="M781.463,-683.038C794.067,-756.812 821.836,-850.427 883,-910 988.495,-1012.75 1161.28,-1045.92 1273.83,-1056.43"/>
<polygon fill="none" stroke="black" points="1273.58,-1059.92 1283.85,-1057.32 1274.2,-1052.95 1273.58,-1059.92"/>
</g>
<!-- 4 -->
<g id="node5" class="node"><title>4</title>
<polygon fill="none" stroke="black" points="466.91,-8.8 466.91,-167.2 629.09,-167.2 629.09,-8.8 466.91,-8.8"/>
<text text-anchor="middle" x="548" y="-149.2" font-family="Times,serif" font-size="14.00">JRFast</text>
<polyline fill="none" stroke="black" points="466.91,-142.4 629.09,-142.4 "/>
<text text-anchor="start" x="474.91" y="-124.4" font-family="Times,serif" font-size="14.00">dfunlocals : dict</text>
<text text-anchor="start" x="474.91" y="-107.6" font-family="Times,serif" font-size="14.00">invalid_dfun_cache : bool</text>
<text text-anchor="start" x="474.91" y="-90.8" font-family="Times,serif" font-size="14.00">dy</text>
<text text-anchor="start" x="474.91" y="-74" font-family="Times,serif" font-size="14.00">dfunglobals : dict</text>
<text text-anchor="start" x="474.91" y="-57.2" font-family="Times,serif" font-size="14.00">y1m2</text>
<text text-anchor="start" x="474.91" y="-40.4" font-family="Times,serif" font-size="14.00">invalid_dfun_cache : bool</text>
<polyline fill="none" stroke="black" points="466.91,-33.6 629.09,-33.6 "/>
<text text-anchor="start" x="474.91" y="-15.6" font-family="Times,serif" font-size="14.00">dfun()</text>
</g>
<!-- 5 -->
<g id="node6" class="node"><title>5</title>
<polygon fill="none" stroke="black" points="445.538,-373.2 445.538,-766.8 650.462,-766.8 650.462,-373.2 445.538,-373.2"/>
<text text-anchor="middle" x="548" y="-748.8" font-family="Times,serif" font-size="14.00">JansenRit</text>
<polyline fill="none" stroke="black" points="445.538,-742 650.462,-742 "/>
<text text-anchor="start" x="453.538" y="-724" font-family="Times,serif" font-size="14.00">cvar</text>
<text text-anchor="start" x="453.538" y="-707.2" font-family="Times,serif" font-size="14.00">A : FloatArray</text>
<text text-anchor="start" x="453.538" y="-690.4" font-family="Times,serif" font-size="14.00">v0 : FloatArray</text>
<text text-anchor="start" x="453.538" y="-673.6" font-family="Times,serif" font-size="14.00">r : FloatArray</text>
<text text-anchor="start" x="453.538" y="-656.8" font-family="Times,serif" font-size="14.00">a_4 : FloatArray</text>
<text text-anchor="start" x="453.538" y="-640" font-family="Times,serif" font-size="14.00">a_3 : FloatArray</text>
<text text-anchor="start" x="453.538" y="-623.2" font-family="Times,serif" font-size="14.00">a_2 : FloatArray</text>
<text text-anchor="start" x="453.538" y="-606.4" font-family="Times,serif" font-size="14.00">a_1 : FloatArray</text>
<text text-anchor="start" x="453.538" y="-589.6" font-family="Times,serif" font-size="14.00">ui_configurable_parameters : list</text>
<text text-anchor="start" x="453.538" y="-572.8" font-family="Times,serif" font-size="14.00">state_variable_range : Dict</text>
<text text-anchor="start" x="453.538" y="-556" font-family="Times,serif" font-size="14.00">nu_max : FloatArray</text>
<text text-anchor="start" x="453.538" y="-539.2" font-family="Times,serif" font-size="14.00">J : FloatArray</text>
<text text-anchor="start" x="453.538" y="-522.4" font-family="Times,serif" font-size="14.00">p_min : FloatArray</text>
<text text-anchor="start" x="453.538" y="-505.6" font-family="Times,serif" font-size="14.00">mu : FloatArray</text>
<text text-anchor="start" x="453.538" y="-488.8" font-family="Times,serif" font-size="14.00">device_info</text>
<text text-anchor="start" x="453.538" y="-472" font-family="Times,serif" font-size="14.00">B : FloatArray</text>
<text text-anchor="start" x="453.538" y="-455.2" font-family="Times,serif" font-size="14.00">a : FloatArray</text>
<text text-anchor="start" x="453.538" y="-438.4" font-family="Times,serif" font-size="14.00">variables_of_interest : Enumerate</text>
<text text-anchor="start" x="453.538" y="-421.6" font-family="Times,serif" font-size="14.00">b : FloatArray</text>
<text text-anchor="start" x="453.538" y="-404.8" font-family="Times,serif" font-size="14.00">p_max : FloatArray</text>
<polyline fill="none" stroke="black" points="445.538,-398 650.462,-398 "/>
<text text-anchor="start" x="453.538" y="-380" font-family="Times,serif" font-size="14.00">dfun()</text>
</g>
<!-- 4&#45;&gt;5 -->
<g id="edge10" class="edge"><title>4&#45;&gt;5</title>
<path fill="none" stroke="black" d="M548,-167.456C548,-220.66 548,-293.632 548,-362.786"/>
<polygon fill="none" stroke="black" points="544.5,-362.958 548,-372.958 551.5,-362.958 544.5,-362.958"/>
</g>
<!-- 5&#45;&gt;8 -->
<g id="edge12" class="edge"><title>5&#45;&gt;8</title>
<path fill="none" stroke="black" d="M575.706,-766.907C592.182,-819.928 618.381,-872.855 660,-910 749.492,-989.873 1094.02,-1033.59 1273.63,-1051.38"/>
<polygon fill="none" stroke="black" points="1273.34,-1054.87 1283.64,-1052.36 1274.03,-1047.9 1273.34,-1054.87"/>
</g>
<!-- 6 -->
<g id="node7" class="node"><title>6</title>
<polygon fill="none" stroke="black" points="891.538,-482.4 891.538,-657.6 1096.46,-657.6 1096.46,-482.4 891.538,-482.4"/>
<text text-anchor="middle" x="994" y="-639.6" font-family="Times,serif" font-size="14.00">Kuramoto</text>
<polyline fill="none" stroke="black" points="891.538,-632.8 1096.46,-632.8 "/>
<text text-anchor="start" x="899.538" y="-614.8" font-family="Times,serif" font-size="14.00">derivative</text>
<text text-anchor="start" x="899.538" y="-598" font-family="Times,serif" font-size="14.00">cvar</text>
<text text-anchor="start" x="899.538" y="-581.2" font-family="Times,serif" font-size="14.00">state_variable_range : Dict</text>
<text text-anchor="start" x="899.538" y="-564.4" font-family="Times,serif" font-size="14.00">ui_configurable_parameters : list</text>
<text text-anchor="start" x="899.538" y="-547.6" font-family="Times,serif" font-size="14.00">device_info</text>
<text text-anchor="start" x="899.538" y="-530.8" font-family="Times,serif" font-size="14.00">variables_of_interest : Enumerate</text>
<text text-anchor="start" x="899.538" y="-514" font-family="Times,serif" font-size="14.00">omega : FloatArray</text>
<polyline fill="none" stroke="black" points="891.538,-507.2 1096.46,-507.2 "/>
<text text-anchor="start" x="899.538" y="-489.2" font-family="Times,serif" font-size="14.00">dfun()</text>
</g>
<!-- 6&#45;&gt;8 -->
<g id="edge14" class="edge"><title>6&#45;&gt;8</title>
<path fill="none" stroke="black" d="M1004.58,-657.96C1017.52,-732.101 1045.68,-837.827 1106,-910 1149.87,-962.497 1216.87,-999.657 1274.1,-1023.98"/>
<polygon fill="none" stroke="black" points="1272.99,-1027.3 1283.56,-1027.92 1275.68,-1020.84 1272.99,-1027.3"/>
</g>
<!-- 7 -->
<g id="node8" class="node"><title>7</title>
<polygon fill="none" stroke="black" points="1337.54,-238.8 1337.54,-901.2 1542.46,-901.2 1542.46,-238.8 1337.54,-238.8"/>
<text text-anchor="middle" x="1440" y="-883.2" font-family="Times,serif" font-size="14.00">LarterBreakspear</text>
<polyline fill="none" stroke="black" points="1337.54,-876.4 1542.46,-876.4 "/>
<text text-anchor="start" x="1345.54" y="-858.4" font-family="Times,serif" font-size="14.00">cvar</text>
<text text-anchor="start" x="1345.54" y="-841.6" font-family="Times,serif" font-size="14.00">ane : FloatArray</text>
<text text-anchor="start" x="1345.54" y="-824.8" font-family="Times,serif" font-size="14.00">tau_K : FloatArray</text>
<text text-anchor="start" x="1345.54" y="-808" font-family="Times,serif" font-size="14.00">VNa : FloatArray</text>
<text text-anchor="start" x="1345.54" y="-791.2" font-family="Times,serif" font-size="14.00">phi : FloatArray</text>
<text text-anchor="start" x="1345.54" y="-774.4" font-family="Times,serif" font-size="14.00">QZ_max : FloatArray</text>
<text text-anchor="start" x="1345.54" y="-757.6" font-family="Times,serif" font-size="14.00">gNa : FloatArray</text>
<text text-anchor="start" x="1345.54" y="-740.8" font-family="Times,serif" font-size="14.00">gCa : FloatArray</text>
<text text-anchor="start" x="1345.54" y="-724" font-family="Times,serif" font-size="14.00">TCa : FloatArray</text>
<text text-anchor="start" x="1345.54" y="-707.2" font-family="Times,serif" font-size="14.00">d_Na : FloatArray</text>
<text text-anchor="start" x="1345.54" y="-690.4" font-family="Times,serif" font-size="14.00">rNMDA : FloatArray</text>
<text text-anchor="start" x="1345.54" y="-673.6" font-family="Times,serif" font-size="14.00">state_variable_range : Dict</text>
<text text-anchor="start" x="1345.54" y="-656.8" font-family="Times,serif" font-size="14.00">TK : FloatArray</text>
<text text-anchor="start" x="1345.54" y="-640" font-family="Times,serif" font-size="14.00">variables_of_interest : Enumerate</text>
<text text-anchor="start" x="1345.54" y="-623.2" font-family="Times,serif" font-size="14.00">TNa : FloatArray</text>
<text text-anchor="start" x="1345.54" y="-606.4" font-family="Times,serif" font-size="14.00">gL : FloatArray</text>
<text text-anchor="start" x="1345.54" y="-589.6" font-family="Times,serif" font-size="14.00">gK : FloatArray</text>
<text text-anchor="start" x="1345.54" y="-572.8" font-family="Times,serif" font-size="14.00">d_Z : FloatArray</text>
<text text-anchor="start" x="1345.54" y="-556" font-family="Times,serif" font-size="14.00">C : FloatArray</text>
<text text-anchor="start" x="1345.54" y="-539.2" font-family="Times,serif" font-size="14.00">d_V : FloatArray</text>
<text text-anchor="start" x="1345.54" y="-522.4" font-family="Times,serif" font-size="14.00">VK : FloatArray</text>
<text text-anchor="start" x="1345.54" y="-505.6" font-family="Times,serif" font-size="14.00">VL : FloatArray</text>
<text text-anchor="start" x="1345.54" y="-488.8" font-family="Times,serif" font-size="14.00">ani : FloatArray</text>
<text text-anchor="start" x="1345.54" y="-472" font-family="Times,serif" font-size="14.00">d_K : FloatArray</text>
<text text-anchor="start" x="1345.54" y="-455.2" font-family="Times,serif" font-size="14.00">VT : FloatArray</text>
<text text-anchor="start" x="1345.54" y="-438.4" font-family="Times,serif" font-size="14.00">t_scale : FloatArray</text>
<text text-anchor="start" x="1345.54" y="-421.6" font-family="Times,serif" font-size="14.00">ZT : FloatArray</text>
<text text-anchor="start" x="1345.54" y="-404.8" font-family="Times,serif" font-size="14.00">VCa : FloatArray</text>
<text text-anchor="start" x="1345.54" y="-388" font-family="Times,serif" font-size="14.00">b : FloatArray</text>
<text text-anchor="start" x="1345.54" y="-371.2" font-family="Times,serif" font-size="14.00">d_Ca : FloatArray</text>
<text text-anchor="start" x="1345.54" y="-354.4" font-family="Times,serif" font-size="14.00">aee : FloatArray</text>
<text text-anchor="start" x="1345.54" y="-337.6" font-family="Times,serif" font-size="14.00">Iext : FloatArray</text>
<text text-anchor="start" x="1345.54" y="-320.8" font-family="Times,serif" font-size="14.00">ui_configurable_parameters : list</text>
<text text-anchor="start" x="1345.54" y="-304" font-family="Times,serif" font-size="14.00">aie : FloatArray</text>
<text text-anchor="start" x="1345.54" y="-287.2" font-family="Times,serif" font-size="14.00">aei : FloatArray</text>
<text text-anchor="start" x="1345.54" y="-270.4" font-family="Times,serif" font-size="14.00">QV_max : FloatArray</text>
<polyline fill="none" stroke="black" points="1337.54,-263.6 1542.46,-263.6 "/>
<text text-anchor="start" x="1345.54" y="-245.6" font-family="Times,serif" font-size="14.00">dfun()</text>
</g>
<!-- 7&#45;&gt;8 -->
<g id="edge16" class="edge"><title>7&#45;&gt;8</title>
<path fill="none" stroke="black" d="M1402.26,-901.234C1400.78,-914.172 1399.34,-926.748 1397.97,-938.79"/>
<polygon fill="none" stroke="black" points="1394.48,-938.443 1396.83,-948.776 1401.44,-939.238 1394.48,-938.443"/>
</g>
<!-- 9 -->
<g id="node10" class="node"><title>9</title>
<polygon fill="none" stroke="black" points="1114.54,-314.4 1114.54,-825.6 1319.46,-825.6 1319.46,-314.4 1114.54,-314.4"/>
<text text-anchor="middle" x="1217" y="-807.6" font-family="Times,serif" font-size="14.00">ReducedSetFitzHughNagumo</text>
<polyline fill="none" stroke="black" points="1114.54,-800.8 1319.46,-800.8 "/>
<text text-anchor="start" x="1122.54" y="-782.8" font-family="Times,serif" font-size="14.00">cvar</text>
<text text-anchor="start" x="1122.54" y="-766" font-family="Times,serif" font-size="14.00">number_of_modes : int</text>
<text text-anchor="start" x="1122.54" y="-749.2" font-family="Times,serif" font-size="14.00">Bik : NoneType</text>
<text text-anchor="start" x="1122.54" y="-732.4" font-family="Times,serif" font-size="14.00">Cik : NoneType</text>
<text text-anchor="start" x="1122.54" y="-715.6" font-family="Times,serif" font-size="14.00">Aik : NoneType</text>
<text text-anchor="start" x="1122.54" y="-698.8" font-family="Times,serif" font-size="14.00">f_i : NoneType</text>
<text text-anchor="start" x="1122.54" y="-682" font-family="Times,serif" font-size="14.00">m_i : NoneType</text>
<text text-anchor="start" x="1122.54" y="-665.2" font-family="Times,serif" font-size="14.00">n_i : NoneType</text>
<text text-anchor="start" x="1122.54" y="-648.4" font-family="Times,serif" font-size="14.00">II_i : NoneType</text>
<text text-anchor="start" x="1122.54" y="-631.6" font-family="Times,serif" font-size="14.00">e_i : NoneType</text>
<text text-anchor="start" x="1122.54" y="-614.8" font-family="Times,serif" font-size="14.00">nu : int</text>
<text text-anchor="start" x="1122.54" y="-598" font-family="Times,serif" font-size="14.00">nv : int</text>
<text text-anchor="start" x="1122.54" y="-581.2" font-family="Times,serif" font-size="14.00">IE_i : NoneType</text>
<text text-anchor="start" x="1122.54" y="-564.4" font-family="Times,serif" font-size="14.00">a : FloatArray</text>
<text text-anchor="start" x="1122.54" y="-547.6" font-family="Times,serif" font-size="14.00">tau : FloatArray</text>
<text text-anchor="start" x="1122.54" y="-530.8" font-family="Times,serif" font-size="14.00">K11 : FloatArray</text>
<text text-anchor="start" x="1122.54" y="-514" font-family="Times,serif" font-size="14.00">b : FloatArray</text>
<text text-anchor="start" x="1122.54" y="-497.2" font-family="Times,serif" font-size="14.00">K12 : FloatArray</text>
<text text-anchor="start" x="1122.54" y="-480.4" font-family="Times,serif" font-size="14.00">state_variable_range : Dict</text>
<text text-anchor="start" x="1122.54" y="-463.6" font-family="Times,serif" font-size="14.00">K21 : FloatArray</text>
<text text-anchor="start" x="1122.54" y="-446.8" font-family="Times,serif" font-size="14.00">mu : FloatArray</text>
<text text-anchor="start" x="1122.54" y="-430" font-family="Times,serif" font-size="14.00">ui_configurable_parameters : list</text>
<text text-anchor="start" x="1122.54" y="-413.2" font-family="Times,serif" font-size="14.00">device_info</text>
<text text-anchor="start" x="1122.54" y="-396.4" font-family="Times,serif" font-size="14.00">variables_of_interest : Enumerate</text>
<text text-anchor="start" x="1122.54" y="-379.6" font-family="Times,serif" font-size="14.00">sigma : FloatArray</text>
<polyline fill="none" stroke="black" points="1114.54,-372.8 1319.46,-372.8 "/>
<text text-anchor="start" x="1122.54" y="-354.8" font-family="Times,serif" font-size="14.00">configure()</text>
<text text-anchor="start" x="1122.54" y="-338" font-family="Times,serif" font-size="14.00">dfun()</text>
<text text-anchor="start" x="1122.54" y="-321.2" font-family="Times,serif" font-size="14.00">update_derived_parameters()</text>
</g>
<!-- 9&#45;&gt;8 -->
<g id="edge18" class="edge"><title>9&#45;&gt;8</title>
<path fill="none" stroke="black" d="M1300.26,-825.805C1309.83,-854.252 1319.55,-882.773 1329,-910 1332.33,-919.587 1335.82,-929.498 1339.37,-939.448"/>
<polygon fill="none" stroke="black" points="1336.11,-940.751 1342.78,-948.99 1342.71,-938.396 1336.11,-940.751"/>
</g>
<!-- 10 -->
<g id="node11" class="node"><title>10</title>
<polygon fill="none" stroke="black" points="1560.54,-230.4 1560.54,-909.6 1765.46,-909.6 1765.46,-230.4 1560.54,-230.4"/>
<text text-anchor="middle" x="1663" y="-891.6" font-family="Times,serif" font-size="14.00">ReducedSetHindmarshRose</text>
<polyline fill="none" stroke="black" points="1560.54,-884.8 1765.46,-884.8 "/>
<text text-anchor="start" x="1568.54" y="-866.8" font-family="Times,serif" font-size="14.00">b_i : NoneType</text>
<text text-anchor="start" x="1568.54" y="-850" font-family="Times,serif" font-size="14.00">cvar</text>
<text text-anchor="start" x="1568.54" y="-833.2" font-family="Times,serif" font-size="14.00">number_of_modes : int</text>
<text text-anchor="start" x="1568.54" y="-816.4" font-family="Times,serif" font-size="14.00">p_i : NoneType</text>
<text text-anchor="start" x="1568.54" y="-799.6" font-family="Times,serif" font-size="14.00">c_i : NoneType</text>
<text text-anchor="start" x="1568.54" y="-782.8" font-family="Times,serif" font-size="14.00">B_ik : NoneType</text>
<text text-anchor="start" x="1568.54" y="-766" font-family="Times,serif" font-size="14.00">f_i : NoneType</text>
<text text-anchor="start" x="1568.54" y="-749.2" font-family="Times,serif" font-size="14.00">C_ik : NoneType</text>
<text text-anchor="start" x="1568.54" y="-732.4" font-family="Times,serif" font-size="14.00">nu : int</text>
<text text-anchor="start" x="1568.54" y="-715.6" font-family="Times,serif" font-size="14.00">m_i : NoneType</text>
<text text-anchor="start" x="1568.54" y="-698.8" font-family="Times,serif" font-size="14.00">n_i : NoneType</text>
<text text-anchor="start" x="1568.54" y="-682" font-family="Times,serif" font-size="14.00">II_i : NoneType</text>
<text text-anchor="start" x="1568.54" y="-665.2" font-family="Times,serif" font-size="14.00">A_ik : NoneType</text>
<text text-anchor="start" x="1568.54" y="-648.4" font-family="Times,serif" font-size="14.00">e_i : NoneType</text>
<text text-anchor="start" x="1568.54" y="-631.6" font-family="Times,serif" font-size="14.00">h_i : NoneType</text>
<text text-anchor="start" x="1568.54" y="-614.8" font-family="Times,serif" font-size="14.00">d_i : NoneType</text>
<text text-anchor="start" x="1568.54" y="-598" font-family="Times,serif" font-size="14.00">IE_i : NoneType</text>
<text text-anchor="start" x="1568.54" y="-581.2" font-family="Times,serif" font-size="14.00">a_i : NoneType</text>
<text text-anchor="start" x="1568.54" y="-564.4" font-family="Times,serif" font-size="14.00">nv : int</text>
<text text-anchor="start" x="1568.54" y="-547.6" font-family="Times,serif" font-size="14.00">a : FloatArray</text>
<text text-anchor="start" x="1568.54" y="-530.8" font-family="Times,serif" font-size="14.00">K12 : FloatArray</text>
<text text-anchor="start" x="1568.54" y="-514" font-family="Times,serif" font-size="14.00">c : FloatArray</text>
<text text-anchor="start" x="1568.54" y="-497.2" font-family="Times,serif" font-size="14.00">b : FloatArray</text>
<text text-anchor="start" x="1568.54" y="-480.4" font-family="Times,serif" font-size="14.00">d : FloatArray</text>
<text text-anchor="start" x="1568.54" y="-463.6" font-family="Times,serif" font-size="14.00">state_variable_range : Dict</text>
<text text-anchor="start" x="1568.54" y="-446.8" font-family="Times,serif" font-size="14.00">K21 : FloatArray</text>
<text text-anchor="start" x="1568.54" y="-430" font-family="Times,serif" font-size="14.00">K11 : FloatArray</text>
<text text-anchor="start" x="1568.54" y="-413.2" font-family="Times,serif" font-size="14.00">mu : FloatArray</text>
<text text-anchor="start" x="1568.54" y="-396.4" font-family="Times,serif" font-size="14.00">ui_configurable_parameters : list</text>
<text text-anchor="start" x="1568.54" y="-379.6" font-family="Times,serif" font-size="14.00">s : FloatArray</text>
<text text-anchor="start" x="1568.54" y="-362.8" font-family="Times,serif" font-size="14.00">r : FloatArray</text>
<text text-anchor="start" x="1568.54" y="-346" font-family="Times,serif" font-size="14.00">variables_of_interest : Enumerate</text>
<text text-anchor="start" x="1568.54" y="-329.2" font-family="Times,serif" font-size="14.00">device_info</text>
<text text-anchor="start" x="1568.54" y="-312.4" font-family="Times,serif" font-size="14.00">sigma : FloatArray</text>
<text text-anchor="start" x="1568.54" y="-295.6" font-family="Times,serif" font-size="14.00">xo : FloatArray</text>
<polyline fill="none" stroke="black" points="1560.54,-288.8 1765.46,-288.8 "/>
<text text-anchor="start" x="1568.54" y="-270.8" font-family="Times,serif" font-size="14.00">dfun()</text>
<text text-anchor="start" x="1568.54" y="-254" font-family="Times,serif" font-size="14.00">update_derived_parameters()</text>
<text text-anchor="start" x="1568.54" y="-237.2" font-family="Times,serif" font-size="14.00">configure()</text>
</g>
<!-- 10&#45;&gt;8 -->
<g id="edge20" class="edge"><title>10&#45;&gt;8</title>
<path fill="none" stroke="black" d="M1560.39,-894.911C1557.34,-900.032 1554.21,-905.066 1551,-910 1534.8,-934.864 1513.53,-958.261 1491.61,-978.874"/>
<polygon fill="none" stroke="black" points="1489.13,-976.4 1484.15,-985.755 1493.87,-981.542 1489.13,-976.4"/>
</g>
<!-- 11 -->
<g id="node12" class="node"><title>11</title>
<polygon fill="none" stroke="black" points="2006.54,-423.6 2006.54,-716.4 2211.46,-716.4 2211.46,-423.6 2006.54,-423.6"/>
<text text-anchor="middle" x="2109" y="-698.4" font-family="Times,serif" font-size="14.00">ReducedWongWang</text>
<polyline fill="none" stroke="black" points="2006.54,-691.6 2211.46,-691.6 "/>
<text text-anchor="start" x="2014.54" y="-673.6" font-family="Times,serif" font-size="14.00">cvar</text>
<text text-anchor="start" x="2014.54" y="-656.8" font-family="Times,serif" font-size="14.00">a : FloatArray</text>
<text text-anchor="start" x="2014.54" y="-640" font-family="Times,serif" font-size="14.00">I_o : FloatArray</text>
<text text-anchor="start" x="2014.54" y="-623.2" font-family="Times,serif" font-size="14.00">b : FloatArray</text>
<text text-anchor="start" x="2014.54" y="-606.4" font-family="Times,serif" font-size="14.00">d : FloatArray</text>
<text text-anchor="start" x="2014.54" y="-589.6" font-family="Times,serif" font-size="14.00">state_variable_range : Dict</text>
<text text-anchor="start" x="2014.54" y="-572.8" font-family="Times,serif" font-size="14.00">ui_configurable_parameters : list</text>
<text text-anchor="start" x="2014.54" y="-556" font-family="Times,serif" font-size="14.00">J_N : FloatArray</text>
<text text-anchor="start" x="2014.54" y="-539.2" font-family="Times,serif" font-size="14.00">sigma_noise : FloatArray</text>
<text text-anchor="start" x="2014.54" y="-522.4" font-family="Times,serif" font-size="14.00">w : FloatArray</text>
<text text-anchor="start" x="2014.54" y="-505.6" font-family="Times,serif" font-size="14.00">variables_of_interest : Enumerate</text>
<text text-anchor="start" x="2014.54" y="-488.8" font-family="Times,serif" font-size="14.00">tau_s : FloatArray</text>
<text text-anchor="start" x="2014.54" y="-472" font-family="Times,serif" font-size="14.00">gamma : FloatArray</text>
<polyline fill="none" stroke="black" points="2006.54,-465.2 2211.46,-465.2 "/>
<text text-anchor="start" x="2014.54" y="-447.2" font-family="Times,serif" font-size="14.00">dfun()</text>
<text text-anchor="start" x="2014.54" y="-430.4" font-family="Times,serif" font-size="14.00">configure()</text>
</g>
<!-- 11&#45;&gt;8 -->
<g id="edge22" class="edge"><title>11&#45;&gt;8</title>
<path fill="none" stroke="black" d="M2093.34,-716.591C2078.79,-784.099 2050.8,-860.221 1997,-910 1924.53,-977.058 1650.44,-1024.52 1494.42,-1046.75"/>
<polygon fill="none" stroke="black" points="1493.73,-1043.32 1484.32,-1048.18 1494.71,-1050.25 1493.73,-1043.32"/>
</g>
<!-- 12 -->
<g id="node13" class="node"><title>12</title>
<polygon fill="none" stroke="black" points="1783.54,-314.4 1783.54,-825.6 1988.46,-825.6 1988.46,-314.4 1783.54,-314.4"/>
<text text-anchor="middle" x="1886" y="-807.6" font-family="Times,serif" font-size="14.00">WilsonCowan</text>
<polyline fill="none" stroke="black" points="1783.54,-800.8 1988.46,-800.8 "/>
<text text-anchor="start" x="1791.54" y="-782.8" font-family="Times,serif" font-size="14.00">cvar</text>
<text text-anchor="start" x="1791.54" y="-766" font-family="Times,serif" font-size="14.00">tau_i : FloatArray</text>
<text text-anchor="start" x="1791.54" y="-749.2" font-family="Times,serif" font-size="14.00">state_variable_range : Dict</text>
<text text-anchor="start" x="1791.54" y="-732.4" font-family="Times,serif" font-size="14.00">tau_e : FloatArray</text>
<text text-anchor="start" x="1791.54" y="-715.6" font-family="Times,serif" font-size="14.00">r_i : FloatArray</text>
<text text-anchor="start" x="1791.54" y="-698.8" font-family="Times,serif" font-size="14.00">device_info</text>
<text text-anchor="start" x="1791.54" y="-682" font-family="Times,serif" font-size="14.00">variables_of_interest : Enumerate</text>
<text text-anchor="start" x="1791.54" y="-665.2" font-family="Times,serif" font-size="14.00">r_e : FloatArray</text>
<text text-anchor="start" x="1791.54" y="-648.4" font-family="Times,serif" font-size="14.00">c_ie : FloatArray</text>
<text text-anchor="start" x="1791.54" y="-631.6" font-family="Times,serif" font-size="14.00">b_i : FloatArray</text>
<text text-anchor="start" x="1791.54" y="-614.8" font-family="Times,serif" font-size="14.00">alpha_e : FloatArray</text>
<text text-anchor="start" x="1791.54" y="-598" font-family="Times,serif" font-size="14.00">c_e : FloatArray</text>
<text text-anchor="start" x="1791.54" y="-581.2" font-family="Times,serif" font-size="14.00">c_i : FloatArray</text>
<text text-anchor="start" x="1791.54" y="-564.4" font-family="Times,serif" font-size="14.00">c_ii : FloatArray</text>
<text text-anchor="start" x="1791.54" y="-547.6" font-family="Times,serif" font-size="14.00">b_e : FloatArray</text>
<text text-anchor="start" x="1791.54" y="-530.8" font-family="Times,serif" font-size="14.00">alpha_i : FloatArray</text>
<text text-anchor="start" x="1791.54" y="-514" font-family="Times,serif" font-size="14.00">Q : FloatArray</text>
<text text-anchor="start" x="1791.54" y="-497.2" font-family="Times,serif" font-size="14.00">P : FloatArray</text>
<text text-anchor="start" x="1791.54" y="-480.4" font-family="Times,serif" font-size="14.00">a_e : FloatArray</text>
<text text-anchor="start" x="1791.54" y="-463.6" font-family="Times,serif" font-size="14.00">a_i : FloatArray</text>
<text text-anchor="start" x="1791.54" y="-446.8" font-family="Times,serif" font-size="14.00">theta_e : FloatArray</text>
<text text-anchor="start" x="1791.54" y="-430" font-family="Times,serif" font-size="14.00">theta_i : FloatArray</text>
<text text-anchor="start" x="1791.54" y="-413.2" font-family="Times,serif" font-size="14.00">k_i : FloatArray</text>
<text text-anchor="start" x="1791.54" y="-396.4" font-family="Times,serif" font-size="14.00">c_ee : FloatArray</text>
<text text-anchor="start" x="1791.54" y="-379.6" font-family="Times,serif" font-size="14.00">ui_configurable_parameters : list</text>
<text text-anchor="start" x="1791.54" y="-362.8" font-family="Times,serif" font-size="14.00">c_ei : FloatArray</text>
<text text-anchor="start" x="1791.54" y="-346" font-family="Times,serif" font-size="14.00">k_e : FloatArray</text>
<polyline fill="none" stroke="black" points="1783.54,-339.2 1988.46,-339.2 "/>
<text text-anchor="start" x="1791.54" y="-321.2" font-family="Times,serif" font-size="14.00">dfun()</text>
</g>
<!-- 12&#45;&gt;8 -->
<g id="edge24" class="edge"><title>12&#45;&gt;8</title>
<path fill="none" stroke="black" d="M1829.93,-825.807C1815.38,-856.638 1797.06,-885.745 1774,-910 1700.05,-987.768 1581.49,-1026.07 1494.48,-1044.56"/>
<polygon fill="none" stroke="black" points="1493.65,-1041.15 1484.56,-1046.61 1495.06,-1048.01 1493.65,-1041.15"/>
</g>
<!-- 13 -->
<g id="node14" class="node"><title>13</title>
<polygon fill="none" stroke="black" points="2452.54,-280.8 2452.54,-859.2 2657.46,-859.2 2657.46,-280.8 2452.54,-280.8"/>
<text text-anchor="middle" x="2555" y="-841.2" font-family="Times,serif" font-size="14.00">ZetterbergJansen</text>
<polyline fill="none" stroke="black" points="2452.54,-834.4 2657.46,-834.4 "/>
<text text-anchor="start" x="2460.54" y="-816.4" font-family="Times,serif" font-size="14.00">cvar</text>
<text text-anchor="start" x="2460.54" y="-799.6" font-family="Times,serif" font-size="14.00">ki_2 : NoneType</text>
<text text-anchor="start" x="2460.54" y="-782.8" font-family="Times,serif" font-size="14.00">Hiki : NoneType</text>
<text text-anchor="start" x="2460.54" y="-766" font-family="Times,serif" font-size="14.00">ke_2 : NoneType</text>
<text text-anchor="start" x="2460.54" y="-749.2" font-family="Times,serif" font-size="14.00">keke : NoneType</text>
<text text-anchor="start" x="2460.54" y="-732.4" font-family="Times,serif" font-size="14.00">Heke : NoneType</text>
<text text-anchor="start" x="2460.54" y="-715.6" font-family="Times,serif" font-size="14.00">kiki : NoneType</text>
<text text-anchor="start" x="2460.54" y="-698.8" font-family="Times,serif" font-size="14.00">rho_1 : FloatArray</text>
<text text-anchor="start" x="2460.54" y="-682" font-family="Times,serif" font-size="14.00">rho_2 : FloatArray</text>
<text text-anchor="start" x="2460.54" y="-665.2" font-family="Times,serif" font-size="14.00">state_variable_range : Dict</text>
<text text-anchor="start" x="2460.54" y="-648.4" font-family="Times,serif" font-size="14.00">Hi : FloatArray</text>
<text text-anchor="start" x="2460.54" y="-631.6" font-family="Times,serif" font-size="14.00">gamma_2T : FloatArray</text>
<text text-anchor="start" x="2460.54" y="-614.8" font-family="Times,serif" font-size="14.00">variables_of_interest : Enumerate</text>
<text text-anchor="start" x="2460.54" y="-598" font-family="Times,serif" font-size="14.00">He : FloatArray</text>
<text text-anchor="start" x="2460.54" y="-581.2" font-family="Times,serif" font-size="14.00">ui_configurable_parameters : list</text>
<text text-anchor="start" x="2460.54" y="-564.4" font-family="Times,serif" font-size="14.00">Q : FloatArray</text>
<text text-anchor="start" x="2460.54" y="-547.6" font-family="Times,serif" font-size="14.00">P : FloatArray</text>
<text text-anchor="start" x="2460.54" y="-530.8" font-family="Times,serif" font-size="14.00">U : FloatArray</text>
<text text-anchor="start" x="2460.54" y="-514" font-family="Times,serif" font-size="14.00">e0 : FloatArray</text>
<text text-anchor="start" x="2460.54" y="-497.2" font-family="Times,serif" font-size="14.00">ke : FloatArray</text>
<text text-anchor="start" x="2460.54" y="-480.4" font-family="Times,serif" font-size="14.00">ki : FloatArray</text>
<text text-anchor="start" x="2460.54" y="-463.6" font-family="Times,serif" font-size="14.00">gamma_1T : FloatArray</text>
<text text-anchor="start" x="2460.54" y="-446.8" font-family="Times,serif" font-size="14.00">gamma_3T : FloatArray</text>
<text text-anchor="start" x="2460.54" y="-430" font-family="Times,serif" font-size="14.00">gamma_5 : FloatArray</text>
<text text-anchor="start" x="2460.54" y="-413.2" font-family="Times,serif" font-size="14.00">gamma_4 : FloatArray</text>
<text text-anchor="start" x="2460.54" y="-396.4" font-family="Times,serif" font-size="14.00">gamma_1 : FloatArray</text>
<text text-anchor="start" x="2460.54" y="-379.6" font-family="Times,serif" font-size="14.00">gamma_3 : FloatArray</text>
<text text-anchor="start" x="2460.54" y="-362.8" font-family="Times,serif" font-size="14.00">gamma_2 : FloatArray</text>
<polyline fill="none" stroke="black" points="2452.54,-356 2657.46,-356 "/>
<text text-anchor="start" x="2460.54" y="-338" font-family="Times,serif" font-size="14.00">update_derived_parameters()</text>
<text text-anchor="start" x="2460.54" y="-321.2" font-family="Times,serif" font-size="14.00">dfun()</text>
<text text-anchor="start" x="2460.54" y="-304.4" font-family="Times,serif" font-size="14.00">sigma_fun()</text>
<text text-anchor="start" x="2460.54" y="-287.6" font-family="Times,serif" font-size="14.00">configure()</text>
</g>
<!-- 13&#45;&gt;8 -->
<g id="edge26" class="edge"><title>13&#45;&gt;8</title>
<path fill="none" stroke="black" d="M2487.45,-859.274C2475.03,-878.214 2460.35,-895.483 2443,-910 2300.82,-1028.95 1736.4,-1054.21 1494.74,-1059.56"/>
<polygon fill="none" stroke="black" points="1494.45,-1056.07 1484.53,-1059.78 1494.6,-1063.07 1494.45,-1056.07"/>
</g>
<!-- 14 -->
<g id="node15" class="node"><title>14</title>
<polygon fill="none" stroke="black" points="1365.96,-0.4 1365.96,-175.6 1490.04,-175.6 1490.04,-0.4 1365.96,-0.4"/>
<text text-anchor="middle" x="1428" y="-157.6" font-family="Times,serif" font-size="14.00">model_device_info</text>
<polyline fill="none" stroke="black" points="1365.96,-150.8 1490.04,-150.8 "/>
<text text-anchor="start" x="1373.96" y="-132.8" font-family="Times,serif" font-size="14.00">inst</text>
<polyline fill="none" stroke="black" points="1365.96,-126 1490.04,-126 "/>
<text text-anchor="start" x="1373.96" y="-108" font-family="Times,serif" font-size="14.00">n_cvar()</text>
<text text-anchor="start" x="1373.96" y="-91.2" font-family="Times,serif" font-size="14.00">cvar()</text>
<text text-anchor="start" x="1373.96" y="-74.4" font-family="Times,serif" font-size="14.00">kernel()</text>
<text text-anchor="start" x="1373.96" y="-57.6" font-family="Times,serif" font-size="14.00">n_mode()</text>
<text text-anchor="start" x="1373.96" y="-40.8" font-family="Times,serif" font-size="14.00">n_svar()</text>
<text text-anchor="start" x="1373.96" y="-24" font-family="Times,serif" font-size="14.00">n_mmpr()</text>
<text text-anchor="start" x="1373.96" y="-7.2" font-family="Times,serif" font-size="14.00">mmpr()</text>
</g>
<!-- 14&#45;&gt;2 -->
<g id="edge28" class="edge"><title>14&#45;&gt;2</title>
<path fill="none" stroke="black" d="M1490.11,-92.0144C1657.08,-101.332 2110.36,-135.003 2220,-230 2265.91,-269.775 2293.08,-328.776 2309.14,-386.453"/>
<polygon fill="black" stroke="black" points="2309.21,-386.751 2314.62,-391.522 2312.3,-398.348 2306.89,-393.577 2309.21,-386.751"/>
<text text-anchor="middle" x="2224.04" y="-197.4" font-family="Times,serif" font-size="14.00" fill="green">device_info</text>
</g>
<!-- 14&#45;&gt;5 -->
<g id="edge30" class="edge"><title>14&#45;&gt;5</title>
<path fill="none" stroke="black" d="M1365.69,-92.4088C1202.11,-102.573 765.73,-137.895 660,-230 620.869,-264.089 595.353,-312.142 578.734,-361.379"/>
<polygon fill="black" stroke="black" points="578.7,-361.482 580.661,-368.421 575.009,-372.9 573.049,-365.961 578.7,-361.482"/>
<text text-anchor="middle" x="747.042" y="-197.4" font-family="Times,serif" font-size="14.00" fill="green">device_info</text>
</g>
<!-- 14&#45;&gt;6 -->
<g id="edge32" class="edge"><title>14&#45;&gt;6</title>
<path fill="none" stroke="black" d="M1365.77,-100.362C1293.52,-116.717 1175.44,-153.738 1106,-230 1045.62,-296.316 1017.71,-395.966 1004.86,-470.083"/>
<polygon fill="black" stroke="black" points="1004.82,-470.374 1007.78,-476.947 1002.85,-482.213 999.889,-475.64 1004.82,-470.374"/>
<text text-anchor="middle" x="1174.04" y="-197.4" font-family="Times,serif" font-size="14.00" fill="green">device_info</text>
</g>
<!-- 14&#45;&gt;9 -->
<g id="edge34" class="edge"><title>14&#45;&gt;9</title>
<path fill="none" stroke="black" d="M1365.91,-168.846C1352.59,-188.193 1339.41,-209.287 1329,-230 1317.3,-253.278 1306.43,-278.051 1296.42,-303.199"/>
<polygon fill="black" stroke="black" points="1296.42,-303.213 1297.95,-310.259 1292.03,-314.385 1290.5,-307.339 1296.42,-303.213"/>
<text text-anchor="middle" x="1381.04" y="-197.4" font-family="Times,serif" font-size="14.00" fill="green">device_info</text>
</g>
<!-- 14&#45;&gt;10 -->
<g id="edge36" class="edge"><title>14&#45;&gt;10</title>
<path fill="none" stroke="black" d="M1490.16,-149.436C1511.73,-172.985 1534.59,-201.216 1551,-230 1552.26,-232.208 1553.51,-234.433 1554.74,-236.673"/>
<polygon fill="black" stroke="black" points="1554.76,-236.696 1561.12,-240.083 1560.44,-247.263 1554.08,-243.876 1554.76,-236.696"/>
<text text-anchor="middle" x="1571.04" y="-197.4" font-family="Times,serif" font-size="14.00" fill="green">device_info</text>
</g>
<!-- 14&#45;&gt;12 -->
<g id="edge38" class="edge"><title>14&#45;&gt;12</title>
<path fill="none" stroke="black" d="M1490.37,-98.185C1567.45,-112.748 1697.72,-148.359 1774,-230 1793.99,-251.396 1810.42,-276.439 1823.91,-303.055"/>
<polygon fill="black" stroke="black" points="1824.06,-303.358 1830.29,-306.994 1829.33,-314.141 1823.1,-310.505 1824.06,-303.358"/>
<text text-anchor="middle" x="1786.04" y="-197.4" font-family="Times,serif" font-size="14.00" fill="green">device_info</text>
</g>
</g>
</svg>
