<?xml version="1.0" encoding="UTF-8" standalone="no"?>
<!DOCTYPE svg PUBLIC "-//W3C//DTD SVG 1.1//EN"
 "http://www.w3.org/Graphics/SVG/1.1/DTD/svg11.dtd">
<!-- Generated by graphviz version 2.28.0 (20111028.1807)
 -->
<!-- Title: classes_monitors Pages: 1 -->
<svg width="2410pt" height="608pt"
 viewBox="0.00 0.00 2410.00 608.00" xmlns="http://www.w3.org/2000/svg" xmlns:xlink="http://www.w3.org/1999/xlink">
<g id="graph1" class="graph" transform="scale(1 1) rotate(0) translate(4 604)">
<title>classes_monitors</title>
<polygon fill="white" stroke="white" points="-4,5 -4,-604 2407,-604 2407,5 -4,5"/>
<!-- 0 -->
<g id="node1" class="node"><title>0</title>
<polygon fill="none" stroke="black" points="-0.200195,-263.2 -0.200195,-336.8 378.2,-336.8 378.2,-263.2 -0.200195,-263.2"/>
<text text-anchor="middle" x="189" y="-318.8" font-family="Times,serif" font-size="14.00">BalloonWindkesselAccordingToKJFristonEtAl2003NeuroImage</text>
<polyline fill="none" stroke="black" points="-0.200195,-312 378.2,-312 "/>
<polyline fill="none" stroke="black" points="-0.200195,-288 378.2,-288 "/>
<text text-anchor="start" x="7.7998" y="-270" font-family="Times,serif" font-size="14.00">record()</text>
</g>
<!-- 6 -->
<g id="node7" class="node"><title>6</title>
<polygon fill="none" stroke="black" points="1356.71,-424.4 1356.71,-599.6 1573.29,-599.6 1573.29,-424.4 1356.71,-424.4"/>
<text text-anchor="middle" x="1465" y="-581.6" font-family="Times,serif" font-size="14.00">Monitor</text>
<polyline fill="none" stroke="black" points="1356.71,-574.8 1573.29,-574.8 "/>
<text text-anchor="start" x="1364.71" y="-556.8" font-family="Times,serif" font-size="14.00">dt : NoneType</text>
<text text-anchor="start" x="1364.71" y="-540" font-family="Times,serif" font-size="14.00">voi : NoneType</text>
<text text-anchor="start" x="1364.71" y="-523.2" font-family="Times,serif" font-size="14.00">istep : NoneType, int</text>
<text text-anchor="start" x="1364.71" y="-506.4" font-family="Times,serif" font-size="14.00">period : Float</text>
<text text-anchor="start" x="1364.71" y="-489.6" font-family="Times,serif" font-size="14.00">variables_of_interest : IntegerArray</text>
<polyline fill="none" stroke="black" points="1356.71,-482.8 1573.29,-482.8 "/>
<text text-anchor="start" x="1364.71" y="-464.8" font-family="Times,serif" font-size="14.00">config_for_sim()</text>
<text text-anchor="start" x="1364.71" y="-448" font-family="Times,serif" font-size="14.00">record()</text>
<text text-anchor="start" x="1364.71" y="-431.2" font-family="Times,serif" font-size="14.00">create_time_series()</text>
</g>
<!-- 0&#45;&gt;6 -->
<g id="edge2" class="edge"><title>0&#45;&gt;6</title>
<path fill="none" stroke="black" d="M256.789,-336.855C294.193,-355.068 342.052,-375.86 387,-388 727.058,-479.849 1145.51,-503.143 1346.38,-509.028"/>
<polygon fill="none" stroke="black" points="1346.57,-512.534 1356.66,-509.319 1346.77,-505.537 1346.57,-512.534"/>
</g>
<!-- 1 -->
<g id="node2" class="node"><title>1</title>
<polygon fill="none" stroke="black" points="396.023,-220.8 396.023,-379.2 669.977,-379.2 669.977,-220.8 396.023,-220.8"/>
<text text-anchor="middle" x="533" y="-361.2" font-family="Times,serif" font-size="14.00">Bold</text>
<polyline fill="none" stroke="black" points="396.023,-354.4 669.977,-354.4 "/>
<text text-anchor="start" x="404.023" y="-336.4" font-family="Times,serif" font-size="14.00">hemodynamic_response_function : NoneType</text>
<text text-anchor="start" x="404.023" y="-319.6" font-family="Times,serif" font-size="14.00">hrf_kernel : HRFKernelEquation</text>
<text text-anchor="start" x="404.023" y="-302.8" font-family="Times,serif" font-size="14.00">hrf_length : Float</text>
<text text-anchor="start" x="404.023" y="-286" font-family="Times,serif" font-size="14.00">period : Float</text>
<polyline fill="none" stroke="black" points="396.023,-279.2 669.977,-279.2 "/>
<text text-anchor="start" x="404.023" y="-261.2" font-family="Times,serif" font-size="14.00">config_for_sim()</text>
<text text-anchor="start" x="404.023" y="-244.4" font-family="Times,serif" font-size="14.00">compute_hrf()</text>
<text text-anchor="start" x="404.023" y="-227.6" font-family="Times,serif" font-size="14.00">record()</text>
</g>
<!-- 1&#45;&gt;6 -->
<g id="edge4" class="edge"><title>1&#45;&gt;6</title>
<path fill="none" stroke="black" d="M656.853,-379.378C663.887,-382.543 670.962,-385.449 678,-388 905.248,-470.367 1189.05,-497.598 1346.25,-506.586"/>
<polygon fill="none" stroke="black" points="1346.24,-510.091 1356.42,-507.152 1346.63,-503.102 1346.24,-510.091"/>
</g>
<!-- 2 -->
<g id="node3" class="node"><title>2</title>
<polygon fill="none" stroke="black" points="404.731,-42.8 404.731,-133.2 527.269,-133.2 527.269,-42.8 404.731,-42.8"/>
<text text-anchor="middle" x="466" y="-115.2" font-family="Times,serif" font-size="14.00">BoldMultithreaded</text>
<polyline fill="none" stroke="black" points="404.731,-108.4 527.269,-108.4 "/>
<polyline fill="none" stroke="black" points="404.731,-84.4 527.269,-84.4 "/>
<text text-anchor="start" x="412.731" y="-66.4" font-family="Times,serif" font-size="14.00">config_for_sim()</text>
<text text-anchor="start" x="412.731" y="-49.6" font-family="Times,serif" font-size="14.00">record()</text>
</g>
<!-- 2&#45;&gt;1 -->
<g id="edge6" class="edge"><title>2&#45;&gt;1</title>
<path fill="none" stroke="black" d="M480.127,-133.279C487.308,-155.785 496.298,-183.963 504.817,-210.665"/>
<polygon fill="none" stroke="black" points="501.556,-211.959 507.93,-220.422 508.225,-209.832 501.556,-211.959"/>
</g>
<!-- 3 -->
<g id="node4" class="node"><title>3</title>
<polygon fill="none" stroke="black" points="545.562,-42.4 545.562,-133.6 656.438,-133.6 656.438,-42.4 545.562,-42.4"/>
<text text-anchor="middle" x="601" y="-115.6" font-family="Times,serif" font-size="14.00">BoldRegionROI</text>
<polyline fill="none" stroke="black" points="545.562,-108.8 656.438,-108.8 "/>
<text text-anchor="start" x="553.562" y="-90.8" font-family="Times,serif" font-size="14.00">region_mapping</text>
<polyline fill="none" stroke="black" points="545.562,-84 656.438,-84 "/>
<text text-anchor="start" x="553.562" y="-66" font-family="Times,serif" font-size="14.00">config_for_sim()</text>
<text text-anchor="start" x="553.562" y="-49.2" font-family="Times,serif" font-size="14.00">record()</text>
</g>
<!-- 3&#45;&gt;1 -->
<g id="edge8" class="edge"><title>3&#45;&gt;1</title>
<path fill="none" stroke="black" d="M586.496,-133.793C579.2,-156.322 570.097,-184.437 561.479,-211.051"/>
<polygon fill="none" stroke="black" points="558.081,-210.183 558.33,-220.775 564.741,-212.339 558.081,-210.183"/>
</g>
<!-- 4 -->
<g id="node5" class="node"><title>4</title>
<polygon fill="none" stroke="black" points="687.489,-220.8 687.489,-379.2 972.511,-379.2 972.511,-220.8 687.489,-220.8"/>
<text text-anchor="middle" x="830" y="-361.2" font-family="Times,serif" font-size="14.00">EEG</text>
<polyline fill="none" stroke="black" points="687.489,-354.4 972.511,-354.4 "/>
<text text-anchor="start" x="695.489" y="-336.4" font-family="Times,serif" font-size="14.00">projection_matrix_data : ProjectionSurfaceEEG</text>
<text text-anchor="start" x="695.489" y="-319.6" font-family="Times,serif" font-size="14.00">projection_matrix_data : ProjectionMatrix</text>
<polyline fill="none" stroke="black" points="687.489,-312.8 972.511,-312.8 "/>
<text text-anchor="start" x="695.489" y="-294.8" font-family="Times,serif" font-size="14.00">config_for_sim()</text>
<text text-anchor="start" x="695.489" y="-278" font-family="Times,serif" font-size="14.00">projection_matrix()</text>
<text text-anchor="start" x="695.489" y="-261.2" font-family="Times,serif" font-size="14.00">record()</text>
<text text-anchor="start" x="695.489" y="-244.4" font-family="Times,serif" font-size="14.00">create_time_series()</text>
<text text-anchor="start" x="695.489" y="-227.6" font-family="Times,serif" font-size="14.00">sensors()</text>
</g>
<!-- 4&#45;&gt;6 -->
<g id="edge10" class="edge"><title>4&#45;&gt;6</title>
<path fill="none" stroke="black" d="M961.116,-379.315C967.762,-382.407 974.413,-385.325 981,-388 1101.49,-436.937 1246.96,-470.755 1346.76,-490.371"/>
<polygon fill="none" stroke="black" points="1346.09,-493.806 1356.57,-492.283 1347.43,-486.935 1346.09,-493.806"/>
</g>
<!-- 5 -->
<g id="node6" class="node"><title>5</title>
<polygon fill="none" stroke="black" points="990.255,-254.8 990.255,-345.2 1119.75,-345.2 1119.75,-254.8 990.255,-254.8"/>
<text text-anchor="middle" x="1055" y="-327.2" font-family="Times,serif" font-size="14.00">GlobalAverage</text>
<polyline fill="none" stroke="black" points="990.255,-320.4 1119.75,-320.4 "/>
<polyline fill="none" stroke="black" points="990.255,-296.4 1119.75,-296.4 "/>
<text text-anchor="start" x="998.255" y="-278.4" font-family="Times,serif" font-size="14.00">record()</text>
<text text-anchor="start" x="998.255" y="-261.6" font-family="Times,serif" font-size="14.00">create_time_series()</text>
</g>
<!-- 5&#45;&gt;6 -->
<g id="edge12" class="edge"><title>5&#45;&gt;6</title>
<path fill="none" stroke="black" d="M1085.46,-345.47C1097.58,-360.596 1112.57,-376.553 1129,-388 1194.46,-433.603 1278.81,-464.407 1346.62,-483.783"/>
<polygon fill="none" stroke="black" points="1345.93,-487.224 1356.5,-486.559 1347.82,-480.485 1345.93,-487.224"/>
</g>
<!-- 7 -->
<g id="node8" class="node"><title>7</title>
<polygon fill="none" stroke="black" points="1137.71,-212.4 1137.71,-387.6 1354.29,-387.6 1354.29,-212.4 1137.71,-212.4"/>
<text text-anchor="middle" x="1246" y="-369.6" font-family="Times,serif" font-size="14.00">Raw</text>
<polyline fill="none" stroke="black" points="1137.71,-362.8 1354.29,-362.8 "/>
<text text-anchor="start" x="1145.71" y="-344.8" font-family="Times,serif" font-size="14.00">dt</text>
<text text-anchor="start" x="1145.71" y="-328" font-family="Times,serif" font-size="14.00">period</text>
<text text-anchor="start" x="1145.71" y="-311.2" font-family="Times,serif" font-size="14.00">istep : int</text>
<text text-anchor="start" x="1145.71" y="-294.4" font-family="Times,serif" font-size="14.00">voi</text>
<text text-anchor="start" x="1145.71" y="-277.6" font-family="Times,serif" font-size="14.00">period : Float</text>
<text text-anchor="start" x="1145.71" y="-260.8" font-family="Times,serif" font-size="14.00">variables_of_interest : IntegerArray</text>
<polyline fill="none" stroke="black" points="1137.71,-254 1354.29,-254 "/>
<text text-anchor="start" x="1145.71" y="-236" font-family="Times,serif" font-size="14.00">config_for_sim()</text>
<text text-anchor="start" x="1145.71" y="-219.2" font-family="Times,serif" font-size="14.00">record()</text>
</g>
<!-- 7&#45;&gt;6 -->
<g id="edge14" class="edge"><title>7&#45;&gt;6</title>
<path fill="none" stroke="black" d="M1336.34,-387.627C1346.48,-397.355 1356.86,-407.301 1367.09,-417.115"/>
<polygon fill="none" stroke="black" points="1364.87,-419.838 1374.51,-424.233 1369.72,-414.785 1364.87,-419.838"/>
</g>
<!-- 8 -->
<g id="node9" class="node"><title>8</title>
<polygon fill="none" stroke="black" points="1372.35,-229.2 1372.35,-370.8 1557.65,-370.8 1557.65,-229.2 1372.35,-229.2"/>
<text text-anchor="middle" x="1465" y="-352.8" font-family="Times,serif" font-size="14.00">SEEG</text>
<polyline fill="none" stroke="black" points="1372.35,-346 1557.65,-346 "/>
<text text-anchor="start" x="1380.35" y="-328" font-family="Times,serif" font-size="14.00">projection_matrix : NoneType</text>
<text text-anchor="start" x="1380.35" y="-311.2" font-family="Times,serif" font-size="14.00">sensors : SensorsInternal</text>
<text text-anchor="start" x="1380.35" y="-294.4" font-family="Times,serif" font-size="14.00">sigma : Float</text>
<polyline fill="none" stroke="black" points="1372.35,-287.6 1557.65,-287.6 "/>
<text text-anchor="start" x="1380.35" y="-269.6" font-family="Times,serif" font-size="14.00">config_for_sim()</text>
<text text-anchor="start" x="1380.35" y="-252.8" font-family="Times,serif" font-size="14.00">record()</text>
<text text-anchor="start" x="1380.35" y="-236" font-family="Times,serif" font-size="14.00">create_time_series()</text>
</g>
<!-- 8&#45;&gt;6 -->
<g id="edge16" class="edge"><title>8&#45;&gt;6</title>
<path fill="none" stroke="black" d="M1465,-370.927C1465,-384.79 1465,-399.574 1465,-414.148"/>
<polygon fill="none" stroke="black" points="1461.5,-414.19 1465,-424.19 1468.5,-414.19 1461.5,-414.19"/>
</g>
<!-- 9 -->
<g id="node10" class="node"><title>9</title>
<polygon fill="none" stroke="black" points="1575.3,-212.4 1575.3,-387.6 1764.7,-387.6 1764.7,-212.4 1575.3,-212.4"/>
<text text-anchor="middle" x="1670" y="-369.6" font-family="Times,serif" font-size="14.00">SpatialAverage</text>
<polyline fill="none" stroke="black" points="1575.3,-362.8 1764.7,-362.8 "/>
<text text-anchor="start" x="1583.3" y="-344.8" font-family="Times,serif" font-size="14.00">spatial_mean : NoneType</text>
<text text-anchor="start" x="1583.3" y="-328" font-family="Times,serif" font-size="14.00">is_default_special_mask : bool</text>
<text text-anchor="start" x="1583.3" y="-311.2" font-family="Times,serif" font-size="14.00">spatial_mask</text>
<text text-anchor="start" x="1583.3" y="-294.4" font-family="Times,serif" font-size="14.00">default_mask : Enumerate</text>
<text text-anchor="start" x="1583.3" y="-277.6" font-family="Times,serif" font-size="14.00">spatial_mask : IntegerArray</text>
<polyline fill="none" stroke="black" points="1575.3,-270.8 1764.7,-270.8 "/>
<text text-anchor="start" x="1583.3" y="-252.8" font-family="Times,serif" font-size="14.00">config_for_sim()</text>
<text text-anchor="start" x="1583.3" y="-236" font-family="Times,serif" font-size="14.00">record()</text>
<text text-anchor="start" x="1583.3" y="-219.2" font-family="Times,serif" font-size="14.00">create_time_series()</text>
</g>
<!-- 9&#45;&gt;6 -->
<g id="edge18" class="edge"><title>9&#45;&gt;6</title>
<path fill="none" stroke="black" d="M1585.44,-387.627C1576.03,-397.261 1566.42,-407.107 1556.93,-416.829"/>
<polygon fill="none" stroke="black" points="1554.18,-414.632 1549.7,-424.233 1559.19,-419.522 1554.18,-414.632"/>
</g>
<!-- 10 -->
<g id="node11" class="node"><title>10</title>
<polygon fill="none" stroke="black" points="1782.35,-229.2 1782.35,-370.8 1967.65,-370.8 1967.65,-229.2 1782.35,-229.2"/>
<text text-anchor="middle" x="1875" y="-352.8" font-family="Times,serif" font-size="14.00">SphericalEEG</text>
<polyline fill="none" stroke="black" points="1782.35,-346 1967.65,-346 "/>
<text text-anchor="start" x="1790.35" y="-328" font-family="Times,serif" font-size="14.00">projection_matrix : NoneType</text>
<text text-anchor="start" x="1790.35" y="-311.2" font-family="Times,serif" font-size="14.00">sensors : SensorsEEG</text>
<text text-anchor="start" x="1790.35" y="-294.4" font-family="Times,serif" font-size="14.00">sigma : Float</text>
<polyline fill="none" stroke="black" points="1782.35,-287.6 1967.65,-287.6 "/>
<text text-anchor="start" x="1790.35" y="-269.6" font-family="Times,serif" font-size="14.00">config_for_sim()</text>
<text text-anchor="start" x="1790.35" y="-252.8" font-family="Times,serif" font-size="14.00">record()</text>
<text text-anchor="start" x="1790.35" y="-236" font-family="Times,serif" font-size="14.00">create_time_series()</text>
</g>
<!-- 10&#45;&gt;6 -->
<g id="edge20" class="edge"><title>10&#45;&gt;6</title>
<path fill="none" stroke="black" d="M1798.17,-370.936C1789.94,-377.076 1781.47,-382.888 1773,-388 1713.81,-423.725 1642.4,-452.996 1583.24,-474.008"/>
<polygon fill="none" stroke="black" points="1581.75,-470.821 1573.48,-477.44 1584.07,-477.425 1581.75,-470.821"/>
</g>
<!-- 11 -->
<g id="node12" class="node"><title>11</title>
<polygon fill="none" stroke="black" points="1985.35,-237.6 1985.35,-362.4 2170.65,-362.4 2170.65,-237.6 1985.35,-237.6"/>
<text text-anchor="middle" x="2078" y="-344.4" font-family="Times,serif" font-size="14.00">SphericalMEG</text>
<polyline fill="none" stroke="black" points="1985.35,-337.6 2170.65,-337.6 "/>
<text text-anchor="start" x="1993.35" y="-319.6" font-family="Times,serif" font-size="14.00">projection_matrix : NoneType</text>
<text text-anchor="start" x="1993.35" y="-302.8" font-family="Times,serif" font-size="14.00">sensors : SensorsMEG</text>
<polyline fill="none" stroke="black" points="1985.35,-296 2170.65,-296 "/>
<text text-anchor="start" x="1993.35" y="-278" font-family="Times,serif" font-size="14.00">config_for_sim()</text>
<text text-anchor="start" x="1993.35" y="-261.2" font-family="Times,serif" font-size="14.00">record()</text>
<text text-anchor="start" x="1993.35" y="-244.4" font-family="Times,serif" font-size="14.00">create_time_series()</text>
</g>
<!-- 11&#45;&gt;6 -->
<g id="edge22" class="edge"><title>11&#45;&gt;6</title>
<path fill="none" stroke="black" d="M2014.9,-362.553C2002.69,-372.143 1989.48,-381.132 1976,-388 1850.57,-451.905 1690.74,-483.457 1583.52,-498.442"/>
<polygon fill="none" stroke="black" points="1582.74,-495.015 1573.31,-499.841 1583.69,-501.951 1582.74,-495.015"/>
</g>
<!-- 12 -->
<g id="node13" class="node"><title>12</title>
<polygon fill="none" stroke="black" points="2189.11,-263.2 2189.11,-336.8 2268.89,-336.8 2268.89,-263.2 2189.11,-263.2"/>
<text text-anchor="middle" x="2229" y="-318.8" font-family="Times,serif" font-size="14.00">SubSample</text>
<polyline fill="none" stroke="black" points="2189.11,-312 2268.89,-312 "/>
<polyline fill="none" stroke="black" points="2189.11,-288 2268.89,-288 "/>
<text text-anchor="start" x="2197.11" y="-270" font-family="Times,serif" font-size="14.00">record()</text>
</g>
<!-- 12&#45;&gt;6 -->
<g id="edge24" class="edge"><title>12&#45;&gt;6</title>
<path fill="none" stroke="black" d="M2216.76,-337.109C2208.79,-355.163 2196.56,-375.727 2179,-388 2084.75,-453.859 1760.96,-488.384 1583.56,-502.739"/>
<polygon fill="none" stroke="black" points="1583.08,-499.266 1573.39,-503.553 1583.64,-506.244 1583.08,-499.266"/>
</g>
<!-- 13 -->
<g id="node14" class="node"><title>13</title>
<polygon fill="none" stroke="black" points="2287.09,-254.8 2287.09,-345.2 2402.91,-345.2 2402.91,-254.8 2287.09,-254.8"/>
<text text-anchor="middle" x="2345" y="-327.2" font-family="Times,serif" font-size="14.00">TemporalAverage</text>
<polyline fill="none" stroke="black" points="2287.09,-320.4 2402.91,-320.4 "/>
<polyline fill="none" stroke="black" points="2287.09,-296.4 2402.91,-296.4 "/>
<text text-anchor="start" x="2295.09" y="-278.4" font-family="Times,serif" font-size="14.00">config_for_sim()</text>
<text text-anchor="start" x="2295.09" y="-261.6" font-family="Times,serif" font-size="14.00">record()</text>
</g>
<!-- 13&#45;&gt;6 -->
<g id="edge26" class="edge"><title>13&#45;&gt;6</title>
<path fill="none" stroke="black" d="M2320.07,-345.498C2308.94,-361.383 2294.38,-377.844 2277,-388 2161.6,-455.438 1779.69,-490.071 1583.54,-503.777"/>
<polygon fill="none" stroke="black" points="1583.22,-500.291 1573.48,-504.473 1583.7,-507.275 1583.22,-500.291"/>
</g>
<!-- 14 -->
<g id="node15" class="node"><title>14</title>
<polygon fill="none" stroke="black" points="674.689,-0.4 674.689,-175.6 779.311,-175.6 779.311,-0.4 674.689,-0.4"/>
<text text-anchor="middle" x="727" y="-157.6" font-family="Times,serif" font-size="14.00">config</text>
<polyline fill="none" stroke="black" points="674.689,-150.8 779.311,-150.8 "/>
<text text-anchor="start" x="682.689" y="-132.8" font-family="Times,serif" font-size="14.00">tau : Float</text>
<text text-anchor="start" x="682.689" y="-116" font-family="Times,serif" font-size="14.00">kappa : Float</text>
<text text-anchor="start" x="682.689" y="-99.2" font-family="Times,serif" font-size="14.00">period : Float</text>
<text text-anchor="start" x="682.689" y="-82.4" font-family="Times,serif" font-size="14.00">rho : Float</text>
<text text-anchor="start" x="682.689" y="-65.6" font-family="Times,serif" font-size="14.00">alpha : Float</text>
<text text-anchor="start" x="682.689" y="-48.8" font-family="Times,serif" font-size="14.00">nvcvar : Integer</text>
<text text-anchor="start" x="682.689" y="-32" font-family="Times,serif" font-size="14.00">gamma : Float</text>
<polyline fill="none" stroke="black" points="674.689,-25.2 779.311,-25.2 "/>
<text text-anchor="middle" x="727" y="-7.2" font-family="Times,serif" font-size="14.00"> </text>
</g>
</g>
</svg>
