<?xml version="1.0" encoding="UTF-8" standalone="no"?>
<!DOCTYPE svg PUBLIC "-//W3C//DTD SVG 1.1//EN"
 "http://www.w3.org/Graphics/SVG/1.1/DTD/svg11.dtd">
<!-- Generated by graphviz version 2.36.0 (20140111.2315)
 -->
<!-- Title: classes_noise Pages: 1 -->
<svg width="294pt" height="334pt"
 viewBox="0.00 0.00 294.00 334.00" xmlns="http://www.w3.org/2000/svg" xmlns:xlink="http://www.w3.org/1999/xlink">
<g id="graph0" class="graph" transform="scale(1 1) rotate(0) translate(4 330)">
<title>classes_noise</title>
<polygon fill="white" stroke="none" points="-4,4 -4,-330 290,-330 290,4 -4,4"/>
<!-- 0 -->
<g id="node1" class="node"><title>0</title>
<polygon fill="none" stroke="black" points="-0.0864258,-8 -0.0864258,-74 134.086,-74 134.086,-8 -0.0864258,-8"/>
<text text-anchor="middle" x="67" y="-58.8" font-family="Times,serif" font-size="14.00">Additive</text>
<polyline fill="none" stroke="black" points="-0.0864258,-52 134.086,-52 "/>
<text text-anchor="start" x="7.91357" y="-36.8" font-family="Times,serif" font-size="14.00">nsig</text>
<polyline fill="none" stroke="black" points="-0.0864258,-30 134.086,-30 "/>
<text text-anchor="start" x="7.91357" y="-14.8" font-family="Times,serif" font-size="14.00">gfun(state_variables)</text>
</g>
<!-- 2 -->
<g id="node3" class="node"><title>2</title>
<polygon fill="none" stroke="black" points="51.0273,-119 51.0273,-325 234.973,-325 234.973,-119 51.0273,-119"/>
<text text-anchor="middle" x="143" y="-309.8" font-family="Times,serif" font-size="14.00">Noise</text>
<polyline fill="none" stroke="black" points="51.0273,-303 234.973,-303 "/>
<text text-anchor="start" x="59.0273" y="-287.8" font-family="Times,serif" font-size="14.00">dt : NoneType</text>
<text text-anchor="start" x="59.0273" y="-273.8" font-family="Times,serif" font-size="14.00">noise_seed</text>
<text text-anchor="start" x="59.0273" y="-259.8" font-family="Times,serif" font-size="14.00">ntau</text>
<text text-anchor="start" x="59.0273" y="-245.8" font-family="Times,serif" font-size="14.00">random_stream</text>
<text text-anchor="start" x="59.0273" y="-231.8" font-family="Times,serif" font-size="14.00">random_stream</text>
<polyline fill="none" stroke="black" points="51.0273,-225 234.973,-225 "/>
<text text-anchor="start" x="59.0273" y="-209.8" font-family="Times,serif" font-size="14.00">coloured(shape)</text>
<text text-anchor="start" x="59.0273" y="-195.8" font-family="Times,serif" font-size="14.00">configure()</text>
<text text-anchor="start" x="59.0273" y="-181.8" font-family="Times,serif" font-size="14.00">configure_coloured(dt, shape)</text>
<text text-anchor="start" x="59.0273" y="-167.8" font-family="Times,serif" font-size="14.00">configure_white(dt, shape)</text>
<text text-anchor="start" x="59.0273" y="-153.8" font-family="Times,serif" font-size="14.00">generate(shape, lo, hi)</text>
<text text-anchor="start" x="59.0273" y="-139.8" font-family="Times,serif" font-size="14.00">gfun(state_variables)</text>
<text text-anchor="start" x="59.0273" y="-125.8" font-family="Times,serif" font-size="14.00">white(shape)</text>
</g>
<!-- 0&#45;&gt;2 -->
<g id="edge1" class="edge"><title>0&#45;&gt;2</title>
<path fill="none" stroke="black" d="M80.5873,-74.0016C84.985,-84.3593 90.1391,-96.4987 95.5674,-109.284"/>
<polygon fill="none" stroke="black" points="92.4317,-110.854 99.5616,-118.691 98.875,-108.119 92.4317,-110.854"/>
</g>
<!-- 1 -->
<g id="node2" class="node"><title>1</title>
<polygon fill="none" stroke="black" points="151.914,-1 151.914,-81 286.086,-81 286.086,-1 151.914,-1"/>
<text text-anchor="middle" x="219" y="-65.8" font-family="Times,serif" font-size="14.00">Multiplicative</text>
<polyline fill="none" stroke="black" points="151.914,-59 286.086,-59 "/>
<text text-anchor="start" x="159.914" y="-43.8" font-family="Times,serif" font-size="14.00">b</text>
<text text-anchor="start" x="159.914" y="-29.8" font-family="Times,serif" font-size="14.00">nsig</text>
<polyline fill="none" stroke="black" points="151.914,-23 286.086,-23 "/>
<text text-anchor="start" x="159.914" y="-7.8" font-family="Times,serif" font-size="14.00">gfun(state_variables)</text>
</g>
<!-- 1&#45;&gt;2 -->
<g id="edge2" class="edge"><title>1&#45;&gt;2</title>
<path fill="none" stroke="black" d="M202.321,-81.2823C198.642,-89.9495 194.567,-99.5457 190.328,-109.531"/>
<polygon fill="none" stroke="black" points="187.081,-108.222 186.394,-118.795 193.524,-110.958 187.081,-108.222"/>
</g>
</g>
</svg>
