<?xml version="1.0" encoding="UTF-8" standalone="no"?>
<!DOCTYPE svg PUBLIC "-//W3C//DTD SVG 1.1//EN"
 "http://www.w3.org/Graphics/SVG/1.1/DTD/svg11.dtd">
<!-- Generated by graphviz version 2.36.0 (20140111.2315)
 -->
<!-- Title: classes_coupling Pages: 1 -->
<svg width="747pt" height="440pt"
 viewBox="0.00 0.00 747.00 440.00" xmlns="http://www.w3.org/2000/svg" xmlns:xlink="http://www.w3.org/1999/xlink">
<g id="graph0" class="graph" transform="scale(1 1) rotate(0) translate(4 436)">
<title>classes_coupling</title>
<polygon fill="white" stroke="none" points="-4,4 -4,-436 743,-436 743,4 -4,4"/>
<!-- 0 -->
<g id="node1" class="node"><title>0</title>
<polygon fill="none" stroke="black" points="245.941,-349 245.941,-431 314.059,-431 314.059,-349 245.941,-349"/>
<text text-anchor="middle" x="280" y="-415.8" font-family="Times,serif" font-size="14.00">Coupling</text>
<polyline fill="none" stroke="black" points="245.941,-409 314.059,-409 "/>
<polyline fill="none" stroke="black" points="245.941,-385 314.059,-385 "/>
<text text-anchor="start" x="253.941" y="-369.8" font-family="Times,serif" font-size="14.00">post()</text>
<text text-anchor="start" x="253.941" y="-355.8" font-family="Times,serif" font-size="14.00">pre()</text>
</g>
<!-- 1 -->
<g id="node2" class="node"><title>1</title>
<polygon fill="none" stroke="black" points="181.734,-15 181.734,-95 276.266,-95 276.266,-15 181.734,-15"/>
<text text-anchor="middle" x="229" y="-79.8" font-family="Times,serif" font-size="14.00">Difference</text>
<polyline fill="none" stroke="black" points="181.734,-73 276.266,-73 "/>
<text text-anchor="start" x="189.734" y="-57.8" font-family="Times,serif" font-size="14.00">a : FloatArray</text>
<polyline fill="none" stroke="black" points="181.734,-51 276.266,-51 "/>
<text text-anchor="start" x="189.734" y="-35.8" font-family="Times,serif" font-size="14.00">post()</text>
<text text-anchor="start" x="189.734" y="-21.8" font-family="Times,serif" font-size="14.00">pre()</text>
</g>
<!-- 9 -->
<g id="node10" class="node"><title>9</title>
<polygon fill="none" stroke="black" points="446.279,-195 446.279,-263 551.721,-263 551.721,-195 446.279,-195"/>
<text text-anchor="middle" x="499" y="-247.8" font-family="Times,serif" font-size="14.00">SparseCoupling</text>
<polyline fill="none" stroke="black" points="446.279,-241 551.721,-241 "/>
<polyline fill="none" stroke="black" points="446.279,-217 551.721,-217 "/>
<text text-anchor="middle" x="499" y="-201.8" font-family="Times,serif" font-size="14.00"> </text>
</g>
<!-- 1&#45;&gt;9 -->
<g id="edge1" class="edge"><title>1&#45;&gt;9</title>
<path fill="none" stroke="black" d="M264.785,-95.0999C271.392,-100.734 278.568,-105.976 286,-110 346.671,-142.847 379.242,-108.264 437,-146 452.487,-156.119 465.598,-171.487 475.717,-186.195"/>
<polygon fill="none" stroke="black" points="472.91,-188.296 481.325,-194.733 478.761,-184.453 472.91,-188.296"/>
</g>
<!-- 2 -->
<g id="node3" class="node"><title>2</title>
<polygon fill="none" stroke="black" points="294.562,-1 294.562,-109 433.438,-109 433.438,-1 294.562,-1"/>
<text text-anchor="middle" x="364" y="-93.8" font-family="Times,serif" font-size="14.00">HyperbolicTangent</text>
<polyline fill="none" stroke="black" points="294.562,-87 433.438,-87 "/>
<text text-anchor="start" x="302.562" y="-71.8" font-family="Times,serif" font-size="14.00">a : FloatArray</text>
<text text-anchor="start" x="302.562" y="-57.8" font-family="Times,serif" font-size="14.00">b : FloatArray</text>
<text text-anchor="start" x="302.562" y="-43.8" font-family="Times,serif" font-size="14.00">midpoint : FloatArray</text>
<text text-anchor="start" x="302.562" y="-29.8" font-family="Times,serif" font-size="14.00">sigma : FloatArray</text>
<polyline fill="none" stroke="black" points="294.562,-23 433.438,-23 "/>
<text text-anchor="start" x="302.562" y="-7.8" font-family="Times,serif" font-size="14.00">pre()</text>
</g>
<!-- 2&#45;&gt;9 -->
<g id="edge2" class="edge"><title>2&#45;&gt;9</title>
<path fill="none" stroke="black" d="M407.535,-109.06C417.308,-121.14 427.572,-133.963 437,-146 447.201,-159.024 458.144,-173.368 467.953,-186.367"/>
<polygon fill="none" stroke="black" points="465.406,-188.804 474.216,-194.688 470.999,-184.594 465.406,-188.804"/>
</g>
<!-- 3 -->
<g id="node4" class="node"><title>3</title>
<polygon fill="none" stroke="black" points="451.734,-15 451.734,-95 546.266,-95 546.266,-15 451.734,-15"/>
<text text-anchor="middle" x="499" y="-79.8" font-family="Times,serif" font-size="14.00">Kuramoto</text>
<polyline fill="none" stroke="black" points="451.734,-73 546.266,-73 "/>
<text text-anchor="start" x="459.734" y="-57.8" font-family="Times,serif" font-size="14.00">a : FloatArray</text>
<polyline fill="none" stroke="black" points="451.734,-51 546.266,-51 "/>
<text text-anchor="start" x="459.734" y="-35.8" font-family="Times,serif" font-size="14.00">post()</text>
<text text-anchor="start" x="459.734" y="-21.8" font-family="Times,serif" font-size="14.00">pre()</text>
</g>
<!-- 3&#45;&gt;9 -->
<g id="edge3" class="edge"><title>3&#45;&gt;9</title>
<path fill="none" stroke="black" d="M499,-95.0295C499,-121.747 499,-157.19 499,-184.765"/>
<polygon fill="none" stroke="black" points="495.5,-184.913 499,-194.913 502.5,-184.913 495.5,-184.913"/>
</g>
<!-- 4 -->
<g id="node5" class="node"><title>4</title>
<polygon fill="none" stroke="black" points="564.341,-15 564.341,-95 659.659,-95 659.659,-15 564.341,-15"/>
<text text-anchor="middle" x="612" y="-79.8" font-family="Times,serif" font-size="14.00">Linear</text>
<polyline fill="none" stroke="black" points="564.341,-73 659.659,-73 "/>
<text text-anchor="start" x="572.341" y="-57.8" font-family="Times,serif" font-size="14.00">a : FloatArray</text>
<text text-anchor="start" x="572.341" y="-43.8" font-family="Times,serif" font-size="14.00">b : FloatArray</text>
<polyline fill="none" stroke="black" points="564.341,-37 659.659,-37 "/>
<text text-anchor="start" x="572.341" y="-21.8" font-family="Times,serif" font-size="14.00">post()</text>
</g>
<!-- 4&#45;&gt;9 -->
<g id="edge4" class="edge"><title>4&#45;&gt;9</title>
<path fill="none" stroke="black" d="M586.359,-95.0295C568.496,-122.218 544.698,-158.442 526.452,-186.215"/>
<polygon fill="none" stroke="black" points="523.303,-184.634 520.737,-194.913 529.153,-188.477 523.303,-184.634"/>
</g>
<!-- 5 -->
<g id="node6" class="node"><title>5</title>
<polygon fill="none" stroke="black" points="-0.762207,-147 -0.762207,-311 114.762,-311 114.762,-147 -0.762207,-147"/>
<text text-anchor="middle" x="57" y="-295.8" font-family="Times,serif" font-size="14.00">PreSigmoidal</text>
<polyline fill="none" stroke="black" points="-0.762207,-289 114.762,-289 "/>
<text text-anchor="start" x="7.23779" y="-273.8" font-family="Times,serif" font-size="14.00">G : FloatArray</text>
<text text-anchor="start" x="7.23779" y="-259.8" font-family="Times,serif" font-size="14.00">H : FloatArray</text>
<text text-anchor="start" x="7.23779" y="-245.8" font-family="Times,serif" font-size="14.00">P : FloatArray</text>
<text text-anchor="start" x="7.23779" y="-231.8" font-family="Times,serif" font-size="14.00">Q : FloatArray</text>
<text text-anchor="start" x="7.23779" y="-217.8" font-family="Times,serif" font-size="14.00">dynamic : Bool</text>
<text text-anchor="start" x="7.23779" y="-203.8" font-family="Times,serif" font-size="14.00">globalT : Bool</text>
<text text-anchor="start" x="7.23779" y="-189.8" font-family="Times,serif" font-size="14.00">sliceT</text>
<text text-anchor="start" x="7.23779" y="-175.8" font-family="Times,serif" font-size="14.00">theta : FloatArray</text>
<polyline fill="none" stroke="black" points="-0.762207,-169 114.762,-169 "/>
<text text-anchor="start" x="7.23779" y="-153.8" font-family="Times,serif" font-size="14.00">configure()</text>
</g>
<!-- 5&#45;&gt;0 -->
<g id="edge5" class="edge"><title>5&#45;&gt;0</title>
<path fill="none" stroke="black" d="M115.084,-304.358C118.003,-307.035 120.979,-309.596 124,-312 158.094,-339.129 203.301,-360.134 236.269,-373.302"/>
<polygon fill="none" stroke="black" points="235.064,-376.589 245.652,-376.971 237.614,-370.07 235.064,-376.589"/>
</g>
<!-- 6 -->
<g id="node7" class="node"><title>6</title>
<polygon fill="none" stroke="black" points="678.059,-22 678.059,-88 739.941,-88 739.941,-22 678.059,-22"/>
<text text-anchor="middle" x="709" y="-72.8" font-family="Times,serif" font-size="14.00">Scaling</text>
<polyline fill="none" stroke="black" points="678.059,-66 739.941,-66 "/>
<text text-anchor="start" x="686.059" y="-50.8" font-family="Times,serif" font-size="14.00">a : Float</text>
<polyline fill="none" stroke="black" points="678.059,-44 739.941,-44 "/>
<text text-anchor="start" x="686.059" y="-28.8" font-family="Times,serif" font-size="14.00">post()</text>
</g>
<!-- 6&#45;&gt;9 -->
<g id="edge6" class="edge"><title>6&#45;&gt;9</title>
<path fill="none" stroke="black" d="M687.137,-88.2238C681.34,-95.7552 674.79,-103.475 668,-110 635.668,-141.068 594.499,-169.992 560.889,-191.428"/>
<polygon fill="none" stroke="black" points="558.661,-188.696 552.072,-196.992 562.397,-194.616 558.661,-188.696"/>
</g>
<!-- 7 -->
<g id="node8" class="node"><title>7</title>
<polygon fill="none" stroke="black" points="132.562,-168 132.562,-290 271.438,-290 271.438,-168 132.562,-168"/>
<text text-anchor="middle" x="202" y="-274.8" font-family="Times,serif" font-size="14.00">Sigmoidal</text>
<polyline fill="none" stroke="black" points="132.562,-268 271.438,-268 "/>
<text text-anchor="start" x="140.562" y="-252.8" font-family="Times,serif" font-size="14.00">a : FloatArray</text>
<text text-anchor="start" x="140.562" y="-238.8" font-family="Times,serif" font-size="14.00">cmax : FloatArray</text>
<text text-anchor="start" x="140.562" y="-224.8" font-family="Times,serif" font-size="14.00">cmin : FloatArray</text>
<text text-anchor="start" x="140.562" y="-210.8" font-family="Times,serif" font-size="14.00">midpoint : FloatArray</text>
<text text-anchor="start" x="140.562" y="-196.8" font-family="Times,serif" font-size="14.00">sigma : FloatArray</text>
<polyline fill="none" stroke="black" points="132.562,-190 271.438,-190 "/>
<text text-anchor="start" x="140.562" y="-174.8" font-family="Times,serif" font-size="14.00">post()</text>
</g>
<!-- 7&#45;&gt;0 -->
<g id="edge7" class="edge"><title>7&#45;&gt;0</title>
<path fill="none" stroke="black" d="M231.488,-290.111C239.494,-306.431 248.07,-323.912 255.75,-339.568"/>
<polygon fill="none" stroke="black" points="252.612,-341.117 260.158,-348.553 258.896,-338.034 252.612,-341.117"/>
</g>
<!-- 8 -->
<g id="node9" class="node"><title>8</title>
<polygon fill="none" stroke="black" points="289.562,-161 289.562,-297 428.438,-297 428.438,-161 289.562,-161"/>
<text text-anchor="middle" x="359" y="-281.8" font-family="Times,serif" font-size="14.00">SigmoidalJansenRit</text>
<polyline fill="none" stroke="black" points="289.562,-275 428.438,-275 "/>
<text text-anchor="start" x="297.562" y="-259.8" font-family="Times,serif" font-size="14.00">a : FloatArray</text>
<text text-anchor="start" x="297.562" y="-245.8" font-family="Times,serif" font-size="14.00">cmax : FloatArray</text>
<text text-anchor="start" x="297.562" y="-231.8" font-family="Times,serif" font-size="14.00">cmin : FloatArray</text>
<text text-anchor="start" x="297.562" y="-217.8" font-family="Times,serif" font-size="14.00">midpoint : FloatArray</text>
<text text-anchor="start" x="297.562" y="-203.8" font-family="Times,serif" font-size="14.00">r : FloatArray</text>
<polyline fill="none" stroke="black" points="289.562,-197 428.438,-197 "/>
<text text-anchor="start" x="297.562" y="-181.8" font-family="Times,serif" font-size="14.00">post()</text>
<text text-anchor="start" x="297.562" y="-167.8" font-family="Times,serif" font-size="14.00">pre()</text>
</g>
<!-- 8&#45;&gt;0 -->
<g id="edge8" class="edge"><title>8&#45;&gt;0</title>
<path fill="none" stroke="black" d="M325.497,-297.43C318.458,-311.597 311.159,-326.287 304.523,-339.644"/>
<polygon fill="none" stroke="black" points="301.36,-338.143 300.045,-348.656 307.629,-341.258 301.36,-338.143"/>
</g>
<!-- 9&#45;&gt;0 -->
<g id="edge9" class="edge"><title>9&#45;&gt;0</title>
<path fill="none" stroke="black" d="M479.086,-263.301C468.178,-279.503 453.522,-298.373 437,-312 403.001,-340.043 357.076,-361.042 323.683,-373.968"/>
<polygon fill="none" stroke="black" points="322.3,-370.749 314.184,-377.559 324.775,-377.297 322.3,-370.749"/>
</g>
</g>
</svg>
