<?xml version="1.0" encoding="UTF-8" standalone="no"?>
<!DOCTYPE svg PUBLIC "-//W3C//DTD SVG 1.1//EN"
 "http://www.w3.org/Graphics/SVG/1.1/DTD/svg11.dtd">
<!-- Generated by graphviz version 2.36.0 (20140111.2315)
 -->
<!-- Title: classes_integrators Pages: 1 -->
<svg width="1057pt" height="448pt"
 viewBox="0.00 0.00 1057.00 448.00" xmlns="http://www.w3.org/2000/svg" xmlns:xlink="http://www.w3.org/1999/xlink">
<g id="graph0" class="graph" transform="scale(1 1) rotate(0) translate(4 444)">
<title>classes_integrators</title>
<polygon fill="white" stroke="none" points="-4,4 -4,-444 1053,-444 1053,4 -4,4"/>
<!-- 0 -->
<g id="node1" class="node"><title>0</title>
<polygon fill="none" stroke="black" points="745,-109 745,-179 807,-179 807,-109 745,-109"/>
<text text-anchor="middle" x="776" y="-163.8" font-family="Times,serif" font-size="14.00">Dop853</text>
<polyline fill="none" stroke="black" points="745,-156 807,-156 "/>
<polyline fill="none" stroke="black" points="745,-132 807,-132 "/>
<text text-anchor="middle" x="776" y="-116.8" font-family="Times,serif" font-size="14.00"> </text>
</g>
<!-- 9 -->
<g id="node10" class="node"><title>9</title>
<polygon fill="none" stroke="black" points="454.5,-217 454.5,-331 733.5,-331 733.5,-217 454.5,-217"/>
<text text-anchor="middle" x="594" y="-315.8" font-family="Times,serif" font-size="14.00">Integrator</text>
<polyline fill="none" stroke="black" points="454.5,-308 733.5,-308 "/>
<text text-anchor="start" x="462.5" y="-292.8" font-family="Times,serif" font-size="14.00">dt : Float</text>
<text text-anchor="start" x="462.5" y="-277.8" font-family="Times,serif" font-size="14.00">clamped_state_variable_indices : IntegerArray</text>
<text text-anchor="start" x="462.5" y="-262.8" font-family="Times,serif" font-size="14.00">clamped_state_variable_values : FloatArray</text>
<polyline fill="none" stroke="black" points="454.5,-255 733.5,-255 "/>
<text text-anchor="start" x="462.5" y="-239.8" font-family="Times,serif" font-size="14.00">clamp_state()</text>
<text text-anchor="start" x="462.5" y="-224.8" font-family="Times,serif" font-size="14.00">scheme()</text>
</g>
<!-- 0&#45;&gt;9 -->
<g id="edge1" class="edge"><title>0&#45;&gt;9</title>
<path fill="none" stroke="black" d="M744.988,-172.161C741.662,-174.867 738.291,-177.525 735,-180 721.188,-190.388 706.263,-200.921 691.47,-210.983"/>
<polygon fill="none" stroke="black" points="689.113,-208.352 682.784,-216.848 693.03,-214.153 689.113,-208.352"/>
</g>
<!-- 12 -->
<g id="node13" class="node"><title>12</title>
<polygon fill="none" stroke="black" points="837,-239 837,-309 915,-309 915,-239 837,-239"/>
<text text-anchor="middle" x="876" y="-293.8" font-family="Times,serif" font-size="14.00">SciPyODE</text>
<polyline fill="none" stroke="black" points="837,-286 915,-286 "/>
<polyline fill="none" stroke="black" points="837,-262 915,-262 "/>
<text text-anchor="start" x="845" y="-246.8" font-family="Times,serif" font-size="14.00">scheme()</text>
</g>
<!-- 0&#45;&gt;12 -->
<g id="edge2" class="edge"><title>0&#45;&gt;12</title>
<path fill="none" stroke="black" d="M802.798,-179.302C815.128,-195.084 829.877,-213.963 842.895,-230.625"/>
<polygon fill="none" stroke="black" points="840.213,-232.878 849.128,-238.604 845.729,-228.569 840.213,-232.878"/>
</g>
<!-- 1 -->
<g id="node2" class="node"><title>1</title>
<polygon fill="none" stroke="black" points="483.5,-1 483.5,-71 602.5,-71 602.5,-1 483.5,-1"/>
<text text-anchor="middle" x="543" y="-55.8" font-family="Times,serif" font-size="14.00">Dop853Stochastic</text>
<polyline fill="none" stroke="black" points="483.5,-48 602.5,-48 "/>
<polyline fill="none" stroke="black" points="483.5,-24 602.5,-24 "/>
<text text-anchor="middle" x="543" y="-8.8" font-family="Times,serif" font-size="14.00"> </text>
</g>
<!-- 10 -->
<g id="node11" class="node"><title>10</title>
<polygon fill="none" stroke="black" points="86.5,-109.5 86.5,-178.5 215.5,-178.5 215.5,-109.5 86.5,-109.5"/>
<text text-anchor="middle" x="151" y="-163.3" font-family="Times,serif" font-size="14.00">IntegratorStochastic</text>
<polyline fill="none" stroke="black" points="86.5,-155.5 215.5,-155.5 "/>
<text text-anchor="start" x="94.5" y="-140.3" font-family="Times,serif" font-size="14.00">noise : Noise</text>
<polyline fill="none" stroke="black" points="86.5,-132.5 215.5,-132.5 "/>
<text text-anchor="middle" x="151" y="-117.3" font-family="Times,serif" font-size="14.00"> </text>
</g>
<!-- 1&#45;&gt;10 -->
<g id="edge3" class="edge"><title>1&#45;&gt;10</title>
<path fill="none" stroke="black" d="M483.383,-46.0828C420.602,-56.5748 319.089,-76.1773 225.2,-107.806"/>
<polygon fill="none" stroke="black" points="223.883,-104.557 215.555,-111.107 226.15,-111.18 223.883,-104.557"/>
</g>
<!-- 14 -->
<g id="node15" class="node"><title>14</title>
<polygon fill="none" stroke="black" points="973,-109 973,-179 1049,-179 1049,-109 973,-109"/>
<text text-anchor="middle" x="1011" y="-163.8" font-family="Times,serif" font-size="14.00">SciPySDE</text>
<polyline fill="none" stroke="black" points="973,-156 1049,-156 "/>
<polyline fill="none" stroke="black" points="973,-132 1049,-132 "/>
<text text-anchor="start" x="981" y="-116.8" font-family="Times,serif" font-size="14.00">scheme()</text>
</g>
<!-- 1&#45;&gt;14 -->
<g id="edge4" class="edge"><title>1&#45;&gt;14</title>
<path fill="none" stroke="black" d="M602.661,-50.2935C634.937,-57.248 675.55,-65.618 712,-72 823.008,-91.4366 858.605,-65.5456 963,-108 963.313,-108.127 963.627,-108.257 963.94,-108.39"/>
<polygon fill="none" stroke="black" points="962.406,-111.536 972.922,-112.824 965.505,-105.259 962.406,-111.536"/>
</g>
<!-- 2 -->
<g id="node3" class="node"><title>2</title>
<polygon fill="none" stroke="black" points="825,-109 825,-179 881,-179 881,-109 825,-109"/>
<text text-anchor="middle" x="853" y="-163.8" font-family="Times,serif" font-size="14.00">Dopri5</text>
<polyline fill="none" stroke="black" points="825,-156 881,-156 "/>
<polyline fill="none" stroke="black" points="825,-132 881,-132 "/>
<text text-anchor="middle" x="853" y="-116.8" font-family="Times,serif" font-size="14.00"> </text>
</g>
<!-- 2&#45;&gt;9 -->
<g id="edge5" class="edge"><title>2&#45;&gt;9</title>
<path fill="none" stroke="black" d="M824.758,-173.582C821.905,-175.889 818.964,-178.07 816,-180 793.389,-194.723 768.061,-207.935 742.824,-219.462"/>
<polygon fill="none" stroke="black" points="741.225,-216.344 733.536,-223.633 744.093,-222.73 741.225,-216.344"/>
</g>
<!-- 2&#45;&gt;12 -->
<g id="edge6" class="edge"><title>2&#45;&gt;12</title>
<path fill="none" stroke="black" d="M859.164,-179.302C861.871,-194.367 865.085,-212.253 867.975,-228.34"/>
<polygon fill="none" stroke="black" points="864.606,-229.38 869.819,-238.604 871.496,-228.142 864.606,-229.38"/>
</g>
<!-- 3 -->
<g id="node4" class="node"><title>3</title>
<polygon fill="none" stroke="black" points="721,-1 721,-71 835,-71 835,-1 721,-1"/>
<text text-anchor="middle" x="778" y="-55.8" font-family="Times,serif" font-size="14.00">Dopri5Stochastic</text>
<polyline fill="none" stroke="black" points="721,-48 835,-48 "/>
<polyline fill="none" stroke="black" points="721,-24 835,-24 "/>
<text text-anchor="middle" x="778" y="-8.8" font-family="Times,serif" font-size="14.00"> </text>
</g>
<!-- 3&#45;&gt;10 -->
<g id="edge7" class="edge"><title>3&#45;&gt;10</title>
<path fill="none" stroke="black" d="M720.712,-50.6909C688.614,-57.9366 647.761,-66.4564 611,-72 443.525,-97.2555 392.476,-63.3139 225.919,-107.768"/>
<polygon fill="none" stroke="black" points="224.553,-104.512 215.826,-110.519 226.394,-111.266 224.553,-104.512"/>
</g>
<!-- 3&#45;&gt;14 -->
<g id="edge8" class="edge"><title>3&#45;&gt;14</title>
<path fill="none" stroke="black" d="M835.162,-54.5767C872.623,-67.1378 922.052,-85.7236 963,-108 963.408,-108.222 963.816,-108.447 964.224,-108.674"/>
<polygon fill="none" stroke="black" points="962.429,-111.679 972.807,-113.813 966.025,-105.673 962.429,-111.679"/>
</g>
<!-- 4 -->
<g id="node5" class="node"><title>4</title>
<polygon fill="none" stroke="black" points="462.5,-109.5 462.5,-178.5 585.5,-178.5 585.5,-109.5 462.5,-109.5"/>
<text text-anchor="middle" x="524" y="-163.3" font-family="Times,serif" font-size="14.00">EulerDeterministic</text>
<polyline fill="none" stroke="black" points="462.5,-155.5 585.5,-155.5 "/>
<text text-anchor="start" x="470.5" y="-140.3" font-family="Times,serif" font-size="14.00">dX</text>
<polyline fill="none" stroke="black" points="462.5,-132.5 585.5,-132.5 "/>
<text text-anchor="start" x="470.5" y="-117.3" font-family="Times,serif" font-size="14.00">scheme()</text>
</g>
<!-- 4&#45;&gt;9 -->
<g id="edge9" class="edge"><title>4&#45;&gt;9</title>
<path fill="none" stroke="black" d="M542.392,-178.63C547.342,-187.682 552.869,-197.789 558.416,-207.931"/>
<polygon fill="none" stroke="black" points="555.412,-209.734 563.281,-216.828 561.554,-206.375 555.412,-209.734"/>
</g>
<!-- 5 -->
<g id="node6" class="node"><title>5</title>
<polygon fill="none" stroke="black" points="160,-1 160,-71 264,-71 264,-1 160,-1"/>
<text text-anchor="middle" x="212" y="-55.8" font-family="Times,serif" font-size="14.00">EulerStochastic</text>
<polyline fill="none" stroke="black" points="160,-48 264,-48 "/>
<polyline fill="none" stroke="black" points="160,-24 264,-24 "/>
<text text-anchor="start" x="168" y="-8.8" font-family="Times,serif" font-size="14.00">scheme()</text>
</g>
<!-- 5&#45;&gt;10 -->
<g id="edge10" class="edge"><title>5&#45;&gt;10</title>
<path fill="none" stroke="black" d="M192.363,-71.1225C186.977,-80.4826 181.071,-90.7463 175.45,-100.514"/>
<polygon fill="none" stroke="black" points="172.345,-98.8909 170.391,-109.304 178.413,-102.382 172.345,-98.8909"/>
</g>
<!-- 6 -->
<g id="node7" class="node"><title>6</title>
<polygon fill="none" stroke="black" points="603.5,-109 603.5,-179 726.5,-179 726.5,-109 603.5,-109"/>
<text text-anchor="middle" x="665" y="-163.8" font-family="Times,serif" font-size="14.00">HeunDeterministic</text>
<polyline fill="none" stroke="black" points="603.5,-156 726.5,-156 "/>
<polyline fill="none" stroke="black" points="603.5,-132 726.5,-132 "/>
<text text-anchor="start" x="611.5" y="-116.8" font-family="Times,serif" font-size="14.00">scheme()</text>
</g>
<!-- 6&#45;&gt;9 -->
<g id="edge11" class="edge"><title>6&#45;&gt;9</title>
<path fill="none" stroke="black" d="M645.973,-179.302C641.067,-188.146 635.622,-197.963 630.156,-207.818"/>
<polygon fill="none" stroke="black" points="626.935,-206.409 625.145,-216.852 633.056,-209.804 626.935,-206.409"/>
</g>
<!-- 7 -->
<g id="node8" class="node"><title>7</title>
<polygon fill="none" stroke="black" points="38,-1 38,-71 142,-71 142,-1 38,-1"/>
<text text-anchor="middle" x="90" y="-55.8" font-family="Times,serif" font-size="14.00">HeunStochastic</text>
<polyline fill="none" stroke="black" points="38,-48 142,-48 "/>
<polyline fill="none" stroke="black" points="38,-24 142,-24 "/>
<text text-anchor="start" x="46" y="-8.8" font-family="Times,serif" font-size="14.00">scheme()</text>
</g>
<!-- 7&#45;&gt;10 -->
<g id="edge12" class="edge"><title>7&#45;&gt;10</title>
<path fill="none" stroke="black" d="M109.637,-71.1225C115.023,-80.4826 120.929,-90.7463 126.55,-100.514"/>
<polygon fill="none" stroke="black" points="123.587,-102.382 131.609,-109.304 129.655,-98.8909 123.587,-102.382"/>
</g>
<!-- 8 -->
<g id="node9" class="node"><title>8</title>
<polygon fill="none" stroke="black" points="0,-109 0,-179 68,-179 68,-109 0,-109"/>
<text text-anchor="middle" x="34" y="-163.8" font-family="Times,serif" font-size="14.00">Identity</text>
<polyline fill="none" stroke="black" points="0,-156 68,-156 "/>
<polyline fill="none" stroke="black" points="0,-132 68,-132 "/>
<text text-anchor="start" x="8" y="-116.8" font-family="Times,serif" font-size="14.00">scheme()</text>
</g>
<!-- 8&#45;&gt;9 -->
<g id="edge13" class="edge"><title>8&#45;&gt;9</title>
<path fill="none" stroke="black" d="M68.2166,-175.23C71.0835,-177.013 74.026,-178.634 77,-180 193.411,-233.471 337.729,-256.263 444.279,-265.944"/>
<polygon fill="none" stroke="black" points="444.202,-269.45 454.47,-266.84 444.815,-262.477 444.202,-269.45"/>
</g>
<!-- 10&#45;&gt;9 -->
<g id="edge14" class="edge"><title>10&#45;&gt;9</title>
<path fill="none" stroke="black" d="M215.589,-176.797C218.412,-177.923 221.224,-178.997 224,-180 294.952,-205.631 376.01,-226.865 444.137,-242.539"/>
<polygon fill="none" stroke="black" points="443.564,-245.998 454.092,-244.812 445.121,-239.174 443.564,-245.998"/>
</g>
<!-- 11 -->
<g id="node12" class="node"><title>11</title>
<polygon fill="none" stroke="black" points="233.5,-109 233.5,-179 444.5,-179 444.5,-109 233.5,-109"/>
<text text-anchor="middle" x="339" y="-163.8" font-family="Times,serif" font-size="14.00">RungeKutta4thOrderDeterministic</text>
<polyline fill="none" stroke="black" points="233.5,-156 444.5,-156 "/>
<polyline fill="none" stroke="black" points="233.5,-132 444.5,-132 "/>
<text text-anchor="start" x="241.5" y="-116.8" font-family="Times,serif" font-size="14.00">scheme()</text>
</g>
<!-- 11&#45;&gt;9 -->
<g id="edge15" class="edge"><title>11&#45;&gt;9</title>
<path fill="none" stroke="black" d="M407,-179.134C427.449,-189.398 450.531,-200.984 473.321,-212.424"/>
<polygon fill="none" stroke="black" points="471.867,-215.61 482.374,-216.968 475.007,-209.354 471.867,-215.61"/>
</g>
<!-- 13 -->
<g id="node14" class="node"><title>13</title>
<polygon fill="none" stroke="black" points="879.5,-369 879.5,-439 984.5,-439 984.5,-369 879.5,-369"/>
<text text-anchor="middle" x="932" y="-423.8" font-family="Times,serif" font-size="14.00">SciPyODEBase</text>
<polyline fill="none" stroke="black" points="879.5,-416 984.5,-416 "/>
<polyline fill="none" stroke="black" points="879.5,-392 984.5,-392 "/>
<text text-anchor="middle" x="932" y="-376.8" font-family="Times,serif" font-size="14.00"> </text>
</g>
<!-- 12&#45;&gt;13 -->
<g id="edge16" class="edge"><title>12&#45;&gt;13</title>
<path fill="none" stroke="black" d="M891.007,-309.302C897.724,-324.654 905.722,-342.935 912.862,-359.257"/>
<polygon fill="none" stroke="black" points="909.737,-360.845 916.952,-368.604 916.15,-358.039 909.737,-360.845"/>
</g>
<!-- 14&#45;&gt;13 -->
<g id="edge17" class="edge"><title>14&#45;&gt;13</title>
<path fill="none" stroke="black" d="M1000.51,-179.26C986.344,-225.522 961.085,-308.013 945.513,-358.869"/>
<polygon fill="none" stroke="black" points="942.115,-358.011 942.534,-368.598 948.809,-360.061 942.115,-358.011"/>
</g>
<!-- 15 -->
<g id="node16" class="node"><title>15</title>
<polygon fill="none" stroke="black" points="899.5,-109 899.5,-179 954.5,-179 954.5,-109 899.5,-109"/>
<text text-anchor="middle" x="927" y="-163.8" font-family="Times,serif" font-size="14.00">VODE</text>
<polyline fill="none" stroke="black" points="899.5,-156 954.5,-156 "/>
<polyline fill="none" stroke="black" points="899.5,-132 954.5,-132 "/>
<text text-anchor="middle" x="927" y="-116.8" font-family="Times,serif" font-size="14.00"> </text>
</g>
<!-- 15&#45;&gt;9 -->
<g id="edge18" class="edge"><title>15&#45;&gt;9</title>
<path fill="none" stroke="black" d="M899.374,-173.54C896.35,-175.914 893.202,-178.119 890,-180 845.149,-206.341 792.019,-226.042 743.237,-240.365"/>
<polygon fill="none" stroke="black" points="742.183,-237.026 733.542,-243.158 744.121,-243.753 742.183,-237.026"/>
</g>
<!-- 15&#45;&gt;12 -->
<g id="edge19" class="edge"><title>15&#45;&gt;12</title>
<path fill="none" stroke="black" d="M913.333,-179.302C907.216,-194.654 899.932,-212.935 893.429,-229.257"/>
<polygon fill="none" stroke="black" points="890.155,-228.018 889.705,-238.604 896.658,-230.609 890.155,-228.018"/>
</g>
<!-- 16 -->
<g id="node17" class="node"><title>16</title>
<polygon fill="none" stroke="black" points="903.5,-1 903.5,-71 1016.5,-71 1016.5,-1 903.5,-1"/>
<text text-anchor="middle" x="960" y="-55.8" font-family="Times,serif" font-size="14.00">VODEStochastic</text>
<polyline fill="none" stroke="black" points="903.5,-48 1016.5,-48 "/>
<polyline fill="none" stroke="black" points="903.5,-24 1016.5,-24 "/>
<text text-anchor="middle" x="960" y="-8.8" font-family="Times,serif" font-size="14.00"> </text>
</g>
<!-- 16&#45;&gt;10 -->
<g id="edge20" class="edge"><title>16&#45;&gt;10</title>
<path fill="none" stroke="black" d="M903.415,-56.977C884.724,-62.7909 863.677,-68.5104 844,-72 575.539,-119.61 493.27,-40.9957 225.795,-107.852"/>
<polygon fill="none" stroke="black" points="224.621,-104.54 215.793,-110.398 226.348,-111.323 224.621,-104.54"/>
</g>
<!-- 16&#45;&gt;14 -->
<g id="edge21" class="edge"><title>16&#45;&gt;14</title>
<path fill="none" stroke="black" d="M976.417,-71.1225C980.831,-80.2954 985.662,-90.336 990.276,-99.9269"/>
<polygon fill="none" stroke="black" points="987.124,-101.448 994.613,-108.941 993.432,-98.4127 987.124,-101.448"/>
</g>
</g>
</svg>
