<?xml version="1.0" encoding="UTF-8" standalone="no"?>
<!DOCTYPE svg PUBLIC "-//W3C//DTD SVG 1.1//EN"
 "http://www.w3.org/Graphics/SVG/1.1/DTD/svg11.dtd">
<!-- Generated by graphviz version 2.36.0 (20140111.2315)
 -->
<!-- Title: classes_monitors Pages: 1 -->
<svg width="1619pt" height="712pt"
 viewBox="0.00 0.00 1619.00 712.00" xmlns="http://www.w3.org/2000/svg" xmlns:xlink="http://www.w3.org/1999/xlink">
<g id="graph0" class="graph" transform="scale(1 1) rotate(0) translate(4 708)">
<title>classes_monitors</title>
<polygon fill="white" stroke="none" points="-4,4 -4,-708 1615,-708 1615,4 -4,4"/>
<!-- 0 -->
<g id="node1" class="node"><title>0</title>
<polygon fill="none" stroke="black" points="1336.5,-250.5 1336.5,-409.5 1611.5,-409.5 1611.5,-250.5 1336.5,-250.5"/>
<text text-anchor="middle" x="1474" y="-394.3" font-family="Times,serif" font-size="14.00">Bold</text>
<polyline fill="none" stroke="black" points="1336.5,-386.5 1611.5,-386.5 "/>
<text text-anchor="start" x="1344.5" y="-371.3" font-family="Times,serif" font-size="14.00">hemodynamic_response_function</text>
<text text-anchor="start" x="1344.5" y="-356.3" font-family="Times,serif" font-size="14.00">hrf_length : Float</text>
<text text-anchor="start" x="1344.5" y="-341.3" font-family="Times,serif" font-size="14.00">period : Float</text>
<text text-anchor="start" x="1344.5" y="-326.3" font-family="Times,serif" font-size="14.00">hrf_kernel : HRFKernelEquation</text>
<text text-anchor="start" x="1344.5" y="-311.3" font-family="Times,serif" font-size="14.00">hemodynamic_response_function : NoneType</text>
<polyline fill="none" stroke="black" points="1336.5,-303.5 1611.5,-303.5 "/>
<text text-anchor="start" x="1344.5" y="-288.3" font-family="Times,serif" font-size="14.00">config_for_sim()</text>
<text text-anchor="start" x="1344.5" y="-273.3" font-family="Times,serif" font-size="14.00">compute_hrf()</text>
<text text-anchor="start" x="1344.5" y="-258.3" font-family="Times,serif" font-size="14.00">sample()</text>
</g>
<!-- 5 -->
<g id="node6" class="node"><title>5</title>
<polygon fill="none" stroke="black" points="769.5,-484.5 769.5,-703.5 986.5,-703.5 986.5,-484.5 769.5,-484.5"/>
<text text-anchor="middle" x="878" y="-688.3" font-family="Times,serif" font-size="14.00">Monitor</text>
<polyline fill="none" stroke="black" points="769.5,-680.5 986.5,-680.5 "/>
<text text-anchor="start" x="777.5" y="-665.3" font-family="Times,serif" font-size="14.00">dt</text>
<text text-anchor="start" x="777.5" y="-650.3" font-family="Times,serif" font-size="14.00">voi</text>
<text text-anchor="start" x="777.5" y="-635.3" font-family="Times,serif" font-size="14.00">istep : int</text>
<text text-anchor="start" x="777.5" y="-620.3" font-family="Times,serif" font-size="14.00">voi : NoneType</text>
<text text-anchor="start" x="777.5" y="-605.3" font-family="Times,serif" font-size="14.00">period : Float</text>
<text text-anchor="start" x="777.5" y="-590.3" font-family="Times,serif" font-size="14.00">istep : NoneType</text>
<text text-anchor="start" x="777.5" y="-575.3" font-family="Times,serif" font-size="14.00">variables_of_interest : IntegerArray</text>
<text text-anchor="start" x="777.5" y="-560.3" font-family="Times,serif" font-size="14.00">dt : NoneType</text>
<polyline fill="none" stroke="black" points="769.5,-552.5 986.5,-552.5 "/>
<text text-anchor="start" x="777.5" y="-537.3" font-family="Times,serif" font-size="14.00">config_for_sim()</text>
<text text-anchor="start" x="777.5" y="-522.3" font-family="Times,serif" font-size="14.00">sample()</text>
<text text-anchor="start" x="777.5" y="-507.3" font-family="Times,serif" font-size="14.00">record()</text>
<text text-anchor="start" x="777.5" y="-492.3" font-family="Times,serif" font-size="14.00">create_time_series()</text>
</g>
<!-- 0&#45;&gt;5 -->
<g id="edge1" class="edge"><title>0&#45;&gt;5</title>
<path fill="none" stroke="black" d="M1385.43,-409.752C1366.94,-423.765 1346.98,-437.285 1327,-448 1221.37,-504.653 1089.81,-543.914 996.463,-567.157"/>
<polygon fill="none" stroke="black" points="995.571,-563.772 986.7,-569.564 997.247,-570.568 995.571,-563.772"/>
</g>
<!-- 1 -->
<g id="node2" class="node"><title>1</title>
<polygon fill="none" stroke="black" points="1418.5,-46 1418.5,-130 1529.5,-130 1529.5,-46 1418.5,-46"/>
<text text-anchor="middle" x="1474" y="-114.8" font-family="Times,serif" font-size="14.00">BoldRegionROI</text>
<polyline fill="none" stroke="black" points="1418.5,-107 1529.5,-107 "/>
<text text-anchor="start" x="1426.5" y="-91.8" font-family="Times,serif" font-size="14.00">region_mapping</text>
<polyline fill="none" stroke="black" points="1418.5,-84 1529.5,-84 "/>
<text text-anchor="start" x="1426.5" y="-68.8" font-family="Times,serif" font-size="14.00">config_for_sim()</text>
<text text-anchor="start" x="1426.5" y="-53.8" font-family="Times,serif" font-size="14.00">sample()</text>
</g>
<!-- 1&#45;&gt;0 -->
<g id="edge2" class="edge"><title>1&#45;&gt;0</title>
<path fill="none" stroke="black" d="M1474,-130.257C1474,-160.271 1474,-202.051 1474,-239.563"/>
<polygon fill="none" stroke="black" points="1470.5,-240.016 1474,-250.016 1477.5,-240.016 1470.5,-240.016"/>
</g>
<!-- 2 -->
<g id="node3" class="node"><title>2</title>
<polygon fill="none" stroke="black" points="164,-1 164,-175 376,-175 376,-1 164,-1"/>
<text text-anchor="middle" x="270" y="-159.8" font-family="Times,serif" font-size="14.00">EEG</text>
<polyline fill="none" stroke="black" points="164,-152 376,-152 "/>
<text text-anchor="start" x="172" y="-136.8" font-family="Times,serif" font-size="14.00">sensors : SensorsEEG</text>
<text text-anchor="start" x="172" y="-121.8" font-family="Times,serif" font-size="14.00">sigma : Float</text>
<text text-anchor="start" x="172" y="-106.8" font-family="Times,serif" font-size="14.00">projection : ProjectionSurfaceEEG</text>
<text text-anchor="start" x="172" y="-91.8" font-family="Times,serif" font-size="14.00">reference : String</text>
<polyline fill="none" stroke="black" points="164,-84 376,-84 "/>
<text text-anchor="start" x="172" y="-68.8" font-family="Times,serif" font-size="14.00">from_file()</text>
<text text-anchor="start" x="172" y="-53.8" font-family="Times,serif" font-size="14.00">config_for_sim()</text>
<text text-anchor="start" x="172" y="-38.8" font-family="Times,serif" font-size="14.00">sample()</text>
<text text-anchor="start" x="172" y="-23.8" font-family="Times,serif" font-size="14.00">analytic()</text>
<text text-anchor="start" x="172" y="-8.8" font-family="Times,serif" font-size="14.00">create_time_series()</text>
</g>
<!-- 7 -->
<g id="node8" class="node"><title>7</title>
<polygon fill="none" stroke="black" points="364,-213 364,-447 640,-447 640,-213 364,-213"/>
<text text-anchor="middle" x="502" y="-431.8" font-family="Times,serif" font-size="14.00">Projection</text>
<polyline fill="none" stroke="black" points="364,-424 640,-424 "/>
<text text-anchor="start" x="372" y="-408.8" font-family="Times,serif" font-size="14.00">rmap : RegionMapping, NoneType</text>
<text text-anchor="start" x="372" y="-393.8" font-family="Times,serif" font-size="14.00">projection : ProjectionMatrix, NoneType</text>
<text text-anchor="start" x="372" y="-378.8" font-family="Times,serif" font-size="14.00">gain</text>
<text text-anchor="start" x="372" y="-363.8" font-family="Times,serif" font-size="14.00">sensors</text>
<text text-anchor="start" x="372" y="-348.8" font-family="Times,serif" font-size="14.00">region_mapping : RegionMapping, NoneType</text>
<text text-anchor="start" x="372" y="-333.8" font-family="Times,serif" font-size="14.00">rmap : property</text>
<text text-anchor="start" x="372" y="-318.8" font-family="Times,serif" font-size="14.00">gain : property</text>
<text text-anchor="start" x="372" y="-303.8" font-family="Times,serif" font-size="14.00">region_mapping : RegionMapping</text>
<polyline fill="none" stroke="black" points="364,-296 640,-296 "/>
<text text-anchor="start" x="372" y="-280.8" font-family="Times,serif" font-size="14.00">from_file()</text>
<text text-anchor="start" x="372" y="-265.8" font-family="Times,serif" font-size="14.00">config_for_sim()</text>
<text text-anchor="start" x="372" y="-250.8" font-family="Times,serif" font-size="14.00">sample()</text>
<text text-anchor="start" x="372" y="-235.8" font-family="Times,serif" font-size="14.00">analytic()</text>
<text text-anchor="start" x="372" y="-220.8" font-family="Times,serif" font-size="14.00">oriented_gain()</text>
</g>
<!-- 2&#45;&gt;7 -->
<g id="edge3" class="edge"><title>2&#45;&gt;7</title>
<path fill="none" stroke="black" d="M353.43,-175.306C362.942,-185.147 372.773,-195.317 382.636,-205.52"/>
<polygon fill="none" stroke="black" points="380.353,-208.194 389.819,-212.951 385.386,-203.329 380.353,-208.194"/>
</g>
<!-- 3 -->
<g id="node4" class="node"><title>3</title>
<polygon fill="none" stroke="black" points="0,-287.5 0,-372.5 130,-372.5 130,-287.5 0,-287.5"/>
<text text-anchor="middle" x="65" y="-357.3" font-family="Times,serif" font-size="14.00">GlobalAverage</text>
<polyline fill="none" stroke="black" points="0,-349.5 130,-349.5 "/>
<polyline fill="none" stroke="black" points="0,-325.5 130,-325.5 "/>
<text text-anchor="start" x="8" y="-310.3" font-family="Times,serif" font-size="14.00">sample()</text>
<text text-anchor="start" x="8" y="-295.3" font-family="Times,serif" font-size="14.00">create_time_series()</text>
</g>
<!-- 3&#45;&gt;5 -->
<g id="edge4" class="edge"><title>3&#45;&gt;5</title>
<path fill="none" stroke="black" d="M81.1584,-372.708C93.2534,-398.371 112.325,-429.739 139,-448 238.267,-515.955 576.677,-561.138 759.13,-581.174"/>
<polygon fill="none" stroke="black" points="758.987,-584.679 769.308,-582.283 759.746,-577.72 758.987,-584.679"/>
</g>
<!-- 4 -->
<g id="node5" class="node"><title>4</title>
<polygon fill="none" stroke="black" points="394,-31 394,-145 610,-145 610,-31 394,-31"/>
<text text-anchor="middle" x="502" y="-129.8" font-family="Times,serif" font-size="14.00">MEG</text>
<polyline fill="none" stroke="black" points="394,-122 610,-122 "/>
<text text-anchor="start" x="402" y="-106.8" font-family="Times,serif" font-size="14.00">sensors : SensorsMEG</text>
<text text-anchor="start" x="402" y="-91.8" font-family="Times,serif" font-size="14.00">projection : ProjectionSurfaceMEG</text>
<polyline fill="none" stroke="black" points="394,-84 610,-84 "/>
<text text-anchor="start" x="402" y="-68.8" font-family="Times,serif" font-size="14.00">from_file()</text>
<text text-anchor="start" x="402" y="-53.8" font-family="Times,serif" font-size="14.00">analytic()</text>
<text text-anchor="start" x="402" y="-38.8" font-family="Times,serif" font-size="14.00">create_time_series()</text>
</g>
<!-- 4&#45;&gt;7 -->
<g id="edge5" class="edge"><title>4&#45;&gt;7</title>
<path fill="none" stroke="black" d="M502,-145.269C502,-162.574 502,-182.369 502,-202.41"/>
<polygon fill="none" stroke="black" points="498.5,-202.578 502,-212.578 505.5,-202.578 498.5,-202.578"/>
</g>
<!-- 6 -->
<g id="node7" class="node"><title>6</title>
<polygon fill="none" stroke="black" points="148.5,-288 148.5,-372 345.5,-372 345.5,-288 148.5,-288"/>
<text text-anchor="middle" x="247" y="-356.8" font-family="Times,serif" font-size="14.00">ProgressLogger</text>
<polyline fill="none" stroke="black" points="148.5,-349 345.5,-349 "/>
<text text-anchor="start" x="156.5" y="-333.8" font-family="Times,serif" font-size="14.00">logger : NoneType, RootLogger</text>
<polyline fill="none" stroke="black" points="148.5,-326 345.5,-326 "/>
<text text-anchor="start" x="156.5" y="-310.8" font-family="Times,serif" font-size="14.00">config_for_sim()</text>
<text text-anchor="start" x="156.5" y="-295.8" font-family="Times,serif" font-size="14.00">record()</text>
</g>
<!-- 6&#45;&gt;5 -->
<g id="edge6" class="edge"><title>6&#45;&gt;5</title>
<path fill="none" stroke="black" d="M275.662,-372.243C295.272,-397.552 323.38,-428.704 355,-448 480.895,-524.826 648.359,-561.912 759.494,-579.134"/>
<polygon fill="none" stroke="black" points="758.988,-582.597 769.4,-580.639 760.04,-575.676 758.988,-582.597"/>
</g>
<!-- 7&#45;&gt;5 -->
<g id="edge7" class="edge"><title>7&#45;&gt;5</title>
<path fill="none" stroke="black" d="M640.176,-441.655C643.133,-443.803 646.076,-445.92 649,-448 684.497,-473.254 724.269,-499.206 760.581,-522.047"/>
<polygon fill="none" stroke="black" points="758.912,-525.132 769.244,-527.479 762.631,-519.201 758.912,-525.132"/>
</g>
<!-- 8 -->
<g id="node9" class="node"><title>8</title>
<polygon fill="none" stroke="black" points="658.5,-258 658.5,-402 875.5,-402 875.5,-258 658.5,-258"/>
<text text-anchor="middle" x="767" y="-386.8" font-family="Times,serif" font-size="14.00">Raw</text>
<polyline fill="none" stroke="black" points="658.5,-379 875.5,-379 "/>
<text text-anchor="start" x="666.5" y="-363.8" font-family="Times,serif" font-size="14.00">period</text>
<text text-anchor="start" x="666.5" y="-348.8" font-family="Times,serif" font-size="14.00">istep : int</text>
<text text-anchor="start" x="666.5" y="-333.8" font-family="Times,serif" font-size="14.00">voi</text>
<text text-anchor="start" x="666.5" y="-318.8" font-family="Times,serif" font-size="14.00">period : Float</text>
<text text-anchor="start" x="666.5" y="-303.8" font-family="Times,serif" font-size="14.00">variables_of_interest : IntegerArray</text>
<polyline fill="none" stroke="black" points="658.5,-296 875.5,-296 "/>
<text text-anchor="start" x="666.5" y="-280.8" font-family="Times,serif" font-size="14.00">config_for_sim()</text>
<text text-anchor="start" x="666.5" y="-265.8" font-family="Times,serif" font-size="14.00">sample()</text>
</g>
<!-- 8&#45;&gt;5 -->
<g id="edge8" class="edge"><title>8&#45;&gt;5</title>
<path fill="none" stroke="black" d="M797.185,-402.247C806.691,-424.685 817.459,-450.101 827.963,-474.895"/>
<polygon fill="none" stroke="black" points="824.849,-476.517 831.973,-484.359 831.294,-473.786 824.849,-476.517"/>
</g>
<!-- 9 -->
<g id="node10" class="node"><title>9</title>
<polygon fill="none" stroke="black" points="894,-250.5 894,-409.5 1084,-409.5 1084,-250.5 894,-250.5"/>
<text text-anchor="middle" x="989" y="-394.3" font-family="Times,serif" font-size="14.00">SpatialAverage</text>
<polyline fill="none" stroke="black" points="894,-386.5 1084,-386.5 "/>
<text text-anchor="start" x="902" y="-371.3" font-family="Times,serif" font-size="14.00">spatial_mean</text>
<text text-anchor="start" x="902" y="-356.3" font-family="Times,serif" font-size="14.00">is_default_special_mask : bool</text>
<text text-anchor="start" x="902" y="-341.3" font-family="Times,serif" font-size="14.00">spatial_mask</text>
<text text-anchor="start" x="902" y="-326.3" font-family="Times,serif" font-size="14.00">default_mask : Enumerate</text>
<text text-anchor="start" x="902" y="-311.3" font-family="Times,serif" font-size="14.00">spatial_mask : IntegerArray</text>
<polyline fill="none" stroke="black" points="894,-303.5 1084,-303.5 "/>
<text text-anchor="start" x="902" y="-288.3" font-family="Times,serif" font-size="14.00">config_for_sim()</text>
<text text-anchor="start" x="902" y="-273.3" font-family="Times,serif" font-size="14.00">sample()</text>
<text text-anchor="start" x="902" y="-258.3" font-family="Times,serif" font-size="14.00">create_time_series()</text>
</g>
<!-- 9&#45;&gt;5 -->
<g id="edge9" class="edge"><title>9&#45;&gt;5</title>
<path fill="none" stroke="black" d="M955.696,-409.609C946.98,-430.183 937.388,-452.822 928.008,-474.962"/>
<polygon fill="none" stroke="black" points="924.683,-473.84 924.004,-484.413 931.128,-476.571 924.683,-473.84"/>
</g>
<!-- 10 -->
<g id="node11" class="node"><title>10</title>
<polygon fill="none" stroke="black" points="1102,-295 1102,-365 1182,-365 1182,-295 1102,-295"/>
<text text-anchor="middle" x="1142" y="-349.8" font-family="Times,serif" font-size="14.00">SubSample</text>
<polyline fill="none" stroke="black" points="1102,-342 1182,-342 "/>
<polyline fill="none" stroke="black" points="1102,-318 1182,-318 "/>
<text text-anchor="start" x="1110" y="-302.8" font-family="Times,serif" font-size="14.00">sample()</text>
</g>
<!-- 10&#45;&gt;5 -->
<g id="edge10" class="edge"><title>10&#45;&gt;5</title>
<path fill="none" stroke="black" d="M1133.46,-365.033C1125.92,-389.999 1112.97,-423.653 1093,-448 1066.28,-480.57 1030.37,-508.702 995.558,-531.29"/>
<polygon fill="none" stroke="black" points="993.289,-528.586 986.737,-536.912 997.051,-534.488 993.289,-528.586"/>
</g>
<!-- 11 -->
<g id="node12" class="node"><title>11</title>
<polygon fill="none" stroke="black" points="1200,-287.5 1200,-372.5 1318,-372.5 1318,-287.5 1200,-287.5"/>
<text text-anchor="middle" x="1259" y="-357.3" font-family="Times,serif" font-size="14.00">TemporalAverage</text>
<polyline fill="none" stroke="black" points="1200,-349.5 1318,-349.5 "/>
<polyline fill="none" stroke="black" points="1200,-325.5 1318,-325.5 "/>
<text text-anchor="start" x="1208" y="-310.3" font-family="Times,serif" font-size="14.00">config_for_sim()</text>
<text text-anchor="start" x="1208" y="-295.3" font-family="Times,serif" font-size="14.00">sample()</text>
</g>
<!-- 11&#45;&gt;5 -->
<g id="edge11" class="edge"><title>11&#45;&gt;5</title>
<path fill="none" stroke="black" d="M1242.47,-372.615C1231.02,-397.117 1213.75,-427.268 1191,-448 1135.64,-498.458 1059.65,-534.224 996.417,-557.609"/>
<polygon fill="none" stroke="black" points="994.984,-554.405 986.783,-561.113 997.377,-560.984 994.984,-554.405"/>
</g>
<!-- 12 -->
<g id="node13" class="node"><title>12</title>
<polygon fill="none" stroke="black" points="628.5,-23.5 628.5,-152.5 847.5,-152.5 847.5,-23.5 628.5,-23.5"/>
<text text-anchor="middle" x="738" y="-137.3" font-family="Times,serif" font-size="14.00">iEEG</text>
<polyline fill="none" stroke="black" points="628.5,-129.5 847.5,-129.5 "/>
<text text-anchor="start" x="636.5" y="-114.3" font-family="Times,serif" font-size="14.00">sensors : SensorsInternal</text>
<text text-anchor="start" x="636.5" y="-99.3" font-family="Times,serif" font-size="14.00">sigma : Float</text>
<text text-anchor="start" x="636.5" y="-84.3" font-family="Times,serif" font-size="14.00">projection : ProjectionSurfaceSEEG</text>
<polyline fill="none" stroke="black" points="628.5,-76.5 847.5,-76.5 "/>
<text text-anchor="start" x="636.5" y="-61.3" font-family="Times,serif" font-size="14.00">from_file()</text>
<text text-anchor="start" x="636.5" y="-46.3" font-family="Times,serif" font-size="14.00">analytic()</text>
<text text-anchor="start" x="636.5" y="-31.3" font-family="Times,serif" font-size="14.00">create_time_series()</text>
</g>
<!-- 12&#45;&gt;7 -->
<g id="edge12" class="edge"><title>12&#45;&gt;7</title>
<path fill="none" stroke="black" d="M675.376,-152.685C659.342,-168.991 641.545,-187.09 623.636,-205.303"/>
<polygon fill="none" stroke="black" points="621.017,-202.973 616.502,-212.558 626.009,-207.881 621.017,-202.973"/>
</g>
</g>
</svg>
