<?xml version="1.0" encoding="UTF-8" standalone="no"?>
<!DOCTYPE svg PUBLIC "-//W3C//DTD SVG 1.1//EN"
 "http://www.w3.org/Graphics/SVG/1.1/DTD/svg11.dtd">
<!-- Generated by graphviz version 2.36.0 (20140111.2315)
 -->
<!-- Title: classes_models Pages: 1 -->
<svg width="2385pt" height="1586pt"
 viewBox="0.00 0.00 2385.00 1586.00" xmlns="http://www.w3.org/2000/svg" xmlns:xlink="http://www.w3.org/1999/xlink">
<g id="graph0" class="graph" transform="scale(1 1) rotate(0) translate(4 1582)">
<title>classes_models</title>
<polygon fill="white" stroke="none" points="-4,4 -4,-1582 2381,-1582 2381,4 -4,4"/>
<!-- 0 -->
<g id="node1" class="node"><title>0</title>
<polygon fill="none" stroke="black" points="-0.462402,-875 -0.462402,-1221 204.462,-1221 204.462,-875 -0.462402,-875"/>
<text text-anchor="middle" x="102" y="-1205.8" font-family="Times,serif" font-size="14.00">Epileptor</text>
<polyline fill="none" stroke="black" points="-0.462402,-1199 204.462,-1199 "/>
<text text-anchor="start" x="7.5376" y="-1183.8" font-family="Times,serif" font-size="14.00">Iext : FloatArray</text>
<text text-anchor="start" x="7.5376" y="-1169.8" font-family="Times,serif" font-size="14.00">Iext2 : FloatArray</text>
<text text-anchor="start" x="7.5376" y="-1155.8" font-family="Times,serif" font-size="14.00">Kf : FloatArray</text>
<text text-anchor="start" x="7.5376" y="-1141.8" font-family="Times,serif" font-size="14.00">Ks : FloatArray</text>
<text text-anchor="start" x="7.5376" y="-1127.8" font-family="Times,serif" font-size="14.00">Kvf : FloatArray</text>
<text text-anchor="start" x="7.5376" y="-1113.8" font-family="Times,serif" font-size="14.00">a : FloatArray</text>
<text text-anchor="start" x="7.5376" y="-1099.8" font-family="Times,serif" font-size="14.00">aa : FloatArray</text>
<text text-anchor="start" x="7.5376" y="-1085.8" font-family="Times,serif" font-size="14.00">b : FloatArray</text>
<text text-anchor="start" x="7.5376" y="-1071.8" font-family="Times,serif" font-size="14.00">c : FloatArray</text>
<text text-anchor="start" x="7.5376" y="-1057.8" font-family="Times,serif" font-size="14.00">cvar</text>
<text text-anchor="start" x="7.5376" y="-1043.8" font-family="Times,serif" font-size="14.00">d : FloatArray</text>
<text text-anchor="start" x="7.5376" y="-1029.8" font-family="Times,serif" font-size="14.00">r : FloatArray</text>
<text text-anchor="start" x="7.5376" y="-1015.8" font-family="Times,serif" font-size="14.00">s : FloatArray</text>
<text text-anchor="start" x="7.5376" y="-1001.8" font-family="Times,serif" font-size="14.00">slope : FloatArray</text>
<text text-anchor="start" x="7.5376" y="-987.8" font-family="Times,serif" font-size="14.00">state_variable_range : Dict</text>
<text text-anchor="start" x="7.5376" y="-973.8" font-family="Times,serif" font-size="14.00">state_variables : list</text>
<text text-anchor="start" x="7.5376" y="-959.8" font-family="Times,serif" font-size="14.00">tau : FloatArray</text>
<text text-anchor="start" x="7.5376" y="-945.8" font-family="Times,serif" font-size="14.00">tt : FloatArray</text>
<text text-anchor="start" x="7.5376" y="-931.8" font-family="Times,serif" font-size="14.00">ui_configurable_parameters : list</text>
<text text-anchor="start" x="7.5376" y="-917.8" font-family="Times,serif" font-size="14.00">variables_of_interest : Enumerate</text>
<text text-anchor="start" x="7.5376" y="-903.8" font-family="Times,serif" font-size="14.00">x0 : FloatArray</text>
<polyline fill="none" stroke="black" points="-0.462402,-897 204.462,-897 "/>
<text text-anchor="start" x="7.5376" y="-881.8" font-family="Times,serif" font-size="14.00">dfun()</text>
</g>
<!-- 7 -->
<g id="node8" class="node"><title>7</title>
<polygon fill="none" stroke="black" points="1116.86,-1371 1116.86,-1577 1317.14,-1577 1317.14,-1371 1116.86,-1371"/>
<text text-anchor="middle" x="1217" y="-1561.8" font-family="Times,serif" font-size="14.00">Model</text>
<polyline fill="none" stroke="black" points="1116.86,-1555 1317.14,-1555 "/>
<text text-anchor="start" x="1124.86" y="-1539.8" font-family="Times,serif" font-size="14.00">cvar : NoneType</text>
<text text-anchor="start" x="1124.86" y="-1525.8" font-family="Times,serif" font-size="14.00">number_of_modes : int</text>
<text text-anchor="start" x="1124.86" y="-1511.8" font-family="Times,serif" font-size="14.00">nvar</text>
<text text-anchor="start" x="1124.86" y="-1497.8" font-family="Times,serif" font-size="14.00">observe</text>
<text text-anchor="start" x="1124.86" y="-1483.8" font-family="Times,serif" font-size="14.00">state_variables : list</text>
<text text-anchor="start" x="1124.86" y="-1469.8" font-family="Times,serif" font-size="14.00">ui_configurable_parameters : list</text>
<text text-anchor="start" x="1124.86" y="-1455.8" font-family="Times,serif" font-size="14.00">variables_of_interest : list</text>
<polyline fill="none" stroke="black" points="1116.86,-1449 1317.14,-1449 "/>
<text text-anchor="start" x="1124.86" y="-1433.8" font-family="Times,serif" font-size="14.00">configure()</text>
<text text-anchor="start" x="1124.86" y="-1419.8" font-family="Times,serif" font-size="14.00">dfun()</text>
<text text-anchor="start" x="1124.86" y="-1405.8" font-family="Times,serif" font-size="14.00">initial()</text>
<text text-anchor="start" x="1124.86" y="-1391.8" font-family="Times,serif" font-size="14.00">stationary_trajectory()</text>
<text text-anchor="start" x="1124.86" y="-1377.8" font-family="Times,serif" font-size="14.00">update_derived_parameters()</text>
</g>
<!-- 0&#45;&gt;7 -->
<g id="edge1" class="edge"><title>0&#45;&gt;7</title>
<path fill="none" stroke="black" d="M136.908,-1221.33C153.512,-1264.03 177.975,-1305.63 214,-1334 350.689,-1441.63 875.6,-1465.92 1106.7,-1471.4"/>
<polygon fill="none" stroke="black" points="1106.73,-1474.9 1116.8,-1471.64 1106.89,-1467.91 1106.73,-1474.9"/>
</g>
<!-- 1 -->
<g id="node2" class="node"><title>1</title>
<polygon fill="none" stroke="black" points="222.538,-903 222.538,-1193 427.462,-1193 427.462,-903 222.538,-903"/>
<text text-anchor="middle" x="325" y="-1177.8" font-family="Times,serif" font-size="14.00">Generic2dOscillator</text>
<polyline fill="none" stroke="black" points="222.538,-1171 427.462,-1171 "/>
<text text-anchor="start" x="230.538" y="-1155.8" font-family="Times,serif" font-size="14.00">I : FloatArray</text>
<text text-anchor="start" x="230.538" y="-1141.8" font-family="Times,serif" font-size="14.00">a : FloatArray</text>
<text text-anchor="start" x="230.538" y="-1127.8" font-family="Times,serif" font-size="14.00">alpha : FloatArray</text>
<text text-anchor="start" x="230.538" y="-1113.8" font-family="Times,serif" font-size="14.00">b : FloatArray</text>
<text text-anchor="start" x="230.538" y="-1099.8" font-family="Times,serif" font-size="14.00">beta : FloatArray</text>
<text text-anchor="start" x="230.538" y="-1085.8" font-family="Times,serif" font-size="14.00">c : FloatArray</text>
<text text-anchor="start" x="230.538" y="-1071.8" font-family="Times,serif" font-size="14.00">cvar</text>
<text text-anchor="start" x="230.538" y="-1057.8" font-family="Times,serif" font-size="14.00">d : FloatArray</text>
<text text-anchor="start" x="230.538" y="-1043.8" font-family="Times,serif" font-size="14.00">e : FloatArray</text>
<text text-anchor="start" x="230.538" y="-1029.8" font-family="Times,serif" font-size="14.00">f : FloatArray</text>
<text text-anchor="start" x="230.538" y="-1015.8" font-family="Times,serif" font-size="14.00">g : FloatArray</text>
<text text-anchor="start" x="230.538" y="-1001.8" font-family="Times,serif" font-size="14.00">gamma : FloatArray</text>
<text text-anchor="start" x="230.538" y="-987.8" font-family="Times,serif" font-size="14.00">state_variable_range : Dict</text>
<text text-anchor="start" x="230.538" y="-973.8" font-family="Times,serif" font-size="14.00">state_variables : list</text>
<text text-anchor="start" x="230.538" y="-959.8" font-family="Times,serif" font-size="14.00">tau : FloatArray</text>
<text text-anchor="start" x="230.538" y="-945.8" font-family="Times,serif" font-size="14.00">ui_configurable_parameters : list</text>
<text text-anchor="start" x="230.538" y="-931.8" font-family="Times,serif" font-size="14.00">variables_of_interest : Enumerate</text>
<polyline fill="none" stroke="black" points="222.538,-925 427.462,-925 "/>
<text text-anchor="start" x="230.538" y="-909.8" font-family="Times,serif" font-size="14.00">dfun()</text>
</g>
<!-- 1&#45;&gt;7 -->
<g id="edge2" class="edge"><title>1&#45;&gt;7</title>
<path fill="none" stroke="black" d="M351.096,-1193.31C367.472,-1244.84 394.025,-1298.79 437,-1334 537.809,-1416.59 916.715,-1453.07 1106.81,-1466.45"/>
<polygon fill="none" stroke="black" points="1106.61,-1469.95 1116.83,-1467.15 1107.09,-1462.96 1106.61,-1469.95"/>
</g>
<!-- 2 -->
<g id="node3" class="node"><title>2</title>
<polygon fill="none" stroke="black" points="445.538,-938 445.538,-1158 650.462,-1158 650.462,-938 445.538,-938"/>
<text text-anchor="middle" x="548" y="-1142.8" font-family="Times,serif" font-size="14.00">Hopfield</text>
<polyline fill="none" stroke="black" points="445.538,-1136 650.462,-1136 "/>
<text text-anchor="start" x="453.538" y="-1120.8" font-family="Times,serif" font-size="14.00">cvar</text>
<text text-anchor="start" x="453.538" y="-1106.8" font-family="Times,serif" font-size="14.00">cvar</text>
<text text-anchor="start" x="453.538" y="-1092.8" font-family="Times,serif" font-size="14.00">dfun</text>
<text text-anchor="start" x="453.538" y="-1078.8" font-family="Times,serif" font-size="14.00">dynamic : IntegerArray</text>
<text text-anchor="start" x="453.538" y="-1064.8" font-family="Times,serif" font-size="14.00">state_variable_range : Dict</text>
<text text-anchor="start" x="453.538" y="-1050.8" font-family="Times,serif" font-size="14.00">state_variables : list</text>
<text text-anchor="start" x="453.538" y="-1036.8" font-family="Times,serif" font-size="14.00">tauT : FloatArray</text>
<text text-anchor="start" x="453.538" y="-1022.8" font-family="Times,serif" font-size="14.00">taux : FloatArray</text>
<text text-anchor="start" x="453.538" y="-1008.8" font-family="Times,serif" font-size="14.00">ui_configurable_parameters : list</text>
<text text-anchor="start" x="453.538" y="-994.8" font-family="Times,serif" font-size="14.00">variables_of_interest : Enumerate</text>
<polyline fill="none" stroke="black" points="445.538,-988 650.462,-988 "/>
<text text-anchor="start" x="453.538" y="-972.8" font-family="Times,serif" font-size="14.00">configure()</text>
<text text-anchor="start" x="453.538" y="-958.8" font-family="Times,serif" font-size="14.00">dfun()</text>
<text text-anchor="start" x="453.538" y="-944.8" font-family="Times,serif" font-size="14.00">dfunDyn()</text>
</g>
<!-- 2&#45;&gt;7 -->
<g id="edge3" class="edge"><title>2&#45;&gt;7</title>
<path fill="none" stroke="black" d="M565.735,-1158.18C580.971,-1218.13 608.961,-1289.19 660,-1334 725.83,-1391.79 963.872,-1435.75 1106.59,-1457.63"/>
<polygon fill="none" stroke="black" points="1106.29,-1461.13 1116.7,-1459.17 1107.34,-1454.2 1106.29,-1461.13"/>
</g>
<!-- 3 -->
<g id="node4" class="node"><title>3</title>
<polygon fill="none" stroke="black" points="668.538,-882 668.538,-1214 873.462,-1214 873.462,-882 668.538,-882"/>
<text text-anchor="middle" x="771" y="-1198.8" font-family="Times,serif" font-size="14.00">JansenRit</text>
<polyline fill="none" stroke="black" points="668.538,-1192 873.462,-1192 "/>
<text text-anchor="start" x="676.538" y="-1176.8" font-family="Times,serif" font-size="14.00">A : FloatArray</text>
<text text-anchor="start" x="676.538" y="-1162.8" font-family="Times,serif" font-size="14.00">B : FloatArray</text>
<text text-anchor="start" x="676.538" y="-1148.8" font-family="Times,serif" font-size="14.00">J : FloatArray</text>
<text text-anchor="start" x="676.538" y="-1134.8" font-family="Times,serif" font-size="14.00">a : FloatArray</text>
<text text-anchor="start" x="676.538" y="-1120.8" font-family="Times,serif" font-size="14.00">a_1 : FloatArray</text>
<text text-anchor="start" x="676.538" y="-1106.8" font-family="Times,serif" font-size="14.00">a_2 : FloatArray</text>
<text text-anchor="start" x="676.538" y="-1092.8" font-family="Times,serif" font-size="14.00">a_3 : FloatArray</text>
<text text-anchor="start" x="676.538" y="-1078.8" font-family="Times,serif" font-size="14.00">a_4 : FloatArray</text>
<text text-anchor="start" x="676.538" y="-1064.8" font-family="Times,serif" font-size="14.00">b : FloatArray</text>
<text text-anchor="start" x="676.538" y="-1050.8" font-family="Times,serif" font-size="14.00">cvar</text>
<text text-anchor="start" x="676.538" y="-1036.8" font-family="Times,serif" font-size="14.00">mu : FloatArray</text>
<text text-anchor="start" x="676.538" y="-1022.8" font-family="Times,serif" font-size="14.00">nu_max : FloatArray</text>
<text text-anchor="start" x="676.538" y="-1008.8" font-family="Times,serif" font-size="14.00">p_max : FloatArray</text>
<text text-anchor="start" x="676.538" y="-994.8" font-family="Times,serif" font-size="14.00">p_min : FloatArray</text>
<text text-anchor="start" x="676.538" y="-980.8" font-family="Times,serif" font-size="14.00">r : FloatArray</text>
<text text-anchor="start" x="676.538" y="-966.8" font-family="Times,serif" font-size="14.00">state_variable_range : Dict</text>
<text text-anchor="start" x="676.538" y="-952.8" font-family="Times,serif" font-size="14.00">state_variables</text>
<text text-anchor="start" x="676.538" y="-938.8" font-family="Times,serif" font-size="14.00">ui_configurable_parameters : list</text>
<text text-anchor="start" x="676.538" y="-924.8" font-family="Times,serif" font-size="14.00">v0 : FloatArray</text>
<text text-anchor="start" x="676.538" y="-910.8" font-family="Times,serif" font-size="14.00">variables_of_interest : Enumerate</text>
<polyline fill="none" stroke="black" points="668.538,-904 873.462,-904 "/>
<text text-anchor="start" x="676.538" y="-888.8" font-family="Times,serif" font-size="14.00">dfun()</text>
</g>
<!-- 3&#45;&gt;7 -->
<g id="edge4" class="edge"><title>3&#45;&gt;7</title>
<path fill="none" stroke="black" d="M810.512,-1214.07C827.183,-1257.23 850.53,-1300.88 883,-1334 943.258,-1395.47 1034.73,-1430.96 1106.72,-1450.67"/>
<polygon fill="none" stroke="black" points="1106.17,-1454.15 1116.74,-1453.35 1107.98,-1447.39 1106.17,-1454.15"/>
</g>
<!-- 4 -->
<g id="node5" class="node"><title>4</title>
<polygon fill="none" stroke="black" points="891.538,-973 891.538,-1123 1096.46,-1123 1096.46,-973 891.538,-973"/>
<text text-anchor="middle" x="994" y="-1107.8" font-family="Times,serif" font-size="14.00">Kuramoto</text>
<polyline fill="none" stroke="black" points="891.538,-1101 1096.46,-1101 "/>
<text text-anchor="start" x="899.538" y="-1085.8" font-family="Times,serif" font-size="14.00">cvar</text>
<text text-anchor="start" x="899.538" y="-1071.8" font-family="Times,serif" font-size="14.00">derivative</text>
<text text-anchor="start" x="899.538" y="-1057.8" font-family="Times,serif" font-size="14.00">omega : FloatArray</text>
<text text-anchor="start" x="899.538" y="-1043.8" font-family="Times,serif" font-size="14.00">state_variable_range : Dict</text>
<text text-anchor="start" x="899.538" y="-1029.8" font-family="Times,serif" font-size="14.00">state_variables : list</text>
<text text-anchor="start" x="899.538" y="-1015.8" font-family="Times,serif" font-size="14.00">ui_configurable_parameters : list</text>
<text text-anchor="start" x="899.538" y="-1001.8" font-family="Times,serif" font-size="14.00">variables_of_interest : Enumerate</text>
<polyline fill="none" stroke="black" points="891.538,-995 1096.46,-995 "/>
<text text-anchor="start" x="899.538" y="-979.8" font-family="Times,serif" font-size="14.00">dfun()</text>
</g>
<!-- 4&#45;&gt;7 -->
<g id="edge5" class="edge"><title>4&#45;&gt;7</title>
<path fill="none" stroke="black" d="M1016.35,-1123.21C1035.76,-1182.41 1066.89,-1266.34 1106,-1334 1111.5,-1343.51 1117.61,-1353.07 1124.07,-1362.46"/>
<polygon fill="none" stroke="black" points="1121.21,-1364.49 1129.82,-1370.68 1126.95,-1360.48 1121.21,-1364.49"/>
</g>
<!-- 5 -->
<g id="node6" class="node"><title>5</title>
<polygon fill="none" stroke="black" points="1114.54,-763 1114.54,-1333 1319.46,-1333 1319.46,-763 1114.54,-763"/>
<text text-anchor="middle" x="1217" y="-1317.8" font-family="Times,serif" font-size="14.00">LarterBreakspear</text>
<polyline fill="none" stroke="black" points="1114.54,-1311 1319.46,-1311 "/>
<text text-anchor="start" x="1122.54" y="-1295.8" font-family="Times,serif" font-size="14.00">C : FloatArray</text>
<text text-anchor="start" x="1122.54" y="-1281.8" font-family="Times,serif" font-size="14.00">Iext : FloatArray</text>
<text text-anchor="start" x="1122.54" y="-1267.8" font-family="Times,serif" font-size="14.00">QV_max : FloatArray</text>
<text text-anchor="start" x="1122.54" y="-1253.8" font-family="Times,serif" font-size="14.00">QZ_max : FloatArray</text>
<text text-anchor="start" x="1122.54" y="-1239.8" font-family="Times,serif" font-size="14.00">TCa : FloatArray</text>
<text text-anchor="start" x="1122.54" y="-1225.8" font-family="Times,serif" font-size="14.00">TK : FloatArray</text>
<text text-anchor="start" x="1122.54" y="-1211.8" font-family="Times,serif" font-size="14.00">TNa : FloatArray</text>
<text text-anchor="start" x="1122.54" y="-1197.8" font-family="Times,serif" font-size="14.00">VCa : FloatArray</text>
<text text-anchor="start" x="1122.54" y="-1183.8" font-family="Times,serif" font-size="14.00">VK : FloatArray</text>
<text text-anchor="start" x="1122.54" y="-1169.8" font-family="Times,serif" font-size="14.00">VL : FloatArray</text>
<text text-anchor="start" x="1122.54" y="-1155.8" font-family="Times,serif" font-size="14.00">VNa : FloatArray</text>
<text text-anchor="start" x="1122.54" y="-1141.8" font-family="Times,serif" font-size="14.00">VT : FloatArray</text>
<text text-anchor="start" x="1122.54" y="-1127.8" font-family="Times,serif" font-size="14.00">ZT : FloatArray</text>
<text text-anchor="start" x="1122.54" y="-1113.8" font-family="Times,serif" font-size="14.00">aee : FloatArray</text>
<text text-anchor="start" x="1122.54" y="-1099.8" font-family="Times,serif" font-size="14.00">aei : FloatArray</text>
<text text-anchor="start" x="1122.54" y="-1085.8" font-family="Times,serif" font-size="14.00">aie : FloatArray</text>
<text text-anchor="start" x="1122.54" y="-1071.8" font-family="Times,serif" font-size="14.00">ane : FloatArray</text>
<text text-anchor="start" x="1122.54" y="-1057.8" font-family="Times,serif" font-size="14.00">ani : FloatArray</text>
<text text-anchor="start" x="1122.54" y="-1043.8" font-family="Times,serif" font-size="14.00">b : FloatArray</text>
<text text-anchor="start" x="1122.54" y="-1029.8" font-family="Times,serif" font-size="14.00">cvar</text>
<text text-anchor="start" x="1122.54" y="-1015.8" font-family="Times,serif" font-size="14.00">d_Ca : FloatArray</text>
<text text-anchor="start" x="1122.54" y="-1001.8" font-family="Times,serif" font-size="14.00">d_K : FloatArray</text>
<text text-anchor="start" x="1122.54" y="-987.8" font-family="Times,serif" font-size="14.00">d_Na : FloatArray</text>
<text text-anchor="start" x="1122.54" y="-973.8" font-family="Times,serif" font-size="14.00">d_V : FloatArray</text>
<text text-anchor="start" x="1122.54" y="-959.8" font-family="Times,serif" font-size="14.00">d_Z : FloatArray</text>
<text text-anchor="start" x="1122.54" y="-945.8" font-family="Times,serif" font-size="14.00">gCa : FloatArray</text>
<text text-anchor="start" x="1122.54" y="-931.8" font-family="Times,serif" font-size="14.00">gK : FloatArray</text>
<text text-anchor="start" x="1122.54" y="-917.8" font-family="Times,serif" font-size="14.00">gL : FloatArray</text>
<text text-anchor="start" x="1122.54" y="-903.8" font-family="Times,serif" font-size="14.00">gNa : FloatArray</text>
<text text-anchor="start" x="1122.54" y="-889.8" font-family="Times,serif" font-size="14.00">phi : FloatArray</text>
<text text-anchor="start" x="1122.54" y="-875.8" font-family="Times,serif" font-size="14.00">rNMDA : FloatArray</text>
<text text-anchor="start" x="1122.54" y="-861.8" font-family="Times,serif" font-size="14.00">state_variable_range : Dict</text>
<text text-anchor="start" x="1122.54" y="-847.8" font-family="Times,serif" font-size="14.00">state_variables</text>
<text text-anchor="start" x="1122.54" y="-833.8" font-family="Times,serif" font-size="14.00">t_scale : FloatArray</text>
<text text-anchor="start" x="1122.54" y="-819.8" font-family="Times,serif" font-size="14.00">tau_K : FloatArray</text>
<text text-anchor="start" x="1122.54" y="-805.8" font-family="Times,serif" font-size="14.00">ui_configurable_parameters : list</text>
<text text-anchor="start" x="1122.54" y="-791.8" font-family="Times,serif" font-size="14.00">variables_of_interest : Enumerate</text>
<polyline fill="none" stroke="black" points="1114.54,-785 1319.46,-785 "/>
<text text-anchor="start" x="1122.54" y="-769.8" font-family="Times,serif" font-size="14.00">dfun()</text>
</g>
<!-- 5&#45;&gt;7 -->
<g id="edge6" class="edge"><title>5&#45;&gt;7</title>
<path fill="none" stroke="black" d="M1217,-1333.29C1217,-1342.59 1217,-1351.69 1217,-1360.49"/>
<polygon fill="none" stroke="black" points="1213.5,-1360.68 1217,-1370.68 1220.5,-1360.68 1213.5,-1360.68"/>
</g>
<!-- 6 -->
<g id="node7" class="node"><title>6</title>
<polygon fill="none" stroke="black" points="1337.54,-980 1337.54,-1116 1542.46,-1116 1542.46,-980 1337.54,-980"/>
<text text-anchor="middle" x="1440" y="-1100.8" font-family="Times,serif" font-size="14.00">Linear</text>
<polyline fill="none" stroke="black" points="1337.54,-1094 1542.46,-1094 "/>
<text text-anchor="start" x="1345.54" y="-1078.8" font-family="Times,serif" font-size="14.00">cvar</text>
<text text-anchor="start" x="1345.54" y="-1064.8" font-family="Times,serif" font-size="14.00">gamma : FloatArray</text>
<text text-anchor="start" x="1345.54" y="-1050.8" font-family="Times,serif" font-size="14.00">state_variable_range : Dict</text>
<text text-anchor="start" x="1345.54" y="-1036.8" font-family="Times,serif" font-size="14.00">state_variables : list</text>
<text text-anchor="start" x="1345.54" y="-1022.8" font-family="Times,serif" font-size="14.00">ui_configurable_parameters : list</text>
<text text-anchor="start" x="1345.54" y="-1008.8" font-family="Times,serif" font-size="14.00">variables_of_interest : Enumerate</text>
<polyline fill="none" stroke="black" points="1337.54,-1002 1542.46,-1002 "/>
<text text-anchor="start" x="1345.54" y="-986.8" font-family="Times,serif" font-size="14.00">dfun()</text>
</g>
<!-- 6&#45;&gt;7 -->
<g id="edge7" class="edge"><title>6&#45;&gt;7</title>
<path fill="none" stroke="black" d="M1419.97,-1116.08C1400.76,-1175.53 1368.71,-1263.58 1328,-1334 1322.5,-1343.51 1316.39,-1353.07 1309.93,-1362.46"/>
<polygon fill="none" stroke="black" points="1307.05,-1360.48 1304.18,-1370.68 1312.79,-1364.49 1307.05,-1360.48"/>
</g>
<!-- 8 -->
<g id="node9" class="node"><title>8</title>
<polygon fill="none" stroke="black" points="1560.68,-1001 1560.68,-1095 1707.32,-1095 1707.32,-1001 1560.68,-1001"/>
<text text-anchor="middle" x="1634" y="-1079.8" font-family="Times,serif" font-size="14.00">ReducedSetBase</text>
<polyline fill="none" stroke="black" points="1560.68,-1073 1707.32,-1073 "/>
<text text-anchor="start" x="1568.68" y="-1057.8" font-family="Times,serif" font-size="14.00">nu : int</text>
<text text-anchor="start" x="1568.68" y="-1043.8" font-family="Times,serif" font-size="14.00">number_of_modes : int</text>
<text text-anchor="start" x="1568.68" y="-1029.8" font-family="Times,serif" font-size="14.00">nv : int</text>
<polyline fill="none" stroke="black" points="1560.68,-1023 1707.32,-1023 "/>
<text text-anchor="start" x="1568.68" y="-1007.8" font-family="Times,serif" font-size="14.00">configure()</text>
</g>
<!-- 8&#45;&gt;7 -->
<g id="edge8" class="edge"><title>8&#45;&gt;7</title>
<path fill="none" stroke="black" d="M1632.49,-1095.04C1628.08,-1156.74 1611.57,-1266.31 1551,-1334 1493.08,-1398.73 1400.27,-1434.09 1327.17,-1452.92"/>
<polygon fill="none" stroke="black" points="1326.3,-1449.53 1317.45,-1455.36 1328,-1456.32 1326.3,-1449.53"/>
</g>
<!-- 9 -->
<g id="node10" class="node"><title>9</title>
<polygon fill="none" stroke="black" points="1420.54,-113 1420.54,-613 1625.46,-613 1625.46,-113 1420.54,-113"/>
<text text-anchor="middle" x="1523" y="-597.8" font-family="Times,serif" font-size="14.00">ReducedSetFitzHughNagumo</text>
<polyline fill="none" stroke="black" points="1420.54,-591 1625.46,-591 "/>
<text text-anchor="start" x="1428.54" y="-575.8" font-family="Times,serif" font-size="14.00">Aik</text>
<text text-anchor="start" x="1428.54" y="-561.8" font-family="Times,serif" font-size="14.00">Aik : NoneType</text>
<text text-anchor="start" x="1428.54" y="-547.8" font-family="Times,serif" font-size="14.00">Bik</text>
<text text-anchor="start" x="1428.54" y="-533.8" font-family="Times,serif" font-size="14.00">Bik : NoneType</text>
<text text-anchor="start" x="1428.54" y="-519.8" font-family="Times,serif" font-size="14.00">Cik</text>
<text text-anchor="start" x="1428.54" y="-505.8" font-family="Times,serif" font-size="14.00">Cik : NoneType</text>
<text text-anchor="start" x="1428.54" y="-491.8" font-family="Times,serif" font-size="14.00">IE_i</text>
<text text-anchor="start" x="1428.54" y="-477.8" font-family="Times,serif" font-size="14.00">IE_i : NoneType</text>
<text text-anchor="start" x="1428.54" y="-463.8" font-family="Times,serif" font-size="14.00">II_i</text>
<text text-anchor="start" x="1428.54" y="-449.8" font-family="Times,serif" font-size="14.00">II_i : NoneType</text>
<text text-anchor="start" x="1428.54" y="-435.8" font-family="Times,serif" font-size="14.00">K11 : FloatArray</text>
<text text-anchor="start" x="1428.54" y="-421.8" font-family="Times,serif" font-size="14.00">K12 : FloatArray</text>
<text text-anchor="start" x="1428.54" y="-407.8" font-family="Times,serif" font-size="14.00">K21 : FloatArray</text>
<text text-anchor="start" x="1428.54" y="-393.8" font-family="Times,serif" font-size="14.00">a : FloatArray</text>
<text text-anchor="start" x="1428.54" y="-379.8" font-family="Times,serif" font-size="14.00">b : FloatArray</text>
<text text-anchor="start" x="1428.54" y="-365.8" font-family="Times,serif" font-size="14.00">cvar</text>
<text text-anchor="start" x="1428.54" y="-351.8" font-family="Times,serif" font-size="14.00">e_i</text>
<text text-anchor="start" x="1428.54" y="-337.8" font-family="Times,serif" font-size="14.00">e_i : NoneType</text>
<text text-anchor="start" x="1428.54" y="-323.8" font-family="Times,serif" font-size="14.00">f_i</text>
<text text-anchor="start" x="1428.54" y="-309.8" font-family="Times,serif" font-size="14.00">f_i : NoneType</text>
<text text-anchor="start" x="1428.54" y="-295.8" font-family="Times,serif" font-size="14.00">m_i</text>
<text text-anchor="start" x="1428.54" y="-281.8" font-family="Times,serif" font-size="14.00">m_i : NoneType</text>
<text text-anchor="start" x="1428.54" y="-267.8" font-family="Times,serif" font-size="14.00">mu : FloatArray</text>
<text text-anchor="start" x="1428.54" y="-253.8" font-family="Times,serif" font-size="14.00">n_i</text>
<text text-anchor="start" x="1428.54" y="-239.8" font-family="Times,serif" font-size="14.00">n_i : NoneType</text>
<text text-anchor="start" x="1428.54" y="-225.8" font-family="Times,serif" font-size="14.00">sigma : FloatArray</text>
<text text-anchor="start" x="1428.54" y="-211.8" font-family="Times,serif" font-size="14.00">state_variable_range : Dict</text>
<text text-anchor="start" x="1428.54" y="-197.8" font-family="Times,serif" font-size="14.00">state_variables</text>
<text text-anchor="start" x="1428.54" y="-183.8" font-family="Times,serif" font-size="14.00">tau : FloatArray</text>
<text text-anchor="start" x="1428.54" y="-169.8" font-family="Times,serif" font-size="14.00">ui_configurable_parameters : list</text>
<text text-anchor="start" x="1428.54" y="-155.8" font-family="Times,serif" font-size="14.00">variables_of_interest : Enumerate</text>
<polyline fill="none" stroke="black" points="1420.54,-149 1625.46,-149 "/>
<text text-anchor="start" x="1428.54" y="-133.8" font-family="Times,serif" font-size="14.00">dfun()</text>
<text text-anchor="start" x="1428.54" y="-119.8" font-family="Times,serif" font-size="14.00">update_derived_parameters()</text>
</g>
<!-- 9&#45;&gt;8 -->
<g id="edge9" class="edge"><title>9&#45;&gt;8</title>
<path fill="none" stroke="black" d="M1563.54,-613.478C1585.81,-750.475 1611.54,-908.823 1624.9,-990.995"/>
<polygon fill="none" stroke="black" points="1621.44,-991.563 1626.5,-1000.87 1628.35,-990.44 1621.44,-991.563"/>
</g>
<!-- 10 -->
<g id="node11" class="node"><title>10</title>
<polygon fill="none" stroke="black" points="1643.54,-1 1643.54,-725 1848.46,-725 1848.46,-1 1643.54,-1"/>
<text text-anchor="middle" x="1746" y="-709.8" font-family="Times,serif" font-size="14.00">ReducedSetHindmarshRose</text>
<polyline fill="none" stroke="black" points="1643.54,-703 1848.46,-703 "/>
<text text-anchor="start" x="1651.54" y="-687.8" font-family="Times,serif" font-size="14.00">A_ik</text>
<text text-anchor="start" x="1651.54" y="-673.8" font-family="Times,serif" font-size="14.00">A_ik : NoneType</text>
<text text-anchor="start" x="1651.54" y="-659.8" font-family="Times,serif" font-size="14.00">B_ik</text>
<text text-anchor="start" x="1651.54" y="-645.8" font-family="Times,serif" font-size="14.00">B_ik : NoneType</text>
<text text-anchor="start" x="1651.54" y="-631.8" font-family="Times,serif" font-size="14.00">C_ik</text>
<text text-anchor="start" x="1651.54" y="-617.8" font-family="Times,serif" font-size="14.00">C_ik : NoneType</text>
<text text-anchor="start" x="1651.54" y="-603.8" font-family="Times,serif" font-size="14.00">IE_i</text>
<text text-anchor="start" x="1651.54" y="-589.8" font-family="Times,serif" font-size="14.00">IE_i : NoneType</text>
<text text-anchor="start" x="1651.54" y="-575.8" font-family="Times,serif" font-size="14.00">II_i</text>
<text text-anchor="start" x="1651.54" y="-561.8" font-family="Times,serif" font-size="14.00">II_i : NoneType</text>
<text text-anchor="start" x="1651.54" y="-547.8" font-family="Times,serif" font-size="14.00">K11 : FloatArray</text>
<text text-anchor="start" x="1651.54" y="-533.8" font-family="Times,serif" font-size="14.00">K12 : FloatArray</text>
<text text-anchor="start" x="1651.54" y="-519.8" font-family="Times,serif" font-size="14.00">K21 : FloatArray</text>
<text text-anchor="start" x="1651.54" y="-505.8" font-family="Times,serif" font-size="14.00">a : FloatArray</text>
<text text-anchor="start" x="1651.54" y="-491.8" font-family="Times,serif" font-size="14.00">a_i</text>
<text text-anchor="start" x="1651.54" y="-477.8" font-family="Times,serif" font-size="14.00">a_i : NoneType</text>
<text text-anchor="start" x="1651.54" y="-463.8" font-family="Times,serif" font-size="14.00">b : FloatArray</text>
<text text-anchor="start" x="1651.54" y="-449.8" font-family="Times,serif" font-size="14.00">b_i</text>
<text text-anchor="start" x="1651.54" y="-435.8" font-family="Times,serif" font-size="14.00">b_i : NoneType</text>
<text text-anchor="start" x="1651.54" y="-421.8" font-family="Times,serif" font-size="14.00">c : FloatArray</text>
<text text-anchor="start" x="1651.54" y="-407.8" font-family="Times,serif" font-size="14.00">c_i</text>
<text text-anchor="start" x="1651.54" y="-393.8" font-family="Times,serif" font-size="14.00">c_i : NoneType</text>
<text text-anchor="start" x="1651.54" y="-379.8" font-family="Times,serif" font-size="14.00">cvar</text>
<text text-anchor="start" x="1651.54" y="-365.8" font-family="Times,serif" font-size="14.00">d : FloatArray</text>
<text text-anchor="start" x="1651.54" y="-351.8" font-family="Times,serif" font-size="14.00">d_i</text>
<text text-anchor="start" x="1651.54" y="-337.8" font-family="Times,serif" font-size="14.00">d_i : NoneType</text>
<text text-anchor="start" x="1651.54" y="-323.8" font-family="Times,serif" font-size="14.00">e_i</text>
<text text-anchor="start" x="1651.54" y="-309.8" font-family="Times,serif" font-size="14.00">e_i : NoneType</text>
<text text-anchor="start" x="1651.54" y="-295.8" font-family="Times,serif" font-size="14.00">f_i</text>
<text text-anchor="start" x="1651.54" y="-281.8" font-family="Times,serif" font-size="14.00">f_i : NoneType</text>
<text text-anchor="start" x="1651.54" y="-267.8" font-family="Times,serif" font-size="14.00">h_i</text>
<text text-anchor="start" x="1651.54" y="-253.8" font-family="Times,serif" font-size="14.00">h_i : NoneType</text>
<text text-anchor="start" x="1651.54" y="-239.8" font-family="Times,serif" font-size="14.00">m_i</text>
<text text-anchor="start" x="1651.54" y="-225.8" font-family="Times,serif" font-size="14.00">m_i : NoneType</text>
<text text-anchor="start" x="1651.54" y="-211.8" font-family="Times,serif" font-size="14.00">mu : FloatArray</text>
<text text-anchor="start" x="1651.54" y="-197.8" font-family="Times,serif" font-size="14.00">n_i</text>
<text text-anchor="start" x="1651.54" y="-183.8" font-family="Times,serif" font-size="14.00">n_i : NoneType</text>
<text text-anchor="start" x="1651.54" y="-169.8" font-family="Times,serif" font-size="14.00">p_i</text>
<text text-anchor="start" x="1651.54" y="-155.8" font-family="Times,serif" font-size="14.00">p_i : NoneType</text>
<text text-anchor="start" x="1651.54" y="-141.8" font-family="Times,serif" font-size="14.00">r : FloatArray</text>
<text text-anchor="start" x="1651.54" y="-127.8" font-family="Times,serif" font-size="14.00">s : FloatArray</text>
<text text-anchor="start" x="1651.54" y="-113.8" font-family="Times,serif" font-size="14.00">sigma : FloatArray</text>
<text text-anchor="start" x="1651.54" y="-99.8" font-family="Times,serif" font-size="14.00">state_variable_range : Dict</text>
<text text-anchor="start" x="1651.54" y="-85.8" font-family="Times,serif" font-size="14.00">state_variables</text>
<text text-anchor="start" x="1651.54" y="-71.8" font-family="Times,serif" font-size="14.00">ui_configurable_parameters : list</text>
<text text-anchor="start" x="1651.54" y="-57.8" font-family="Times,serif" font-size="14.00">variables_of_interest : Enumerate</text>
<text text-anchor="start" x="1651.54" y="-43.8" font-family="Times,serif" font-size="14.00">xo : FloatArray</text>
<polyline fill="none" stroke="black" points="1643.54,-37 1848.46,-37 "/>
<text text-anchor="start" x="1651.54" y="-21.8" font-family="Times,serif" font-size="14.00">dfun()</text>
<text text-anchor="start" x="1651.54" y="-7.8" font-family="Times,serif" font-size="14.00">update_derived_parameters()</text>
</g>
<!-- 10&#45;&gt;8 -->
<g id="edge10" class="edge"><title>10&#45;&gt;8</title>
<path fill="none" stroke="black" d="M1686.8,-725C1669.77,-828.864 1653.13,-930.315 1643.22,-990.755"/>
<polygon fill="none" stroke="black" points="1639.74,-990.391 1641.57,-1000.83 1646.64,-991.523 1639.74,-990.391"/>
</g>
<!-- 11 -->
<g id="node12" class="node"><title>11</title>
<polygon fill="none" stroke="black" points="1725.54,-917 1725.54,-1179 1930.46,-1179 1930.46,-917 1725.54,-917"/>
<text text-anchor="middle" x="1828" y="-1163.8" font-family="Times,serif" font-size="14.00">ReducedWongWang</text>
<polyline fill="none" stroke="black" points="1725.54,-1157 1930.46,-1157 "/>
<text text-anchor="start" x="1733.54" y="-1141.8" font-family="Times,serif" font-size="14.00">I_o : FloatArray</text>
<text text-anchor="start" x="1733.54" y="-1127.8" font-family="Times,serif" font-size="14.00">J_N : FloatArray</text>
<text text-anchor="start" x="1733.54" y="-1113.8" font-family="Times,serif" font-size="14.00">a : FloatArray</text>
<text text-anchor="start" x="1733.54" y="-1099.8" font-family="Times,serif" font-size="14.00">b : FloatArray</text>
<text text-anchor="start" x="1733.54" y="-1085.8" font-family="Times,serif" font-size="14.00">cvar</text>
<text text-anchor="start" x="1733.54" y="-1071.8" font-family="Times,serif" font-size="14.00">d : FloatArray</text>
<text text-anchor="start" x="1733.54" y="-1057.8" font-family="Times,serif" font-size="14.00">gamma : FloatArray</text>
<text text-anchor="start" x="1733.54" y="-1043.8" font-family="Times,serif" font-size="14.00">sigma_noise : FloatArray</text>
<text text-anchor="start" x="1733.54" y="-1029.8" font-family="Times,serif" font-size="14.00">state_variable_range : Dict</text>
<text text-anchor="start" x="1733.54" y="-1015.8" font-family="Times,serif" font-size="14.00">state_variables : list</text>
<text text-anchor="start" x="1733.54" y="-1001.8" font-family="Times,serif" font-size="14.00">tau_s : FloatArray</text>
<text text-anchor="start" x="1733.54" y="-987.8" font-family="Times,serif" font-size="14.00">ui_configurable_parameters : list</text>
<text text-anchor="start" x="1733.54" y="-973.8" font-family="Times,serif" font-size="14.00">variables_of_interest : Enumerate</text>
<text text-anchor="start" x="1733.54" y="-959.8" font-family="Times,serif" font-size="14.00">w : FloatArray</text>
<polyline fill="none" stroke="black" points="1725.54,-953 1930.46,-953 "/>
<text text-anchor="start" x="1733.54" y="-937.8" font-family="Times,serif" font-size="14.00">configure()</text>
<text text-anchor="start" x="1733.54" y="-923.8" font-family="Times,serif" font-size="14.00">dfun()</text>
</g>
<!-- 11&#45;&gt;7 -->
<g id="edge11" class="edge"><title>11&#45;&gt;7</title>
<path fill="none" stroke="black" d="M1803.85,-1179.13C1787.53,-1233.78 1760.51,-1293.85 1716,-1334 1608.51,-1430.97 1438.9,-1460.95 1327.79,-1469.85"/>
<polygon fill="none" stroke="black" points="1327.27,-1466.37 1317.56,-1470.62 1327.79,-1473.36 1327.27,-1466.37"/>
</g>
<!-- 12 -->
<g id="node13" class="node"><title>12</title>
<polygon fill="none" stroke="black" points="1948.54,-833 1948.54,-1263 2153.46,-1263 2153.46,-833 1948.54,-833"/>
<text text-anchor="middle" x="2051" y="-1247.8" font-family="Times,serif" font-size="14.00">WilsonCowan</text>
<polyline fill="none" stroke="black" points="1948.54,-1241 2153.46,-1241 "/>
<text text-anchor="start" x="1956.54" y="-1225.8" font-family="Times,serif" font-size="14.00">P : FloatArray</text>
<text text-anchor="start" x="1956.54" y="-1211.8" font-family="Times,serif" font-size="14.00">Q : FloatArray</text>
<text text-anchor="start" x="1956.54" y="-1197.8" font-family="Times,serif" font-size="14.00">a_e : FloatArray</text>
<text text-anchor="start" x="1956.54" y="-1183.8" font-family="Times,serif" font-size="14.00">a_i : FloatArray</text>
<text text-anchor="start" x="1956.54" y="-1169.8" font-family="Times,serif" font-size="14.00">alpha_e : FloatArray</text>
<text text-anchor="start" x="1956.54" y="-1155.8" font-family="Times,serif" font-size="14.00">alpha_i : FloatArray</text>
<text text-anchor="start" x="1956.54" y="-1141.8" font-family="Times,serif" font-size="14.00">b_e : FloatArray</text>
<text text-anchor="start" x="1956.54" y="-1127.8" font-family="Times,serif" font-size="14.00">b_i : FloatArray</text>
<text text-anchor="start" x="1956.54" y="-1113.8" font-family="Times,serif" font-size="14.00">c_e : FloatArray</text>
<text text-anchor="start" x="1956.54" y="-1099.8" font-family="Times,serif" font-size="14.00">c_ee : FloatArray</text>
<text text-anchor="start" x="1956.54" y="-1085.8" font-family="Times,serif" font-size="14.00">c_ei : FloatArray</text>
<text text-anchor="start" x="1956.54" y="-1071.8" font-family="Times,serif" font-size="14.00">c_i : FloatArray</text>
<text text-anchor="start" x="1956.54" y="-1057.8" font-family="Times,serif" font-size="14.00">c_ie : FloatArray</text>
<text text-anchor="start" x="1956.54" y="-1043.8" font-family="Times,serif" font-size="14.00">c_ii : FloatArray</text>
<text text-anchor="start" x="1956.54" y="-1029.8" font-family="Times,serif" font-size="14.00">cvar</text>
<text text-anchor="start" x="1956.54" y="-1015.8" font-family="Times,serif" font-size="14.00">k_e : FloatArray</text>
<text text-anchor="start" x="1956.54" y="-1001.8" font-family="Times,serif" font-size="14.00">k_i : FloatArray</text>
<text text-anchor="start" x="1956.54" y="-987.8" font-family="Times,serif" font-size="14.00">r_e : FloatArray</text>
<text text-anchor="start" x="1956.54" y="-973.8" font-family="Times,serif" font-size="14.00">r_i : FloatArray</text>
<text text-anchor="start" x="1956.54" y="-959.8" font-family="Times,serif" font-size="14.00">state_variable_range : Dict</text>
<text text-anchor="start" x="1956.54" y="-945.8" font-family="Times,serif" font-size="14.00">state_variables</text>
<text text-anchor="start" x="1956.54" y="-931.8" font-family="Times,serif" font-size="14.00">tau_e : FloatArray</text>
<text text-anchor="start" x="1956.54" y="-917.8" font-family="Times,serif" font-size="14.00">tau_i : FloatArray</text>
<text text-anchor="start" x="1956.54" y="-903.8" font-family="Times,serif" font-size="14.00">theta_e : FloatArray</text>
<text text-anchor="start" x="1956.54" y="-889.8" font-family="Times,serif" font-size="14.00">theta_i : FloatArray</text>
<text text-anchor="start" x="1956.54" y="-875.8" font-family="Times,serif" font-size="14.00">ui_configurable_parameters : list</text>
<text text-anchor="start" x="1956.54" y="-861.8" font-family="Times,serif" font-size="14.00">variables_of_interest : Enumerate</text>
<polyline fill="none" stroke="black" points="1948.54,-855 2153.46,-855 "/>
<text text-anchor="start" x="1956.54" y="-839.8" font-family="Times,serif" font-size="14.00">dfun()</text>
</g>
<!-- 12&#45;&gt;7 -->
<g id="edge12" class="edge"><title>12&#45;&gt;7</title>
<path fill="none" stroke="black" d="M1995.24,-1263.15C1980.63,-1289.98 1962.21,-1314.72 1939,-1334 1847.44,-1410.07 1506.08,-1449.08 1327.49,-1464.65"/>
<polygon fill="none" stroke="black" points="1326.94,-1461.18 1317.28,-1465.53 1327.54,-1468.16 1326.94,-1461.18"/>
</g>
<!-- 13 -->
<g id="node14" class="node"><title>13</title>
<polygon fill="none" stroke="black" points="2171.54,-763 2171.54,-1333 2376.46,-1333 2376.46,-763 2171.54,-763"/>
<text text-anchor="middle" x="2274" y="-1317.8" font-family="Times,serif" font-size="14.00">ZetterbergJansen</text>
<polyline fill="none" stroke="black" points="2171.54,-1311 2376.46,-1311 "/>
<text text-anchor="start" x="2179.54" y="-1295.8" font-family="Times,serif" font-size="14.00">He : FloatArray</text>
<text text-anchor="start" x="2179.54" y="-1281.8" font-family="Times,serif" font-size="14.00">Heke</text>
<text text-anchor="start" x="2179.54" y="-1267.8" font-family="Times,serif" font-size="14.00">Heke : NoneType</text>
<text text-anchor="start" x="2179.54" y="-1253.8" font-family="Times,serif" font-size="14.00">Hi : FloatArray</text>
<text text-anchor="start" x="2179.54" y="-1239.8" font-family="Times,serif" font-size="14.00">Hiki</text>
<text text-anchor="start" x="2179.54" y="-1225.8" font-family="Times,serif" font-size="14.00">Hiki : NoneType</text>
<text text-anchor="start" x="2179.54" y="-1211.8" font-family="Times,serif" font-size="14.00">P : FloatArray</text>
<text text-anchor="start" x="2179.54" y="-1197.8" font-family="Times,serif" font-size="14.00">Q : FloatArray</text>
<text text-anchor="start" x="2179.54" y="-1183.8" font-family="Times,serif" font-size="14.00">U : FloatArray</text>
<text text-anchor="start" x="2179.54" y="-1169.8" font-family="Times,serif" font-size="14.00">cvar</text>
<text text-anchor="start" x="2179.54" y="-1155.8" font-family="Times,serif" font-size="14.00">e0 : FloatArray</text>
<text text-anchor="start" x="2179.54" y="-1141.8" font-family="Times,serif" font-size="14.00">gamma_1 : FloatArray</text>
<text text-anchor="start" x="2179.54" y="-1127.8" font-family="Times,serif" font-size="14.00">gamma_1T : FloatArray</text>
<text text-anchor="start" x="2179.54" y="-1113.8" font-family="Times,serif" font-size="14.00">gamma_2 : FloatArray</text>
<text text-anchor="start" x="2179.54" y="-1099.8" font-family="Times,serif" font-size="14.00">gamma_2T : FloatArray</text>
<text text-anchor="start" x="2179.54" y="-1085.8" font-family="Times,serif" font-size="14.00">gamma_3 : FloatArray</text>
<text text-anchor="start" x="2179.54" y="-1071.8" font-family="Times,serif" font-size="14.00">gamma_3T : FloatArray</text>
<text text-anchor="start" x="2179.54" y="-1057.8" font-family="Times,serif" font-size="14.00">gamma_4 : FloatArray</text>
<text text-anchor="start" x="2179.54" y="-1043.8" font-family="Times,serif" font-size="14.00">gamma_5 : FloatArray</text>
<text text-anchor="start" x="2179.54" y="-1029.8" font-family="Times,serif" font-size="14.00">ke : FloatArray</text>
<text text-anchor="start" x="2179.54" y="-1015.8" font-family="Times,serif" font-size="14.00">ke_2</text>
<text text-anchor="start" x="2179.54" y="-1001.8" font-family="Times,serif" font-size="14.00">ke_2 : NoneType</text>
<text text-anchor="start" x="2179.54" y="-987.8" font-family="Times,serif" font-size="14.00">keke</text>
<text text-anchor="start" x="2179.54" y="-973.8" font-family="Times,serif" font-size="14.00">keke : NoneType</text>
<text text-anchor="start" x="2179.54" y="-959.8" font-family="Times,serif" font-size="14.00">ki : FloatArray</text>
<text text-anchor="start" x="2179.54" y="-945.8" font-family="Times,serif" font-size="14.00">ki_2</text>
<text text-anchor="start" x="2179.54" y="-931.8" font-family="Times,serif" font-size="14.00">ki_2 : NoneType</text>
<text text-anchor="start" x="2179.54" y="-917.8" font-family="Times,serif" font-size="14.00">kiki</text>
<text text-anchor="start" x="2179.54" y="-903.8" font-family="Times,serif" font-size="14.00">kiki : NoneType</text>
<text text-anchor="start" x="2179.54" y="-889.8" font-family="Times,serif" font-size="14.00">rho_1 : FloatArray</text>
<text text-anchor="start" x="2179.54" y="-875.8" font-family="Times,serif" font-size="14.00">rho_2 : FloatArray</text>
<text text-anchor="start" x="2179.54" y="-861.8" font-family="Times,serif" font-size="14.00">state_variable_range : Dict</text>
<text text-anchor="start" x="2179.54" y="-847.8" font-family="Times,serif" font-size="14.00">state_variables</text>
<text text-anchor="start" x="2179.54" y="-833.8" font-family="Times,serif" font-size="14.00">ui_configurable_parameters : list</text>
<text text-anchor="start" x="2179.54" y="-819.8" font-family="Times,serif" font-size="14.00">variables_of_interest : Enumerate</text>
<polyline fill="none" stroke="black" points="2171.54,-813 2376.46,-813 "/>
<text text-anchor="start" x="2179.54" y="-797.8" font-family="Times,serif" font-size="14.00">dfun()</text>
<text text-anchor="start" x="2179.54" y="-783.8" font-family="Times,serif" font-size="14.00">sigma_fun()</text>
<text text-anchor="start" x="2179.54" y="-769.8" font-family="Times,serif" font-size="14.00">update_derived_parameters()</text>
</g>
<!-- 13&#45;&gt;7 -->
<g id="edge13" class="edge"><title>13&#45;&gt;7</title>
<path fill="none" stroke="black" d="M2171.4,-1326C2168.36,-1328.77 2165.23,-1331.44 2162,-1334 2034.75,-1435.06 1548.47,-1462.85 1327.47,-1470.33"/>
<polygon fill="none" stroke="black" points="1327.35,-1466.83 1317.47,-1470.66 1327.58,-1473.83 1327.35,-1466.83"/>
</g>
</g>
</svg>
