<?xml version="1.0" encoding="UTF-8" standalone="no"?>
<!DOCTYPE svg PUBLIC "-//W3C//DTD SVG 1.1//EN"
 "http://www.w3.org/Graphics/SVG/1.1/DTD/svg11.dtd">
<!-- Generated by graphviz version 2.36.0 (20140111.2315)
 -->
<!-- Title: classes_monitors Pages: 1 -->
<svg width="1608pt" height="676pt"
 viewBox="0.00 0.00 1608.00 676.00" xmlns="http://www.w3.org/2000/svg" xmlns:xlink="http://www.w3.org/1999/xlink">
<g id="graph0" class="graph" transform="scale(1 1) rotate(0) translate(4 672)">
<title>classes_monitors</title>
<polygon fill="white" stroke="none" points="-4,4 -4,-672 1604,-672 1604,4 -4,4"/>
<!-- 0 -->
<g id="node1" class="node"><title>0</title>
<polygon fill="none" stroke="black" points="1327.02,-238 1327.02,-388 1600.98,-388 1600.98,-238 1327.02,-238"/>
<text text-anchor="middle" x="1464" y="-372.8" font-family="Times,serif" font-size="14.00">Bold</text>
<polyline fill="none" stroke="black" points="1327.02,-366 1600.98,-366 "/>
<text text-anchor="start" x="1335.02" y="-350.8" font-family="Times,serif" font-size="14.00">hemodynamic_response_function</text>
<text text-anchor="start" x="1335.02" y="-336.8" font-family="Times,serif" font-size="14.00">hemodynamic_response_function : NoneType</text>
<text text-anchor="start" x="1335.02" y="-322.8" font-family="Times,serif" font-size="14.00">hrf_kernel : HRFKernelEquation</text>
<text text-anchor="start" x="1335.02" y="-308.8" font-family="Times,serif" font-size="14.00">hrf_length : Float</text>
<text text-anchor="start" x="1335.02" y="-294.8" font-family="Times,serif" font-size="14.00">period : Float</text>
<polyline fill="none" stroke="black" points="1327.02,-288 1600.98,-288 "/>
<text text-anchor="start" x="1335.02" y="-272.8" font-family="Times,serif" font-size="14.00">compute_hrf()</text>
<text text-anchor="start" x="1335.02" y="-258.8" font-family="Times,serif" font-size="14.00">config_for_sim()</text>
<text text-anchor="start" x="1335.02" y="-244.8" font-family="Times,serif" font-size="14.00">sample()</text>
</g>
<!-- 5 -->
<g id="node6" class="node"><title>5</title>
<polygon fill="none" stroke="black" points="762.71,-461 762.71,-667 979.29,-667 979.29,-461 762.71,-461"/>
<text text-anchor="middle" x="871" y="-651.8" font-family="Times,serif" font-size="14.00">Monitor</text>
<polyline fill="none" stroke="black" points="762.71,-645 979.29,-645 "/>
<text text-anchor="start" x="770.71" y="-629.8" font-family="Times,serif" font-size="14.00">dt</text>
<text text-anchor="start" x="770.71" y="-615.8" font-family="Times,serif" font-size="14.00">dt : NoneType</text>
<text text-anchor="start" x="770.71" y="-601.8" font-family="Times,serif" font-size="14.00">istep</text>
<text text-anchor="start" x="770.71" y="-587.8" font-family="Times,serif" font-size="14.00">istep : NoneType</text>
<text text-anchor="start" x="770.71" y="-573.8" font-family="Times,serif" font-size="14.00">period : Float</text>
<text text-anchor="start" x="770.71" y="-559.8" font-family="Times,serif" font-size="14.00">variables_of_interest : IntegerArray</text>
<text text-anchor="start" x="770.71" y="-545.8" font-family="Times,serif" font-size="14.00">voi : IntegerArray</text>
<text text-anchor="start" x="770.71" y="-531.8" font-family="Times,serif" font-size="14.00">voi : NoneType</text>
<polyline fill="none" stroke="black" points="762.71,-525 979.29,-525 "/>
<text text-anchor="start" x="770.71" y="-509.8" font-family="Times,serif" font-size="14.00">config_for_sim()</text>
<text text-anchor="start" x="770.71" y="-495.8" font-family="Times,serif" font-size="14.00">create_time_series()</text>
<text text-anchor="start" x="770.71" y="-481.8" font-family="Times,serif" font-size="14.00">record()</text>
<text text-anchor="start" x="770.71" y="-467.8" font-family="Times,serif" font-size="14.00">sample()</text>
</g>
<!-- 0&#45;&gt;5 -->
<g id="edge1" class="edge"><title>0&#45;&gt;5</title>
<path fill="none" stroke="black" d="M1375.03,-388.034C1356.58,-401.209 1336.73,-413.922 1317,-424 1211.77,-477.752 1081.86,-515.343 989.449,-537.757"/>
<polygon fill="none" stroke="black" points="988.406,-534.408 979.5,-540.147 990.041,-541.215 988.406,-534.408"/>
</g>
<!-- 1 -->
<g id="node2" class="node"><title>1</title>
<polygon fill="none" stroke="black" points="1408.56,-43 1408.56,-123 1519.44,-123 1519.44,-43 1408.56,-43"/>
<text text-anchor="middle" x="1464" y="-107.8" font-family="Times,serif" font-size="14.00">BoldRegionROI</text>
<polyline fill="none" stroke="black" points="1408.56,-101 1519.44,-101 "/>
<text text-anchor="start" x="1416.56" y="-85.8" font-family="Times,serif" font-size="14.00">region_mapping</text>
<polyline fill="none" stroke="black" points="1408.56,-79 1519.44,-79 "/>
<text text-anchor="start" x="1416.56" y="-63.8" font-family="Times,serif" font-size="14.00">config_for_sim()</text>
<text text-anchor="start" x="1416.56" y="-49.8" font-family="Times,serif" font-size="14.00">sample()</text>
</g>
<!-- 1&#45;&gt;0 -->
<g id="edge2" class="edge"><title>1&#45;&gt;0</title>
<path fill="none" stroke="black" d="M1464,-123.195C1464,-151.818 1464,-191.705 1464,-227.447"/>
<polygon fill="none" stroke="black" points="1460.5,-227.895 1464,-237.895 1467.5,-227.895 1460.5,-227.895"/>
</g>
<!-- 2 -->
<g id="node3" class="node"><title>2</title>
<polygon fill="none" stroke="black" points="160.42,-1 160.42,-165 371.58,-165 371.58,-1 160.42,-1"/>
<text text-anchor="middle" x="266" y="-149.8" font-family="Times,serif" font-size="14.00">EEG</text>
<polyline fill="none" stroke="black" points="160.42,-143 371.58,-143 "/>
<text text-anchor="start" x="168.42" y="-127.8" font-family="Times,serif" font-size="14.00">projection : ProjectionSurfaceEEG</text>
<text text-anchor="start" x="168.42" y="-113.8" font-family="Times,serif" font-size="14.00">reference : String</text>
<text text-anchor="start" x="168.42" y="-99.8" font-family="Times,serif" font-size="14.00">sensors : SensorsEEG</text>
<text text-anchor="start" x="168.42" y="-85.8" font-family="Times,serif" font-size="14.00">sigma : Float</text>
<polyline fill="none" stroke="black" points="160.42,-79 371.58,-79 "/>
<text text-anchor="start" x="168.42" y="-63.8" font-family="Times,serif" font-size="14.00">analytic()</text>
<text text-anchor="start" x="168.42" y="-49.8" font-family="Times,serif" font-size="14.00">config_for_sim()</text>
<text text-anchor="start" x="168.42" y="-35.8" font-family="Times,serif" font-size="14.00">create_time_series()</text>
<text text-anchor="start" x="168.42" y="-21.8" font-family="Times,serif" font-size="14.00">from_file()</text>
<text text-anchor="start" x="168.42" y="-7.8" font-family="Times,serif" font-size="14.00">sample()</text>
</g>
<!-- 7 -->
<g id="node8" class="node"><title>7</title>
<polygon fill="none" stroke="black" points="359.623,-203 359.623,-423 634.377,-423 634.377,-203 359.623,-203"/>
<text text-anchor="middle" x="497" y="-407.8" font-family="Times,serif" font-size="14.00">Projection</text>
<polyline fill="none" stroke="black" points="359.623,-401 634.377,-401 "/>
<text text-anchor="start" x="367.623" y="-385.8" font-family="Times,serif" font-size="14.00">gain</text>
<text text-anchor="start" x="367.623" y="-371.8" font-family="Times,serif" font-size="14.00">gain : property</text>
<text text-anchor="start" x="367.623" y="-357.8" font-family="Times,serif" font-size="14.00">projection : NoneType, ProjectionMatrix</text>
<text text-anchor="start" x="367.623" y="-343.8" font-family="Times,serif" font-size="14.00">region_mapping : NoneType, RegionMapping</text>
<text text-anchor="start" x="367.623" y="-329.8" font-family="Times,serif" font-size="14.00">region_mapping : RegionMapping</text>
<text text-anchor="start" x="367.623" y="-315.8" font-family="Times,serif" font-size="14.00">rmap : RegionMapping, NoneType</text>
<text text-anchor="start" x="367.623" y="-301.8" font-family="Times,serif" font-size="14.00">rmap : property</text>
<text text-anchor="start" x="367.623" y="-287.8" font-family="Times,serif" font-size="14.00">sensors</text>
<polyline fill="none" stroke="black" points="359.623,-281 634.377,-281 "/>
<text text-anchor="start" x="367.623" y="-265.8" font-family="Times,serif" font-size="14.00">analytic()</text>
<text text-anchor="start" x="367.623" y="-251.8" font-family="Times,serif" font-size="14.00">config_for_sim()</text>
<text text-anchor="start" x="367.623" y="-237.8" font-family="Times,serif" font-size="14.00">from_file()</text>
<text text-anchor="start" x="367.623" y="-223.8" font-family="Times,serif" font-size="14.00">oriented_gain()</text>
<text text-anchor="start" x="367.623" y="-209.8" font-family="Times,serif" font-size="14.00">sample()</text>
</g>
<!-- 2&#45;&gt;7 -->
<g id="edge3" class="edge"><title>2&#45;&gt;7</title>
<path fill="none" stroke="black" d="M348.092,-165.026C358.207,-175.01 368.696,-185.363 379.211,-195.741"/>
<polygon fill="none" stroke="black" points="376.914,-198.391 386.49,-202.925 381.831,-193.409 376.914,-198.391"/>
</g>
<!-- 3 -->
<g id="node4" class="node"><title>3</title>
<polygon fill="none" stroke="black" points="-0.745117,-272 -0.745117,-354 128.745,-354 128.745,-272 -0.745117,-272"/>
<text text-anchor="middle" x="64" y="-338.8" font-family="Times,serif" font-size="14.00">GlobalAverage</text>
<polyline fill="none" stroke="black" points="-0.745117,-332 128.745,-332 "/>
<polyline fill="none" stroke="black" points="-0.745117,-308 128.745,-308 "/>
<text text-anchor="start" x="7.25488" y="-292.8" font-family="Times,serif" font-size="14.00">create_time_series()</text>
<text text-anchor="start" x="7.25488" y="-278.8" font-family="Times,serif" font-size="14.00">sample()</text>
</g>
<!-- 3&#45;&gt;5 -->
<g id="edge4" class="edge"><title>3&#45;&gt;5</title>
<path fill="none" stroke="black" d="M80.7736,-354.103C92.8912,-378.109 111.603,-407.141 137,-424 236.289,-489.91 571.286,-532.822 752.405,-551.79"/>
<polygon fill="none" stroke="black" points="752.202,-555.287 762.51,-552.84 752.926,-548.325 752.202,-555.287"/>
</g>
<!-- 4 -->
<g id="node5" class="node"><title>4</title>
<polygon fill="none" stroke="black" points="389.472,-29 389.472,-137 604.528,-137 604.528,-29 389.472,-29"/>
<text text-anchor="middle" x="497" y="-121.8" font-family="Times,serif" font-size="14.00">MEG</text>
<polyline fill="none" stroke="black" points="389.472,-115 604.528,-115 "/>
<text text-anchor="start" x="397.472" y="-99.8" font-family="Times,serif" font-size="14.00">projection : ProjectionSurfaceMEG</text>
<text text-anchor="start" x="397.472" y="-85.8" font-family="Times,serif" font-size="14.00">sensors : SensorsMEG</text>
<polyline fill="none" stroke="black" points="389.472,-79 604.528,-79 "/>
<text text-anchor="start" x="397.472" y="-63.8" font-family="Times,serif" font-size="14.00">analytic()</text>
<text text-anchor="start" x="397.472" y="-49.8" font-family="Times,serif" font-size="14.00">create_time_series()</text>
<text text-anchor="start" x="397.472" y="-35.8" font-family="Times,serif" font-size="14.00">from_file()</text>
</g>
<!-- 4&#45;&gt;7 -->
<g id="edge5" class="edge"><title>4&#45;&gt;7</title>
<path fill="none" stroke="black" d="M497,-137.168C497,-153.976 497,-173.279 497,-192.787"/>
<polygon fill="none" stroke="black" points="493.5,-192.994 497,-202.994 500.5,-192.994 493.5,-192.994"/>
</g>
<!-- 6 -->
<g id="node7" class="node"><title>6</title>
<polygon fill="none" stroke="black" points="146.289,-273 146.289,-353 341.711,-353 341.711,-273 146.289,-273"/>
<text text-anchor="middle" x="244" y="-337.8" font-family="Times,serif" font-size="14.00">ProgressLogger</text>
<polyline fill="none" stroke="black" points="146.289,-331 341.711,-331 "/>
<text text-anchor="start" x="154.289" y="-315.8" font-family="Times,serif" font-size="14.00">logger : NoneType, RootLogger</text>
<polyline fill="none" stroke="black" points="146.289,-309 341.711,-309 "/>
<text text-anchor="start" x="154.289" y="-293.8" font-family="Times,serif" font-size="14.00">config_for_sim()</text>
<text text-anchor="start" x="154.289" y="-279.8" font-family="Times,serif" font-size="14.00">record()</text>
</g>
<!-- 6&#45;&gt;5 -->
<g id="edge6" class="edge"><title>6&#45;&gt;5</title>
<path fill="none" stroke="black" d="M272.976,-353.102C292.537,-376.872 320.317,-406.013 351,-424 476.767,-497.725 642.358,-533.214 752.531,-549.69"/>
<polygon fill="none" stroke="black" points="752.283,-553.191 762.685,-551.178 753.298,-546.265 752.283,-553.191"/>
</g>
<!-- 7&#45;&gt;5 -->
<g id="edge7" class="edge"><title>7&#45;&gt;5</title>
<path fill="none" stroke="black" d="M634.434,-417.447C637.642,-419.666 640.834,-421.853 644,-424 678.993,-447.732 717.97,-472.255 753.612,-493.973"/>
<polygon fill="none" stroke="black" points="752.234,-497.231 762.598,-499.432 755.869,-491.249 752.234,-497.231"/>
</g>
<!-- 8 -->
<g id="node9" class="node"><title>8</title>
<polygon fill="none" stroke="black" points="652.71,-245 652.71,-381 869.29,-381 869.29,-245 652.71,-245"/>
<text text-anchor="middle" x="761" y="-365.8" font-family="Times,serif" font-size="14.00">Raw</text>
<polyline fill="none" stroke="black" points="652.71,-359 869.29,-359 "/>
<text text-anchor="start" x="660.71" y="-343.8" font-family="Times,serif" font-size="14.00">istep : int</text>
<text text-anchor="start" x="660.71" y="-329.8" font-family="Times,serif" font-size="14.00">period</text>
<text text-anchor="start" x="660.71" y="-315.8" font-family="Times,serif" font-size="14.00">period : Float</text>
<text text-anchor="start" x="660.71" y="-301.8" font-family="Times,serif" font-size="14.00">variables_of_interest : IntegerArray</text>
<text text-anchor="start" x="660.71" y="-287.8" font-family="Times,serif" font-size="14.00">voi</text>
<polyline fill="none" stroke="black" points="652.71,-281 869.29,-281 "/>
<text text-anchor="start" x="660.71" y="-265.8" font-family="Times,serif" font-size="14.00">config_for_sim()</text>
<text text-anchor="start" x="660.71" y="-251.8" font-family="Times,serif" font-size="14.00">sample()</text>
</g>
<!-- 8&#45;&gt;5 -->
<g id="edge8" class="edge"><title>8&#45;&gt;5</title>
<path fill="none" stroke="black" d="M790.623,-381.055C800.215,-402.768 811.126,-427.467 821.748,-451.512"/>
<polygon fill="none" stroke="black" points="818.559,-452.955 825.802,-460.688 824.962,-450.126 818.559,-452.955"/>
</g>
<!-- 9 -->
<g id="node10" class="node"><title>9</title>
<polygon fill="none" stroke="black" points="887.296,-238 887.296,-388 1076.7,-388 1076.7,-238 887.296,-238"/>
<text text-anchor="middle" x="982" y="-372.8" font-family="Times,serif" font-size="14.00">SpatialAverage</text>
<polyline fill="none" stroke="black" points="887.296,-366 1076.7,-366 "/>
<text text-anchor="start" x="895.296" y="-350.8" font-family="Times,serif" font-size="14.00">default_mask : Enumerate</text>
<text text-anchor="start" x="895.296" y="-336.8" font-family="Times,serif" font-size="14.00">is_default_special_mask : bool</text>
<text text-anchor="start" x="895.296" y="-322.8" font-family="Times,serif" font-size="14.00">spatial_mask</text>
<text text-anchor="start" x="895.296" y="-308.8" font-family="Times,serif" font-size="14.00">spatial_mask : IntegerArray</text>
<text text-anchor="start" x="895.296" y="-294.8" font-family="Times,serif" font-size="14.00">spatial_mean</text>
<polyline fill="none" stroke="black" points="887.296,-288 1076.7,-288 "/>
<text text-anchor="start" x="895.296" y="-272.8" font-family="Times,serif" font-size="14.00">config_for_sim()</text>
<text text-anchor="start" x="895.296" y="-258.8" font-family="Times,serif" font-size="14.00">create_time_series()</text>
<text text-anchor="start" x="895.296" y="-244.8" font-family="Times,serif" font-size="14.00">sample()</text>
</g>
<!-- 9&#45;&gt;5 -->
<g id="edge9" class="edge"><title>9&#45;&gt;5</title>
<path fill="none" stroke="black" d="M948.997,-388.034C940.106,-407.978 930.288,-430.003 920.703,-451.504"/>
<polygon fill="none" stroke="black" points="917.488,-450.121 916.613,-460.679 923.881,-452.971 917.488,-450.121"/>
</g>
<!-- 10 -->
<g id="node11" class="node"><title>10</title>
<polygon fill="none" stroke="black" points="1095.11,-279 1095.11,-347 1174.89,-347 1174.89,-279 1095.11,-279"/>
<text text-anchor="middle" x="1135" y="-331.8" font-family="Times,serif" font-size="14.00">SubSample</text>
<polyline fill="none" stroke="black" points="1095.11,-325 1174.89,-325 "/>
<polyline fill="none" stroke="black" points="1095.11,-301 1174.89,-301 "/>
<text text-anchor="start" x="1103.11" y="-285.8" font-family="Times,serif" font-size="14.00">sample()</text>
</g>
<!-- 10&#45;&gt;5 -->
<g id="edge10" class="edge"><title>10&#45;&gt;5</title>
<path fill="none" stroke="black" d="M1125.48,-347.078C1117.5,-370.489 1104.3,-401.582 1085,-424 1058.16,-455.186 1022.62,-482.04 988.238,-503.599"/>
<polygon fill="none" stroke="black" points="986.205,-500.741 979.527,-508.966 989.876,-506.701 986.205,-500.741"/>
</g>
<!-- 11 -->
<g id="node12" class="node"><title>11</title>
<polygon fill="none" stroke="black" points="1193.09,-272 1193.09,-354 1308.91,-354 1308.91,-272 1193.09,-272"/>
<text text-anchor="middle" x="1251" y="-338.8" font-family="Times,serif" font-size="14.00">TemporalAverage</text>
<polyline fill="none" stroke="black" points="1193.09,-332 1308.91,-332 "/>
<polyline fill="none" stroke="black" points="1193.09,-308 1308.91,-308 "/>
<text text-anchor="start" x="1201.09" y="-292.8" font-family="Times,serif" font-size="14.00">config_for_sim()</text>
<text text-anchor="start" x="1201.09" y="-278.8" font-family="Times,serif" font-size="14.00">sample()</text>
</g>
<!-- 11&#45;&gt;5 -->
<g id="edge11" class="edge"><title>11&#45;&gt;5</title>
<path fill="none" stroke="black" d="M1233.64,-354.02C1222.04,-376.946 1204.89,-404.87 1183,-424 1127.25,-472.709 1051.68,-506.967 988.873,-529.285"/>
<polygon fill="none" stroke="black" points="987.592,-526.025 979.306,-532.628 989.901,-532.633 987.592,-526.025"/>
</g>
<!-- 12 -->
<g id="node13" class="node"><title>12</title>
<polygon fill="none" stroke="black" points="622.527,-22 622.527,-144 841.473,-144 841.473,-22 622.527,-22"/>
<text text-anchor="middle" x="732" y="-128.8" font-family="Times,serif" font-size="14.00">iEEG</text>
<polyline fill="none" stroke="black" points="622.527,-122 841.473,-122 "/>
<text text-anchor="start" x="630.527" y="-106.8" font-family="Times,serif" font-size="14.00">projection : ProjectionSurfaceSEEG</text>
<text text-anchor="start" x="630.527" y="-92.8" font-family="Times,serif" font-size="14.00">sensors : SensorsInternal</text>
<text text-anchor="start" x="630.527" y="-78.8" font-family="Times,serif" font-size="14.00">sigma : Float</text>
<polyline fill="none" stroke="black" points="622.527,-72 841.473,-72 "/>
<text text-anchor="start" x="630.527" y="-56.8" font-family="Times,serif" font-size="14.00">analytic()</text>
<text text-anchor="start" x="630.527" y="-42.8" font-family="Times,serif" font-size="14.00">create_time_series()</text>
<text text-anchor="start" x="630.527" y="-28.8" font-family="Times,serif" font-size="14.00">from_file()</text>
</g>
<!-- 12&#45;&gt;7 -->
<g id="edge12" class="edge"><title>12&#45;&gt;7</title>
<path fill="none" stroke="black" d="M669.949,-144.203C653.503,-160.159 635.175,-177.94 616.774,-195.794"/>
<polygon fill="none" stroke="black" points="614.186,-193.428 609.446,-202.903 619.06,-198.452 614.186,-193.428"/>
</g>
</g>
</svg>
