<?xml version="1.0" encoding="UTF-8" standalone="no"?>
<!DOCTYPE svg PUBLIC "-//W3C//DTD SVG 1.1//EN"
 "http://www.w3.org/Graphics/SVG/1.1/DTD/svg11.dtd">
<!-- Generated by graphviz version 2.36.0 (20140111.2315)
 -->
<!-- Title: classes_models Pages: 1 -->
<svg width="2019pt" height="1600pt"
 viewBox="0.00 0.00 2019.00 1600.00" xmlns="http://www.w3.org/2000/svg" xmlns:xlink="http://www.w3.org/1999/xlink">
<g id="graph0" class="graph" transform="scale(1 1) rotate(0) translate(4 1596)">
<title>classes_models</title>
<polygon fill="white" stroke="none" points="-4,4 -4,-1596 2015,-1596 2015,4 -4,4"/>
<!-- 0 -->
<g id="node1" class="node"><title>0</title>
<polygon fill="none" stroke="black" points="-0.462402,-190 -0.462402,-536 204.462,-536 204.462,-190 -0.462402,-190"/>
<text text-anchor="middle" x="102" y="-520.8" font-family="Times,serif" font-size="14.00">Epileptor</text>
<polyline fill="none" stroke="black" points="-0.462402,-514 204.462,-514 "/>
<text text-anchor="start" x="7.5376" y="-498.8" font-family="Times,serif" font-size="14.00">Iext : FloatArray</text>
<text text-anchor="start" x="7.5376" y="-484.8" font-family="Times,serif" font-size="14.00">Iext2 : FloatArray</text>
<text text-anchor="start" x="7.5376" y="-470.8" font-family="Times,serif" font-size="14.00">Kf : FloatArray</text>
<text text-anchor="start" x="7.5376" y="-456.8" font-family="Times,serif" font-size="14.00">Ks : FloatArray</text>
<text text-anchor="start" x="7.5376" y="-442.8" font-family="Times,serif" font-size="14.00">Kvf : FloatArray</text>
<text text-anchor="start" x="7.5376" y="-428.8" font-family="Times,serif" font-size="14.00">a : FloatArray</text>
<text text-anchor="start" x="7.5376" y="-414.8" font-family="Times,serif" font-size="14.00">aa : FloatArray</text>
<text text-anchor="start" x="7.5376" y="-400.8" font-family="Times,serif" font-size="14.00">b : FloatArray</text>
<text text-anchor="start" x="7.5376" y="-386.8" font-family="Times,serif" font-size="14.00">c : FloatArray</text>
<text text-anchor="start" x="7.5376" y="-372.8" font-family="Times,serif" font-size="14.00">cvar</text>
<text text-anchor="start" x="7.5376" y="-358.8" font-family="Times,serif" font-size="14.00">d : FloatArray</text>
<text text-anchor="start" x="7.5376" y="-344.8" font-family="Times,serif" font-size="14.00">r : FloatArray</text>
<text text-anchor="start" x="7.5376" y="-330.8" font-family="Times,serif" font-size="14.00">s : FloatArray</text>
<text text-anchor="start" x="7.5376" y="-316.8" font-family="Times,serif" font-size="14.00">slope : FloatArray</text>
<text text-anchor="start" x="7.5376" y="-302.8" font-family="Times,serif" font-size="14.00">state_variable_range : Dict</text>
<text text-anchor="start" x="7.5376" y="-288.8" font-family="Times,serif" font-size="14.00">state_variables : list</text>
<text text-anchor="start" x="7.5376" y="-274.8" font-family="Times,serif" font-size="14.00">tau : FloatArray</text>
<text text-anchor="start" x="7.5376" y="-260.8" font-family="Times,serif" font-size="14.00">tt : FloatArray</text>
<text text-anchor="start" x="7.5376" y="-246.8" font-family="Times,serif" font-size="14.00">ui_configurable_parameters : list</text>
<text text-anchor="start" x="7.5376" y="-232.8" font-family="Times,serif" font-size="14.00">variables_of_interest : Enumerate</text>
<text text-anchor="start" x="7.5376" y="-218.8" font-family="Times,serif" font-size="14.00">x0 : FloatArray</text>
<polyline fill="none" stroke="black" points="-0.462402,-212 204.462,-212 "/>
<text text-anchor="start" x="7.5376" y="-196.8" font-family="Times,serif" font-size="14.00">dfun()</text>
</g>
<!-- 8 -->
<g id="node9" class="node"><title>8</title>
<polygon fill="none" stroke="black" points="363.862,-1015 363.862,-1081 508.138,-1081 508.138,-1015 363.862,-1015"/>
<text text-anchor="middle" x="436" y="-1065.8" font-family="Times,serif" font-size="14.00">ModelNumbaDfun</text>
<polyline fill="none" stroke="black" points="363.862,-1059 508.138,-1059 "/>
<text text-anchor="start" x="371.862" y="-1043.8" font-family="Times,serif" font-size="14.00">spatial_param_reshape</text>
<polyline fill="none" stroke="black" points="363.862,-1037 508.138,-1037 "/>
<text text-anchor="middle" x="436" y="-1021.8" font-family="Times,serif" font-size="14.00"> </text>
</g>
<!-- 0&#45;&gt;8 -->
<g id="edge1" class="edge"><title>0&#45;&gt;8</title>
<path fill="none" stroke="black" d="M143.636,-536.16C161.501,-597.634 185.018,-666.392 214,-726 267.058,-835.125 354.516,-948.654 402.285,-1007.03"/>
<polygon fill="none" stroke="black" points="399.699,-1009.39 408.754,-1014.89 405.105,-1004.95 399.699,-1009.39"/>
</g>
<!-- 1 -->
<g id="node2" class="node"><title>1</title>
<polygon fill="none" stroke="black" points="222.538,-218 222.538,-508 427.462,-508 427.462,-218 222.538,-218"/>
<text text-anchor="middle" x="325" y="-492.8" font-family="Times,serif" font-size="14.00">Generic2dOscillator</text>
<polyline fill="none" stroke="black" points="222.538,-486 427.462,-486 "/>
<text text-anchor="start" x="230.538" y="-470.8" font-family="Times,serif" font-size="14.00">I : FloatArray</text>
<text text-anchor="start" x="230.538" y="-456.8" font-family="Times,serif" font-size="14.00">a : FloatArray</text>
<text text-anchor="start" x="230.538" y="-442.8" font-family="Times,serif" font-size="14.00">alpha : FloatArray</text>
<text text-anchor="start" x="230.538" y="-428.8" font-family="Times,serif" font-size="14.00">b : FloatArray</text>
<text text-anchor="start" x="230.538" y="-414.8" font-family="Times,serif" font-size="14.00">beta : FloatArray</text>
<text text-anchor="start" x="230.538" y="-400.8" font-family="Times,serif" font-size="14.00">c : FloatArray</text>
<text text-anchor="start" x="230.538" y="-386.8" font-family="Times,serif" font-size="14.00">cvar</text>
<text text-anchor="start" x="230.538" y="-372.8" font-family="Times,serif" font-size="14.00">d : FloatArray</text>
<text text-anchor="start" x="230.538" y="-358.8" font-family="Times,serif" font-size="14.00">e : FloatArray</text>
<text text-anchor="start" x="230.538" y="-344.8" font-family="Times,serif" font-size="14.00">f : FloatArray</text>
<text text-anchor="start" x="230.538" y="-330.8" font-family="Times,serif" font-size="14.00">g : FloatArray</text>
<text text-anchor="start" x="230.538" y="-316.8" font-family="Times,serif" font-size="14.00">gamma : FloatArray</text>
<text text-anchor="start" x="230.538" y="-302.8" font-family="Times,serif" font-size="14.00">state_variable_range : Dict</text>
<text text-anchor="start" x="230.538" y="-288.8" font-family="Times,serif" font-size="14.00">state_variables : list</text>
<text text-anchor="start" x="230.538" y="-274.8" font-family="Times,serif" font-size="14.00">tau : FloatArray</text>
<text text-anchor="start" x="230.538" y="-260.8" font-family="Times,serif" font-size="14.00">ui_configurable_parameters : list</text>
<text text-anchor="start" x="230.538" y="-246.8" font-family="Times,serif" font-size="14.00">variables_of_interest : Enumerate</text>
<polyline fill="none" stroke="black" points="222.538,-240 427.462,-240 "/>
<text text-anchor="start" x="230.538" y="-224.8" font-family="Times,serif" font-size="14.00">dfun()</text>
</g>
<!-- 1&#45;&gt;8 -->
<g id="edge2" class="edge"><title>1&#45;&gt;8</title>
<path fill="none" stroke="black" d="M348.405,-508.012C373.965,-665.289 413.364,-907.714 429.132,-1004.74"/>
<polygon fill="none" stroke="black" points="425.7,-1005.44 430.759,-1014.75 432.61,-1004.32 425.7,-1005.44"/>
</g>
<!-- 2 -->
<g id="node3" class="node"><title>2</title>
<polygon fill="none" stroke="black" points="526.538,-938 526.538,-1158 731.462,-1158 731.462,-938 526.538,-938"/>
<text text-anchor="middle" x="629" y="-1142.8" font-family="Times,serif" font-size="14.00">Hopfield</text>
<polyline fill="none" stroke="black" points="526.538,-1136 731.462,-1136 "/>
<text text-anchor="start" x="534.538" y="-1120.8" font-family="Times,serif" font-size="14.00">cvar</text>
<text text-anchor="start" x="534.538" y="-1106.8" font-family="Times,serif" font-size="14.00">cvar</text>
<text text-anchor="start" x="534.538" y="-1092.8" font-family="Times,serif" font-size="14.00">dfun</text>
<text text-anchor="start" x="534.538" y="-1078.8" font-family="Times,serif" font-size="14.00">dynamic : IntegerArray</text>
<text text-anchor="start" x="534.538" y="-1064.8" font-family="Times,serif" font-size="14.00">state_variable_range : Dict</text>
<text text-anchor="start" x="534.538" y="-1050.8" font-family="Times,serif" font-size="14.00">state_variables : list</text>
<text text-anchor="start" x="534.538" y="-1036.8" font-family="Times,serif" font-size="14.00">tauT : FloatArray</text>
<text text-anchor="start" x="534.538" y="-1022.8" font-family="Times,serif" font-size="14.00">taux : FloatArray</text>
<text text-anchor="start" x="534.538" y="-1008.8" font-family="Times,serif" font-size="14.00">ui_configurable_parameters : list</text>
<text text-anchor="start" x="534.538" y="-994.8" font-family="Times,serif" font-size="14.00">variables_of_interest : Enumerate</text>
<polyline fill="none" stroke="black" points="526.538,-988 731.462,-988 "/>
<text text-anchor="start" x="534.538" y="-972.8" font-family="Times,serif" font-size="14.00">configure()</text>
<text text-anchor="start" x="534.538" y="-958.8" font-family="Times,serif" font-size="14.00">dfun()</text>
<text text-anchor="start" x="534.538" y="-944.8" font-family="Times,serif" font-size="14.00">dfunDyn()</text>
</g>
<!-- 7 -->
<g id="node8" class="node"><title>7</title>
<polygon fill="none" stroke="black" points="1085.86,-1371 1085.86,-1591 1286.14,-1591 1286.14,-1371 1085.86,-1371"/>
<text text-anchor="middle" x="1186" y="-1575.8" font-family="Times,serif" font-size="14.00">Model</text>
<polyline fill="none" stroke="black" points="1085.86,-1569 1286.14,-1569 "/>
<text text-anchor="start" x="1093.86" y="-1553.8" font-family="Times,serif" font-size="14.00">cvar : NoneType</text>
<text text-anchor="start" x="1093.86" y="-1539.8" font-family="Times,serif" font-size="14.00">number_of_modes : int</text>
<text text-anchor="start" x="1093.86" y="-1525.8" font-family="Times,serif" font-size="14.00">nvar</text>
<text text-anchor="start" x="1093.86" y="-1511.8" font-family="Times,serif" font-size="14.00">observe</text>
<text text-anchor="start" x="1093.86" y="-1497.8" font-family="Times,serif" font-size="14.00">spatial_param_reshape</text>
<text text-anchor="start" x="1093.86" y="-1483.8" font-family="Times,serif" font-size="14.00">state_variables : list</text>
<text text-anchor="start" x="1093.86" y="-1469.8" font-family="Times,serif" font-size="14.00">ui_configurable_parameters : list</text>
<text text-anchor="start" x="1093.86" y="-1455.8" font-family="Times,serif" font-size="14.00">variables_of_interest : list</text>
<polyline fill="none" stroke="black" points="1085.86,-1449 1286.14,-1449 "/>
<text text-anchor="start" x="1093.86" y="-1433.8" font-family="Times,serif" font-size="14.00">configure()</text>
<text text-anchor="start" x="1093.86" y="-1419.8" font-family="Times,serif" font-size="14.00">dfun()</text>
<text text-anchor="start" x="1093.86" y="-1405.8" font-family="Times,serif" font-size="14.00">initial()</text>
<text text-anchor="start" x="1093.86" y="-1391.8" font-family="Times,serif" font-size="14.00">stationary_trajectory()</text>
<text text-anchor="start" x="1093.86" y="-1377.8" font-family="Times,serif" font-size="14.00">update_derived_parameters()</text>
</g>
<!-- 2&#45;&gt;7 -->
<g id="edge3" class="edge"><title>2&#45;&gt;7</title>
<path fill="none" stroke="black" d="M648.352,-1158.21C664.07,-1217.42 692.004,-1287.74 741,-1334 832.595,-1420.48 976.31,-1455.76 1075.51,-1470.14"/>
<polygon fill="none" stroke="black" points="1075.18,-1473.63 1085.57,-1471.55 1076.15,-1466.69 1075.18,-1473.63"/>
</g>
<!-- 3 -->
<g id="node4" class="node"><title>3</title>
<polygon fill="none" stroke="black" points="445.538,-197 445.538,-529 650.462,-529 650.462,-197 445.538,-197"/>
<text text-anchor="middle" x="548" y="-513.8" font-family="Times,serif" font-size="14.00">JansenRit</text>
<polyline fill="none" stroke="black" points="445.538,-507 650.462,-507 "/>
<text text-anchor="start" x="453.538" y="-491.8" font-family="Times,serif" font-size="14.00">A : FloatArray</text>
<text text-anchor="start" x="453.538" y="-477.8" font-family="Times,serif" font-size="14.00">B : FloatArray</text>
<text text-anchor="start" x="453.538" y="-463.8" font-family="Times,serif" font-size="14.00">J : FloatArray</text>
<text text-anchor="start" x="453.538" y="-449.8" font-family="Times,serif" font-size="14.00">a : FloatArray</text>
<text text-anchor="start" x="453.538" y="-435.8" font-family="Times,serif" font-size="14.00">a_1 : FloatArray</text>
<text text-anchor="start" x="453.538" y="-421.8" font-family="Times,serif" font-size="14.00">a_2 : FloatArray</text>
<text text-anchor="start" x="453.538" y="-407.8" font-family="Times,serif" font-size="14.00">a_3 : FloatArray</text>
<text text-anchor="start" x="453.538" y="-393.8" font-family="Times,serif" font-size="14.00">a_4 : FloatArray</text>
<text text-anchor="start" x="453.538" y="-379.8" font-family="Times,serif" font-size="14.00">b : FloatArray</text>
<text text-anchor="start" x="453.538" y="-365.8" font-family="Times,serif" font-size="14.00">cvar</text>
<text text-anchor="start" x="453.538" y="-351.8" font-family="Times,serif" font-size="14.00">mu : FloatArray</text>
<text text-anchor="start" x="453.538" y="-337.8" font-family="Times,serif" font-size="14.00">nu_max : FloatArray</text>
<text text-anchor="start" x="453.538" y="-323.8" font-family="Times,serif" font-size="14.00">p_max : FloatArray</text>
<text text-anchor="start" x="453.538" y="-309.8" font-family="Times,serif" font-size="14.00">p_min : FloatArray</text>
<text text-anchor="start" x="453.538" y="-295.8" font-family="Times,serif" font-size="14.00">r : FloatArray</text>
<text text-anchor="start" x="453.538" y="-281.8" font-family="Times,serif" font-size="14.00">state_variable_range : Dict</text>
<text text-anchor="start" x="453.538" y="-267.8" font-family="Times,serif" font-size="14.00">state_variables</text>
<text text-anchor="start" x="453.538" y="-253.8" font-family="Times,serif" font-size="14.00">ui_configurable_parameters : list</text>
<text text-anchor="start" x="453.538" y="-239.8" font-family="Times,serif" font-size="14.00">v0 : FloatArray</text>
<text text-anchor="start" x="453.538" y="-225.8" font-family="Times,serif" font-size="14.00">variables_of_interest : Enumerate</text>
<polyline fill="none" stroke="black" points="445.538,-219 650.462,-219 "/>
<text text-anchor="start" x="453.538" y="-203.8" font-family="Times,serif" font-size="14.00">dfun()</text>
</g>
<!-- 3&#45;&gt;8 -->
<g id="edge4" class="edge"><title>3&#45;&gt;8</title>
<path fill="none" stroke="black" d="M520.888,-529.335C495.143,-686.335 458.18,-911.743 442.956,-1004.58"/>
<polygon fill="none" stroke="black" points="439.459,-1004.28 441.295,-1014.71 446.367,-1005.41 439.459,-1004.28"/>
</g>
<!-- 4 -->
<g id="node5" class="node"><title>4</title>
<polygon fill="none" stroke="black" points="749.538,-973 749.538,-1123 954.462,-1123 954.462,-973 749.538,-973"/>
<text text-anchor="middle" x="852" y="-1107.8" font-family="Times,serif" font-size="14.00">Kuramoto</text>
<polyline fill="none" stroke="black" points="749.538,-1101 954.462,-1101 "/>
<text text-anchor="start" x="757.538" y="-1085.8" font-family="Times,serif" font-size="14.00">cvar</text>
<text text-anchor="start" x="757.538" y="-1071.8" font-family="Times,serif" font-size="14.00">derivative</text>
<text text-anchor="start" x="757.538" y="-1057.8" font-family="Times,serif" font-size="14.00">omega : FloatArray</text>
<text text-anchor="start" x="757.538" y="-1043.8" font-family="Times,serif" font-size="14.00">state_variable_range : Dict</text>
<text text-anchor="start" x="757.538" y="-1029.8" font-family="Times,serif" font-size="14.00">state_variables : list</text>
<text text-anchor="start" x="757.538" y="-1015.8" font-family="Times,serif" font-size="14.00">ui_configurable_parameters : list</text>
<text text-anchor="start" x="757.538" y="-1001.8" font-family="Times,serif" font-size="14.00">variables_of_interest : Enumerate</text>
<polyline fill="none" stroke="black" points="749.538,-995 954.462,-995 "/>
<text text-anchor="start" x="757.538" y="-979.8" font-family="Times,serif" font-size="14.00">dfun()</text>
</g>
<!-- 4&#45;&gt;7 -->
<g id="edge5" class="edge"><title>4&#45;&gt;7</title>
<path fill="none" stroke="black" d="M867.858,-1123.28C883.934,-1184.88 913.749,-1272.08 964,-1334 994.467,-1371.54 1037.2,-1402.81 1077.04,-1426.66"/>
<polygon fill="none" stroke="black" points="1075.37,-1429.74 1085.76,-1431.79 1078.92,-1423.7 1075.37,-1429.74"/>
</g>
<!-- 5 -->
<g id="node6" class="node"><title>5</title>
<polygon fill="none" stroke="black" points="972.538,-763 972.538,-1333 1177.46,-1333 1177.46,-763 972.538,-763"/>
<text text-anchor="middle" x="1075" y="-1317.8" font-family="Times,serif" font-size="14.00">LarterBreakspear</text>
<polyline fill="none" stroke="black" points="972.538,-1311 1177.46,-1311 "/>
<text text-anchor="start" x="980.538" y="-1295.8" font-family="Times,serif" font-size="14.00">C : FloatArray</text>
<text text-anchor="start" x="980.538" y="-1281.8" font-family="Times,serif" font-size="14.00">Iext : FloatArray</text>
<text text-anchor="start" x="980.538" y="-1267.8" font-family="Times,serif" font-size="14.00">QV_max : FloatArray</text>
<text text-anchor="start" x="980.538" y="-1253.8" font-family="Times,serif" font-size="14.00">QZ_max : FloatArray</text>
<text text-anchor="start" x="980.538" y="-1239.8" font-family="Times,serif" font-size="14.00">TCa : FloatArray</text>
<text text-anchor="start" x="980.538" y="-1225.8" font-family="Times,serif" font-size="14.00">TK : FloatArray</text>
<text text-anchor="start" x="980.538" y="-1211.8" font-family="Times,serif" font-size="14.00">TNa : FloatArray</text>
<text text-anchor="start" x="980.538" y="-1197.8" font-family="Times,serif" font-size="14.00">VCa : FloatArray</text>
<text text-anchor="start" x="980.538" y="-1183.8" font-family="Times,serif" font-size="14.00">VK : FloatArray</text>
<text text-anchor="start" x="980.538" y="-1169.8" font-family="Times,serif" font-size="14.00">VL : FloatArray</text>
<text text-anchor="start" x="980.538" y="-1155.8" font-family="Times,serif" font-size="14.00">VNa : FloatArray</text>
<text text-anchor="start" x="980.538" y="-1141.8" font-family="Times,serif" font-size="14.00">VT : FloatArray</text>
<text text-anchor="start" x="980.538" y="-1127.8" font-family="Times,serif" font-size="14.00">ZT : FloatArray</text>
<text text-anchor="start" x="980.538" y="-1113.8" font-family="Times,serif" font-size="14.00">aee : FloatArray</text>
<text text-anchor="start" x="980.538" y="-1099.8" font-family="Times,serif" font-size="14.00">aei : FloatArray</text>
<text text-anchor="start" x="980.538" y="-1085.8" font-family="Times,serif" font-size="14.00">aie : FloatArray</text>
<text text-anchor="start" x="980.538" y="-1071.8" font-family="Times,serif" font-size="14.00">ane : FloatArray</text>
<text text-anchor="start" x="980.538" y="-1057.8" font-family="Times,serif" font-size="14.00">ani : FloatArray</text>
<text text-anchor="start" x="980.538" y="-1043.8" font-family="Times,serif" font-size="14.00">b : FloatArray</text>
<text text-anchor="start" x="980.538" y="-1029.8" font-family="Times,serif" font-size="14.00">cvar</text>
<text text-anchor="start" x="980.538" y="-1015.8" font-family="Times,serif" font-size="14.00">d_Ca : FloatArray</text>
<text text-anchor="start" x="980.538" y="-1001.8" font-family="Times,serif" font-size="14.00">d_K : FloatArray</text>
<text text-anchor="start" x="980.538" y="-987.8" font-family="Times,serif" font-size="14.00">d_Na : FloatArray</text>
<text text-anchor="start" x="980.538" y="-973.8" font-family="Times,serif" font-size="14.00">d_V : FloatArray</text>
<text text-anchor="start" x="980.538" y="-959.8" font-family="Times,serif" font-size="14.00">d_Z : FloatArray</text>
<text text-anchor="start" x="980.538" y="-945.8" font-family="Times,serif" font-size="14.00">gCa : FloatArray</text>
<text text-anchor="start" x="980.538" y="-931.8" font-family="Times,serif" font-size="14.00">gK : FloatArray</text>
<text text-anchor="start" x="980.538" y="-917.8" font-family="Times,serif" font-size="14.00">gL : FloatArray</text>
<text text-anchor="start" x="980.538" y="-903.8" font-family="Times,serif" font-size="14.00">gNa : FloatArray</text>
<text text-anchor="start" x="980.538" y="-889.8" font-family="Times,serif" font-size="14.00">phi : FloatArray</text>
<text text-anchor="start" x="980.538" y="-875.8" font-family="Times,serif" font-size="14.00">rNMDA : FloatArray</text>
<text text-anchor="start" x="980.538" y="-861.8" font-family="Times,serif" font-size="14.00">state_variable_range : Dict</text>
<text text-anchor="start" x="980.538" y="-847.8" font-family="Times,serif" font-size="14.00">state_variables</text>
<text text-anchor="start" x="980.538" y="-833.8" font-family="Times,serif" font-size="14.00">t_scale : FloatArray</text>
<text text-anchor="start" x="980.538" y="-819.8" font-family="Times,serif" font-size="14.00">tau_K : FloatArray</text>
<text text-anchor="start" x="980.538" y="-805.8" font-family="Times,serif" font-size="14.00">ui_configurable_parameters : list</text>
<text text-anchor="start" x="980.538" y="-791.8" font-family="Times,serif" font-size="14.00">variables_of_interest : Enumerate</text>
<polyline fill="none" stroke="black" points="972.538,-785 1177.46,-785 "/>
<text text-anchor="start" x="980.538" y="-769.8" font-family="Times,serif" font-size="14.00">dfun()</text>
</g>
<!-- 5&#45;&gt;7 -->
<g id="edge6" class="edge"><title>5&#45;&gt;7</title>
<path fill="none" stroke="black" d="M1148.19,-1333.18C1150.6,-1342.55 1152.97,-1351.74 1155.26,-1360.64"/>
<polygon fill="none" stroke="black" points="1151.93,-1361.76 1157.82,-1370.57 1158.71,-1360.02 1151.93,-1361.76"/>
</g>
<!-- 6 -->
<g id="node7" class="node"><title>6</title>
<polygon fill="none" stroke="black" points="1195.54,-980 1195.54,-1116 1400.46,-1116 1400.46,-980 1195.54,-980"/>
<text text-anchor="middle" x="1298" y="-1100.8" font-family="Times,serif" font-size="14.00">Linear</text>
<polyline fill="none" stroke="black" points="1195.54,-1094 1400.46,-1094 "/>
<text text-anchor="start" x="1203.54" y="-1078.8" font-family="Times,serif" font-size="14.00">cvar</text>
<text text-anchor="start" x="1203.54" y="-1064.8" font-family="Times,serif" font-size="14.00">gamma : FloatArray</text>
<text text-anchor="start" x="1203.54" y="-1050.8" font-family="Times,serif" font-size="14.00">state_variable_range : Dict</text>
<text text-anchor="start" x="1203.54" y="-1036.8" font-family="Times,serif" font-size="14.00">state_variables : list</text>
<text text-anchor="start" x="1203.54" y="-1022.8" font-family="Times,serif" font-size="14.00">ui_configurable_parameters : list</text>
<text text-anchor="start" x="1203.54" y="-1008.8" font-family="Times,serif" font-size="14.00">variables_of_interest : Enumerate</text>
<polyline fill="none" stroke="black" points="1195.54,-1002 1400.46,-1002 "/>
<text text-anchor="start" x="1203.54" y="-986.8" font-family="Times,serif" font-size="14.00">dfun()</text>
</g>
<!-- 6&#45;&gt;7 -->
<g id="edge7" class="edge"><title>6&#45;&gt;7</title>
<path fill="none" stroke="black" d="M1280.5,-1116.34C1263.54,-1181.62 1237.44,-1282.04 1216.97,-1360.84"/>
<polygon fill="none" stroke="black" points="1213.5,-1360.26 1214.37,-1370.82 1220.27,-1362.02 1213.5,-1360.26"/>
</g>
<!-- 8&#45;&gt;7 -->
<g id="edge8" class="edge"><title>8&#45;&gt;7</title>
<path fill="none" stroke="black" d="M435.292,-1081.32C435.861,-1140.55 446.054,-1266.58 518,-1334 597.583,-1408.57 907.062,-1451.31 1075.42,-1469.5"/>
<polygon fill="none" stroke="black" points="1075.24,-1473 1085.56,-1470.58 1075.98,-1466.04 1075.24,-1473"/>
</g>
<!-- 9 -->
<g id="node10" class="node"><title>9</title>
<polygon fill="none" stroke="black" points="1418.68,-1001 1418.68,-1095 1565.32,-1095 1565.32,-1001 1418.68,-1001"/>
<text text-anchor="middle" x="1492" y="-1079.8" font-family="Times,serif" font-size="14.00">ReducedSetBase</text>
<polyline fill="none" stroke="black" points="1418.68,-1073 1565.32,-1073 "/>
<text text-anchor="start" x="1426.68" y="-1057.8" font-family="Times,serif" font-size="14.00">nu : int</text>
<text text-anchor="start" x="1426.68" y="-1043.8" font-family="Times,serif" font-size="14.00">number_of_modes : int</text>
<text text-anchor="start" x="1426.68" y="-1029.8" font-family="Times,serif" font-size="14.00">nv : int</text>
<polyline fill="none" stroke="black" points="1418.68,-1023 1565.32,-1023 "/>
<text text-anchor="start" x="1426.68" y="-1007.8" font-family="Times,serif" font-size="14.00">configure()</text>
</g>
<!-- 9&#45;&gt;7 -->
<g id="edge9" class="edge"><title>9&#45;&gt;7</title>
<path fill="none" stroke="black" d="M1488.42,-1095.03C1481.69,-1155.25 1462.58,-1261.62 1409,-1334 1379.57,-1373.76 1335.83,-1405.77 1294.87,-1429.57"/>
<polygon fill="none" stroke="black" points="1293.13,-1426.53 1286.18,-1434.53 1296.6,-1432.61 1293.13,-1426.53"/>
</g>
<!-- 10 -->
<g id="node11" class="node"><title>10</title>
<polygon fill="none" stroke="black" points="1277.54,-113 1277.54,-613 1482.46,-613 1482.46,-113 1277.54,-113"/>
<text text-anchor="middle" x="1380" y="-597.8" font-family="Times,serif" font-size="14.00">ReducedSetFitzHughNagumo</text>
<polyline fill="none" stroke="black" points="1277.54,-591 1482.46,-591 "/>
<text text-anchor="start" x="1285.54" y="-575.8" font-family="Times,serif" font-size="14.00">Aik</text>
<text text-anchor="start" x="1285.54" y="-561.8" font-family="Times,serif" font-size="14.00">Aik : NoneType</text>
<text text-anchor="start" x="1285.54" y="-547.8" font-family="Times,serif" font-size="14.00">Bik</text>
<text text-anchor="start" x="1285.54" y="-533.8" font-family="Times,serif" font-size="14.00">Bik : NoneType</text>
<text text-anchor="start" x="1285.54" y="-519.8" font-family="Times,serif" font-size="14.00">Cik</text>
<text text-anchor="start" x="1285.54" y="-505.8" font-family="Times,serif" font-size="14.00">Cik : NoneType</text>
<text text-anchor="start" x="1285.54" y="-491.8" font-family="Times,serif" font-size="14.00">IE_i</text>
<text text-anchor="start" x="1285.54" y="-477.8" font-family="Times,serif" font-size="14.00">IE_i : NoneType</text>
<text text-anchor="start" x="1285.54" y="-463.8" font-family="Times,serif" font-size="14.00">II_i</text>
<text text-anchor="start" x="1285.54" y="-449.8" font-family="Times,serif" font-size="14.00">II_i : NoneType</text>
<text text-anchor="start" x="1285.54" y="-435.8" font-family="Times,serif" font-size="14.00">K11 : FloatArray</text>
<text text-anchor="start" x="1285.54" y="-421.8" font-family="Times,serif" font-size="14.00">K12 : FloatArray</text>
<text text-anchor="start" x="1285.54" y="-407.8" font-family="Times,serif" font-size="14.00">K21 : FloatArray</text>
<text text-anchor="start" x="1285.54" y="-393.8" font-family="Times,serif" font-size="14.00">a : FloatArray</text>
<text text-anchor="start" x="1285.54" y="-379.8" font-family="Times,serif" font-size="14.00">b : FloatArray</text>
<text text-anchor="start" x="1285.54" y="-365.8" font-family="Times,serif" font-size="14.00">cvar</text>
<text text-anchor="start" x="1285.54" y="-351.8" font-family="Times,serif" font-size="14.00">e_i</text>
<text text-anchor="start" x="1285.54" y="-337.8" font-family="Times,serif" font-size="14.00">e_i : NoneType</text>
<text text-anchor="start" x="1285.54" y="-323.8" font-family="Times,serif" font-size="14.00">f_i</text>
<text text-anchor="start" x="1285.54" y="-309.8" font-family="Times,serif" font-size="14.00">f_i : NoneType</text>
<text text-anchor="start" x="1285.54" y="-295.8" font-family="Times,serif" font-size="14.00">m_i</text>
<text text-anchor="start" x="1285.54" y="-281.8" font-family="Times,serif" font-size="14.00">m_i : NoneType</text>
<text text-anchor="start" x="1285.54" y="-267.8" font-family="Times,serif" font-size="14.00">mu : FloatArray</text>
<text text-anchor="start" x="1285.54" y="-253.8" font-family="Times,serif" font-size="14.00">n_i</text>
<text text-anchor="start" x="1285.54" y="-239.8" font-family="Times,serif" font-size="14.00">n_i : NoneType</text>
<text text-anchor="start" x="1285.54" y="-225.8" font-family="Times,serif" font-size="14.00">sigma : FloatArray</text>
<text text-anchor="start" x="1285.54" y="-211.8" font-family="Times,serif" font-size="14.00">state_variable_range : Dict</text>
<text text-anchor="start" x="1285.54" y="-197.8" font-family="Times,serif" font-size="14.00">state_variables</text>
<text text-anchor="start" x="1285.54" y="-183.8" font-family="Times,serif" font-size="14.00">tau : FloatArray</text>
<text text-anchor="start" x="1285.54" y="-169.8" font-family="Times,serif" font-size="14.00">ui_configurable_parameters : list</text>
<text text-anchor="start" x="1285.54" y="-155.8" font-family="Times,serif" font-size="14.00">variables_of_interest : Enumerate</text>
<polyline fill="none" stroke="black" points="1277.54,-149 1482.46,-149 "/>
<text text-anchor="start" x="1285.54" y="-133.8" font-family="Times,serif" font-size="14.00">dfun()</text>
<text text-anchor="start" x="1285.54" y="-119.8" font-family="Times,serif" font-size="14.00">update_derived_parameters()</text>
</g>
<!-- 10&#45;&gt;9 -->
<g id="edge10" class="edge"><title>10&#45;&gt;9</title>
<path fill="none" stroke="black" d="M1420.91,-613.478C1443.38,-750.475 1469.34,-908.823 1482.82,-990.995"/>
<polygon fill="none" stroke="black" points="1479.36,-991.57 1484.44,-1000.87 1486.27,-990.438 1479.36,-991.57"/>
</g>
<!-- 11 -->
<g id="node12" class="node"><title>11</title>
<polygon fill="none" stroke="black" points="1500.54,-1 1500.54,-725 1705.46,-725 1705.46,-1 1500.54,-1"/>
<text text-anchor="middle" x="1603" y="-709.8" font-family="Times,serif" font-size="14.00">ReducedSetHindmarshRose</text>
<polyline fill="none" stroke="black" points="1500.54,-703 1705.46,-703 "/>
<text text-anchor="start" x="1508.54" y="-687.8" font-family="Times,serif" font-size="14.00">A_ik</text>
<text text-anchor="start" x="1508.54" y="-673.8" font-family="Times,serif" font-size="14.00">A_ik : NoneType</text>
<text text-anchor="start" x="1508.54" y="-659.8" font-family="Times,serif" font-size="14.00">B_ik</text>
<text text-anchor="start" x="1508.54" y="-645.8" font-family="Times,serif" font-size="14.00">B_ik : NoneType</text>
<text text-anchor="start" x="1508.54" y="-631.8" font-family="Times,serif" font-size="14.00">C_ik</text>
<text text-anchor="start" x="1508.54" y="-617.8" font-family="Times,serif" font-size="14.00">C_ik : NoneType</text>
<text text-anchor="start" x="1508.54" y="-603.8" font-family="Times,serif" font-size="14.00">IE_i</text>
<text text-anchor="start" x="1508.54" y="-589.8" font-family="Times,serif" font-size="14.00">IE_i : NoneType</text>
<text text-anchor="start" x="1508.54" y="-575.8" font-family="Times,serif" font-size="14.00">II_i</text>
<text text-anchor="start" x="1508.54" y="-561.8" font-family="Times,serif" font-size="14.00">II_i : NoneType</text>
<text text-anchor="start" x="1508.54" y="-547.8" font-family="Times,serif" font-size="14.00">K11 : FloatArray</text>
<text text-anchor="start" x="1508.54" y="-533.8" font-family="Times,serif" font-size="14.00">K12 : FloatArray</text>
<text text-anchor="start" x="1508.54" y="-519.8" font-family="Times,serif" font-size="14.00">K21 : FloatArray</text>
<text text-anchor="start" x="1508.54" y="-505.8" font-family="Times,serif" font-size="14.00">a : FloatArray</text>
<text text-anchor="start" x="1508.54" y="-491.8" font-family="Times,serif" font-size="14.00">a_i</text>
<text text-anchor="start" x="1508.54" y="-477.8" font-family="Times,serif" font-size="14.00">a_i : NoneType</text>
<text text-anchor="start" x="1508.54" y="-463.8" font-family="Times,serif" font-size="14.00">b : FloatArray</text>
<text text-anchor="start" x="1508.54" y="-449.8" font-family="Times,serif" font-size="14.00">b_i</text>
<text text-anchor="start" x="1508.54" y="-435.8" font-family="Times,serif" font-size="14.00">b_i : NoneType</text>
<text text-anchor="start" x="1508.54" y="-421.8" font-family="Times,serif" font-size="14.00">c : FloatArray</text>
<text text-anchor="start" x="1508.54" y="-407.8" font-family="Times,serif" font-size="14.00">c_i</text>
<text text-anchor="start" x="1508.54" y="-393.8" font-family="Times,serif" font-size="14.00">c_i : NoneType</text>
<text text-anchor="start" x="1508.54" y="-379.8" font-family="Times,serif" font-size="14.00">cvar</text>
<text text-anchor="start" x="1508.54" y="-365.8" font-family="Times,serif" font-size="14.00">d : FloatArray</text>
<text text-anchor="start" x="1508.54" y="-351.8" font-family="Times,serif" font-size="14.00">d_i</text>
<text text-anchor="start" x="1508.54" y="-337.8" font-family="Times,serif" font-size="14.00">d_i : NoneType</text>
<text text-anchor="start" x="1508.54" y="-323.8" font-family="Times,serif" font-size="14.00">e_i</text>
<text text-anchor="start" x="1508.54" y="-309.8" font-family="Times,serif" font-size="14.00">e_i : NoneType</text>
<text text-anchor="start" x="1508.54" y="-295.8" font-family="Times,serif" font-size="14.00">f_i</text>
<text text-anchor="start" x="1508.54" y="-281.8" font-family="Times,serif" font-size="14.00">f_i : NoneType</text>
<text text-anchor="start" x="1508.54" y="-267.8" font-family="Times,serif" font-size="14.00">h_i</text>
<text text-anchor="start" x="1508.54" y="-253.8" font-family="Times,serif" font-size="14.00">h_i : NoneType</text>
<text text-anchor="start" x="1508.54" y="-239.8" font-family="Times,serif" font-size="14.00">m_i</text>
<text text-anchor="start" x="1508.54" y="-225.8" font-family="Times,serif" font-size="14.00">m_i : NoneType</text>
<text text-anchor="start" x="1508.54" y="-211.8" font-family="Times,serif" font-size="14.00">mu : FloatArray</text>
<text text-anchor="start" x="1508.54" y="-197.8" font-family="Times,serif" font-size="14.00">n_i</text>
<text text-anchor="start" x="1508.54" y="-183.8" font-family="Times,serif" font-size="14.00">n_i : NoneType</text>
<text text-anchor="start" x="1508.54" y="-169.8" font-family="Times,serif" font-size="14.00">p_i</text>
<text text-anchor="start" x="1508.54" y="-155.8" font-family="Times,serif" font-size="14.00">p_i : NoneType</text>
<text text-anchor="start" x="1508.54" y="-141.8" font-family="Times,serif" font-size="14.00">r : FloatArray</text>
<text text-anchor="start" x="1508.54" y="-127.8" font-family="Times,serif" font-size="14.00">s : FloatArray</text>
<text text-anchor="start" x="1508.54" y="-113.8" font-family="Times,serif" font-size="14.00">sigma : FloatArray</text>
<text text-anchor="start" x="1508.54" y="-99.8" font-family="Times,serif" font-size="14.00">state_variable_range : Dict</text>
<text text-anchor="start" x="1508.54" y="-85.8" font-family="Times,serif" font-size="14.00">state_variables</text>
<text text-anchor="start" x="1508.54" y="-71.8" font-family="Times,serif" font-size="14.00">ui_configurable_parameters : list</text>
<text text-anchor="start" x="1508.54" y="-57.8" font-family="Times,serif" font-size="14.00">variables_of_interest : Enumerate</text>
<text text-anchor="start" x="1508.54" y="-43.8" font-family="Times,serif" font-size="14.00">xo : FloatArray</text>
<polyline fill="none" stroke="black" points="1500.54,-37 1705.46,-37 "/>
<text text-anchor="start" x="1508.54" y="-21.8" font-family="Times,serif" font-size="14.00">dfun()</text>
<text text-anchor="start" x="1508.54" y="-7.8" font-family="Times,serif" font-size="14.00">update_derived_parameters()</text>
</g>
<!-- 11&#45;&gt;9 -->
<g id="edge11" class="edge"><title>11&#45;&gt;9</title>
<path fill="none" stroke="black" d="M1544.33,-725C1527.45,-828.864 1510.96,-930.315 1501.14,-990.755"/>
<polygon fill="none" stroke="black" points="1497.65,-990.393 1499.5,-1000.83 1504.56,-991.516 1497.65,-990.393"/>
</g>
<!-- 12 -->
<g id="node13" class="node"><title>12</title>
<polygon fill="none" stroke="black" points="668.538,-232 668.538,-494 873.462,-494 873.462,-232 668.538,-232"/>
<text text-anchor="middle" x="771" y="-478.8" font-family="Times,serif" font-size="14.00">ReducedWongWang</text>
<polyline fill="none" stroke="black" points="668.538,-472 873.462,-472 "/>
<text text-anchor="start" x="676.538" y="-456.8" font-family="Times,serif" font-size="14.00">I_o : FloatArray</text>
<text text-anchor="start" x="676.538" y="-442.8" font-family="Times,serif" font-size="14.00">J_N : FloatArray</text>
<text text-anchor="start" x="676.538" y="-428.8" font-family="Times,serif" font-size="14.00">a : FloatArray</text>
<text text-anchor="start" x="676.538" y="-414.8" font-family="Times,serif" font-size="14.00">b : FloatArray</text>
<text text-anchor="start" x="676.538" y="-400.8" font-family="Times,serif" font-size="14.00">cvar</text>
<text text-anchor="start" x="676.538" y="-386.8" font-family="Times,serif" font-size="14.00">d : FloatArray</text>
<text text-anchor="start" x="676.538" y="-372.8" font-family="Times,serif" font-size="14.00">gamma : FloatArray</text>
<text text-anchor="start" x="676.538" y="-358.8" font-family="Times,serif" font-size="14.00">sigma_noise : FloatArray</text>
<text text-anchor="start" x="676.538" y="-344.8" font-family="Times,serif" font-size="14.00">state_variable_range : Dict</text>
<text text-anchor="start" x="676.538" y="-330.8" font-family="Times,serif" font-size="14.00">state_variables : list</text>
<text text-anchor="start" x="676.538" y="-316.8" font-family="Times,serif" font-size="14.00">tau_s : FloatArray</text>
<text text-anchor="start" x="676.538" y="-302.8" font-family="Times,serif" font-size="14.00">ui_configurable_parameters : list</text>
<text text-anchor="start" x="676.538" y="-288.8" font-family="Times,serif" font-size="14.00">variables_of_interest : Enumerate</text>
<text text-anchor="start" x="676.538" y="-274.8" font-family="Times,serif" font-size="14.00">w : FloatArray</text>
<polyline fill="none" stroke="black" points="668.538,-268 873.462,-268 "/>
<text text-anchor="start" x="676.538" y="-252.8" font-family="Times,serif" font-size="14.00">configure()</text>
<text text-anchor="start" x="676.538" y="-238.8" font-family="Times,serif" font-size="14.00">dfun()</text>
</g>
<!-- 12&#45;&gt;8 -->
<g id="edge12" class="edge"><title>12&#45;&gt;8</title>
<path fill="none" stroke="black" d="M761.912,-494.394C749.733,-571.778 721.922,-666.153 659,-726 612.136,-770.574 564.418,-716.962 518,-762 451.108,-826.904 437.816,-942.528 435.768,-1004.69"/>
<polygon fill="none" stroke="black" points="432.263,-1004.83 435.517,-1014.92 439.261,-1005.01 432.263,-1004.83"/>
</g>
<!-- 13 -->
<g id="node14" class="node"><title>13</title>
<polygon fill="none" stroke="black" points="1583.54,-833 1583.54,-1263 1788.46,-1263 1788.46,-833 1583.54,-833"/>
<text text-anchor="middle" x="1686" y="-1247.8" font-family="Times,serif" font-size="14.00">WilsonCowan</text>
<polyline fill="none" stroke="black" points="1583.54,-1241 1788.46,-1241 "/>
<text text-anchor="start" x="1591.54" y="-1225.8" font-family="Times,serif" font-size="14.00">P : FloatArray</text>
<text text-anchor="start" x="1591.54" y="-1211.8" font-family="Times,serif" font-size="14.00">Q : FloatArray</text>
<text text-anchor="start" x="1591.54" y="-1197.8" font-family="Times,serif" font-size="14.00">a_e : FloatArray</text>
<text text-anchor="start" x="1591.54" y="-1183.8" font-family="Times,serif" font-size="14.00">a_i : FloatArray</text>
<text text-anchor="start" x="1591.54" y="-1169.8" font-family="Times,serif" font-size="14.00">alpha_e : FloatArray</text>
<text text-anchor="start" x="1591.54" y="-1155.8" font-family="Times,serif" font-size="14.00">alpha_i : FloatArray</text>
<text text-anchor="start" x="1591.54" y="-1141.8" font-family="Times,serif" font-size="14.00">b_e : FloatArray</text>
<text text-anchor="start" x="1591.54" y="-1127.8" font-family="Times,serif" font-size="14.00">b_i : FloatArray</text>
<text text-anchor="start" x="1591.54" y="-1113.8" font-family="Times,serif" font-size="14.00">c_e : FloatArray</text>
<text text-anchor="start" x="1591.54" y="-1099.8" font-family="Times,serif" font-size="14.00">c_ee : FloatArray</text>
<text text-anchor="start" x="1591.54" y="-1085.8" font-family="Times,serif" font-size="14.00">c_ei : FloatArray</text>
<text text-anchor="start" x="1591.54" y="-1071.8" font-family="Times,serif" font-size="14.00">c_i : FloatArray</text>
<text text-anchor="start" x="1591.54" y="-1057.8" font-family="Times,serif" font-size="14.00">c_ie : FloatArray</text>
<text text-anchor="start" x="1591.54" y="-1043.8" font-family="Times,serif" font-size="14.00">c_ii : FloatArray</text>
<text text-anchor="start" x="1591.54" y="-1029.8" font-family="Times,serif" font-size="14.00">cvar</text>
<text text-anchor="start" x="1591.54" y="-1015.8" font-family="Times,serif" font-size="14.00">k_e : FloatArray</text>
<text text-anchor="start" x="1591.54" y="-1001.8" font-family="Times,serif" font-size="14.00">k_i : FloatArray</text>
<text text-anchor="start" x="1591.54" y="-987.8" font-family="Times,serif" font-size="14.00">r_e : FloatArray</text>
<text text-anchor="start" x="1591.54" y="-973.8" font-family="Times,serif" font-size="14.00">r_i : FloatArray</text>
<text text-anchor="start" x="1591.54" y="-959.8" font-family="Times,serif" font-size="14.00">state_variable_range : Dict</text>
<text text-anchor="start" x="1591.54" y="-945.8" font-family="Times,serif" font-size="14.00">state_variables</text>
<text text-anchor="start" x="1591.54" y="-931.8" font-family="Times,serif" font-size="14.00">tau_e : FloatArray</text>
<text text-anchor="start" x="1591.54" y="-917.8" font-family="Times,serif" font-size="14.00">tau_i : FloatArray</text>
<text text-anchor="start" x="1591.54" y="-903.8" font-family="Times,serif" font-size="14.00">theta_e : FloatArray</text>
<text text-anchor="start" x="1591.54" y="-889.8" font-family="Times,serif" font-size="14.00">theta_i : FloatArray</text>
<text text-anchor="start" x="1591.54" y="-875.8" font-family="Times,serif" font-size="14.00">ui_configurable_parameters : list</text>
<text text-anchor="start" x="1591.54" y="-861.8" font-family="Times,serif" font-size="14.00">variables_of_interest : Enumerate</text>
<polyline fill="none" stroke="black" points="1583.54,-855 1788.46,-855 "/>
<text text-anchor="start" x="1591.54" y="-839.8" font-family="Times,serif" font-size="14.00">dfun()</text>
</g>
<!-- 13&#45;&gt;7 -->
<g id="edge13" class="edge"><title>13&#45;&gt;7</title>
<path fill="none" stroke="black" d="M1625.23,-1263.31C1611.41,-1289.29 1594.54,-1313.76 1574,-1334 1498.68,-1408.23 1382.01,-1445.35 1296.26,-1463.5"/>
<polygon fill="none" stroke="black" points="1295.31,-1460.12 1286.22,-1465.57 1296.72,-1466.98 1295.31,-1460.12"/>
</g>
<!-- 14 -->
<g id="node15" class="node"><title>14</title>
<polygon fill="none" stroke="black" points="1806.54,-763 1806.54,-1333 2011.46,-1333 2011.46,-763 1806.54,-763"/>
<text text-anchor="middle" x="1909" y="-1317.8" font-family="Times,serif" font-size="14.00">ZetterbergJansen</text>
<polyline fill="none" stroke="black" points="1806.54,-1311 2011.46,-1311 "/>
<text text-anchor="start" x="1814.54" y="-1295.8" font-family="Times,serif" font-size="14.00">He : FloatArray</text>
<text text-anchor="start" x="1814.54" y="-1281.8" font-family="Times,serif" font-size="14.00">Heke</text>
<text text-anchor="start" x="1814.54" y="-1267.8" font-family="Times,serif" font-size="14.00">Heke : NoneType</text>
<text text-anchor="start" x="1814.54" y="-1253.8" font-family="Times,serif" font-size="14.00">Hi : FloatArray</text>
<text text-anchor="start" x="1814.54" y="-1239.8" font-family="Times,serif" font-size="14.00">Hiki</text>
<text text-anchor="start" x="1814.54" y="-1225.8" font-family="Times,serif" font-size="14.00">Hiki : NoneType</text>
<text text-anchor="start" x="1814.54" y="-1211.8" font-family="Times,serif" font-size="14.00">P : FloatArray</text>
<text text-anchor="start" x="1814.54" y="-1197.8" font-family="Times,serif" font-size="14.00">Q : FloatArray</text>
<text text-anchor="start" x="1814.54" y="-1183.8" font-family="Times,serif" font-size="14.00">U : FloatArray</text>
<text text-anchor="start" x="1814.54" y="-1169.8" font-family="Times,serif" font-size="14.00">cvar</text>
<text text-anchor="start" x="1814.54" y="-1155.8" font-family="Times,serif" font-size="14.00">e0 : FloatArray</text>
<text text-anchor="start" x="1814.54" y="-1141.8" font-family="Times,serif" font-size="14.00">gamma_1 : FloatArray</text>
<text text-anchor="start" x="1814.54" y="-1127.8" font-family="Times,serif" font-size="14.00">gamma_1T : FloatArray</text>
<text text-anchor="start" x="1814.54" y="-1113.8" font-family="Times,serif" font-size="14.00">gamma_2 : FloatArray</text>
<text text-anchor="start" x="1814.54" y="-1099.8" font-family="Times,serif" font-size="14.00">gamma_2T : FloatArray</text>
<text text-anchor="start" x="1814.54" y="-1085.8" font-family="Times,serif" font-size="14.00">gamma_3 : FloatArray</text>
<text text-anchor="start" x="1814.54" y="-1071.8" font-family="Times,serif" font-size="14.00">gamma_3T : FloatArray</text>
<text text-anchor="start" x="1814.54" y="-1057.8" font-family="Times,serif" font-size="14.00">gamma_4 : FloatArray</text>
<text text-anchor="start" x="1814.54" y="-1043.8" font-family="Times,serif" font-size="14.00">gamma_5 : FloatArray</text>
<text text-anchor="start" x="1814.54" y="-1029.8" font-family="Times,serif" font-size="14.00">ke : FloatArray</text>
<text text-anchor="start" x="1814.54" y="-1015.8" font-family="Times,serif" font-size="14.00">ke_2</text>
<text text-anchor="start" x="1814.54" y="-1001.8" font-family="Times,serif" font-size="14.00">ke_2 : NoneType</text>
<text text-anchor="start" x="1814.54" y="-987.8" font-family="Times,serif" font-size="14.00">keke</text>
<text text-anchor="start" x="1814.54" y="-973.8" font-family="Times,serif" font-size="14.00">keke : NoneType</text>
<text text-anchor="start" x="1814.54" y="-959.8" font-family="Times,serif" font-size="14.00">ki : FloatArray</text>
<text text-anchor="start" x="1814.54" y="-945.8" font-family="Times,serif" font-size="14.00">ki_2</text>
<text text-anchor="start" x="1814.54" y="-931.8" font-family="Times,serif" font-size="14.00">ki_2 : NoneType</text>
<text text-anchor="start" x="1814.54" y="-917.8" font-family="Times,serif" font-size="14.00">kiki</text>
<text text-anchor="start" x="1814.54" y="-903.8" font-family="Times,serif" font-size="14.00">kiki : NoneType</text>
<text text-anchor="start" x="1814.54" y="-889.8" font-family="Times,serif" font-size="14.00">rho_1 : FloatArray</text>
<text text-anchor="start" x="1814.54" y="-875.8" font-family="Times,serif" font-size="14.00">rho_2 : FloatArray</text>
<text text-anchor="start" x="1814.54" y="-861.8" font-family="Times,serif" font-size="14.00">state_variable_range : Dict</text>
<text text-anchor="start" x="1814.54" y="-847.8" font-family="Times,serif" font-size="14.00">state_variables</text>
<text text-anchor="start" x="1814.54" y="-833.8" font-family="Times,serif" font-size="14.00">ui_configurable_parameters : list</text>
<text text-anchor="start" x="1814.54" y="-819.8" font-family="Times,serif" font-size="14.00">variables_of_interest : Enumerate</text>
<polyline fill="none" stroke="black" points="1806.54,-813 2011.46,-813 "/>
<text text-anchor="start" x="1814.54" y="-797.8" font-family="Times,serif" font-size="14.00">dfun()</text>
<text text-anchor="start" x="1814.54" y="-783.8" font-family="Times,serif" font-size="14.00">sigma_fun()</text>
<text text-anchor="start" x="1814.54" y="-769.8" font-family="Times,serif" font-size="14.00">update_derived_parameters()</text>
</g>
<!-- 14&#45;&gt;7 -->
<g id="edge14" class="edge"><title>14&#45;&gt;7</title>
<path fill="none" stroke="black" d="M1806.36,-1325.33C1803.33,-1328.32 1800.21,-1331.21 1797,-1334 1722.94,-1398.36 1451.17,-1444.37 1296.18,-1466.03"/>
<polygon fill="none" stroke="black" points="1295.57,-1462.59 1286.15,-1467.43 1296.53,-1469.52 1295.57,-1462.59"/>
</g>
</g>
</svg>
