<?xml version="1.0" encoding="UTF-8" standalone="no"?>
<!DOCTYPE svg PUBLIC "-//W3C//DTD SVG 1.1//EN"
 "http://www.w3.org/Graphics/SVG/1.1/DTD/svg11.dtd">
<!-- Generated by graphviz version 2.36.0 (20140111.2315)
 -->
<!-- Title: classes_monitors Pages: 1 -->
<svg width="1543pt" height="662pt"
 viewBox="0.00 0.00 1543.00 662.00" xmlns="http://www.w3.org/2000/svg" xmlns:xlink="http://www.w3.org/1999/xlink">
<g id="graph0" class="graph" transform="scale(1 1) rotate(0) translate(4 658)">
<title>classes_monitors</title>
<polygon fill="white" stroke="none" points="-4,4 -4,-658 1539,-658 1539,4 -4,4"/>
<!-- 0 -->
<g id="node1" class="node"><title>0</title>
<polygon fill="none" stroke="black" points="1262.02,-231 1262.02,-381 1535.98,-381 1535.98,-231 1262.02,-231"/>
<text text-anchor="middle" x="1399" y="-365.8" font-family="Times,serif" font-size="14.00">Bold</text>
<polyline fill="none" stroke="black" points="1262.02,-359 1535.98,-359 "/>
<text text-anchor="start" x="1270.02" y="-343.8" font-family="Times,serif" font-size="14.00">hemodynamic_response_function</text>
<text text-anchor="start" x="1270.02" y="-329.8" font-family="Times,serif" font-size="14.00">hemodynamic_response_function : NoneType</text>
<text text-anchor="start" x="1270.02" y="-315.8" font-family="Times,serif" font-size="14.00">hrf_kernel : HRFKernelEquation</text>
<text text-anchor="start" x="1270.02" y="-301.8" font-family="Times,serif" font-size="14.00">hrf_length : Float</text>
<text text-anchor="start" x="1270.02" y="-287.8" font-family="Times,serif" font-size="14.00">period : Float</text>
<polyline fill="none" stroke="black" points="1262.02,-281 1535.98,-281 "/>
<text text-anchor="start" x="1270.02" y="-265.8" font-family="Times,serif" font-size="14.00">compute_hrf()</text>
<text text-anchor="start" x="1270.02" y="-251.8" font-family="Times,serif" font-size="14.00">config_for_sim()</text>
<text text-anchor="start" x="1270.02" y="-237.8" font-family="Times,serif" font-size="14.00">sample()</text>
</g>
<!-- 5 -->
<g id="node6" class="node"><title>5</title>
<polygon fill="none" stroke="black" points="697.71,-447 697.71,-653 914.29,-653 914.29,-447 697.71,-447"/>
<text text-anchor="middle" x="806" y="-637.8" font-family="Times,serif" font-size="14.00">Monitor</text>
<polyline fill="none" stroke="black" points="697.71,-631 914.29,-631 "/>
<text text-anchor="start" x="705.71" y="-615.8" font-family="Times,serif" font-size="14.00">dt</text>
<text text-anchor="start" x="705.71" y="-601.8" font-family="Times,serif" font-size="14.00">dt : NoneType</text>
<text text-anchor="start" x="705.71" y="-587.8" font-family="Times,serif" font-size="14.00">istep</text>
<text text-anchor="start" x="705.71" y="-573.8" font-family="Times,serif" font-size="14.00">istep : NoneType</text>
<text text-anchor="start" x="705.71" y="-559.8" font-family="Times,serif" font-size="14.00">period : Float</text>
<text text-anchor="start" x="705.71" y="-545.8" font-family="Times,serif" font-size="14.00">variables_of_interest : IntegerArray</text>
<text text-anchor="start" x="705.71" y="-531.8" font-family="Times,serif" font-size="14.00">voi : IntegerArray</text>
<text text-anchor="start" x="705.71" y="-517.8" font-family="Times,serif" font-size="14.00">voi : NoneType</text>
<polyline fill="none" stroke="black" points="697.71,-511 914.29,-511 "/>
<text text-anchor="start" x="705.71" y="-495.8" font-family="Times,serif" font-size="14.00">config_for_sim()</text>
<text text-anchor="start" x="705.71" y="-481.8" font-family="Times,serif" font-size="14.00">create_time_series()</text>
<text text-anchor="start" x="705.71" y="-467.8" font-family="Times,serif" font-size="14.00">record()</text>
<text text-anchor="start" x="705.71" y="-453.8" font-family="Times,serif" font-size="14.00">sample()</text>
</g>
<!-- 0&#45;&gt;5 -->
<g id="edge1" class="edge"><title>0&#45;&gt;5</title>
<path fill="none" stroke="black" d="M1301.95,-381.18C1285.77,-391.718 1268.78,-401.756 1252,-410 1146.12,-462.016 1016.58,-499.796 924.447,-522.725"/>
<polygon fill="none" stroke="black" points="923.398,-519.378 914.528,-525.172 925.075,-526.175 923.398,-519.378"/>
</g>
<!-- 1 -->
<g id="node2" class="node"><title>1</title>
<polygon fill="none" stroke="black" points="1343.56,-43 1343.56,-123 1454.44,-123 1454.44,-43 1343.56,-43"/>
<text text-anchor="middle" x="1399" y="-107.8" font-family="Times,serif" font-size="14.00">BoldRegionROI</text>
<polyline fill="none" stroke="black" points="1343.56,-101 1454.44,-101 "/>
<text text-anchor="start" x="1351.56" y="-85.8" font-family="Times,serif" font-size="14.00">region_mapping</text>
<polyline fill="none" stroke="black" points="1343.56,-79 1454.44,-79 "/>
<text text-anchor="start" x="1351.56" y="-63.8" font-family="Times,serif" font-size="14.00">config_for_sim()</text>
<text text-anchor="start" x="1351.56" y="-49.8" font-family="Times,serif" font-size="14.00">sample()</text>
</g>
<!-- 1&#45;&gt;0 -->
<g id="edge2" class="edge"><title>1&#45;&gt;0</title>
<path fill="none" stroke="black" d="M1399,-123.002C1399,-149.953 1399,-186.85 1399,-220.378"/>
<polygon fill="none" stroke="black" points="1395.5,-220.661 1399,-230.661 1402.5,-220.661 1395.5,-220.661"/>
</g>
<!-- 2 -->
<g id="node3" class="node"><title>2</title>
<polygon fill="none" stroke="black" points="128.42,-1 128.42,-165 339.58,-165 339.58,-1 128.42,-1"/>
<text text-anchor="middle" x="234" y="-149.8" font-family="Times,serif" font-size="14.00">EEG</text>
<polyline fill="none" stroke="black" points="128.42,-143 339.58,-143 "/>
<text text-anchor="start" x="136.42" y="-127.8" font-family="Times,serif" font-size="14.00">projection : ProjectionSurfaceEEG</text>
<text text-anchor="start" x="136.42" y="-113.8" font-family="Times,serif" font-size="14.00">reference : String</text>
<text text-anchor="start" x="136.42" y="-99.8" font-family="Times,serif" font-size="14.00">sensors : SensorsEEG</text>
<text text-anchor="start" x="136.42" y="-85.8" font-family="Times,serif" font-size="14.00">sigma : Float</text>
<polyline fill="none" stroke="black" points="128.42,-79 339.58,-79 "/>
<text text-anchor="start" x="136.42" y="-63.8" font-family="Times,serif" font-size="14.00">analytic()</text>
<text text-anchor="start" x="136.42" y="-49.8" font-family="Times,serif" font-size="14.00">config_for_sim()</text>
<text text-anchor="start" x="136.42" y="-35.8" font-family="Times,serif" font-size="14.00">create_time_series()</text>
<text text-anchor="start" x="136.42" y="-21.8" font-family="Times,serif" font-size="14.00">from_file()</text>
<text text-anchor="start" x="136.42" y="-7.8" font-family="Times,serif" font-size="14.00">sample()</text>
</g>
<!-- 7 -->
<g id="node8" class="node"><title>7</title>
<polygon fill="none" stroke="black" points="360.179,-203 360.179,-409 569.821,-409 569.821,-203 360.179,-203"/>
<text text-anchor="middle" x="465" y="-393.8" font-family="Times,serif" font-size="14.00">Projection</text>
<polyline fill="none" stroke="black" points="360.179,-387 569.821,-387 "/>
<text text-anchor="start" x="368.179" y="-371.8" font-family="Times,serif" font-size="14.00">gain</text>
<text text-anchor="start" x="368.179" y="-357.8" font-family="Times,serif" font-size="14.00">gain : property</text>
<text text-anchor="start" x="368.179" y="-343.8" font-family="Times,serif" font-size="14.00">projection : ProjectionMatrix</text>
<text text-anchor="start" x="368.179" y="-329.8" font-family="Times,serif" font-size="14.00">region_mapping : RegionMapping</text>
<text text-anchor="start" x="368.179" y="-315.8" font-family="Times,serif" font-size="14.00">rmap : RegionMapping</text>
<text text-anchor="start" x="368.179" y="-301.8" font-family="Times,serif" font-size="14.00">rmap : property</text>
<text text-anchor="start" x="368.179" y="-287.8" font-family="Times,serif" font-size="14.00">sensors</text>
<polyline fill="none" stroke="black" points="360.179,-281 569.821,-281 "/>
<text text-anchor="start" x="368.179" y="-265.8" font-family="Times,serif" font-size="14.00">analytic()</text>
<text text-anchor="start" x="368.179" y="-251.8" font-family="Times,serif" font-size="14.00">config_for_sim()</text>
<text text-anchor="start" x="368.179" y="-237.8" font-family="Times,serif" font-size="14.00">from_file()</text>
<text text-anchor="start" x="368.179" y="-223.8" font-family="Times,serif" font-size="14.00">oriented_gain()</text>
<text text-anchor="start" x="368.179" y="-209.8" font-family="Times,serif" font-size="14.00">sample()</text>
</g>
<!-- 2&#45;&gt;7 -->
<g id="edge3" class="edge"><title>2&#45;&gt;7</title>
<path fill="none" stroke="black" d="M318.704,-165.037C329.689,-175.547 341.076,-186.44 352.424,-197.297"/>
<polygon fill="none" stroke="black" points="350.226,-200.039 359.872,-204.423 355.065,-194.981 350.226,-200.039"/>
</g>
<!-- 3 -->
<g id="node4" class="node"><title>3</title>
<polygon fill="none" stroke="black" points="-0.745117,-265 -0.745117,-347 128.745,-347 128.745,-265 -0.745117,-265"/>
<text text-anchor="middle" x="64" y="-331.8" font-family="Times,serif" font-size="14.00">GlobalAverage</text>
<polyline fill="none" stroke="black" points="-0.745117,-325 128.745,-325 "/>
<polyline fill="none" stroke="black" points="-0.745117,-301 128.745,-301 "/>
<text text-anchor="start" x="7.25488" y="-285.8" font-family="Times,serif" font-size="14.00">create_time_series()</text>
<text text-anchor="start" x="7.25488" y="-271.8" font-family="Times,serif" font-size="14.00">sample()</text>
</g>
<!-- 3&#45;&gt;5 -->
<g id="edge4" class="edge"><title>3&#45;&gt;5</title>
<path fill="none" stroke="black" d="M83.0401,-347.234C95.419,-369.087 113.618,-394.696 137,-410 226.261,-468.423 520.323,-513.365 687.35,-534.93"/>
<polygon fill="none" stroke="black" points="687.307,-538.453 697.671,-536.254 688.197,-531.51 687.307,-538.453"/>
</g>
<!-- 4 -->
<g id="node5" class="node"><title>4</title>
<polygon fill="none" stroke="black" points="357.472,-29 357.472,-137 572.528,-137 572.528,-29 357.472,-29"/>
<text text-anchor="middle" x="465" y="-121.8" font-family="Times,serif" font-size="14.00">MEG</text>
<polyline fill="none" stroke="black" points="357.472,-115 572.528,-115 "/>
<text text-anchor="start" x="365.472" y="-99.8" font-family="Times,serif" font-size="14.00">projection : ProjectionSurfaceMEG</text>
<text text-anchor="start" x="365.472" y="-85.8" font-family="Times,serif" font-size="14.00">sensors : SensorsMEG</text>
<polyline fill="none" stroke="black" points="357.472,-79 572.528,-79 "/>
<text text-anchor="start" x="365.472" y="-63.8" font-family="Times,serif" font-size="14.00">analytic()</text>
<text text-anchor="start" x="365.472" y="-49.8" font-family="Times,serif" font-size="14.00">create_time_series()</text>
<text text-anchor="start" x="365.472" y="-35.8" font-family="Times,serif" font-size="14.00">from_file()</text>
</g>
<!-- 4&#45;&gt;7 -->
<g id="edge5" class="edge"><title>4&#45;&gt;7</title>
<path fill="none" stroke="black" d="M465,-137.216C465,-154.075 465,-173.392 465,-192.779"/>
<polygon fill="none" stroke="black" points="461.5,-192.912 465,-202.912 468.5,-192.912 461.5,-192.912"/>
</g>
<!-- 6 -->
<g id="node7" class="node"><title>6</title>
<polygon fill="none" stroke="black" points="146.289,-266 146.289,-346 341.711,-346 341.711,-266 146.289,-266"/>
<text text-anchor="middle" x="244" y="-330.8" font-family="Times,serif" font-size="14.00">ProgressLogger</text>
<polyline fill="none" stroke="black" points="146.289,-324 341.711,-324 "/>
<text text-anchor="start" x="154.289" y="-308.8" font-family="Times,serif" font-size="14.00">logger : NoneType, RootLogger</text>
<polyline fill="none" stroke="black" points="146.289,-302 341.711,-302 "/>
<text text-anchor="start" x="154.289" y="-286.8" font-family="Times,serif" font-size="14.00">config_for_sim()</text>
<text text-anchor="start" x="154.289" y="-272.8" font-family="Times,serif" font-size="14.00">record()</text>
</g>
<!-- 6&#45;&gt;5 -->
<g id="edge6" class="edge"><title>6&#45;&gt;5</title>
<path fill="none" stroke="black" d="M276.391,-346.209C296.006,-367.726 322.659,-393.34 351,-410 456.393,-471.953 592.014,-508.732 687.678,-528.738"/>
<polygon fill="none" stroke="black" points="687.181,-532.209 697.681,-530.799 688.594,-525.353 687.181,-532.209"/>
</g>
<!-- 7&#45;&gt;5 -->
<g id="edge7" class="edge"><title>7&#45;&gt;5</title>
<path fill="none" stroke="black" d="M569.997,-403.114C573.005,-405.464 576.009,-407.764 579,-410 613.433,-435.749 652.821,-461.142 689.015,-483.036"/>
<polygon fill="none" stroke="black" points="687.281,-486.078 697.654,-488.233 690.889,-480.079 687.281,-486.078"/>
</g>
<!-- 8 -->
<g id="node9" class="node"><title>8</title>
<polygon fill="none" stroke="black" points="587.71,-238 587.71,-374 804.29,-374 804.29,-238 587.71,-238"/>
<text text-anchor="middle" x="696" y="-358.8" font-family="Times,serif" font-size="14.00">Raw</text>
<polyline fill="none" stroke="black" points="587.71,-352 804.29,-352 "/>
<text text-anchor="start" x="595.71" y="-336.8" font-family="Times,serif" font-size="14.00">istep : int</text>
<text text-anchor="start" x="595.71" y="-322.8" font-family="Times,serif" font-size="14.00">period</text>
<text text-anchor="start" x="595.71" y="-308.8" font-family="Times,serif" font-size="14.00">period : Float</text>
<text text-anchor="start" x="595.71" y="-294.8" font-family="Times,serif" font-size="14.00">variables_of_interest : IntegerArray</text>
<text text-anchor="start" x="595.71" y="-280.8" font-family="Times,serif" font-size="14.00">voi</text>
<polyline fill="none" stroke="black" points="587.71,-274 804.29,-274 "/>
<text text-anchor="start" x="595.71" y="-258.8" font-family="Times,serif" font-size="14.00">config_for_sim()</text>
<text text-anchor="start" x="595.71" y="-244.8" font-family="Times,serif" font-size="14.00">sample()</text>
</g>
<!-- 8&#45;&gt;5 -->
<g id="edge8" class="edge"><title>8&#45;&gt;5</title>
<path fill="none" stroke="black" d="M726.495,-374.089C735.452,-393.795 745.499,-415.898 755.358,-437.588"/>
<polygon fill="none" stroke="black" points="752.244,-439.195 759.568,-446.85 758.617,-436.298 752.244,-439.195"/>
</g>
<!-- 9 -->
<g id="node10" class="node"><title>9</title>
<polygon fill="none" stroke="black" points="822.296,-231 822.296,-381 1011.7,-381 1011.7,-231 822.296,-231"/>
<text text-anchor="middle" x="917" y="-365.8" font-family="Times,serif" font-size="14.00">SpatialAverage</text>
<polyline fill="none" stroke="black" points="822.296,-359 1011.7,-359 "/>
<text text-anchor="start" x="830.296" y="-343.8" font-family="Times,serif" font-size="14.00">default_mask : Enumerate</text>
<text text-anchor="start" x="830.296" y="-329.8" font-family="Times,serif" font-size="14.00">is_default_special_mask : bool</text>
<text text-anchor="start" x="830.296" y="-315.8" font-family="Times,serif" font-size="14.00">spatial_mask</text>
<text text-anchor="start" x="830.296" y="-301.8" font-family="Times,serif" font-size="14.00">spatial_mask : IntegerArray</text>
<text text-anchor="start" x="830.296" y="-287.8" font-family="Times,serif" font-size="14.00">spatial_mean</text>
<polyline fill="none" stroke="black" points="822.296,-281 1011.7,-281 "/>
<text text-anchor="start" x="830.296" y="-265.8" font-family="Times,serif" font-size="14.00">config_for_sim()</text>
<text text-anchor="start" x="830.296" y="-251.8" font-family="Times,serif" font-size="14.00">create_time_series()</text>
<text text-anchor="start" x="830.296" y="-237.8" font-family="Times,serif" font-size="14.00">sample()</text>
</g>
<!-- 9&#45;&gt;5 -->
<g id="edge9" class="edge"><title>9&#45;&gt;5</title>
<path fill="none" stroke="black" d="M882.942,-381.253C874.782,-399.043 865.891,-418.427 857.145,-437.495"/>
<polygon fill="none" stroke="black" points="853.855,-436.273 852.867,-446.822 860.217,-439.191 853.855,-436.273"/>
</g>
<!-- 10 -->
<g id="node11" class="node"><title>10</title>
<polygon fill="none" stroke="black" points="1030.11,-272 1030.11,-340 1109.89,-340 1109.89,-272 1030.11,-272"/>
<text text-anchor="middle" x="1070" y="-324.8" font-family="Times,serif" font-size="14.00">SubSample</text>
<polyline fill="none" stroke="black" points="1030.11,-318 1109.89,-318 "/>
<polyline fill="none" stroke="black" points="1030.11,-294 1109.89,-294 "/>
<text text-anchor="start" x="1038.11" y="-278.8" font-family="Times,serif" font-size="14.00">sample()</text>
</g>
<!-- 10&#45;&gt;5 -->
<g id="edge10" class="edge"><title>10&#45;&gt;5</title>
<path fill="none" stroke="black" d="M1059.14,-340.32C1050.89,-361.933 1037.89,-389.736 1020,-410 992.832,-440.767 957.3,-467.471 923.016,-489.022"/>
<polygon fill="none" stroke="black" points="920.998,-486.154 914.332,-494.389 924.679,-492.109 920.998,-486.154"/>
</g>
<!-- 11 -->
<g id="node12" class="node"><title>11</title>
<polygon fill="none" stroke="black" points="1128.09,-265 1128.09,-347 1243.91,-347 1243.91,-265 1128.09,-265"/>
<text text-anchor="middle" x="1186" y="-331.8" font-family="Times,serif" font-size="14.00">TemporalAverage</text>
<polyline fill="none" stroke="black" points="1128.09,-325 1243.91,-325 "/>
<polyline fill="none" stroke="black" points="1128.09,-301 1243.91,-301 "/>
<text text-anchor="start" x="1136.09" y="-285.8" font-family="Times,serif" font-size="14.00">config_for_sim()</text>
<text text-anchor="start" x="1136.09" y="-271.8" font-family="Times,serif" font-size="14.00">sample()</text>
</g>
<!-- 11&#45;&gt;5 -->
<g id="edge11" class="edge"><title>11&#45;&gt;5</title>
<path fill="none" stroke="black" d="M1166.57,-347.209C1154.85,-368.115 1138.27,-392.818 1118,-410 1061.75,-457.69 986.516,-491.849 924.023,-514.368"/>
<polygon fill="none" stroke="black" points="922.758,-511.103 914.503,-517.745 925.098,-517.7 922.758,-511.103"/>
</g>
<!-- 12 -->
<g id="node13" class="node"><title>12</title>
<polygon fill="none" stroke="black" points="590.527,-22 590.527,-144 809.473,-144 809.473,-22 590.527,-22"/>
<text text-anchor="middle" x="700" y="-128.8" font-family="Times,serif" font-size="14.00">iEEG</text>
<polyline fill="none" stroke="black" points="590.527,-122 809.473,-122 "/>
<text text-anchor="start" x="598.527" y="-106.8" font-family="Times,serif" font-size="14.00">projection : ProjectionSurfaceSEEG</text>
<text text-anchor="start" x="598.527" y="-92.8" font-family="Times,serif" font-size="14.00">sensors : SensorsInternal</text>
<text text-anchor="start" x="598.527" y="-78.8" font-family="Times,serif" font-size="14.00">sigma : Float</text>
<polyline fill="none" stroke="black" points="590.527,-72 809.473,-72 "/>
<text text-anchor="start" x="598.527" y="-56.8" font-family="Times,serif" font-size="14.00">analytic()</text>
<text text-anchor="start" x="598.527" y="-42.8" font-family="Times,serif" font-size="14.00">create_time_series()</text>
<text text-anchor="start" x="598.527" y="-28.8" font-family="Times,serif" font-size="14.00">from_file()</text>
</g>
<!-- 12&#45;&gt;7 -->
<g id="edge12" class="edge"><title>12&#45;&gt;7</title>
<path fill="none" stroke="black" d="M636.096,-144.097C617.938,-161.173 597.608,-180.292 577.475,-199.226"/>
<polygon fill="none" stroke="black" points="574.957,-196.789 570.07,-206.189 579.753,-201.888 574.957,-196.789"/>
</g>
</g>
</svg>
