<?xml version="1.0" encoding="UTF-8" standalone="no"?>
<!DOCTYPE svg PUBLIC "-//W3C//DTD SVG 1.1//EN"
 "http://www.w3.org/Graphics/SVG/1.1/DTD/svg11.dtd">
<!-- Generated by graphviz version 2.36.0 (20140111.2315)
 -->
<!-- Title: classes_noise Pages: 1 -->
<svg width="476pt" height="380pt"
 viewBox="0.00 0.00 476.00 380.00" xmlns="http://www.w3.org/2000/svg" xmlns:xlink="http://www.w3.org/1999/xlink">
<g id="graph0" class="graph" transform="scale(1 1) rotate(0) translate(4 376)">
<title>classes_noise</title>
<polygon fill="white" stroke="none" points="-4,4 -4,-376 472,-376 472,4 -4,4"/>
<!-- 0 -->
<g id="node1" class="node"><title>0</title>
<polygon fill="none" stroke="black" points="0,-30.5 0,-99.5 112,-99.5 112,-30.5 0,-30.5"/>
<text text-anchor="middle" x="56" y="-84.3" font-family="Times,serif" font-size="14.00">Additive</text>
<polyline fill="none" stroke="black" points="0,-76.5 112,-76.5 "/>
<text text-anchor="start" x="8" y="-61.3" font-family="Times,serif" font-size="14.00">nsig : FloatArray</text>
<polyline fill="none" stroke="black" points="0,-53.5 112,-53.5 "/>
<text text-anchor="start" x="8" y="-38.3" font-family="Times,serif" font-size="14.00">gfun()</text>
</g>
<!-- 2 -->
<g id="node3" class="node"><title>2</title>
<polygon fill="none" stroke="black" points="163.5,-182.5 163.5,-371.5 298.5,-371.5 298.5,-182.5 163.5,-182.5"/>
<text text-anchor="middle" x="231" y="-356.3" font-family="Times,serif" font-size="14.00">Noise</text>
<polyline fill="none" stroke="black" points="163.5,-348.5 298.5,-348.5 "/>
<text text-anchor="start" x="171.5" y="-333.3" font-family="Times,serif" font-size="14.00">dt</text>
<text text-anchor="start" x="171.5" y="-318.3" font-family="Times,serif" font-size="14.00">ntau : Float</text>
<text text-anchor="start" x="171.5" y="-303.3" font-family="Times,serif" font-size="14.00">random_stream</text>
<text text-anchor="start" x="171.5" y="-288.3" font-family="Times,serif" font-size="14.00">dt : NoneType</text>
<polyline fill="none" stroke="black" points="163.5,-280.5 298.5,-280.5 "/>
<text text-anchor="start" x="171.5" y="-265.3" font-family="Times,serif" font-size="14.00">configure_white()</text>
<text text-anchor="start" x="171.5" y="-250.3" font-family="Times,serif" font-size="14.00">white()</text>
<text text-anchor="start" x="171.5" y="-235.3" font-family="Times,serif" font-size="14.00">generate()</text>
<text text-anchor="start" x="171.5" y="-220.3" font-family="Times,serif" font-size="14.00">configure_coloured()</text>
<text text-anchor="start" x="171.5" y="-205.3" font-family="Times,serif" font-size="14.00">coloured()</text>
<text text-anchor="start" x="171.5" y="-190.3" font-family="Times,serif" font-size="14.00">configure()</text>
</g>
<!-- 0&#45;&gt;2 -->
<g id="edge1" class="edge"><title>0&#45;&gt;2</title>
<path fill="none" stroke="black" d="M84.1168,-99.7401C103.801,-123.361 131.077,-156.093 156.787,-186.944"/>
<polygon fill="none" stroke="black" points="154.193,-189.299 163.284,-194.74 159.571,-184.818 154.193,-189.299"/>
</g>
<!-- 1 -->
<g id="node2" class="node"><title>1</title>
<polygon fill="none" stroke="black" points="130.5,-23 130.5,-107 331.5,-107 331.5,-23 130.5,-23"/>
<text text-anchor="middle" x="231" y="-91.8" font-family="Times,serif" font-size="14.00">Multiplicative</text>
<polyline fill="none" stroke="black" points="130.5,-84 331.5,-84 "/>
<text text-anchor="start" x="138.5" y="-68.8" font-family="Times,serif" font-size="14.00">b : TemporalApplicableEquation</text>
<text text-anchor="start" x="138.5" y="-53.8" font-family="Times,serif" font-size="14.00">nsig : FloatArray</text>
<polyline fill="none" stroke="black" points="130.5,-46 331.5,-46 "/>
<text text-anchor="start" x="138.5" y="-30.8" font-family="Times,serif" font-size="14.00">gfun()</text>
</g>
<!-- 1&#45;&gt;2 -->
<g id="edge2" class="edge"><title>1&#45;&gt;2</title>
<path fill="none" stroke="black" d="M231,-107.239C231,-125.968 231,-149.053 231,-172.069"/>
<polygon fill="none" stroke="black" points="227.5,-172.269 231,-182.269 234.5,-172.269 227.5,-172.269"/>
</g>
<!-- 3 -->
<g id="node4" class="node"><title>3</title>
<polygon fill="none" stroke="black" points="350,-0.5 350,-129.5 468,-129.5 468,-0.5 350,-0.5"/>
<text text-anchor="middle" x="409" y="-114.3" font-family="Times,serif" font-size="14.00">RandomStream</text>
<polyline fill="none" stroke="black" points="350,-106.5 468,-106.5 "/>
<text text-anchor="start" x="358" y="-91.3" font-family="Times,serif" font-size="14.00">wraps</text>
<text text-anchor="start" x="358" y="-76.3" font-family="Times,serif" font-size="14.00">defaults : tuple</text>
<text text-anchor="start" x="358" y="-61.3" font-family="Times,serif" font-size="14.00">init_seed : Integer</text>
<polyline fill="none" stroke="black" points="350,-53.5 468,-53.5 "/>
<text text-anchor="start" x="358" y="-38.3" font-family="Times,serif" font-size="14.00">reset()</text>
<text text-anchor="start" x="358" y="-23.3" font-family="Times,serif" font-size="14.00">set_state()</text>
<text text-anchor="start" x="358" y="-8.3" font-family="Times,serif" font-size="14.00">configure()</text>
</g>
<!-- 3&#45;&gt;2 -->
<g id="edge3" class="edge"><title>3&#45;&gt;2</title>
<path fill="none" stroke="black" d="M355.111,-129.577C339.81,-147.628 322.861,-167.625 306.531,-186.891"/>
<polygon fill="black" stroke="black" points="306.333,-187.124 305.505,-194.288 298.574,-196.278 299.402,-189.115 306.333,-187.124"/>
<text text-anchor="middle" x="380" y="-152.3" font-family="Times,serif" font-size="14.00" fill="green">random_stream</text>
</g>
</g>
</svg>
