<?xml version="1.0" encoding="UTF-8" standalone="no"?>
<!DOCTYPE svg PUBLIC "-//W3C//DTD SVG 1.1//EN"
 "http://www.w3.org/Graphics/SVG/1.1/DTD/svg11.dtd">
<!-- Generated by graphviz version 2.36.0 (20140111.2315)
 -->
<!-- Title: classes_integrators Pages: 1 -->
<svg width="1049pt" height="436pt"
 viewBox="0.00 0.00 1049.00 436.00" xmlns="http://www.w3.org/2000/svg" xmlns:xlink="http://www.w3.org/1999/xlink">
<g id="graph0" class="graph" transform="scale(1 1) rotate(0) translate(4 432)">
<title>classes_integrators</title>
<polygon fill="white" stroke="none" points="-4,4 -4,-432 1045,-432 1045,4 -4,4"/>
<!-- 0 -->
<g id="node1" class="node"><title>0</title>
<polygon fill="none" stroke="black" points="741.445,-107 741.445,-175 802.555,-175 802.555,-107 741.445,-107"/>
<text text-anchor="middle" x="772" y="-159.8" font-family="Times,serif" font-size="14.00">Dop853</text>
<polyline fill="none" stroke="black" points="741.445,-153 802.555,-153 "/>
<polyline fill="none" stroke="black" points="741.445,-129 802.555,-129 "/>
<text text-anchor="middle" x="772" y="-113.8" font-family="Times,serif" font-size="14.00"> </text>
</g>
<!-- 9 -->
<g id="node10" class="node"><title>9</title>
<polygon fill="none" stroke="black" points="452.003,-213 452.003,-321 729.997,-321 729.997,-213 452.003,-213"/>
<text text-anchor="middle" x="591" y="-305.8" font-family="Times,serif" font-size="14.00">Integrator</text>
<polyline fill="none" stroke="black" points="452.003,-299 729.997,-299 "/>
<text text-anchor="start" x="460.003" y="-283.8" font-family="Times,serif" font-size="14.00">clamped_state_variable_indices : IntegerArray</text>
<text text-anchor="start" x="460.003" y="-269.8" font-family="Times,serif" font-size="14.00">clamped_state_variable_values : FloatArray</text>
<text text-anchor="start" x="460.003" y="-255.8" font-family="Times,serif" font-size="14.00">dt : Float</text>
<polyline fill="none" stroke="black" points="452.003,-249 729.997,-249 "/>
<text text-anchor="start" x="460.003" y="-233.8" font-family="Times,serif" font-size="14.00">clamp_state()</text>
<text text-anchor="start" x="460.003" y="-219.8" font-family="Times,serif" font-size="14.00">scheme()</text>
</g>
<!-- 0&#45;&gt;9 -->
<g id="edge1" class="edge"><title>0&#45;&gt;9</title>
<path fill="none" stroke="black" d="M741.331,-168.786C738.224,-171.282 735.079,-173.725 732,-176 717.712,-186.556 702.201,-197.206 686.868,-207.303"/>
<polygon fill="none" stroke="black" points="684.834,-204.451 678.377,-212.851 688.663,-210.311 684.834,-204.451"/>
</g>
<!-- 12 -->
<g id="node13" class="node"><title>12</title>
<polygon fill="none" stroke="black" points="831.276,-233 831.276,-301 908.724,-301 908.724,-233 831.276,-233"/>
<text text-anchor="middle" x="870" y="-285.8" font-family="Times,serif" font-size="14.00">SciPyODE</text>
<polyline fill="none" stroke="black" points="831.276,-279 908.724,-279 "/>
<polyline fill="none" stroke="black" points="831.276,-255 908.724,-255 "/>
<text text-anchor="start" x="839.276" y="-239.8" font-family="Times,serif" font-size="14.00">scheme()</text>
</g>
<!-- 0&#45;&gt;12 -->
<g id="edge2" class="edge"><title>0&#45;&gt;12</title>
<path fill="none" stroke="black" d="M798.262,-175.23C810.236,-190.38 824.537,-208.475 837.208,-224.509"/>
<polygon fill="none" stroke="black" points="834.719,-227.003 843.665,-232.679 840.211,-222.663 834.719,-227.003"/>
</g>
<!-- 1 -->
<g id="node2" class="node"><title>1</title>
<polygon fill="none" stroke="black" points="479.672,-1 479.672,-69 598.328,-69 598.328,-1 479.672,-1"/>
<text text-anchor="middle" x="539" y="-53.8" font-family="Times,serif" font-size="14.00">Dop853Stochastic</text>
<polyline fill="none" stroke="black" points="479.672,-47 598.328,-47 "/>
<polyline fill="none" stroke="black" points="479.672,-23 598.328,-23 "/>
<text text-anchor="middle" x="539" y="-7.8" font-family="Times,serif" font-size="14.00"> </text>
</g>
<!-- 10 -->
<g id="node11" class="node"><title>10</title>
<polygon fill="none" stroke="black" points="84.6309,-108 84.6309,-174 213.369,-174 213.369,-108 84.6309,-108"/>
<text text-anchor="middle" x="149" y="-158.8" font-family="Times,serif" font-size="14.00">IntegratorStochastic</text>
<polyline fill="none" stroke="black" points="84.6309,-152 213.369,-152 "/>
<text text-anchor="start" x="92.6309" y="-136.8" font-family="Times,serif" font-size="14.00">noise : Noise</text>
<polyline fill="none" stroke="black" points="84.6309,-130 213.369,-130 "/>
<text text-anchor="middle" x="149" y="-114.8" font-family="Times,serif" font-size="14.00"> </text>
</g>
<!-- 1&#45;&gt;10 -->
<g id="edge3" class="edge"><title>1&#45;&gt;10</title>
<path fill="none" stroke="black" d="M479.448,-45.295C417.283,-55.8631 317.139,-75.329 223.3,-106.135"/>
<polygon fill="none" stroke="black" points="222.036,-102.867 213.655,-109.349 224.249,-109.508 222.036,-102.867"/>
</g>
<!-- 14 -->
<g id="node15" class="node"><title>14</title>
<polygon fill="none" stroke="black" points="966.438,-107 966.438,-175 1041.56,-175 1041.56,-107 966.438,-107"/>
<text text-anchor="middle" x="1004" y="-159.8" font-family="Times,serif" font-size="14.00">SciPySDE</text>
<polyline fill="none" stroke="black" points="966.438,-153 1041.56,-153 "/>
<polyline fill="none" stroke="black" points="966.438,-129 1041.56,-129 "/>
<text text-anchor="start" x="974.438" y="-113.8" font-family="Times,serif" font-size="14.00">scheme()</text>
</g>
<!-- 1&#45;&gt;14 -->
<g id="edge4" class="edge"><title>1&#45;&gt;14</title>
<path fill="none" stroke="black" d="M598.715,-48.9419C630.742,-55.6661 670.934,-63.7588 707,-70 817.613,-89.1413 852.945,-63.8783 957,-106 957.099,-106.04 957.198,-106.081 957.298,-106.121"/>
<polygon fill="none" stroke="black" points="955.901,-109.334 966.427,-110.538 958.95,-103.033 955.901,-109.334"/>
</g>
<!-- 2 -->
<g id="node3" class="node"><title>2</title>
<polygon fill="none" stroke="black" points="820.169,-107 820.169,-175 875.831,-175 875.831,-107 820.169,-107"/>
<text text-anchor="middle" x="848" y="-159.8" font-family="Times,serif" font-size="14.00">Dopri5</text>
<polyline fill="none" stroke="black" points="820.169,-153 875.831,-153 "/>
<polyline fill="none" stroke="black" points="820.169,-129 875.831,-129 "/>
<text text-anchor="middle" x="848" y="-113.8" font-family="Times,serif" font-size="14.00"> </text>
</g>
<!-- 2&#45;&gt;9 -->
<g id="edge5" class="edge"><title>2&#45;&gt;9</title>
<path fill="none" stroke="black" d="M820.145,-169.437C817.167,-171.801 814.093,-174.036 811,-176 788.836,-190.074 764.1,-202.711 739.44,-213.756"/>
<polygon fill="none" stroke="black" points="737.742,-210.68 729.998,-217.911 740.561,-217.087 737.742,-210.68"/>
</g>
<!-- 2&#45;&gt;12 -->
<g id="edge6" class="edge"><title>2&#45;&gt;12</title>
<path fill="none" stroke="black" d="M853.896,-175.23C856.485,-189.824 859.559,-207.151 862.324,-222.735"/>
<polygon fill="none" stroke="black" points="858.895,-223.444 864.088,-232.679 865.787,-222.221 858.895,-223.444"/>
</g>
<!-- 3 -->
<g id="node4" class="node"><title>3</title>
<polygon fill="none" stroke="black" points="716.396,-1 716.396,-69 829.604,-69 829.604,-1 716.396,-1"/>
<text text-anchor="middle" x="773" y="-53.8" font-family="Times,serif" font-size="14.00">Dopri5Stochastic</text>
<polyline fill="none" stroke="black" points="716.396,-47 829.604,-47 "/>
<polyline fill="none" stroke="black" points="716.396,-23 829.604,-23 "/>
<text text-anchor="middle" x="773" y="-7.8" font-family="Times,serif" font-size="14.00"> </text>
</g>
<!-- 3&#45;&gt;10 -->
<g id="edge7" class="edge"><title>3&#45;&gt;10</title>
<path fill="none" stroke="black" d="M716.037,-49.2609C684.125,-56.2876 643.517,-64.565 607,-70 440.764,-94.7418 390.517,-62.8792 223.624,-106.189"/>
<polygon fill="none" stroke="black" points="222.281,-102.924 213.51,-108.868 224.073,-109.691 222.281,-102.924"/>
</g>
<!-- 3&#45;&gt;14 -->
<g id="edge8" class="edge"><title>3&#45;&gt;14</title>
<path fill="none" stroke="black" d="M829.834,-53.3076C867.085,-65.6829 916.245,-84.005 957,-106 957.194,-106.105 957.388,-106.21 957.582,-106.316"/>
<polygon fill="none" stroke="black" points="955.939,-109.41 966.331,-111.476 959.495,-103.381 955.939,-109.41"/>
</g>
<!-- 4 -->
<g id="node5" class="node"><title>4</title>
<polygon fill="none" stroke="black" points="459.741,-108 459.741,-174 582.259,-174 582.259,-108 459.741,-108"/>
<text text-anchor="middle" x="521" y="-158.8" font-family="Times,serif" font-size="14.00">EulerDeterministic</text>
<polyline fill="none" stroke="black" points="459.741,-152 582.259,-152 "/>
<text text-anchor="start" x="467.741" y="-136.8" font-family="Times,serif" font-size="14.00">dX</text>
<polyline fill="none" stroke="black" points="459.741,-130 582.259,-130 "/>
<text text-anchor="start" x="467.741" y="-114.8" font-family="Times,serif" font-size="14.00">scheme()</text>
</g>
<!-- 4&#45;&gt;9 -->
<g id="edge9" class="edge"><title>4&#45;&gt;9</title>
<path fill="none" stroke="black" d="M539.209,-174.256C544.347,-183.358 550.118,-193.581 555.893,-203.811"/>
<polygon fill="none" stroke="black" points="552.99,-205.787 560.954,-212.775 559.085,-202.346 552.99,-205.787"/>
</g>
<!-- 5 -->
<g id="node6" class="node"><title>5</title>
<polygon fill="none" stroke="black" points="158.069,-1 158.069,-69 261.931,-69 261.931,-1 158.069,-1"/>
<text text-anchor="middle" x="210" y="-53.8" font-family="Times,serif" font-size="14.00">EulerStochastic</text>
<polyline fill="none" stroke="black" points="158.069,-47 261.931,-47 "/>
<polyline fill="none" stroke="black" points="158.069,-23 261.931,-23 "/>
<text text-anchor="start" x="166.069" y="-7.8" font-family="Times,serif" font-size="14.00">scheme()</text>
</g>
<!-- 5&#45;&gt;10 -->
<g id="edge10" class="edge"><title>5&#45;&gt;10</title>
<path fill="none" stroke="black" d="M190.532,-69.1922C184.979,-78.659 178.863,-89.0869 173.07,-98.9622"/>
<polygon fill="none" stroke="black" points="169.908,-97.4361 167.867,-107.833 175.946,-100.978 169.908,-97.4361"/>
</g>
<!-- 6 -->
<g id="node7" class="node"><title>6</title>
<polygon fill="none" stroke="black" points="600.738,-107 600.738,-175 723.262,-175 723.262,-107 600.738,-107"/>
<text text-anchor="middle" x="662" y="-159.8" font-family="Times,serif" font-size="14.00">HeunDeterministic</text>
<polyline fill="none" stroke="black" points="600.738,-153 723.262,-153 "/>
<polyline fill="none" stroke="black" points="600.738,-129 723.262,-129 "/>
<text text-anchor="start" x="608.738" y="-113.8" font-family="Times,serif" font-size="14.00">scheme()</text>
</g>
<!-- 6&#45;&gt;9 -->
<g id="edge11" class="edge"><title>6&#45;&gt;9</title>
<path fill="none" stroke="black" d="M642.973,-175.23C637.941,-184.018 632.342,-193.797 626.735,-203.589"/>
<polygon fill="none" stroke="black" points="623.531,-202.141 621.6,-212.558 629.606,-205.619 623.531,-202.141"/>
</g>
<!-- 7 -->
<g id="node8" class="node"><title>7</title>
<polygon fill="none" stroke="black" points="36.0654,-1 36.0654,-69 139.935,-69 139.935,-1 36.0654,-1"/>
<text text-anchor="middle" x="88" y="-53.8" font-family="Times,serif" font-size="14.00">HeunStochastic</text>
<polyline fill="none" stroke="black" points="36.0654,-47 139.935,-47 "/>
<polyline fill="none" stroke="black" points="36.0654,-23 139.935,-23 "/>
<text text-anchor="start" x="44.0654" y="-7.8" font-family="Times,serif" font-size="14.00">scheme()</text>
</g>
<!-- 7&#45;&gt;10 -->
<g id="edge12" class="edge"><title>7&#45;&gt;10</title>
<path fill="none" stroke="black" d="M107.468,-69.1922C113.021,-78.659 119.137,-89.0869 124.93,-98.9622"/>
<polygon fill="none" stroke="black" points="122.054,-100.978 130.133,-107.833 128.092,-97.4361 122.054,-100.978"/>
</g>
<!-- 8 -->
<g id="node9" class="node"><title>8</title>
<polygon fill="none" stroke="black" points="-0.651855,-107 -0.651855,-175 66.6519,-175 66.6519,-107 -0.651855,-107"/>
<text text-anchor="middle" x="33" y="-159.8" font-family="Times,serif" font-size="14.00">Identity</text>
<polyline fill="none" stroke="black" points="-0.651855,-153 66.6519,-153 "/>
<polyline fill="none" stroke="black" points="-0.651855,-129 66.6519,-129 "/>
<text text-anchor="start" x="7.34814" y="-113.8" font-family="Times,serif" font-size="14.00">scheme()</text>
</g>
<!-- 8&#45;&gt;9 -->
<g id="edge13" class="edge"><title>8&#45;&gt;9</title>
<path fill="none" stroke="black" d="M66.7602,-171.07C69.7753,-172.921 72.8731,-174.6 76,-176 192.262,-228.062 335.834,-250.091 441.829,-259.368"/>
<polygon fill="none" stroke="black" points="441.707,-262.87 451.967,-260.227 442.298,-255.895 441.707,-262.87"/>
</g>
<!-- 10&#45;&gt;9 -->
<g id="edge14" class="edge"><title>10&#45;&gt;9</title>
<path fill="none" stroke="black" d="M213.684,-172.567C216.813,-173.778 219.929,-174.93 223,-176 293.594,-200.597 374.044,-221.094 441.682,-236.282"/>
<polygon fill="none" stroke="black" points="441.044,-239.726 451.566,-238.485 442.566,-232.893 441.044,-239.726"/>
</g>
<!-- 11 -->
<g id="node12" class="node"><title>11</title>
<polygon fill="none" stroke="black" points="231.803,-107 231.803,-175 442.197,-175 442.197,-107 231.803,-107"/>
<text text-anchor="middle" x="337" y="-159.8" font-family="Times,serif" font-size="14.00">RungeKutta4thOrderDeterministic</text>
<polyline fill="none" stroke="black" points="231.803,-153 442.197,-153 "/>
<polyline fill="none" stroke="black" points="231.803,-129 442.197,-129 "/>
<text text-anchor="start" x="239.803" y="-113.8" font-family="Times,serif" font-size="14.00">scheme()</text>
</g>
<!-- 11&#45;&gt;9 -->
<g id="edge15" class="edge"><title>11&#45;&gt;9</title>
<path fill="none" stroke="black" d="M404.734,-175.067C425.751,-185.327 449.561,-196.951 472.962,-208.375"/>
<polygon fill="none" stroke="black" points="471.73,-211.669 482.252,-212.91 474.801,-205.378 471.73,-211.669"/>
</g>
<!-- 13 -->
<g id="node14" class="node"><title>13</title>
<polygon fill="none" stroke="black" points="872.669,-359 872.669,-427 977.331,-427 977.331,-359 872.669,-359"/>
<text text-anchor="middle" x="925" y="-411.8" font-family="Times,serif" font-size="14.00">SciPyODEBase</text>
<polyline fill="none" stroke="black" points="872.669,-405 977.331,-405 "/>
<polyline fill="none" stroke="black" points="872.669,-381 977.331,-381 "/>
<text text-anchor="middle" x="925" y="-365.8" font-family="Times,serif" font-size="14.00"> </text>
</g>
<!-- 12&#45;&gt;13 -->
<g id="edge16" class="edge"><title>12&#45;&gt;13</title>
<path fill="none" stroke="black" d="M884.739,-301.23C891.274,-315.963 899.044,-333.482 906.007,-349.18"/>
<polygon fill="none" stroke="black" points="902.966,-350.956 910.22,-358.679 909.365,-348.118 902.966,-350.956"/>
</g>
<!-- 14&#45;&gt;13 -->
<g id="edge17" class="edge"><title>14&#45;&gt;13</title>
<path fill="none" stroke="black" d="M993.509,-175.198C979.373,-219.932 954.19,-299.626 938.611,-348.929"/>
<polygon fill="none" stroke="black" points="935.21,-348.075 935.534,-358.665 941.885,-350.184 935.21,-348.075"/>
</g>
<!-- 15 -->
<g id="node16" class="node"><title>15</title>
<polygon fill="none" stroke="black" points="893.559,-107 893.559,-175 948.441,-175 948.441,-107 893.559,-107"/>
<text text-anchor="middle" x="921" y="-159.8" font-family="Times,serif" font-size="14.00">VODE</text>
<polyline fill="none" stroke="black" points="893.559,-153 948.441,-153 "/>
<polyline fill="none" stroke="black" points="893.559,-129 948.441,-129 "/>
<text text-anchor="middle" x="921" y="-113.8" font-family="Times,serif" font-size="14.00"> </text>
</g>
<!-- 15&#45;&gt;9 -->
<g id="edge18" class="edge"><title>15&#45;&gt;9</title>
<path fill="none" stroke="black" d="M893.325,-169.734C890.31,-172.038 887.179,-174.178 884,-176 839.84,-201.319 787.77,-220.283 739.869,-234.106"/>
<polygon fill="none" stroke="black" points="738.701,-230.799 730.032,-236.89 740.608,-237.535 738.701,-230.799"/>
</g>
<!-- 15&#45;&gt;12 -->
<g id="edge19" class="edge"><title>15&#45;&gt;12</title>
<path fill="none" stroke="black" d="M907.333,-175.23C901.273,-189.963 894.068,-207.482 887.611,-223.18"/>
<polygon fill="none" stroke="black" points="884.272,-222.099 883.705,-232.679 890.746,-224.762 884.272,-222.099"/>
</g>
<!-- 16 -->
<g id="node17" class="node"><title>16</title>
<polygon fill="none" stroke="black" points="897.786,-1 897.786,-69 1010.21,-69 1010.21,-1 897.786,-1"/>
<text text-anchor="middle" x="954" y="-53.8" font-family="Times,serif" font-size="14.00">VODEStochastic</text>
<polyline fill="none" stroke="black" points="897.786,-47 1010.21,-47 "/>
<polyline fill="none" stroke="black" points="897.786,-23 1010.21,-23 "/>
<text text-anchor="middle" x="954" y="-7.8" font-family="Times,serif" font-size="14.00"> </text>
</g>
<!-- 16&#45;&gt;10 -->
<g id="edge20" class="edge"><title>16&#45;&gt;10</title>
<path fill="none" stroke="black" d="M897.67,-55.2953C878.904,-60.9724 857.747,-66.5739 838,-70 571.522,-116.235 490.624,-41.5631 223.465,-106.268"/>
<polygon fill="none" stroke="black" points="222.346,-102.939 213.475,-108.731 224.022,-109.735 222.346,-102.939"/>
</g>
<!-- 16&#45;&gt;14 -->
<g id="edge21" class="edge"><title>16&#45;&gt;14</title>
<path fill="none" stroke="black" d="M969.958,-69.1922C974.288,-78.1982 979.036,-88.0742 983.575,-97.5167"/>
<polygon fill="none" stroke="black" points="980.535,-99.2704 988.022,-106.766 986.844,-96.2373 980.535,-99.2704"/>
</g>
</g>
</svg>
