<?xml version="1.0" encoding="UTF-8" standalone="no"?>
<!DOCTYPE svg PUBLIC "-//W3C//DTD SVG 1.1//EN"
 "http://www.w3.org/Graphics/SVG/1.1/DTD/svg11.dtd">
<!-- Generated by graphviz version 2.36.0 (20140111.2315)
 -->
<!-- Title: classes_coupling Pages: 1 -->
<svg width="752pt" height="458pt"
 viewBox="0.00 0.00 752.00 458.00" xmlns="http://www.w3.org/2000/svg" xmlns:xlink="http://www.w3.org/1999/xlink">
<g id="graph0" class="graph" transform="scale(1 1) rotate(0) translate(4 454)">
<title>classes_coupling</title>
<polygon fill="white" stroke="none" points="-4,4 -4,-454 748,-454 748,4 -4,4"/>
<!-- 0 -->
<g id="node1" class="node"><title>0</title>
<polygon fill="none" stroke="black" points="247.5,-364.5 247.5,-449.5 316.5,-449.5 316.5,-364.5 247.5,-364.5"/>
<text text-anchor="middle" x="282" y="-434.3" font-family="Times,serif" font-size="14.00">Coupling</text>
<polyline fill="none" stroke="black" points="247.5,-426.5 316.5,-426.5 "/>
<polyline fill="none" stroke="black" points="247.5,-402.5 316.5,-402.5 "/>
<text text-anchor="start" x="255.5" y="-387.3" font-family="Times,serif" font-size="14.00">pre()</text>
<text text-anchor="start" x="255.5" y="-372.3" font-family="Times,serif" font-size="14.00">post()</text>
</g>
<!-- 1 -->
<g id="node2" class="node"><title>1</title>
<polygon fill="none" stroke="black" points="184.5,-16 184.5,-100 279.5,-100 279.5,-16 184.5,-16"/>
<text text-anchor="middle" x="232" y="-84.8" font-family="Times,serif" font-size="14.00">Difference</text>
<polyline fill="none" stroke="black" points="184.5,-77 279.5,-77 "/>
<text text-anchor="start" x="192.5" y="-61.8" font-family="Times,serif" font-size="14.00">a : FloatArray</text>
<polyline fill="none" stroke="black" points="184.5,-54 279.5,-54 "/>
<text text-anchor="start" x="192.5" y="-38.8" font-family="Times,serif" font-size="14.00">pre()</text>
<text text-anchor="start" x="192.5" y="-23.8" font-family="Times,serif" font-size="14.00">post()</text>
</g>
<!-- 9 -->
<g id="node10" class="node"><title>9</title>
<polygon fill="none" stroke="black" points="449,-205 449,-275 555,-275 555,-205 449,-205"/>
<text text-anchor="middle" x="502" y="-259.8" font-family="Times,serif" font-size="14.00">SparseCoupling</text>
<polyline fill="none" stroke="black" points="449,-252 555,-252 "/>
<polyline fill="none" stroke="black" points="449,-228 555,-228 "/>
<text text-anchor="middle" x="502" y="-212.8" font-family="Times,serif" font-size="14.00"> </text>
</g>
<!-- 1&#45;&gt;9 -->
<g id="edge1" class="edge"><title>1&#45;&gt;9</title>
<path fill="none" stroke="black" d="M267.546,-100.286C274.182,-106.231 281.429,-111.761 289,-116 348.819,-149.498 382.023,-113.867 439,-152 455.476,-163.027 469.133,-179.899 479.47,-195.86"/>
<polygon fill="none" stroke="black" points="476.632,-197.926 484.868,-204.591 482.586,-194.245 476.632,-197.926"/>
</g>
<!-- 2 -->
<g id="node3" class="node"><title>2</title>
<polygon fill="none" stroke="black" points="297.5,-1 297.5,-115 436.5,-115 436.5,-1 297.5,-1"/>
<text text-anchor="middle" x="367" y="-99.8" font-family="Times,serif" font-size="14.00">HyperbolicTangent</text>
<polyline fill="none" stroke="black" points="297.5,-92 436.5,-92 "/>
<text text-anchor="start" x="305.5" y="-76.8" font-family="Times,serif" font-size="14.00">a : FloatArray</text>
<text text-anchor="start" x="305.5" y="-61.8" font-family="Times,serif" font-size="14.00">sigma : FloatArray</text>
<text text-anchor="start" x="305.5" y="-46.8" font-family="Times,serif" font-size="14.00">b : FloatArray</text>
<text text-anchor="start" x="305.5" y="-31.8" font-family="Times,serif" font-size="14.00">midpoint : FloatArray</text>
<polyline fill="none" stroke="black" points="297.5,-24 436.5,-24 "/>
<text text-anchor="start" x="305.5" y="-8.8" font-family="Times,serif" font-size="14.00">pre()</text>
</g>
<!-- 2&#45;&gt;9 -->
<g id="edge2" class="edge"><title>2&#45;&gt;9</title>
<path fill="none" stroke="black" d="M411.078,-115.336C420.371,-127.38 430.065,-140.069 439,-152 449.839,-166.474 461.506,-182.466 471.819,-196.749"/>
<polygon fill="none" stroke="black" points="469.032,-198.868 477.717,-204.936 474.712,-194.777 469.032,-198.868"/>
</g>
<!-- 3 -->
<g id="node4" class="node"><title>3</title>
<polygon fill="none" stroke="black" points="454.5,-16 454.5,-100 549.5,-100 549.5,-16 454.5,-16"/>
<text text-anchor="middle" x="502" y="-84.8" font-family="Times,serif" font-size="14.00">Kuramoto</text>
<polyline fill="none" stroke="black" points="454.5,-77 549.5,-77 "/>
<text text-anchor="start" x="462.5" y="-61.8" font-family="Times,serif" font-size="14.00">a : FloatArray</text>
<polyline fill="none" stroke="black" points="454.5,-54 549.5,-54 "/>
<text text-anchor="start" x="462.5" y="-38.8" font-family="Times,serif" font-size="14.00">pre()</text>
<text text-anchor="start" x="462.5" y="-23.8" font-family="Times,serif" font-size="14.00">post()</text>
</g>
<!-- 3&#45;&gt;9 -->
<g id="edge3" class="edge"><title>3&#45;&gt;9</title>
<path fill="none" stroke="black" d="M502,-100.296C502,-128.49 502,-165.81 502,-194.637"/>
<polygon fill="none" stroke="black" points="498.5,-194.84 502,-204.84 505.5,-194.84 498.5,-194.84"/>
</g>
<!-- 4 -->
<g id="node5" class="node"><title>4</title>
<polygon fill="none" stroke="black" points="568,-16 568,-100 664,-100 664,-16 568,-16"/>
<text text-anchor="middle" x="616" y="-84.8" font-family="Times,serif" font-size="14.00">Linear</text>
<polyline fill="none" stroke="black" points="568,-77 664,-77 "/>
<text text-anchor="start" x="576" y="-61.8" font-family="Times,serif" font-size="14.00">a : FloatArray</text>
<text text-anchor="start" x="576" y="-46.8" font-family="Times,serif" font-size="14.00">b : FloatArray</text>
<polyline fill="none" stroke="black" points="568,-39 664,-39 "/>
<text text-anchor="start" x="576" y="-23.8" font-family="Times,serif" font-size="14.00">post()</text>
</g>
<!-- 4&#45;&gt;9 -->
<g id="edge4" class="edge"><title>4&#45;&gt;9</title>
<path fill="none" stroke="black" d="M589.846,-100.296C571.676,-128.985 547.522,-167.122 529.141,-196.146"/>
<polygon fill="none" stroke="black" points="526.028,-194.519 523.635,-204.84 531.942,-198.264 526.028,-194.519"/>
</g>
<!-- 5 -->
<g id="node6" class="node"><title>5</title>
<polygon fill="none" stroke="black" points="0,-153 0,-327 116,-327 116,-153 0,-153"/>
<text text-anchor="middle" x="58" y="-311.8" font-family="Times,serif" font-size="14.00">PreSigmoidal</text>
<polyline fill="none" stroke="black" points="0,-304 116,-304 "/>
<text text-anchor="start" x="8" y="-288.8" font-family="Times,serif" font-size="14.00">sliceT</text>
<text text-anchor="start" x="8" y="-273.8" font-family="Times,serif" font-size="14.00">G : FloatArray</text>
<text text-anchor="start" x="8" y="-258.8" font-family="Times,serif" font-size="14.00">H : FloatArray</text>
<text text-anchor="start" x="8" y="-243.8" font-family="Times,serif" font-size="14.00">dynamic : Bool</text>
<text text-anchor="start" x="8" y="-228.8" font-family="Times,serif" font-size="14.00">Q : FloatArray</text>
<text text-anchor="start" x="8" y="-213.8" font-family="Times,serif" font-size="14.00">P : FloatArray</text>
<text text-anchor="start" x="8" y="-198.8" font-family="Times,serif" font-size="14.00">globalT : Bool</text>
<text text-anchor="start" x="8" y="-183.8" font-family="Times,serif" font-size="14.00">theta : FloatArray</text>
<polyline fill="none" stroke="black" points="0,-176 116,-176 "/>
<text text-anchor="start" x="8" y="-160.8" font-family="Times,serif" font-size="14.00">configure()</text>
</g>
<!-- 5&#45;&gt;0 -->
<g id="edge5" class="edge"><title>5&#45;&gt;0</title>
<path fill="none" stroke="black" d="M116.397,-319.491C119.529,-322.476 122.735,-325.33 126,-328 159.707,-355.566 204.771,-376.775 237.796,-390.071"/>
<polygon fill="none" stroke="black" points="236.615,-393.367 247.202,-393.775 239.18,-386.854 236.615,-393.367"/>
</g>
<!-- 6 -->
<g id="node7" class="node"><title>6</title>
<polygon fill="none" stroke="black" points="682,-23.5 682,-92.5 744,-92.5 744,-23.5 682,-23.5"/>
<text text-anchor="middle" x="713" y="-77.3" font-family="Times,serif" font-size="14.00">Scaling</text>
<polyline fill="none" stroke="black" points="682,-69.5 744,-69.5 "/>
<text text-anchor="start" x="690" y="-54.3" font-family="Times,serif" font-size="14.00">a : Float</text>
<polyline fill="none" stroke="black" points="682,-46.5 744,-46.5 "/>
<text text-anchor="start" x="690" y="-31.3" font-family="Times,serif" font-size="14.00">post()</text>
</g>
<!-- 6&#45;&gt;9 -->
<g id="edge6" class="edge"><title>6&#45;&gt;9</title>
<path fill="none" stroke="black" d="M692.13,-92.7282C686.416,-100.772 679.884,-109.035 673,-116 640.414,-148.968 598.173,-179.444 563.828,-201.813"/>
<polygon fill="none" stroke="black" points="561.788,-198.964 555.277,-207.322 565.579,-204.849 561.788,-198.964"/>
</g>
<!-- 7 -->
<g id="node8" class="node"><title>7</title>
<polygon fill="none" stroke="black" points="134.5,-175.5 134.5,-304.5 273.5,-304.5 273.5,-175.5 134.5,-175.5"/>
<text text-anchor="middle" x="204" y="-289.3" font-family="Times,serif" font-size="14.00">Sigmoidal</text>
<polyline fill="none" stroke="black" points="134.5,-281.5 273.5,-281.5 "/>
<text text-anchor="start" x="142.5" y="-266.3" font-family="Times,serif" font-size="14.00">a : FloatArray</text>
<text text-anchor="start" x="142.5" y="-251.3" font-family="Times,serif" font-size="14.00">sigma : FloatArray</text>
<text text-anchor="start" x="142.5" y="-236.3" font-family="Times,serif" font-size="14.00">cmax : FloatArray</text>
<text text-anchor="start" x="142.5" y="-221.3" font-family="Times,serif" font-size="14.00">midpoint : FloatArray</text>
<text text-anchor="start" x="142.5" y="-206.3" font-family="Times,serif" font-size="14.00">cmin : FloatArray</text>
<polyline fill="none" stroke="black" points="134.5,-198.5 273.5,-198.5 "/>
<text text-anchor="start" x="142.5" y="-183.3" font-family="Times,serif" font-size="14.00">post()</text>
</g>
<!-- 7&#45;&gt;0 -->
<g id="edge7" class="edge"><title>7&#45;&gt;0</title>
<path fill="none" stroke="black" d="M234.157,-304.793C242.041,-321.471 250.434,-339.225 257.953,-355.131"/>
<polygon fill="none" stroke="black" points="254.83,-356.715 262.268,-364.26 261.159,-353.724 254.83,-356.715"/>
</g>
<!-- 8 -->
<g id="node9" class="node"><title>8</title>
<polygon fill="none" stroke="black" points="291.5,-168 291.5,-312 430.5,-312 430.5,-168 291.5,-168"/>
<text text-anchor="middle" x="361" y="-296.8" font-family="Times,serif" font-size="14.00">SigmoidalJansenRit</text>
<polyline fill="none" stroke="black" points="291.5,-289 430.5,-289 "/>
<text text-anchor="start" x="299.5" y="-273.8" font-family="Times,serif" font-size="14.00">a : FloatArray</text>
<text text-anchor="start" x="299.5" y="-258.8" font-family="Times,serif" font-size="14.00">r : FloatArray</text>
<text text-anchor="start" x="299.5" y="-243.8" font-family="Times,serif" font-size="14.00">midpoint : FloatArray</text>
<text text-anchor="start" x="299.5" y="-228.8" font-family="Times,serif" font-size="14.00">cmin : FloatArray</text>
<text text-anchor="start" x="299.5" y="-213.8" font-family="Times,serif" font-size="14.00">cmax : FloatArray</text>
<polyline fill="none" stroke="black" points="291.5,-206 430.5,-206 "/>
<text text-anchor="start" x="299.5" y="-190.8" font-family="Times,serif" font-size="14.00">pre()</text>
<text text-anchor="start" x="299.5" y="-175.8" font-family="Times,serif" font-size="14.00">post()</text>
</g>
<!-- 8&#45;&gt;0 -->
<g id="edge8" class="edge"><title>8&#45;&gt;0</title>
<path fill="none" stroke="black" d="M326.809,-312.412C319.897,-326.848 312.764,-341.745 306.278,-355.293"/>
<polygon fill="none" stroke="black" points="303.063,-353.902 301.902,-364.433 309.377,-356.925 303.063,-353.902"/>
</g>
<!-- 9&#45;&gt;0 -->
<g id="edge9" class="edge"><title>9&#45;&gt;0</title>
<path fill="none" stroke="black" d="M482.83,-275.046C471.733,-292.515 456.506,-313.178 439,-328 405.386,-356.461 359.605,-377.67 326.155,-390.731"/>
<polygon fill="none" stroke="black" points="324.731,-387.528 316.633,-394.359 327.224,-394.069 324.731,-387.528"/>
</g>
</g>
</svg>
