<?xml version="1.0" encoding="UTF-8" standalone="no"?>
<!DOCTYPE svg PUBLIC "-//W3C//DTD SVG 1.1//EN"
 "http://www.w3.org/Graphics/SVG/1.1/DTD/svg11.dtd">
<!-- Generated by graphviz version 2.36.0 (20140111.2315)
 -->
<!-- Title: classes_integrators Pages: 1 -->
<svg width="2006pt" height="478pt"
 viewBox="0.00 0.00 2006.00 478.00" xmlns="http://www.w3.org/2000/svg" xmlns:xlink="http://www.w3.org/1999/xlink">
<g id="graph0" class="graph" transform="scale(1 1) rotate(0) translate(4 474)">
<title>classes_integrators</title>
<polygon fill="white" stroke="none" points="-4,4 -4,-474 2002,-474 2002,4 -4,4"/>
<!-- 0 -->
<g id="node1" class="node"><title>0</title>
<polygon fill="none" stroke="black" points="1462.44,-107 1462.44,-175 1523.56,-175 1523.56,-107 1462.44,-107"/>
<text text-anchor="middle" x="1493" y="-159.8" font-family="Times,serif" font-size="14.00">Dop853</text>
<polyline fill="none" stroke="black" points="1462.44,-153 1523.56,-153 "/>
<polyline fill="none" stroke="black" points="1462.44,-129 1523.56,-129 "/>
<text text-anchor="middle" x="1493" y="-113.8" font-family="Times,serif" font-size="14.00"> </text>
</g>
<!-- 9 -->
<g id="node10" class="node"><title>9</title>
<polygon fill="none" stroke="black" points="955.638,-213 955.638,-363 1266.36,-363 1266.36,-213 955.638,-213"/>
<text text-anchor="middle" x="1111" y="-347.8" font-family="Times,serif" font-size="14.00">Integrator</text>
<polyline fill="none" stroke="black" points="955.638,-341 1266.36,-341 "/>
<text text-anchor="start" x="963.638" y="-325.8" font-family="Times,serif" font-size="14.00">bounded_state_variable_indices</text>
<text text-anchor="start" x="963.638" y="-311.8" font-family="Times,serif" font-size="14.00">clamped_state_variable_indices</text>
<text text-anchor="start" x="963.638" y="-297.8" font-family="Times,serif" font-size="14.00">clamped_state_variable_values</text>
<text text-anchor="start" x="963.638" y="-283.8" font-family="Times,serif" font-size="14.00">dt</text>
<text text-anchor="start" x="963.638" y="-269.8" font-family="Times,serif" font-size="14.00">state_variable_boundaries</text>
<polyline fill="none" stroke="black" points="955.638,-263 1266.36,-263 "/>
<text text-anchor="start" x="963.638" y="-247.8" font-family="Times,serif" font-size="14.00">bound_state(X)</text>
<text text-anchor="start" x="963.638" y="-233.8" font-family="Times,serif" font-size="14.00">clamp_state(X)</text>
<text text-anchor="start" x="963.638" y="-219.8" font-family="Times,serif" font-size="14.00">scheme(X, dfun, coupling, local_coupling, stimulus)</text>
</g>
<!-- 0&#45;&gt;9 -->
<g id="edge1" class="edge"><title>0&#45;&gt;9</title>
<path fill="none" stroke="black" d="M1462.42,-169.974C1459.35,-172.171 1456.18,-174.223 1453,-176 1398.4,-206.481 1334.16,-230.104 1276.19,-247.568"/>
<polygon fill="none" stroke="black" points="1275.16,-244.223 1266.57,-250.428 1277.16,-250.933 1275.16,-244.223"/>
</g>
<!-- 12 -->
<g id="node13" class="node"><title>12</title>
<polygon fill="none" stroke="black" points="1436.64,-254 1436.64,-322 1747.36,-322 1747.36,-254 1436.64,-254"/>
<text text-anchor="middle" x="1592" y="-306.8" font-family="Times,serif" font-size="14.00">SciPyODE</text>
<polyline fill="none" stroke="black" points="1436.64,-300 1747.36,-300 "/>
<polyline fill="none" stroke="black" points="1436.64,-276 1747.36,-276 "/>
<text text-anchor="start" x="1444.64" y="-260.8" font-family="Times,serif" font-size="14.00">scheme(X, dfun, coupling, local_coupling, stimulus)</text>
</g>
<!-- 0&#45;&gt;12 -->
<g id="edge2" class="edge"><title>0&#45;&gt;12</title>
<path fill="none" stroke="black" d="M1515.71,-175.266C1529.99,-196.173 1548.52,-223.31 1563.74,-245.604"/>
<polygon fill="none" stroke="black" points="1560.86,-247.604 1569.39,-253.889 1566.64,-243.657 1560.86,-247.604"/>
</g>
<!-- 1 -->
<g id="node2" class="node"><title>1</title>
<polygon fill="none" stroke="black" points="1124.67,-1 1124.67,-69 1243.33,-69 1243.33,-1 1124.67,-1"/>
<text text-anchor="middle" x="1184" y="-53.8" font-family="Times,serif" font-size="14.00">Dop853Stochastic</text>
<polyline fill="none" stroke="black" points="1124.67,-47 1243.33,-47 "/>
<polyline fill="none" stroke="black" points="1124.67,-23 1243.33,-23 "/>
<text text-anchor="middle" x="1184" y="-7.8" font-family="Times,serif" font-size="14.00"> </text>
</g>
<!-- 10 -->
<g id="node11" class="node"><title>10</title>
<polygon fill="none" stroke="black" points="328.631,-108 328.631,-174 457.369,-174 457.369,-108 328.631,-108"/>
<text text-anchor="middle" x="393" y="-158.8" font-family="Times,serif" font-size="14.00">IntegratorStochastic</text>
<polyline fill="none" stroke="black" points="328.631,-152 457.369,-152 "/>
<text text-anchor="start" x="336.631" y="-136.8" font-family="Times,serif" font-size="14.00">noise</text>
<polyline fill="none" stroke="black" points="328.631,-130 457.369,-130 "/>
<text text-anchor="middle" x="393" y="-114.8" font-family="Times,serif" font-size="14.00"> </text>
</g>
<!-- 1&#45;&gt;10 -->
<g id="edge3" class="edge"><title>1&#45;&gt;10</title>
<path fill="none" stroke="black" d="M1124.45,-40.67C969.992,-52.939 562.452,-86.3497 467.311,-106.548"/>
<polygon fill="none" stroke="black" points="466.43,-103.16 457.514,-108.883 468.053,-109.969 466.43,-103.16"/>
</g>
<!-- 14 -->
<g id="node15" class="node"><title>14</title>
<polygon fill="none" stroke="black" points="1687.64,-107 1687.64,-175 1998.36,-175 1998.36,-107 1687.64,-107"/>
<text text-anchor="middle" x="1843" y="-159.8" font-family="Times,serif" font-size="14.00">SciPySDE</text>
<polyline fill="none" stroke="black" points="1687.64,-153 1998.36,-153 "/>
<polyline fill="none" stroke="black" points="1687.64,-129 1998.36,-129 "/>
<text text-anchor="start" x="1695.64" y="-113.8" font-family="Times,serif" font-size="14.00">scheme(X, dfun, coupling, local_coupling, stimulus)</text>
</g>
<!-- 1&#45;&gt;14 -->
<g id="edge4" class="edge"><title>1&#45;&gt;14</title>
<path fill="none" stroke="black" d="M1243.5,-43.2119C1334.59,-54.5212 1514.26,-77.8874 1677.37,-105.928"/>
<polygon fill="none" stroke="black" points="1677.15,-109.441 1687.6,-107.696 1678.34,-102.543 1677.15,-109.441"/>
</g>
<!-- 2 -->
<g id="node3" class="node"><title>2</title>
<polygon fill="none" stroke="black" points="1541.17,-107 1541.17,-175 1596.83,-175 1596.83,-107 1541.17,-107"/>
<text text-anchor="middle" x="1569" y="-159.8" font-family="Times,serif" font-size="14.00">Dopri5</text>
<polyline fill="none" stroke="black" points="1541.17,-153 1596.83,-153 "/>
<polyline fill="none" stroke="black" points="1541.17,-129 1596.83,-129 "/>
<text text-anchor="middle" x="1569" y="-113.8" font-family="Times,serif" font-size="14.00"> </text>
</g>
<!-- 2&#45;&gt;9 -->
<g id="edge5" class="edge"><title>2&#45;&gt;9</title>
<path fill="none" stroke="black" d="M1540.97,-170.193C1538.07,-172.344 1535.06,-174.326 1532,-176 1508.71,-188.739 1384.19,-220.926 1276.56,-247.378"/>
<polygon fill="none" stroke="black" points="1275.41,-244.056 1266.54,-249.838 1277.08,-250.854 1275.41,-244.056"/>
</g>
<!-- 2&#45;&gt;12 -->
<g id="edge6" class="edge"><title>2&#45;&gt;12</title>
<path fill="none" stroke="black" d="M1574.28,-175.266C1577.51,-195.621 1581.67,-221.88 1585.15,-243.827"/>
<polygon fill="none" stroke="black" points="1581.72,-244.561 1586.75,-253.889 1588.64,-243.464 1581.72,-244.561"/>
</g>
<!-- 3 -->
<g id="node4" class="node"><title>3</title>
<polygon fill="none" stroke="black" points="1458.4,-1 1458.4,-69 1571.6,-69 1571.6,-1 1458.4,-1"/>
<text text-anchor="middle" x="1515" y="-53.8" font-family="Times,serif" font-size="14.00">Dopri5Stochastic</text>
<polyline fill="none" stroke="black" points="1458.4,-47 1571.6,-47 "/>
<polyline fill="none" stroke="black" points="1458.4,-23 1571.6,-23 "/>
<text text-anchor="middle" x="1515" y="-7.8" font-family="Times,serif" font-size="14.00"> </text>
</g>
<!-- 3&#45;&gt;10 -->
<g id="edge7" class="edge"><title>3&#45;&gt;10</title>
<path fill="none" stroke="black" d="M1458.2,-44.7232C1405.03,-52.5602 1323.32,-63.7654 1252,-70 1081.18,-84.9328 652.554,-65.512 467.43,-106.365"/>
<polygon fill="none" stroke="black" points="466.41,-103.008 457.462,-108.681 467.995,-109.826 466.41,-103.008"/>
</g>
<!-- 3&#45;&gt;14 -->
<g id="edge8" class="edge"><title>3&#45;&gt;14</title>
<path fill="none" stroke="black" d="M1571.76,-53.9967C1614.91,-67.6793 1675.7,-86.9552 1728.8,-103.791"/>
<polygon fill="none" stroke="black" points="1728.03,-107.218 1738.62,-106.904 1730.15,-100.546 1728.03,-107.218"/>
</g>
<!-- 4 -->
<g id="node5" class="node"><title>4</title>
<polygon fill="none" stroke="black" points="804.638,-108 804.638,-174 1115.36,-174 1115.36,-108 804.638,-108"/>
<text text-anchor="middle" x="960" y="-158.8" font-family="Times,serif" font-size="14.00">EulerDeterministic</text>
<polyline fill="none" stroke="black" points="804.638,-152 1115.36,-152 "/>
<text text-anchor="start" x="812.638" y="-136.8" font-family="Times,serif" font-size="14.00">dX</text>
<polyline fill="none" stroke="black" points="804.638,-130 1115.36,-130 "/>
<text text-anchor="start" x="812.638" y="-114.8" font-family="Times,serif" font-size="14.00">scheme(X, dfun, coupling, local_coupling, stimulus)</text>
</g>
<!-- 4&#45;&gt;9 -->
<g id="edge9" class="edge"><title>4&#45;&gt;9</title>
<path fill="none" stroke="black" d="M993.512,-174.18C1003.44,-183.715 1014.79,-194.614 1026.43,-205.794"/>
<polygon fill="none" stroke="black" points="1024.07,-208.379 1033.71,-212.781 1028.92,-203.33 1024.07,-208.379"/>
</g>
<!-- 5 -->
<g id="node6" class="node"><title>5</title>
<polygon fill="none" stroke="black" points="402.638,-1 402.638,-69 713.362,-69 713.362,-1 402.638,-1"/>
<text text-anchor="middle" x="558" y="-53.8" font-family="Times,serif" font-size="14.00">EulerStochastic</text>
<polyline fill="none" stroke="black" points="402.638,-47 713.362,-47 "/>
<polyline fill="none" stroke="black" points="402.638,-23 713.362,-23 "/>
<text text-anchor="start" x="410.638" y="-7.8" font-family="Times,serif" font-size="14.00">scheme(X, dfun, coupling, local_coupling, stimulus)</text>
</g>
<!-- 5&#45;&gt;10 -->
<g id="edge10" class="edge"><title>5&#45;&gt;10</title>
<path fill="none" stroke="black" d="M505.339,-69.1922C488.634,-79.7216 470.042,-91.4399 452.869,-102.265"/>
<polygon fill="none" stroke="black" points="450.628,-99.5394 444.035,-107.833 454.361,-105.461 450.628,-99.5394"/>
</g>
<!-- 6 -->
<g id="node7" class="node"><title>6</title>
<polygon fill="none" stroke="black" points="1133.64,-107 1133.64,-175 1444.36,-175 1444.36,-107 1133.64,-107"/>
<text text-anchor="middle" x="1289" y="-159.8" font-family="Times,serif" font-size="14.00">HeunDeterministic</text>
<polyline fill="none" stroke="black" points="1133.64,-153 1444.36,-153 "/>
<polyline fill="none" stroke="black" points="1133.64,-129 1444.36,-129 "/>
<text text-anchor="start" x="1141.64" y="-113.8" font-family="Times,serif" font-size="14.00">scheme(X, dfun, coupling, local_coupling, stimulus)</text>
</g>
<!-- 6&#45;&gt;9 -->
<g id="edge11" class="edge"><title>6&#45;&gt;9</title>
<path fill="none" stroke="black" d="M1248.16,-175.266C1236.58,-184.702 1223.44,-195.406 1209.99,-206.362"/>
<polygon fill="none" stroke="black" points="1207.59,-203.804 1202.05,-212.833 1212.01,-209.231 1207.59,-203.804"/>
</g>
<!-- 7 -->
<g id="node8" class="node"><title>7</title>
<polygon fill="none" stroke="black" points="73.6377,-1 73.6377,-69 384.362,-69 384.362,-1 73.6377,-1"/>
<text text-anchor="middle" x="229" y="-53.8" font-family="Times,serif" font-size="14.00">HeunStochastic</text>
<polyline fill="none" stroke="black" points="73.6377,-47 384.362,-47 "/>
<polyline fill="none" stroke="black" points="73.6377,-23 384.362,-23 "/>
<text text-anchor="start" x="81.6377" y="-7.8" font-family="Times,serif" font-size="14.00">scheme(X, dfun, coupling, local_coupling, stimulus)</text>
</g>
<!-- 7&#45;&gt;10 -->
<g id="edge12" class="edge"><title>7&#45;&gt;10</title>
<path fill="none" stroke="black" d="M281.342,-69.1922C297.946,-79.7216 316.425,-91.4399 333.494,-102.265"/>
<polygon fill="none" stroke="black" points="331.955,-105.433 342.275,-107.833 335.704,-99.5214 331.955,-105.433"/>
</g>
<!-- 8 -->
<g id="node9" class="node"><title>8</title>
<polygon fill="none" stroke="black" points="-0.362305,-107 -0.362305,-175 310.362,-175 310.362,-107 -0.362305,-107"/>
<text text-anchor="middle" x="155" y="-159.8" font-family="Times,serif" font-size="14.00">Identity</text>
<polyline fill="none" stroke="black" points="-0.362305,-153 310.362,-153 "/>
<polyline fill="none" stroke="black" points="-0.362305,-129 310.362,-129 "/>
<text text-anchor="start" x="7.6377" y="-113.8" font-family="Times,serif" font-size="14.00">scheme(X, dfun, coupling, local_coupling, stimulus)</text>
</g>
<!-- 8&#45;&gt;9 -->
<g id="edge13" class="edge"><title>8&#45;&gt;9</title>
<path fill="none" stroke="black" d="M310.402,-174.31C313.627,-174.887 316.83,-175.452 320,-176 535.315,-213.252 785.256,-246.7 945.619,-266.913"/>
<polygon fill="none" stroke="black" points="945.214,-270.39 955.572,-268.165 946.088,-263.444 945.214,-270.39"/>
</g>
<!-- 10&#45;&gt;9 -->
<g id="edge14" class="edge"><title>10&#45;&gt;9</title>
<path fill="none" stroke="black" d="M457.597,-172.832C460.749,-173.972 463.894,-175.037 467,-176 625.683,-225.206 813.544,-254.438 945.282,-270.447"/>
<polygon fill="none" stroke="black" points="945.116,-273.952 955.462,-271.671 945.952,-267.002 945.116,-273.952"/>
</g>
<!-- 11 -->
<g id="node12" class="node"><title>11</title>
<polygon fill="none" stroke="black" points="475.638,-107 475.638,-175 786.362,-175 786.362,-107 475.638,-107"/>
<text text-anchor="middle" x="631" y="-159.8" font-family="Times,serif" font-size="14.00">RungeKutta4thOrderDeterministic</text>
<polyline fill="none" stroke="black" points="475.638,-153 786.362,-153 "/>
<polyline fill="none" stroke="black" points="475.638,-129 786.362,-129 "/>
<text text-anchor="start" x="483.638" y="-113.8" font-family="Times,serif" font-size="14.00">scheme(X, dfun, coupling, local_coupling, stimulus)</text>
</g>
<!-- 11&#45;&gt;9 -->
<g id="edge15" class="edge"><title>11&#45;&gt;9</title>
<path fill="none" stroke="black" d="M740.52,-175.084C801.177,-193.407 877.809,-216.557 945.617,-237.04"/>
<polygon fill="none" stroke="black" points="944.969,-240.501 955.554,-240.042 946.993,-233.8 944.969,-240.501"/>
</g>
<!-- 13 -->
<g id="node14" class="node"><title>13</title>
<polygon fill="none" stroke="black" points="1653.67,-401 1653.67,-469 1758.33,-469 1758.33,-401 1653.67,-401"/>
<text text-anchor="middle" x="1706" y="-453.8" font-family="Times,serif" font-size="14.00">SciPyODEBase</text>
<polyline fill="none" stroke="black" points="1653.67,-447 1758.33,-447 "/>
<polyline fill="none" stroke="black" points="1653.67,-423 1758.33,-423 "/>
<text text-anchor="middle" x="1706" y="-407.8" font-family="Times,serif" font-size="14.00"> </text>
</g>
<!-- 12&#45;&gt;13 -->
<g id="edge16" class="edge"><title>12&#45;&gt;13</title>
<path fill="none" stroke="black" d="M1618.15,-322.266C1634.66,-343.265 1656.11,-370.549 1673.69,-392.899"/>
<polygon fill="none" stroke="black" points="1671.04,-395.191 1679.97,-400.889 1676.54,-390.864 1671.04,-395.191"/>
</g>
<!-- 14&#45;&gt;13 -->
<g id="edge17" class="edge"><title>14&#45;&gt;13</title>
<path fill="none" stroke="black" d="M1832.88,-175.104C1818.67,-219.501 1790.63,-300.136 1756,-364 1750.77,-373.65 1744.42,-383.528 1738.02,-392.709"/>
<polygon fill="none" stroke="black" points="1735.13,-390.744 1732.17,-400.918 1740.83,-394.808 1735.13,-390.744"/>
</g>
<!-- 15 -->
<g id="node16" class="node"><title>15</title>
<polygon fill="none" stroke="black" points="1614.56,-107 1614.56,-175 1669.44,-175 1669.44,-107 1614.56,-107"/>
<text text-anchor="middle" x="1642" y="-159.8" font-family="Times,serif" font-size="14.00">VODE</text>
<polyline fill="none" stroke="black" points="1614.56,-153 1669.44,-153 "/>
<polyline fill="none" stroke="black" points="1614.56,-129 1669.44,-129 "/>
<text text-anchor="middle" x="1642" y="-113.8" font-family="Times,serif" font-size="14.00"> </text>
</g>
<!-- 15&#45;&gt;9 -->
<g id="edge18" class="edge"><title>15&#45;&gt;9</title>
<path fill="none" stroke="black" d="M1614.5,-170.063C1611.45,-172.3 1608.26,-174.334 1605,-176 1533.5,-212.493 1506.4,-194.756 1428,-212 1378.65,-222.853 1325.14,-235.266 1276.37,-246.828"/>
<polygon fill="none" stroke="black" points="1275.29,-243.489 1266.37,-249.205 1276.91,-250.299 1275.29,-243.489"/>
</g>
<!-- 15&#45;&gt;12 -->
<g id="edge19" class="edge"><title>15&#45;&gt;12</title>
<path fill="none" stroke="black" d="M1630.53,-175.266C1623.45,-195.805 1614.29,-222.356 1606.68,-244.421"/>
<polygon fill="none" stroke="black" points="1603.37,-243.294 1603.42,-253.889 1609.99,-245.576 1603.37,-243.294"/>
</g>
<!-- 16 -->
<g id="node17" class="node"><title>16</title>
<polygon fill="none" stroke="black" points="1687.79,-1 1687.79,-69 1800.21,-69 1800.21,-1 1687.79,-1"/>
<text text-anchor="middle" x="1744" y="-53.8" font-family="Times,serif" font-size="14.00">VODEStochastic</text>
<polyline fill="none" stroke="black" points="1687.79,-47 1800.21,-47 "/>
<polyline fill="none" stroke="black" points="1687.79,-23 1800.21,-23 "/>
<text text-anchor="middle" x="1744" y="-7.8" font-family="Times,serif" font-size="14.00"> </text>
</g>
<!-- 16&#45;&gt;10 -->
<g id="edge20" class="edge"><title>16&#45;&gt;10</title>
<path fill="none" stroke="black" d="M1687.47,-50.2254C1656.04,-57.5005 1616.09,-65.7074 1580,-70 1337.51,-98.8403 724.311,-50.5243 467.548,-106.335"/>
<polygon fill="none" stroke="black" points="466.426,-103.001 457.45,-108.628 467.976,-109.827 466.426,-103.001"/>
</g>
<!-- 16&#45;&gt;14 -->
<g id="edge21" class="edge"><title>16&#45;&gt;14</title>
<path fill="none" stroke="black" d="M1775.6,-69.1922C1784.71,-78.7611 1794.75,-89.3121 1804.24,-99.2818"/>
<polygon fill="none" stroke="black" points="1801.93,-101.937 1811.36,-106.766 1807,-97.1102 1801.93,-101.937"/>
</g>
</g>
</svg>
