<?xml version="1.0" encoding="UTF-8" standalone="no"?>
<!DOCTYPE svg PUBLIC "-//W3C//DTD SVG 1.1//EN"
 "http://www.w3.org/Graphics/SVG/1.1/DTD/svg11.dtd">
<!-- Generated by graphviz version 2.36.0 (20140111.2315)
 -->
<!-- Title: classes_noise Pages: 1 -->
<svg width="470pt" height="362pt"
 viewBox="0.00 0.00 470.00 362.00" xmlns="http://www.w3.org/2000/svg" xmlns:xlink="http://www.w3.org/1999/xlink">
<g id="graph0" class="graph" transform="scale(1 1) rotate(0) translate(4 358)">
<title>classes_noise</title>
<polygon fill="white" stroke="none" points="-4,4 -4,-358 466,-358 466,4 -4,4"/>
<!-- 0 -->
<g id="node1" class="node"><title>0</title>
<polygon fill="none" stroke="black" points="-0.827637,-29 -0.827637,-95 110.828,-95 110.828,-29 -0.827637,-29"/>
<text text-anchor="middle" x="55" y="-79.8" font-family="Times,serif" font-size="14.00">Additive</text>
<polyline fill="none" stroke="black" points="-0.827637,-73 110.828,-73 "/>
<text text-anchor="start" x="7.17236" y="-57.8" font-family="Times,serif" font-size="14.00">nsig : FloatArray</text>
<polyline fill="none" stroke="black" points="-0.827637,-51 110.828,-51 "/>
<text text-anchor="start" x="7.17236" y="-35.8" font-family="Times,serif" font-size="14.00">gfun()</text>
</g>
<!-- 2 -->
<g id="node3" class="node"><title>2</title>
<polygon fill="none" stroke="black" points="160.91,-175 160.91,-353 295.09,-353 295.09,-175 160.91,-175"/>
<text text-anchor="middle" x="228" y="-337.8" font-family="Times,serif" font-size="14.00">Noise</text>
<polyline fill="none" stroke="black" points="160.91,-331 295.09,-331 "/>
<text text-anchor="start" x="168.91" y="-315.8" font-family="Times,serif" font-size="14.00">dt</text>
<text text-anchor="start" x="168.91" y="-301.8" font-family="Times,serif" font-size="14.00">dt : NoneType</text>
<text text-anchor="start" x="168.91" y="-287.8" font-family="Times,serif" font-size="14.00">ntau : Float</text>
<text text-anchor="start" x="168.91" y="-273.8" font-family="Times,serif" font-size="14.00">random_stream</text>
<polyline fill="none" stroke="black" points="160.91,-267 295.09,-267 "/>
<text text-anchor="start" x="168.91" y="-251.8" font-family="Times,serif" font-size="14.00">coloured()</text>
<text text-anchor="start" x="168.91" y="-237.8" font-family="Times,serif" font-size="14.00">configure()</text>
<text text-anchor="start" x="168.91" y="-223.8" font-family="Times,serif" font-size="14.00">configure_coloured()</text>
<text text-anchor="start" x="168.91" y="-209.8" font-family="Times,serif" font-size="14.00">configure_white()</text>
<text text-anchor="start" x="168.91" y="-195.8" font-family="Times,serif" font-size="14.00">generate()</text>
<text text-anchor="start" x="168.91" y="-181.8" font-family="Times,serif" font-size="14.00">white()</text>
</g>
<!-- 0&#45;&gt;2 -->
<g id="edge1" class="edge"><title>0&#45;&gt;2</title>
<path fill="none" stroke="black" d="M82.7954,-95.1335C102.085,-117.433 128.748,-148.258 153.968,-177.414"/>
<polygon fill="none" stroke="black" points="151.499,-179.909 160.688,-185.183 156.793,-175.33 151.499,-179.909"/>
</g>
<!-- 1 -->
<g id="node2" class="node"><title>1</title>
<polygon fill="none" stroke="black" points="128.474,-22 128.474,-102 327.526,-102 327.526,-22 128.474,-22"/>
<text text-anchor="middle" x="228" y="-86.8" font-family="Times,serif" font-size="14.00">Multiplicative</text>
<polyline fill="none" stroke="black" points="128.474,-80 327.526,-80 "/>
<text text-anchor="start" x="136.474" y="-64.8" font-family="Times,serif" font-size="14.00">b : TemporalApplicableEquation</text>
<text text-anchor="start" x="136.474" y="-50.8" font-family="Times,serif" font-size="14.00">nsig : FloatArray</text>
<polyline fill="none" stroke="black" points="128.474,-44 327.526,-44 "/>
<text text-anchor="start" x="136.474" y="-28.8" font-family="Times,serif" font-size="14.00">gfun()</text>
</g>
<!-- 1&#45;&gt;2 -->
<g id="edge2" class="edge"><title>1&#45;&gt;2</title>
<path fill="none" stroke="black" d="M228,-102.037C228,-120.077 228,-142.398 228,-164.613"/>
<polygon fill="none" stroke="black" points="224.5,-164.796 228,-174.796 231.5,-164.796 224.5,-164.796"/>
</g>
<!-- 3 -->
<g id="node4" class="node"><title>3</title>
<polygon fill="none" stroke="black" points="345.462,-1 345.462,-123 462.538,-123 462.538,-1 345.462,-1"/>
<text text-anchor="middle" x="404" y="-107.8" font-family="Times,serif" font-size="14.00">RandomStream</text>
<polyline fill="none" stroke="black" points="345.462,-101 462.538,-101 "/>
<text text-anchor="start" x="353.462" y="-85.8" font-family="Times,serif" font-size="14.00">defaults : tuple</text>
<text text-anchor="start" x="353.462" y="-71.8" font-family="Times,serif" font-size="14.00">init_seed : Integer</text>
<text text-anchor="start" x="353.462" y="-57.8" font-family="Times,serif" font-size="14.00">wraps</text>
<polyline fill="none" stroke="black" points="345.462,-51 462.538,-51 "/>
<text text-anchor="start" x="353.462" y="-35.8" font-family="Times,serif" font-size="14.00">configure()</text>
<text text-anchor="start" x="353.462" y="-21.8" font-family="Times,serif" font-size="14.00">reset()</text>
<text text-anchor="start" x="353.462" y="-7.8" font-family="Times,serif" font-size="14.00">set_state()</text>
</g>
<!-- 3&#45;&gt;2 -->
<g id="edge3" class="edge"><title>3&#45;&gt;2</title>
<path fill="none" stroke="black" d="M351.194,-123.007C336.122,-140.134 319.402,-159.135 303.264,-177.472"/>
<polygon fill="black" stroke="black" points="303.074,-177.689 302.113,-184.836 295.146,-186.698 296.107,-179.551 303.074,-177.689"/>
<text text-anchor="middle" x="375.542" y="-144.8" font-family="Times,serif" font-size="14.00" fill="green">random_stream</text>
</g>
</g>
</svg>
