<?xml version="1.0" encoding="UTF-8" standalone="no"?>
<!DOCTYPE svg PUBLIC "-//W3C//DTD SVG 1.1//EN"
 "http://www.w3.org/Graphics/SVG/1.1/DTD/svg11.dtd">
<!-- Generated by graphviz version 2.36.0 (20140111.2315)
 -->
<!-- Title: classes_monitors Pages: 1 -->
<svg width="2304pt" height="718pt"
 viewBox="0.00 0.00 2304.00 718.00" xmlns="http://www.w3.org/2000/svg" xmlns:xlink="http://www.w3.org/1999/xlink">
<g id="graph0" class="graph" transform="scale(1 1) rotate(0) translate(4 714)">
<title>classes_monitors</title>
<polygon fill="white" stroke="none" points="-4,4 -4,-714 2300,-714 2300,4 -4,4"/>
<!-- 0 -->
<g id="node1" class="node"><title>0</title>
<polygon fill="none" stroke="black" points="2023.02,-259 2023.02,-409 2296.98,-409 2296.98,-259 2023.02,-259"/>
<text text-anchor="middle" x="2160" y="-393.8" font-family="Times,serif" font-size="14.00">Bold</text>
<polyline fill="none" stroke="black" points="2023.02,-387 2296.98,-387 "/>
<text text-anchor="start" x="2031.02" y="-371.8" font-family="Times,serif" font-size="14.00">hemodynamic_response_function</text>
<text text-anchor="start" x="2031.02" y="-357.8" font-family="Times,serif" font-size="14.00">hemodynamic_response_function : NoneType</text>
<text text-anchor="start" x="2031.02" y="-343.8" font-family="Times,serif" font-size="14.00">hrf_kernel</text>
<text text-anchor="start" x="2031.02" y="-329.8" font-family="Times,serif" font-size="14.00">hrf_length</text>
<text text-anchor="start" x="2031.02" y="-315.8" font-family="Times,serif" font-size="14.00">period</text>
<polyline fill="none" stroke="black" points="2023.02,-309 2296.98,-309 "/>
<text text-anchor="start" x="2031.02" y="-293.8" font-family="Times,serif" font-size="14.00">compute_hrf()</text>
<text text-anchor="start" x="2031.02" y="-279.8" font-family="Times,serif" font-size="14.00">config_for_sim(simulator)</text>
<text text-anchor="start" x="2031.02" y="-265.8" font-family="Times,serif" font-size="14.00">sample(step, state)</text>
</g>
<!-- 5 -->
<g id="node6" class="node"><title>5</title>
<polygon fill="none" stroke="black" points="1082.04,-503 1082.04,-709 1523.96,-709 1523.96,-503 1082.04,-503"/>
<text text-anchor="middle" x="1303" y="-693.8" font-family="Times,serif" font-size="14.00">Monitor</text>
<polyline fill="none" stroke="black" points="1082.04,-687 1523.96,-687 "/>
<text text-anchor="start" x="1090.04" y="-671.8" font-family="Times,serif" font-size="14.00">dt</text>
<text text-anchor="start" x="1090.04" y="-657.8" font-family="Times,serif" font-size="14.00">dt : NoneType</text>
<text text-anchor="start" x="1090.04" y="-643.8" font-family="Times,serif" font-size="14.00">istep</text>
<text text-anchor="start" x="1090.04" y="-629.8" font-family="Times,serif" font-size="14.00">istep : NoneType</text>
<text text-anchor="start" x="1090.04" y="-615.8" font-family="Times,serif" font-size="14.00">period</text>
<text text-anchor="start" x="1090.04" y="-601.8" font-family="Times,serif" font-size="14.00">variables_of_interest</text>
<text text-anchor="start" x="1090.04" y="-587.8" font-family="Times,serif" font-size="14.00">voi : NoneType</text>
<text text-anchor="start" x="1090.04" y="-573.8" font-family="Times,serif" font-size="14.00">voi : matrix</text>
<polyline fill="none" stroke="black" points="1082.04,-567 1523.96,-567 "/>
<text text-anchor="start" x="1090.04" y="-551.8" font-family="Times,serif" font-size="14.00">config_for_sim(simulator)</text>
<text text-anchor="start" x="1090.04" y="-537.8" font-family="Times,serif" font-size="14.00">create_time_series(connectivity, surface, region_map, region_volume_map)</text>
<text text-anchor="start" x="1090.04" y="-523.8" font-family="Times,serif" font-size="14.00">record(step, observed)</text>
<text text-anchor="start" x="1090.04" y="-509.8" font-family="Times,serif" font-size="14.00">sample(step, state)</text>
</g>
<!-- 0&#45;&gt;5 -->
<g id="edge1" class="edge"><title>0&#45;&gt;5</title>
<path fill="none" stroke="black" d="M2092.11,-409.167C2068.96,-430.489 2041.63,-451.793 2013,-466 1863.71,-540.083 1678.43,-574.711 1534.58,-590.883"/>
<polygon fill="none" stroke="black" points="1533.85,-587.442 1524.3,-592.016 1534.62,-594.4 1533.85,-587.442"/>
</g>
<!-- 1 -->
<g id="node2" class="node"><title>1</title>
<polygon fill="none" stroke="black" points="2078.12,-43 2078.12,-123 2241.88,-123 2241.88,-43 2078.12,-43"/>
<text text-anchor="middle" x="2160" y="-107.8" font-family="Times,serif" font-size="14.00">BoldRegionROI</text>
<polyline fill="none" stroke="black" points="2078.12,-101 2241.88,-101 "/>
<text text-anchor="start" x="2086.12" y="-85.8" font-family="Times,serif" font-size="14.00">region_mapping</text>
<polyline fill="none" stroke="black" points="2078.12,-79 2241.88,-79 "/>
<text text-anchor="start" x="2086.12" y="-63.8" font-family="Times,serif" font-size="14.00">config_for_sim(simulator)</text>
<text text-anchor="start" x="2086.12" y="-49.8" font-family="Times,serif" font-size="14.00">sample(step, state, array)</text>
</g>
<!-- 1&#45;&gt;0 -->
<g id="edge2" class="edge"><title>1&#45;&gt;0</title>
<path fill="none" stroke="black" d="M2160,-123.18C2160,-156.78 2160,-206.354 2160,-248.88"/>
<polygon fill="none" stroke="black" points="2156.5,-248.96 2160,-258.96 2163.5,-248.96 2156.5,-248.96"/>
</g>
<!-- 2 -->
<g id="node3" class="node"><title>2</title>
<polygon fill="none" stroke="black" points="161.037,-1 161.037,-165 602.963,-165 602.963,-1 161.037,-1"/>
<text text-anchor="middle" x="382" y="-149.8" font-family="Times,serif" font-size="14.00">EEG</text>
<polyline fill="none" stroke="black" points="161.037,-143 602.963,-143 "/>
<text text-anchor="start" x="169.037" y="-127.8" font-family="Times,serif" font-size="14.00">projection</text>
<text text-anchor="start" x="169.037" y="-113.8" font-family="Times,serif" font-size="14.00">reference</text>
<text text-anchor="start" x="169.037" y="-99.8" font-family="Times,serif" font-size="14.00">sensors</text>
<text text-anchor="start" x="169.037" y="-85.8" font-family="Times,serif" font-size="14.00">sigma</text>
<polyline fill="none" stroke="black" points="161.037,-79 602.963,-79 "/>
<text text-anchor="start" x="169.037" y="-63.8" font-family="Times,serif" font-size="14.00">analytic(loc, ori)</text>
<text text-anchor="start" x="169.037" y="-49.8" font-family="Times,serif" font-size="14.00">config_for_sim(simulator)</text>
<text text-anchor="start" x="169.037" y="-35.8" font-family="Times,serif" font-size="14.00">create_time_series(connectivity, surface, region_map, region_volume_map)</text>
<text text-anchor="start" x="169.037" y="-21.8" font-family="Times,serif" font-size="14.00">from_file(cls, sensors_fname, projection_fname)</text>
<text text-anchor="start" x="169.037" y="-7.8" font-family="Times,serif" font-size="14.00">sample(step, state)</text>
</g>
<!-- 7 -->
<g id="node8" class="node"><title>7</title>
<polygon fill="none" stroke="black" points="640.393,-203 640.393,-465 1043.61,-465 1043.61,-203 640.393,-203"/>
<text text-anchor="middle" x="842" y="-449.8" font-family="Times,serif" font-size="14.00">Projection</text>
<polyline fill="none" stroke="black" points="640.393,-443 1043.61,-443 "/>
<text text-anchor="start" x="648.393" y="-427.8" font-family="Times,serif" font-size="14.00">gain</text>
<text text-anchor="start" x="648.393" y="-413.8" font-family="Times,serif" font-size="14.00">gain : list</text>
<text text-anchor="start" x="648.393" y="-399.8" font-family="Times,serif" font-size="14.00">obsnoise</text>
<text text-anchor="start" x="648.393" y="-385.8" font-family="Times,serif" font-size="14.00">projection</text>
<text text-anchor="start" x="648.393" y="-371.8" font-family="Times,serif" font-size="14.00">region_mapping</text>
<text text-anchor="start" x="648.393" y="-357.8" font-family="Times,serif" font-size="14.00">region_mapping</text>
<text text-anchor="start" x="648.393" y="-343.8" font-family="Times,serif" font-size="14.00">rmap</text>
<text text-anchor="start" x="648.393" y="-329.8" font-family="Times,serif" font-size="14.00">rmap</text>
<text text-anchor="start" x="648.393" y="-315.8" font-family="Times,serif" font-size="14.00">sensors</text>
<polyline fill="none" stroke="black" points="640.393,-309 1043.61,-309 "/>
<text text-anchor="start" x="648.393" y="-293.8" font-family="Times,serif" font-size="14.00">analytic(loc, ori)</text>
<text text-anchor="start" x="648.393" y="-279.8" font-family="Times,serif" font-size="14.00">config_for_sim(simulator)</text>
<text text-anchor="start" x="648.393" y="-265.8" font-family="Times,serif" font-size="14.00">configure()</text>
<text text-anchor="start" x="648.393" y="-251.8" font-family="Times,serif" font-size="14.00">from_file(cls, sensors_fname, projection_fname, rm_f_name, period)</text>
<text text-anchor="start" x="648.393" y="-237.8" font-family="Times,serif" font-size="14.00">oriented_gain(gain, orient)</text>
<text text-anchor="start" x="648.393" y="-223.8" font-family="Times,serif" font-size="14.00">projection_class(cls)</text>
<text text-anchor="start" x="648.393" y="-209.8" font-family="Times,serif" font-size="14.00">sample(step, state)</text>
</g>
<!-- 2&#45;&gt;7 -->
<g id="edge3" class="edge"><title>2&#45;&gt;7</title>
<path fill="none" stroke="black" d="M559.403,-165.041C583.679,-177.008 608.109,-189.522 631,-202 631.095,-202.052 631.189,-202.103 631.284,-202.155"/>
<polygon fill="none" stroke="black" points="629.684,-205.269 640.132,-207.024 633.059,-199.136 629.684,-205.269"/>
</g>
<!-- 3 -->
<g id="node4" class="node"><title>3</title>
<polygon fill="none" stroke="black" points="-0.963379,-293 -0.963379,-375 440.963,-375 440.963,-293 -0.963379,-293"/>
<text text-anchor="middle" x="220" y="-359.8" font-family="Times,serif" font-size="14.00">GlobalAverage</text>
<polyline fill="none" stroke="black" points="-0.963379,-353 440.963,-353 "/>
<polyline fill="none" stroke="black" points="-0.963379,-329 440.963,-329 "/>
<text text-anchor="start" x="7.03662" y="-313.8" font-family="Times,serif" font-size="14.00">create_time_series(connectivity, surface, region_map, region_volume_map)</text>
<text text-anchor="start" x="7.03662" y="-299.8" font-family="Times,serif" font-size="14.00">sample(step, state)</text>
</g>
<!-- 3&#45;&gt;5 -->
<g id="edge4" class="edge"><title>3&#45;&gt;5</title>
<path fill="none" stroke="black" d="M276.79,-375.008C321.731,-404.723 387.174,-443.802 450,-466 653.137,-537.774 896.75,-572.763 1071.53,-589.651"/>
<polygon fill="none" stroke="black" points="1071.34,-593.149 1081.63,-590.614 1072.01,-586.18 1071.34,-593.149"/>
</g>
<!-- 4 -->
<g id="node5" class="node"><title>4</title>
<polygon fill="none" stroke="black" points="621.037,-29 621.037,-137 1062.96,-137 1062.96,-29 621.037,-29"/>
<text text-anchor="middle" x="842" y="-121.8" font-family="Times,serif" font-size="14.00">MEG</text>
<polyline fill="none" stroke="black" points="621.037,-115 1062.96,-115 "/>
<text text-anchor="start" x="629.037" y="-99.8" font-family="Times,serif" font-size="14.00">projection</text>
<text text-anchor="start" x="629.037" y="-85.8" font-family="Times,serif" font-size="14.00">sensors</text>
<polyline fill="none" stroke="black" points="621.037,-79 1062.96,-79 "/>
<text text-anchor="start" x="629.037" y="-63.8" font-family="Times,serif" font-size="14.00">analytic(loc, ori)</text>
<text text-anchor="start" x="629.037" y="-49.8" font-family="Times,serif" font-size="14.00">create_time_series(connectivity, surface, region_map, region_volume_map)</text>
<text text-anchor="start" x="629.037" y="-35.8" font-family="Times,serif" font-size="14.00">from_file(cls, sensors_fname, projection_fname)</text>
</g>
<!-- 4&#45;&gt;7 -->
<g id="edge5" class="edge"><title>4&#45;&gt;7</title>
<path fill="none" stroke="black" d="M842,-137.111C842,-153.79 842,-173.05 842,-192.846"/>
<polygon fill="none" stroke="black" points="838.5,-192.916 842,-202.916 845.5,-192.916 838.5,-192.916"/>
</g>
<!-- 6 -->
<g id="node7" class="node"><title>6</title>
<polygon fill="none" stroke="black" points="459.121,-286 459.121,-382 622.879,-382 622.879,-286 459.121,-286"/>
<text text-anchor="middle" x="541" y="-366.8" font-family="Times,serif" font-size="14.00">ProgressLogger</text>
<polyline fill="none" stroke="black" points="459.121,-360 622.879,-360 "/>
<polyline fill="none" stroke="black" points="459.121,-336 622.879,-336 "/>
<text text-anchor="start" x="467.121" y="-320.8" font-family="Times,serif" font-size="14.00">config_for_sim(simulator)</text>
<text text-anchor="start" x="467.121" y="-306.8" font-family="Times,serif" font-size="14.00">record(step, state)</text>
<text text-anchor="start" x="467.121" y="-292.8" font-family="Times,serif" font-size="14.00">sample(step, state)</text>
</g>
<!-- 6&#45;&gt;5 -->
<g id="edge6" class="edge"><title>6&#45;&gt;5</title>
<path fill="none" stroke="black" d="M562.024,-382.278C577.16,-410.867 600.317,-445.616 631,-466 702.562,-513.543 906.794,-551.636 1071.49,-575.836"/>
<polygon fill="none" stroke="black" points="1071.38,-579.357 1081.78,-577.337 1072.39,-572.43 1071.38,-579.357"/>
</g>
<!-- 7&#45;&gt;5 -->
<g id="edge7" class="edge"><title>7&#45;&gt;5</title>
<path fill="none" stroke="black" d="M1043.62,-461.05C1046.43,-462.715 1049.22,-464.366 1052,-466 1069.79,-476.466 1088.4,-487.185 1107.09,-497.802"/>
<polygon fill="none" stroke="black" points="1105.55,-500.952 1115.98,-502.837 1109,-494.862 1105.55,-500.952"/>
</g>
<!-- 8 -->
<g id="node9" class="node"><title>8</title>
<polygon fill="none" stroke="black" points="1061.12,-266 1061.12,-402 1224.88,-402 1224.88,-266 1061.12,-266"/>
<text text-anchor="middle" x="1143" y="-386.8" font-family="Times,serif" font-size="14.00">Raw</text>
<polyline fill="none" stroke="black" points="1061.12,-380 1224.88,-380 "/>
<text text-anchor="start" x="1069.12" y="-364.8" font-family="Times,serif" font-size="14.00">istep : int</text>
<text text-anchor="start" x="1069.12" y="-350.8" font-family="Times,serif" font-size="14.00">period</text>
<text text-anchor="start" x="1069.12" y="-336.8" font-family="Times,serif" font-size="14.00">period</text>
<text text-anchor="start" x="1069.12" y="-322.8" font-family="Times,serif" font-size="14.00">variables_of_interest</text>
<text text-anchor="start" x="1069.12" y="-308.8" font-family="Times,serif" font-size="14.00">voi</text>
<polyline fill="none" stroke="black" points="1061.12,-302 1224.88,-302 "/>
<text text-anchor="start" x="1069.12" y="-286.8" font-family="Times,serif" font-size="14.00">config_for_sim(simulator)</text>
<text text-anchor="start" x="1069.12" y="-272.8" font-family="Times,serif" font-size="14.00">sample(step, state)</text>
</g>
<!-- 8&#45;&gt;5 -->
<g id="edge8" class="edge"><title>8&#45;&gt;5</title>
<path fill="none" stroke="black" d="M1182.76,-402.088C1199.25,-429.926 1218.84,-462.973 1237.36,-494.229"/>
<polygon fill="none" stroke="black" points="1234.44,-496.173 1242.55,-502.991 1240.46,-492.604 1234.44,-496.173"/>
</g>
<!-- 9 -->
<g id="node10" class="node"><title>9</title>
<polygon fill="none" stroke="black" points="1243.04,-259 1243.04,-409 1684.96,-409 1684.96,-259 1243.04,-259"/>
<text text-anchor="middle" x="1464" y="-393.8" font-family="Times,serif" font-size="14.00">SpatialAverage</text>
<polyline fill="none" stroke="black" points="1243.04,-387 1684.96,-387 "/>
<text text-anchor="start" x="1251.04" y="-371.8" font-family="Times,serif" font-size="14.00">default_mask</text>
<text text-anchor="start" x="1251.04" y="-357.8" font-family="Times,serif" font-size="14.00">is_default_special_mask : bool</text>
<text text-anchor="start" x="1251.04" y="-343.8" font-family="Times,serif" font-size="14.00">spatial_mask</text>
<text text-anchor="start" x="1251.04" y="-329.8" font-family="Times,serif" font-size="14.00">spatial_mask : recarray</text>
<text text-anchor="start" x="1251.04" y="-315.8" font-family="Times,serif" font-size="14.00">spatial_mean</text>
<polyline fill="none" stroke="black" points="1243.04,-309 1684.96,-309 "/>
<text text-anchor="start" x="1251.04" y="-293.8" font-family="Times,serif" font-size="14.00">config_for_sim(simulator)</text>
<text text-anchor="start" x="1251.04" y="-279.8" font-family="Times,serif" font-size="14.00">create_time_series(connectivity, surface, region_map, region_volume_map)</text>
<text text-anchor="start" x="1251.04" y="-265.8" font-family="Times,serif" font-size="14.00">sample(step, state)</text>
</g>
<!-- 9&#45;&gt;5 -->
<g id="edge9" class="edge"><title>9&#45;&gt;5</title>
<path fill="none" stroke="black" d="M1419.79,-409.136C1404.14,-435.38 1386.18,-465.506 1369.11,-494.135"/>
<polygon fill="none" stroke="black" points="1365.96,-492.584 1363.84,-502.966 1371.97,-496.169 1365.96,-492.584"/>
</g>
<!-- 10 -->
<g id="node11" class="node"><title>10</title>
<polygon fill="none" stroke="black" points="1702.91,-300 1702.91,-368 1823.09,-368 1823.09,-300 1702.91,-300"/>
<text text-anchor="middle" x="1763" y="-352.8" font-family="Times,serif" font-size="14.00">SubSample</text>
<polyline fill="none" stroke="black" points="1702.91,-346 1823.09,-346 "/>
<polyline fill="none" stroke="black" points="1702.91,-322 1823.09,-322 "/>
<text text-anchor="start" x="1710.91" y="-306.8" font-family="Times,serif" font-size="14.00">sample(step, state)</text>
</g>
<!-- 10&#45;&gt;5 -->
<g id="edge10" class="edge"><title>10&#45;&gt;5</title>
<path fill="none" stroke="black" d="M1752.95,-368.186C1742.43,-397.664 1723.18,-439.994 1693,-466 1647.48,-505.223 1590.1,-533.652 1533.46,-554.154"/>
<polygon fill="none" stroke="black" points="1532.27,-550.864 1524.01,-557.504 1534.61,-557.461 1532.27,-550.864"/>
</g>
<!-- 11 -->
<g id="node12" class="node"><title>11</title>
<polygon fill="none" stroke="black" points="1841.12,-293 1841.12,-375 2004.88,-375 2004.88,-293 1841.12,-293"/>
<text text-anchor="middle" x="1923" y="-359.8" font-family="Times,serif" font-size="14.00">TemporalAverage</text>
<polyline fill="none" stroke="black" points="1841.12,-353 2004.88,-353 "/>
<polyline fill="none" stroke="black" points="1841.12,-329 2004.88,-329 "/>
<text text-anchor="start" x="1849.12" y="-313.8" font-family="Times,serif" font-size="14.00">config_for_sim(simulator)</text>
<text text-anchor="start" x="1849.12" y="-299.8" font-family="Times,serif" font-size="14.00">sample(step, state)</text>
</g>
<!-- 11&#45;&gt;5 -->
<g id="edge11" class="edge"><title>11&#45;&gt;5</title>
<path fill="none" stroke="black" d="M1904.75,-375.16C1889.39,-404.554 1864.68,-443.146 1832,-466 1744.92,-526.902 1632.89,-561.12 1534.35,-580.346"/>
<polygon fill="none" stroke="black" points="1533.42,-576.962 1524.25,-582.275 1534.73,-583.837 1533.42,-576.962"/>
</g>
<!-- 12 -->
<g id="node13" class="node"><title>12</title>
<polygon fill="none" stroke="black" points="1081.04,-22 1081.04,-144 1522.96,-144 1522.96,-22 1081.04,-22"/>
<text text-anchor="middle" x="1302" y="-128.8" font-family="Times,serif" font-size="14.00">iEEG</text>
<polyline fill="none" stroke="black" points="1081.04,-122 1522.96,-122 "/>
<text text-anchor="start" x="1089.04" y="-106.8" font-family="Times,serif" font-size="14.00">projection</text>
<text text-anchor="start" x="1089.04" y="-92.8" font-family="Times,serif" font-size="14.00">sensors</text>
<text text-anchor="start" x="1089.04" y="-78.8" font-family="Times,serif" font-size="14.00">sigma</text>
<polyline fill="none" stroke="black" points="1081.04,-72 1522.96,-72 "/>
<text text-anchor="start" x="1089.04" y="-56.8" font-family="Times,serif" font-size="14.00">analytic(loc, ori)</text>
<text text-anchor="start" x="1089.04" y="-42.8" font-family="Times,serif" font-size="14.00">create_time_series(connectivity, surface, region_map, region_volume_map)</text>
<text text-anchor="start" x="1089.04" y="-28.8" font-family="Times,serif" font-size="14.00">from_file(cls, sensors_fname, projection_fname)</text>
</g>
<!-- 12&#45;&gt;7 -->
<g id="edge12" class="edge"><title>12&#45;&gt;7</title>
<path fill="none" stroke="black" d="M1167.25,-144.083C1132.01,-160.676 1094.16,-179.289 1052.67,-201.695"/>
<polygon fill="none" stroke="black" points="1050.87,-198.686 1043.76,-206.535 1054.22,-204.837 1050.87,-198.686"/>
</g>
</g>
</svg>
