<?xml version="1.0" encoding="UTF-8" standalone="no"?>
<!DOCTYPE svg PUBLIC "-//W3C//DTD SVG 1.1//EN"
 "http://www.w3.org/Graphics/SVG/1.1/DTD/svg11.dtd">
<!-- Generated by graphviz version 2.36.0 (20140111.2315)
 -->
<!-- Title: classes_coupling Pages: 1 -->
<svg width="613pt" height="440pt"
 viewBox="0.00 0.00 613.00 440.00" xmlns="http://www.w3.org/2000/svg" xmlns:xlink="http://www.w3.org/1999/xlink">
<g id="graph0" class="graph" transform="scale(1 1) rotate(0) translate(4 436)">
<title>classes_coupling</title>
<polygon fill="white" stroke="none" points="-4,4 -4,-436 609,-436 609,4 -4,4"/>
<!-- 0 -->
<g id="node1" class="node"><title>0</title>
<polygon fill="none" stroke="black" points="163.01,-349 163.01,-431 248.99,-431 248.99,-349 163.01,-349"/>
<text text-anchor="middle" x="206" y="-415.8" font-family="Times,serif" font-size="14.00">Coupling</text>
<polyline fill="none" stroke="black" points="163.01,-409 248.99,-409 "/>
<polyline fill="none" stroke="black" points="163.01,-385 248.99,-385 "/>
<text text-anchor="start" x="171.01" y="-369.8" font-family="Times,serif" font-size="14.00">post(gx)</text>
<text text-anchor="start" x="171.01" y="-355.8" font-family="Times,serif" font-size="14.00">pre(x_i, x_j)</text>
</g>
<!-- 1 -->
<g id="node2" class="node"><title>1</title>
<polygon fill="none" stroke="black" points="112.01,-15 112.01,-95 197.99,-95 197.99,-15 112.01,-15"/>
<text text-anchor="middle" x="155" y="-79.8" font-family="Times,serif" font-size="14.00">Difference</text>
<polyline fill="none" stroke="black" points="112.01,-73 197.99,-73 "/>
<text text-anchor="start" x="120.01" y="-57.8" font-family="Times,serif" font-size="14.00">a</text>
<polyline fill="none" stroke="black" points="112.01,-51 197.99,-51 "/>
<text text-anchor="start" x="120.01" y="-35.8" font-family="Times,serif" font-size="14.00">post(gx)</text>
<text text-anchor="start" x="120.01" y="-21.8" font-family="Times,serif" font-size="14.00">pre(x_i, x_j)</text>
</g>
<!-- 9 -->
<g id="node10" class="node"><title>9</title>
<polygon fill="none" stroke="black" points="348.279,-195 348.279,-263 453.721,-263 453.721,-195 348.279,-195"/>
<text text-anchor="middle" x="401" y="-247.8" font-family="Times,serif" font-size="14.00">SparseCoupling</text>
<polyline fill="none" stroke="black" points="348.279,-241 453.721,-241 "/>
<polyline fill="none" stroke="black" points="348.279,-217 453.721,-217 "/>
<text text-anchor="middle" x="401" y="-201.8" font-family="Times,serif" font-size="14.00"> </text>
</g>
<!-- 1&#45;&gt;9 -->
<g id="edge1" class="edge"><title>1&#45;&gt;9</title>
<path fill="none" stroke="black" d="M187.663,-95.2144C193.644,-100.765 200.171,-105.951 207,-110 259.304,-141.017 288.635,-111.924 339,-146 354.322,-156.367 367.401,-171.782 377.542,-186.458"/>
<polygon fill="none" stroke="black" points="374.734,-188.557 383.167,-194.97 380.573,-184.698 374.734,-188.557"/>
</g>
<!-- 2 -->
<g id="node3" class="node"><title>2</title>
<polygon fill="none" stroke="black" points="216.064,-1 216.064,-109 339.936,-109 339.936,-1 216.064,-1"/>
<text text-anchor="middle" x="278" y="-93.8" font-family="Times,serif" font-size="14.00">HyperbolicTangent</text>
<polyline fill="none" stroke="black" points="216.064,-87 339.936,-87 "/>
<text text-anchor="start" x="224.064" y="-71.8" font-family="Times,serif" font-size="14.00">a</text>
<text text-anchor="start" x="224.064" y="-57.8" font-family="Times,serif" font-size="14.00">b</text>
<text text-anchor="start" x="224.064" y="-43.8" font-family="Times,serif" font-size="14.00">midpoint</text>
<text text-anchor="start" x="224.064" y="-29.8" font-family="Times,serif" font-size="14.00">sigma</text>
<polyline fill="none" stroke="black" points="216.064,-23 339.936,-23 "/>
<text text-anchor="start" x="224.064" y="-7.8" font-family="Times,serif" font-size="14.00">pre(x_i, x_j)</text>
</g>
<!-- 2&#45;&gt;9 -->
<g id="edge2" class="edge"><title>2&#45;&gt;9</title>
<path fill="none" stroke="black" d="M315.908,-109.009C333.762,-133.976 354.742,-163.315 371.403,-186.613"/>
<polygon fill="none" stroke="black" points="368.668,-188.805 377.332,-194.903 374.362,-184.733 368.668,-188.805"/>
</g>
<!-- 3 -->
<g id="node4" class="node"><title>3</title>
<polygon fill="none" stroke="black" points="358.01,-15 358.01,-95 443.99,-95 443.99,-15 358.01,-15"/>
<text text-anchor="middle" x="401" y="-79.8" font-family="Times,serif" font-size="14.00">Kuramoto</text>
<polyline fill="none" stroke="black" points="358.01,-73 443.99,-73 "/>
<text text-anchor="start" x="366.01" y="-57.8" font-family="Times,serif" font-size="14.00">a</text>
<polyline fill="none" stroke="black" points="358.01,-51 443.99,-51 "/>
<text text-anchor="start" x="366.01" y="-35.8" font-family="Times,serif" font-size="14.00">post(gx)</text>
<text text-anchor="start" x="366.01" y="-21.8" font-family="Times,serif" font-size="14.00">pre(x_i, x_j)</text>
</g>
<!-- 3&#45;&gt;9 -->
<g id="edge3" class="edge"><title>3&#45;&gt;9</title>
<path fill="none" stroke="black" d="M401,-95.0295C401,-121.747 401,-157.19 401,-184.765"/>
<polygon fill="none" stroke="black" points="397.5,-184.913 401,-194.913 404.5,-184.913 397.5,-184.913"/>
</g>
<!-- 4 -->
<g id="node5" class="node"><title>4</title>
<polygon fill="none" stroke="black" points="461.669,-15 461.669,-95 524.331,-95 524.331,-15 461.669,-15"/>
<text text-anchor="middle" x="493" y="-79.8" font-family="Times,serif" font-size="14.00">Linear</text>
<polyline fill="none" stroke="black" points="461.669,-73 524.331,-73 "/>
<text text-anchor="start" x="469.669" y="-57.8" font-family="Times,serif" font-size="14.00">a</text>
<text text-anchor="start" x="469.669" y="-43.8" font-family="Times,serif" font-size="14.00">b</text>
<polyline fill="none" stroke="black" points="461.669,-37 524.331,-37 "/>
<text text-anchor="start" x="469.669" y="-21.8" font-family="Times,serif" font-size="14.00">post(gx)</text>
</g>
<!-- 4&#45;&gt;9 -->
<g id="edge4" class="edge"><title>4&#45;&gt;9</title>
<path fill="none" stroke="black" d="M472.124,-95.0295C457.644,-122.1 438.373,-158.128 423.543,-185.854"/>
<polygon fill="none" stroke="black" points="420.328,-184.444 418.698,-194.913 426.501,-187.746 420.328,-184.444"/>
</g>
<!-- 5 -->
<g id="node6" class="node"><title>5</title>
<polygon fill="none" stroke="black" points="-0.110352,-147 -0.110352,-311 92.1104,-311 92.1104,-147 -0.110352,-147"/>
<text text-anchor="middle" x="46" y="-295.8" font-family="Times,serif" font-size="14.00">PreSigmoidal</text>
<polyline fill="none" stroke="black" points="-0.110352,-289 92.1104,-289 "/>
<text text-anchor="start" x="7.88965" y="-273.8" font-family="Times,serif" font-size="14.00">G</text>
<text text-anchor="start" x="7.88965" y="-259.8" font-family="Times,serif" font-size="14.00">H</text>
<text text-anchor="start" x="7.88965" y="-245.8" font-family="Times,serif" font-size="14.00">P</text>
<text text-anchor="start" x="7.88965" y="-231.8" font-family="Times,serif" font-size="14.00">Q</text>
<text text-anchor="start" x="7.88965" y="-217.8" font-family="Times,serif" font-size="14.00">dynamic</text>
<text text-anchor="start" x="7.88965" y="-203.8" font-family="Times,serif" font-size="14.00">globalT</text>
<text text-anchor="start" x="7.88965" y="-189.8" font-family="Times,serif" font-size="14.00">sliceT : int</text>
<text text-anchor="start" x="7.88965" y="-175.8" font-family="Times,serif" font-size="14.00">theta</text>
<polyline fill="none" stroke="black" points="-0.110352,-169 92.1104,-169 "/>
<text text-anchor="start" x="7.88965" y="-153.8" font-family="Times,serif" font-size="14.00">configure()</text>
</g>
<!-- 5&#45;&gt;0 -->
<g id="edge5" class="edge"><title>5&#45;&gt;0</title>
<path fill="none" stroke="black" d="M92.2837,-302.251C95.1226,-305.636 98.0339,-308.907 101,-312 116.731,-328.405 136.303,-343.802 154.271,-356.452"/>
<polygon fill="none" stroke="black" points="152.721,-359.634 162.939,-362.433 156.697,-353.873 152.721,-359.634"/>
</g>
<!-- 6 -->
<g id="node7" class="node"><title>6</title>
<polygon fill="none" stroke="black" points="542.669,-22 542.669,-88 605.331,-88 605.331,-22 542.669,-22"/>
<text text-anchor="middle" x="574" y="-72.8" font-family="Times,serif" font-size="14.00">Scaling</text>
<polyline fill="none" stroke="black" points="542.669,-66 605.331,-66 "/>
<text text-anchor="start" x="550.669" y="-50.8" font-family="Times,serif" font-size="14.00">a</text>
<polyline fill="none" stroke="black" points="542.669,-44 605.331,-44 "/>
<text text-anchor="start" x="550.669" y="-28.8" font-family="Times,serif" font-size="14.00">post(gx)</text>
</g>
<!-- 6&#45;&gt;9 -->
<g id="edge6" class="edge"><title>6&#45;&gt;9</title>
<path fill="none" stroke="black" d="M551.131,-88.2302C545.466,-95.6046 539.227,-103.253 533,-110 507.305,-137.839 475.755,-166.224 449.944,-188.175"/>
<polygon fill="none" stroke="black" points="447.512,-185.647 442.13,-194.774 452.029,-190.996 447.512,-185.647"/>
</g>
<!-- 7 -->
<g id="node8" class="node"><title>7</title>
<polygon fill="none" stroke="black" points="110.221,-168 110.221,-290 183.779,-290 183.779,-168 110.221,-168"/>
<text text-anchor="middle" x="147" y="-274.8" font-family="Times,serif" font-size="14.00">Sigmoidal</text>
<polyline fill="none" stroke="black" points="110.221,-268 183.779,-268 "/>
<text text-anchor="start" x="118.221" y="-252.8" font-family="Times,serif" font-size="14.00">a</text>
<text text-anchor="start" x="118.221" y="-238.8" font-family="Times,serif" font-size="14.00">cmax</text>
<text text-anchor="start" x="118.221" y="-224.8" font-family="Times,serif" font-size="14.00">cmin</text>
<text text-anchor="start" x="118.221" y="-210.8" font-family="Times,serif" font-size="14.00">midpoint</text>
<text text-anchor="start" x="118.221" y="-196.8" font-family="Times,serif" font-size="14.00">sigma</text>
<polyline fill="none" stroke="black" points="110.221,-190 183.779,-190 "/>
<text text-anchor="start" x="118.221" y="-174.8" font-family="Times,serif" font-size="14.00">post(gx)</text>
</g>
<!-- 7&#45;&gt;0 -->
<g id="edge7" class="edge"><title>7&#45;&gt;0</title>
<path fill="none" stroke="black" d="M169.305,-290.111C175.305,-306.279 181.727,-323.585 187.494,-339.129"/>
<polygon fill="none" stroke="black" points="184.231,-340.395 190.991,-348.553 190.794,-337.96 184.231,-340.395"/>
</g>
<!-- 8 -->
<g id="node9" class="node"><title>8</title>
<polygon fill="none" stroke="black" points="202,-161 202,-297 330,-297 330,-161 202,-161"/>
<text text-anchor="middle" x="266" y="-281.8" font-family="Times,serif" font-size="14.00">SigmoidalJansenRit</text>
<polyline fill="none" stroke="black" points="202,-275 330,-275 "/>
<text text-anchor="start" x="210" y="-259.8" font-family="Times,serif" font-size="14.00">a</text>
<text text-anchor="start" x="210" y="-245.8" font-family="Times,serif" font-size="14.00">cmax</text>
<text text-anchor="start" x="210" y="-231.8" font-family="Times,serif" font-size="14.00">cmin</text>
<text text-anchor="start" x="210" y="-217.8" font-family="Times,serif" font-size="14.00">midpoint</text>
<text text-anchor="start" x="210" y="-203.8" font-family="Times,serif" font-size="14.00">r</text>
<polyline fill="none" stroke="black" points="202,-197 330,-197 "/>
<text text-anchor="start" x="210" y="-181.8" font-family="Times,serif" font-size="14.00">post(gx)</text>
<text text-anchor="start" x="210" y="-167.8" font-family="Times,serif" font-size="14.00">pre(x_i, x_j)</text>
</g>
<!-- 8&#45;&gt;0 -->
<g id="edge8" class="edge"><title>8&#45;&gt;0</title>
<path fill="none" stroke="black" d="M240.555,-297.43C235.26,-311.461 229.772,-326.004 224.77,-339.259"/>
<polygon fill="none" stroke="black" points="221.48,-338.064 221.224,-348.656 228.029,-340.536 221.48,-338.064"/>
</g>
<!-- 9&#45;&gt;0 -->
<g id="edge9" class="edge"><title>9&#45;&gt;0</title>
<path fill="none" stroke="black" d="M380.405,-263.229C369.425,-279.223 354.91,-297.93 339,-312 314.953,-333.266 284.133,-351.55 258.216,-364.959"/>
<polygon fill="none" stroke="black" points="256.608,-361.85 249.273,-369.495 259.775,-368.093 256.608,-361.85"/>
</g>
</g>
</svg>
