<?xml version="1.0" encoding="utf-8"?>
<!-- Generator: Adobe Illustrator 21.1.0, SVG Export Plug-In . SVG Version: 6.00 Build 0)  -->
<svg version="1.1" id="Layer_1" xmlns="http://www.w3.org/2000/svg" xmlns:xlink="http://www.w3.org/1999/xlink" x="0px" y="0px"
	 viewBox="0 0 262.8 104.9" style="enable-background:new 0 0 262.8 104.9;" xml:space="preserve">
<style type="text/css">
	.st0{fill:#41C3DC;}
	.st1{fill:#FFFFFF;}
</style>
<g>
	<g>
		<path class="st0" d="M0,104.9V16.2C0,7.3,7.3,0,16.2,0h246.6v88.7c0,9-7.3,16.2-16.2,16.2L0,104.9L0,104.9z"/>
	</g>
</g>
<path class="st0" d="M112.9,42.1h-8.2c0,0-5.9,16.3-6.9,19.2C96.6,58.4,90,42.1,90,42.1h-9.8c0,0,12.7,30.1,13,30.6
	c0,0.1-0.1,0.2-0.1,0.2c-1.1,2.8-1.8,3.8-5.1,3.8c-1.1,0-2.2-0.2-3.5-0.7l-0.9-0.3L82.4,84l0.7,0.2C85,84.7,87,85,89,85
	c7.1,0,9.8-3.4,12-8.9l13.1-33.9L112.9,42.1L112.9,42.1z"/>
<path class="st0" d="M129.4,49.6c1.6,0,3.3,0.9,5,2.7l0.5,0.6l6.2-6.2l-0.5-0.5c-2.7-3-6.8-4.8-11.3-4.8c-9.8,0-16.8,6.9-16.8,16.3
	S119.6,74,129.3,74c2.8,0,8-1.2,11.2-4.4l0.5-0.5l-6.1-6.5l-0.6,0.7c-1.2,1.6-3,2.5-5.1,2.5c-5.2,0-7.9-4.1-7.9-8.1
	C121.5,53.6,124.3,49.6,129.4,49.6"/>
<path class="st0" d="M163.6,49.7v-7.8l-0.6-0.1l-2.9-0.5c-3.3,0-6.2,1.4-8.1,3.8v-3h-8.9v31.1h8.9V56.6c0-0.1,0.1-6.7,7.2-6.7
	l4.3,0.7L163.6,49.7L163.6,49.7z"/>
<path class="st0" d="M211.9,53.8c-3.2-0.7-5.1-1.2-5.1-2.6c0-1.9,2.3-2.4,3.5-2.4c2.2,0,3.8,0.9,5.2,2.7l0.5,0.7l6.1-5.5l-0.4-0.6
	c-2.2-3.1-6.3-4.8-11.2-4.8c-6.3,0-12.7,3.2-12.7,10.3s6,8.4,10.4,9.4c3.4,0.8,5.5,1.3,5.5,3.2c0,1.8-2.4,2.6-4.1,2.6
	c-2.8,0-4.6-1.3-6.4-3.4l-0.5-0.6l-6.1,5.7l0.5,0.6c2.9,3.2,6.8,4.8,12.1,4.8c6.2,0,13.5-2.7,13.5-10.3
	C222.8,56.2,216.5,54.8,211.9,53.8"/>
<path class="st0" d="M247.1,49.9v-7.8H239V30.4h-0.8H230v11.7h-6v7.8h6.1v12.8c0,6.9,1.7,11.2,10.4,11.2c1.9,0,4.6-0.3,6.2-1.1
	l0.4-0.2v-8.2l-1.2,0.9c-0.7,0.5-2.3,0.8-3.5,0.8c-2.5,0-3.3-1.1-3.3-4V49.9H247.1L247.1,49.9z"/>
<path class="st0" d="M41,50.8c4.4-1.6,7-5,7-9.4c0-10-9.1-11.2-15.9-11.2H15.8v43.4h17.8c7.9,0,16.4-3.2,16.4-12.2
	C50,55.9,46.4,51.8,41,50.8L41,50.8z"/>
<path class="st0" d="M25.9,38.8H32c2.3,0,6,0.5,6,4.2c0,4-4.3,4.4-5.6,4.4h-6.5L25.9,38.8L25.9,38.8z"/>
<path class="st0" d="M34,65h-8.2v-9.1h6.8c3.3,0,7.3,0.8,7.3,4.4C40,63.8,36.9,65,34,65L34,65z"/>
<path class="st0" d="M67.3,41.3c-5.3,0-10,1.8-13.1,5l-0.5,0.6l5,5l0.6-0.5c1.9-1.8,4.6-2.9,7.3-2.9c3.8,0,6,1.8,6,4.8l0,0h-1.1
	c-5.8,0-19.4,0-19.4,11.1c0,6.6,6,9.6,11.6,9.6c3.7,0,6.7-1.3,8.9-3.6v2.9h8.2V55.4C80.7,51.2,80.7,41.3,67.3,41.3L67.3,41.3z"/>
<path class="st0" d="M72,60.8c0,3.9-2.3,6-6.7,6c-1.5,0-4.4-0.6-4.4-3.1s3.4-3.8,10.3-3.8H72V60.8L72,60.8z"/>
<path class="st0" d="M195.6,58.2c0-10.4-5.6-16.8-14.6-16.8c-9.8,0-16.9,6.9-16.9,16.3S171.2,74,181,74c5.3,0,9.8-2.1,13.1-6.2
	l0.5-0.6l-6.5-5l-0.5,0.6c-2,2.5-4.4,3.7-7.3,3.7c-3.6,0-6.2-2.1-6.9-5.5h22.3v-2.8H195.6z"/>
<path class="st0" d="M173.3,53.9c0.8-3.4,3.1-5.5,6.6-5.5c3.8,0,6.2,2.1,6.6,5.5H173.3L173.3,53.9z"/>
<path class="st1" d="M112.9,42.1h-8.2c0,0-5.9,16.3-6.9,19.2C96.6,58.4,90,42.1,90,42.1h-9.8c0,0,12.7,30.1,13,30.6
	c0,0.1-0.1,0.2-0.1,0.2c-1.1,2.8-1.8,3.8-5.1,3.8c-1.1,0-2.2-0.2-3.5-0.7l-0.9-0.3L82.4,84l0.7,0.2C85,84.7,87,85,89,85
	c7.1,0,9.8-3.4,12-8.9l13.1-33.9L112.9,42.1L112.9,42.1z"/>
<path class="st1" d="M129.4,49.6c1.6,0,3.3,0.9,5,2.7l0.5,0.6l6.2-6.2l-0.5-0.5c-2.7-3-6.8-4.8-11.3-4.8c-9.8,0-16.8,6.9-16.8,16.3
	S119.6,74,129.3,74c2.8,0,8-1.2,11.2-4.4l0.5-0.5l-6.1-6.5l-0.6,0.7c-1.2,1.6-3,2.5-5.1,2.5c-5.2,0-7.9-4.1-7.9-8.1
	C121.5,53.6,124.3,49.6,129.4,49.6"/>
<path class="st1" d="M163.6,49.7v-7.8l-0.6-0.1l-2.9-0.5c-3.3,0-6.2,1.4-8.1,3.8v-3h-8.9v31.1h8.9V56.6c0-0.1,0.1-6.7,7.2-6.7
	l4.3,0.7L163.6,49.7L163.6,49.7z"/>
<path class="st1" d="M211.9,53.8c-3.2-0.7-5.1-1.2-5.1-2.6c0-1.9,2.3-2.4,3.5-2.4c2.2,0,3.8,0.9,5.2,2.7l0.5,0.7l6.1-5.5l-0.4-0.6
	c-2.2-3.1-6.3-4.8-11.2-4.8c-6.3,0-12.7,3.2-12.7,10.3s6,8.4,10.4,9.4c3.4,0.8,5.5,1.3,5.5,3.2c0,1.8-2.4,2.6-4.1,2.6
	c-2.8,0-4.6-1.3-6.4-3.4l-0.5-0.6l-6.1,5.7l0.5,0.6c2.9,3.2,6.8,4.8,12.1,4.8c6.2,0,13.5-2.7,13.5-10.3
	C222.8,56.2,216.5,54.8,211.9,53.8"/>
<path class="st1" d="M247.1,49.9v-7.8H239V30.4h-0.8H230v11.7h-6v7.8h6.1v12.8c0,6.9,1.7,11.2,10.4,11.2c1.9,0,4.6-0.3,6.2-1.1
	l0.4-0.2v-8.2l-1.2,0.9c-0.7,0.5-2.3,0.8-3.5,0.8c-2.5,0-3.3-1.1-3.3-4V49.9H247.1L247.1,49.9z"/>
<path class="st1" d="M41,50.8c4.4-1.6,7-5,7-9.4c0-10-9.1-11.2-15.9-11.2H15.8v43.4h17.8c7.9,0,16.4-3.2,16.4-12.2
	C50,55.9,46.4,51.8,41,50.8L41,50.8z"/>
<path class="st0" d="M25.9,38.8H32c2.3,0,6,0.5,6,4.2c0,4-4.3,4.4-5.6,4.4h-6.5L25.9,38.8L25.9,38.8z"/>
<path class="st0" d="M34,65h-8.2v-9.1h6.8c3.3,0,7.3,0.8,7.3,4.4C40,63.8,36.9,65,34,65L34,65z"/>
<path class="st1" d="M67.3,41.3c-5.3,0-10,1.8-13.1,5l-0.5,0.6l5,5l0.6-0.5c1.9-1.8,4.6-2.9,7.3-2.9c3.8,0,6,1.8,6,4.8l0,0h-1.1
	c-5.8,0-19.4,0-19.4,11.1c0,6.6,6,9.6,11.6,9.6c3.7,0,6.7-1.3,8.9-3.6v2.9h8.2V55.4C80.7,51.2,80.7,41.3,67.3,41.3L67.3,41.3z"/>
<path class="st0" d="M72,60.8c0,3.9-2.3,6-6.7,6c-1.5,0-4.4-0.6-4.4-3.1s3.4-3.8,10.3-3.8H72V60.8L72,60.8z"/>
<path class="st1" d="M195.6,58.2c0-10.4-5.6-16.8-14.6-16.8c-9.8,0-16.9,6.9-16.9,16.3S171.2,74,181,74c5.3,0,9.8-2.1,13.1-6.2
	l0.5-0.6l-6.5-5l-0.5,0.6c-2,2.5-4.4,3.7-7.3,3.7c-3.6,0-6.2-2.1-6.9-5.5h22.3v-2.8H195.6z"/>
<path class="st0" d="M173.3,53.9c0.8-3.4,3.1-5.5,6.6-5.5c3.8,0,6.2,2.1,6.6,5.5H173.3L173.3,53.9z"/>
</svg>
