<?xml version="1.0" encoding="utf-8"?>
<!-- Generator: Adobe Illustrator 18.0.0, SVG Export Plug-In . SVG Version: 6.00 Build 0)  -->
<!DOCTYPE svg PUBLIC "-//W3C//DTD SVG 1.1//EN" "http://www.w3.org/Graphics/SVG/1.1/DTD/svg11.dtd">
<svg version="1.1" id="svg2353" xmlns:svg="http://www.w3.org/2000/svg"
     xmlns="http://www.w3.org/2000/svg" xmlns:xlink="http://www.w3.org/1999/xlink" x="0px" y="0px" viewBox="310.2 114.8 180 66"
     enable-background="new 310.2 114.8 180 66" xml:space="preserve">
<g id="g3471">
    <polygon id="polygon10" points="462.4,138.6 468.1,138.6 468.1,136.2 454.3,136.2 454.3,138.6 459.9,138.6 459.9,159.3
        462.4,159.3     "/>
    <polygon id="polygon12" points="442,159.3 442,136.2 444.6,136.2 444.6,159.3     "/>
    <path id="path14" d="M402.2,150.3l-3.9-9.2l-3.9,9.2H402.2 M403.2,152.7h-9.8l-2.8,6.5h-2.8l10.2-23.1l0.5-1.1l0.5,1.1l9.9,23.1
        h-2.8L403.2,152.7L403.2,152.7z"/>
    <path id="path16" d="M425.8,148.8l5.6,10.5h-3l-5.2-10.1h-3.5v10.1h-2.6v-23.1h6.1c3.8,0,7.3,1.7,7.3,6.4
        C430.5,146.3,428.2,148.1,425.8,148.8 M419.7,138.6v8.3h3.2c3,0,5-1.4,5-4.3c0-2.9-2.4-4-5-4L419.7,138.6L419.7,138.6z"/>
    <polygon id="polygon18" points="477.4,159.3 489.8,159.3 489.8,156.9 479.9,156.9 479.9,147.8 488.4,147.8 488.4,145.5
        479.9,145.5 479.9,138.6 489.5,138.6 489.5,136.2 477.4,136.2     "/>
    <polygon id="polygon20" points="484.7,127.8 481,132.9 482.6,133.7 487.2,129     "/>
    <polygon id="polygon22" points="365,145.6 372.9,145.6 372.9,148 365,148 365,159.3 362.5,159.3 362.5,136.2 365,136.2     "/>
    <polygon id="polygon24" points="376.4,159.3 376.4,136.2 378.9,136.2 378.9,159.3     "/>
    <path id="path28" d="M352.4,138c-2-1.5-4.3-2.2-6.8-2.2c-7.5,0-12.2,5.6-12.2,12.1c0,6.5,4.7,11.9,12.2,11.9c2.4,0,4.8-0.8,6.8-2.2
        v-3.1c-1.8,1.8-4.3,3-6.9,3c-5.6,0-9.3-4.6-9.3-9.7c0-5,3.6-9.7,9.2-9.7c2.6,0,5.1,1.1,7,3V138L352.4,138z"/>
</g>
<path id="path26" fill="#878787" d="M310.2,147.7c0-18.2,14.7-33,33.3-33c8.1,0,15.6,2.9,21.4,7.8v5.1c-5.3-5.6-12.8-9.2-21.2-9.2
    c-16.3,0-29,13-29,29.1c0,16.1,12.7,29.1,29,29.1c8.4,0,15.9-3.5,21.2-9.2v5.3c-5.8,4.9-13.2,7.8-21.4,7.8
    C324.9,180.8,310.2,166,310.2,147.7L310.2,147.7z"/>
<g>
    <path id="path30" fill="#878787" d="M372.8,173.2c-1.3,0-2-0.9-2-2.4v-3.2h0.8v3.1c0,1,0.4,1.6,1.2,1.6c0.9,0,1.3-0.5,1.3-1.5v-3.2
        h0.8v3.2C374.9,172.3,374.1,173.2,372.8,173.2L372.8,173.2z"/>
    <path id="path32" fill="#878787" d="M379.8,173.1l-2.2-3.4c-0.1-0.2-0.3-0.5-0.4-0.7c0,0.2,0,1,0,1.3l0,2.8h-0.8v-5.4h0.8l2.1,3.3
        c0.1,0.2,0.4,0.6,0.5,0.8c0-0.2,0-1,0-1.3v-2.8h0.8v5.4L379.8,173.1L379.8,173.1z"/>
    <polygon id="polygon34" fill="#878787" points="382.1,173.1 382.1,167.6 382.9,167.6 382.9,173.1     "/>
    <path id="path36" fill="#878787" d="M386.9,173.1h-0.9l-1.9-5.4h0.9l1.1,3.5c0.1,0.3,0.3,0.8,0.3,1c0-0.2,0.2-0.7,0.3-1l1.1-3.5
        h0.9L386.9,173.1L386.9,173.1z"/>
    <polygon id="polygon38" fill="#878787" points="390,173.1 390,167.6 393.5,167.6 393.5,168.4 390.8,168.4 390.8,169.8 392.4,169.8
        392.4,170.6 390.8,170.6 390.8,172.3 393.6,172.3 393.6,173.1     "/>
    <path id="path40" fill="#878787" d="M397.3,168.4h-1.6v1.8h1.6c0.5,0,0.9-0.3,0.9-0.9C398.3,168.7,397.9,168.4,397.3,168.4
        L397.3,168.4z M397.9,170.9l1.1,2.2h-0.9l-1.1-2.2h-1.2v2.2h-0.8v-5.4h2.4c1,0,1.8,0.5,1.8,1.6
        C399.1,170.1,398.6,170.7,397.9,170.9L397.9,170.9z"/>
    <path id="path42" fill="#878787" d="M402.1,173.2c-0.8,0-1.5-0.3-1.9-0.9l0.6-0.6c0.4,0.4,0.9,0.6,1.4,0.6c0.8,0,1.1-0.3,1.1-0.8
        c0-0.4-0.3-0.6-1.2-0.9c-1.2-0.3-1.7-0.6-1.7-1.6c0-0.9,0.8-1.5,1.8-1.5c0.7,0,1.3,0.3,1.8,0.7l-0.6,0.6c-0.3-0.4-0.7-0.5-1.3-0.5
        c-0.6,0-0.9,0.3-0.9,0.7c0,0.4,0.2,0.6,1.2,0.8c1.1,0.3,1.7,0.7,1.7,1.6C404.1,172.5,403.5,173.2,402.1,173.2L402.1,173.2z"/>
    <polygon id="polygon44" fill="#878787" points="405.5,173.1 405.5,167.6 406.3,167.6 406.3,173.1     "/>
    <polygon id="polygon46" fill="#878787" points="410,168.4 410,173.1 409.2,173.1 409.2,168.4 407.6,168.4 407.6,167.6 411.6,167.6
        411.6,168.4     "/>
    <path id="path48" fill="#878787" d="M415.6,167.3c-0.3,0-0.5-0.2-0.5-0.5c0-0.3,0.2-0.5,0.5-0.5c0.3,0,0.5,0.2,0.5,0.5
        C416.1,167,415.9,167.3,415.6,167.3z M415.2,169.8c-0.1-0.4-0.4-1-0.4-1.3c-0.1,0.2-0.3,0.9-0.4,1.3l-0.4,1.2h1.7L415.2,169.8
        L415.2,169.8z M414.1,167.3c-0.3,0-0.5-0.2-0.5-0.5c0-0.3,0.2-0.5,0.5-0.5c0.3,0,0.5,0.2,0.5,0.5
        C414.6,167,414.3,167.3,414.1,167.3z M416.4,173.1l-0.5-1.3h-2.2l-0.5,1.3h-0.8l2-5.4h0.9l2,5.4H416.4L416.4,173.1z"/>
    <polygon id="polygon50" fill="#878787" points="420.5,168.4 420.5,173.1 419.7,173.1 419.7,168.4 418.1,168.4 418.1,167.6
        422.1,167.6 422.1,168.4     "/>
    <path id="path52" fill="#878787" d="M424.8,173.2c-0.8,0-1.5-0.3-1.9-0.9l0.6-0.6c0.4,0.4,0.9,0.6,1.4,0.6c0.8,0,1.1-0.3,1.1-0.8
        c0-0.4-0.3-0.6-1.2-0.9c-1.2-0.3-1.7-0.6-1.7-1.6c0-0.9,0.8-1.5,1.8-1.5c0.7,0,1.3,0.3,1.8,0.7l-0.6,0.6c-0.3-0.4-0.7-0.5-1.3-0.5
        c-0.6,0-0.9,0.3-0.9,0.7c0,0.4,0.2,0.6,1.2,0.8c1.1,0.3,1.7,0.7,1.7,1.6C426.8,172.5,426.2,173.2,424.8,173.2L424.8,173.2z"/>
    <path id="path54" fill="#878787" d="M432.2,173.1v-2.9c0-0.3,0-0.8,0-1c-0.1,0.2-0.2,0.5-0.4,0.9l-1.3,3.1l-1.3-3.1
        c-0.1-0.3-0.3-0.7-0.4-0.9c0,0.2,0,0.6,0,1v2.9h-0.8v-5.4h0.8l1.2,2.9c0.1,0.3,0.3,0.7,0.4,0.9c0.1-0.2,0.2-0.6,0.4-0.9l1.2-2.9
        h0.9v5.4H432.2L432.2,173.1z"/>
    <polygon id="polygon56" fill="#878787" points="434.6,173.1 434.6,167.6 438.1,167.6 438.1,168.4 435.4,168.4 435.4,169.8
        436.9,169.8 436.9,170.6 435.4,170.6 435.4,172.3 438.2,172.3 438.2,173.1     "/>
    <path id="path58" fill="#878787" d="M441,168.4h-0.7v3.9h0.7c1.3,0,1.8-0.8,1.8-1.9C442.8,169.2,442.3,168.4,441,168.4L441,168.4z
         M441,173.1h-1.5v-5.4h1.5c1.5,0,2.7,0.8,2.7,2.7S442.4,173.1,441,173.1z"/>
    <polygon id="polygon60" fill="#878787" points="444.9,173.1 444.9,167.6 445.7,167.6 445.7,173.1     "/>
    <path id="path62" fill="#878787" d="M447.1,173.1v-0.8l2.7-3.2c0.2-0.2,0.5-0.6,0.6-0.7c-0.2,0-0.8,0-1.1,0h-2v-0.8h4v0.8l-2.6,3.2
        c-0.2,0.2-0.5,0.6-0.6,0.7c0.2,0,0.8,0,1.1,0h2.1v0.8L447.1,173.1L447.1,173.1z"/>
    <polygon id="polygon64" fill="#878787" points="452.7,173.1 452.7,167.6 453.5,167.6 453.5,173.1     "/>
    <path id="path66" fill="#878787" d="M458.4,173.1l-2.2-3.4c-0.1-0.2-0.3-0.5-0.4-0.7c0,0.2,0,1,0,1.3v2.8h-0.8v-5.4h0.8l2.1,3.3
        c0.1,0.2,0.4,0.6,0.5,0.8c0-0.2,0-1,0-1.3l0-2.8h0.8v5.4L458.4,173.1L458.4,173.1z"/>
    <path id="path68" fill="#878787" d="M465.3,170.5h-1.5v1.8h1.5c0.7,0,1-0.4,1-0.9C466.2,170.9,465.9,170.5,465.3,170.5L465.3,170.5
        z M465.2,168.4h-1.5v1.4h1.5c0.5,0,0.8-0.3,0.8-0.7C466,168.7,465.8,168.4,465.2,168.4L465.2,168.4z M465.2,173.1H463v-5.4h2.2
        c0.9,0,1.6,0.5,1.6,1.4c0,0.6-0.3,0.9-0.7,1.1c0.4,0.1,0.9,0.5,0.9,1.3C467,172.5,466.4,173.1,465.2,173.1L465.2,173.1z"/>
    <polygon id="polygon70" fill="#878787" points="468.4,173.1 468.4,167.6 471.9,167.6 471.9,168.4 469.2,168.4 469.2,169.8
        470.8,169.8 470.8,170.6 469.2,170.6 469.2,172.3 472,172.3 472,173.1     "/>
    <path id="path72" fill="#878787" d="M475.7,168.4h-1.6v1.8h1.6c0.5,0,0.9-0.3,0.9-0.9C476.6,168.7,476.3,168.4,475.7,168.4
        L475.7,168.4z M476.3,170.9l1.1,2.2h-0.9l-1.1-2.2h-1.2v2.2h-0.8v-5.4h2.4c1,0,1.8,0.5,1.8,1.6C477.5,170.1,477,170.7,476.3,170.9
        L476.3,170.9z"/>
    <polygon id="polygon74" fill="#878787" points="478.9,173.1 478.9,167.6 479.7,167.6 479.7,172.3 482.4,172.3 482.4,173.1     "/>
    <polygon id="polygon76" fill="#878787" points="483.7,173.1 483.7,167.6 484.5,167.6 484.5,173.1     "/>
    <path id="path78" fill="#878787" d="M489.4,173.1l-2.2-3.4c-0.1-0.2-0.3-0.5-0.4-0.7c0,0.2,0,1,0,1.3l0,2.8h-0.8v-5.4h0.8l2.1,3.3
        c0.1,0.2,0.4,0.6,0.5,0.8c0-0.2,0-1,0-1.3v-2.8h0.8v5.4L489.4,173.1L489.4,173.1z"/>
    <path id="path80" fill="#878787" d="M372.8,173.2c-1.3,0-2-0.9-2-2.4v-3.2h0.8v3.1c0,1,0.4,1.6,1.2,1.6c0.9,0,1.3-0.5,1.3-1.5v-3.2
        h0.8v3.2C374.9,172.3,374.1,173.2,372.8,173.2L372.8,173.2z"/>
    <path id="path82" fill="#878787" d="M379.8,173.1l-2.2-3.4c-0.1-0.2-0.3-0.5-0.4-0.7c0,0.2,0,1,0,1.3l0,2.8h-0.8v-5.4h0.8l2.1,3.3
        c0.1,0.2,0.4,0.6,0.5,0.8c0-0.2,0-1,0-1.3v-2.8h0.8v5.4L379.8,173.1L379.8,173.1z"/>
    <polygon id="polygon84" fill="#878787" points="382.1,173.1 382.1,167.6 382.9,167.6 382.9,173.1     "/>
    <path id="path86" fill="#878787" d="M386.9,173.1h-0.9l-1.9-5.4h0.9l1.1,3.5c0.1,0.3,0.3,0.8,0.3,1c0-0.2,0.2-0.7,0.3-1l1.1-3.5
        h0.9L386.9,173.1L386.9,173.1z"/>
    <polygon id="polygon88" fill="#878787" points="390,173.1 390,167.6 393.5,167.6 393.5,168.4 390.8,168.4 390.8,169.8 392.4,169.8
        392.4,170.6 390.8,170.6 390.8,172.3 393.6,172.3 393.6,173.1     "/>
    <path id="path90" fill="#878787" d="M397.3,168.4h-1.6v1.8h1.6c0.5,0,0.9-0.3,0.9-0.9C398.3,168.7,397.9,168.4,397.3,168.4
        L397.3,168.4z M397.9,170.9l1.1,2.2h-0.9l-1.1-2.2h-1.2v2.2h-0.8v-5.4h2.4c1,0,1.8,0.5,1.8,1.6
        C399.1,170.1,398.6,170.7,397.9,170.9L397.9,170.9z"/>
    <path id="path92" fill="#878787" d="M402.1,173.2c-0.8,0-1.5-0.3-1.9-0.9l0.6-0.6c0.4,0.4,0.9,0.6,1.4,0.6c0.8,0,1.1-0.3,1.1-0.8
        c0-0.4-0.3-0.6-1.2-0.9c-1.2-0.3-1.7-0.6-1.7-1.6c0-0.9,0.8-1.5,1.8-1.5c0.7,0,1.3,0.3,1.8,0.7l-0.6,0.6c-0.3-0.4-0.7-0.5-1.3-0.5
        c-0.6,0-0.9,0.3-0.9,0.7c0,0.4,0.2,0.6,1.2,0.8c1.1,0.3,1.7,0.7,1.7,1.6C404.1,172.5,403.5,173.2,402.1,173.2L402.1,173.2z"/>
    <polygon id="polygon94" fill="#878787" points="405.5,173.1 405.5,167.6 406.3,167.6 406.3,173.1     "/>
    <polygon id="polygon96" fill="#878787" points="410,168.4 410,173.1 409.2,173.1 409.2,168.4 407.6,168.4 407.6,167.6 411.6,167.6
        411.6,168.4     "/>
    <path id="path98" fill="#878787" d="M415.6,167.3c-0.3,0-0.5-0.2-0.5-0.5c0-0.3,0.2-0.5,0.5-0.5c0.3,0,0.5,0.2,0.5,0.5
        C416.1,167,415.9,167.3,415.6,167.3z M415.2,169.8c-0.1-0.4-0.4-1-0.4-1.3c-0.1,0.2-0.3,0.9-0.4,1.3l-0.4,1.2h1.7L415.2,169.8
        L415.2,169.8z M414.1,167.3c-0.3,0-0.5-0.2-0.5-0.5c0-0.3,0.2-0.5,0.5-0.5c0.3,0,0.5,0.2,0.5,0.5
        C414.6,167,414.3,167.3,414.1,167.3z M416.4,173.1l-0.5-1.3h-2.2l-0.5,1.3h-0.8l2-5.4h0.9l2,5.4H416.4L416.4,173.1z"/>
    <polygon id="polygon100" fill="#878787" points="420.5,168.4 420.5,173.1 419.7,173.1 419.7,168.4 418.1,168.4 418.1,167.6
        422.1,167.6 422.1,168.4     "/>
    <path id="path102" fill="#878787" d="M424.8,173.2c-0.8,0-1.5-0.3-1.9-0.9l0.6-0.6c0.4,0.4,0.9,0.6,1.4,0.6c0.8,0,1.1-0.3,1.1-0.8
        c0-0.4-0.3-0.6-1.2-0.9c-1.2-0.3-1.7-0.6-1.7-1.6c0-0.9,0.8-1.5,1.8-1.5c0.7,0,1.3,0.3,1.8,0.7l-0.6,0.6c-0.3-0.4-0.7-0.5-1.3-0.5
        c-0.6,0-0.9,0.3-0.9,0.7c0,0.4,0.2,0.6,1.2,0.8c1.1,0.3,1.7,0.7,1.7,1.6C426.8,172.5,426.2,173.2,424.8,173.2L424.8,173.2z"/>
    <path id="path104" fill="#878787" d="M432.2,173.1v-2.9c0-0.3,0-0.8,0-1c-0.1,0.2-0.2,0.5-0.4,0.9l-1.3,3.1l-1.3-3.1
        c-0.1-0.3-0.3-0.7-0.4-0.9c0,0.2,0,0.6,0,1v2.9h-0.8v-5.4h0.8l1.2,2.9c0.1,0.3,0.3,0.7,0.4,0.9c0.1-0.2,0.2-0.6,0.4-0.9l1.2-2.9
        h0.9v5.4H432.2L432.2,173.1z"/>
    <polygon id="polygon106" fill="#878787" points="434.6,173.1 434.6,167.6 438.1,167.6 438.1,168.4 435.4,168.4 435.4,169.8
        436.9,169.8 436.9,170.6 435.4,170.6 435.4,172.3 438.2,172.3 438.2,173.1     "/>
    <path id="path108" fill="#878787" d="M441,168.4h-0.7v3.9h0.7c1.3,0,1.8-0.8,1.8-1.9C442.8,169.2,442.3,168.4,441,168.4L441,168.4z
         M441,173.1h-1.5v-5.4h1.5c1.5,0,2.7,0.8,2.7,2.7S442.4,173.1,441,173.1z"/>
    <polygon id="polygon110" fill="#878787" points="444.9,173.1 444.9,167.6 445.7,167.6 445.7,173.1     "/>
    <path id="path112" fill="#878787" d="M447.1,173.1v-0.8l2.7-3.2c0.2-0.2,0.5-0.6,0.6-0.7c-0.2,0-0.8,0-1.1,0h-2v-0.8h4v0.8
        l-2.6,3.2c-0.2,0.2-0.5,0.6-0.6,0.7c0.2,0,0.8,0,1.1,0h2.1v0.8L447.1,173.1L447.1,173.1z"/>
    <polygon id="polygon114" fill="#878787" points="452.7,173.1 452.7,167.6 453.5,167.6 453.5,173.1     "/>
    <path id="path116" fill="#878787" d="M458.4,173.1l-2.2-3.4c-0.1-0.2-0.3-0.5-0.4-0.7c0,0.2,0,1,0,1.3v2.8h-0.8v-5.4h0.8l2.1,3.3
        c0.1,0.2,0.4,0.6,0.5,0.8c0-0.2,0-1,0-1.3l0-2.8h0.8v5.4L458.4,173.1L458.4,173.1z"/>
    <path id="path118" fill="#878787" d="M465.3,170.5h-1.5v1.8h1.5c0.7,0,1-0.4,1-0.9C466.2,170.9,465.9,170.5,465.3,170.5
        L465.3,170.5z M465.2,168.4h-1.5v1.4h1.5c0.5,0,0.8-0.3,0.8-0.7C466,168.7,465.8,168.4,465.2,168.4L465.2,168.4z M465.2,173.1H463
        v-5.4h2.2c0.9,0,1.6,0.5,1.6,1.4c0,0.6-0.3,0.9-0.7,1.1c0.4,0.1,0.9,0.5,0.9,1.3C467,172.5,466.4,173.1,465.2,173.1L465.2,173.1z"
        />
    <polygon id="polygon120" fill="#878787" points="468.4,173.1 468.4,167.6 471.9,167.6 471.9,168.4 469.2,168.4 469.2,169.8
        470.8,169.8 470.8,170.6 469.2,170.6 469.2,172.3 472,172.3 472,173.1     "/>
    <path id="path122" fill="#878787" d="M475.7,168.4h-1.6v1.8h1.6c0.5,0,0.9-0.3,0.9-0.9C476.6,168.7,476.3,168.4,475.7,168.4
        L475.7,168.4z M476.3,170.9l1.1,2.2h-0.9l-1.1-2.2h-1.2v2.2h-0.8v-5.4h2.4c1,0,1.8,0.5,1.8,1.6C477.5,170.1,477,170.7,476.3,170.9
        L476.3,170.9z"/>
    <polygon id="polygon124" fill="#878787" points="478.9,173.1 478.9,167.6 479.7,167.6 479.7,172.3 482.4,172.3 482.4,173.1     "/>
    <polygon id="polygon126" fill="#878787" points="483.7,173.1 483.7,167.6 484.5,167.6 484.5,173.1     "/>
    <path id="path128" fill="#878787" d="M489.4,173.1l-2.2-3.4c-0.1-0.2-0.3-0.5-0.4-0.7c0,0.2,0,1,0,1.3l0,2.8h-0.8v-5.4h0.8l2.1,3.3
        c0.1,0.2,0.4,0.6,0.5,0.8c0-0.2,0-1,0-1.3v-2.8h0.8v5.4L489.4,173.1L489.4,173.1z"/>
</g>
</svg>
