<?xml version="1.0" encoding="UTF-8" standalone="no"?>
<!-- Created with Inkscape (http://www.inkscape.org/) -->

<svg
   xmlns:dc="http://purl.org/dc/elements/1.1/"
   xmlns:cc="http://creativecommons.org/ns#"
   xmlns:rdf="http://www.w3.org/1999/02/22-rdf-syntax-ns#"
   xmlns:svg="http://www.w3.org/2000/svg"
   xmlns="http://www.w3.org/2000/svg"
   xmlns:xlink="http://www.w3.org/1999/xlink"
   version="1.1"
   width="100%"
   height="95"   
   id="Ebene_2"
   xml:space="preserve"><metadata
   id="metadata3499"><rdf:RDF><cc:Work
       rdf:about=""><dc:format>image/svg+xml</dc:format><dc:type
         rdf:resource="http://purl.org/dc/dcmitype/StillImage" /><dc:title></dc:title></cc:Work></rdf:RDF></metadata><defs
   id="defs3497" />
<rect
   width="100%"
   height="95"
   x="0"
   y="0"
   id="rect3263"
   style="fill:#dbdbea" />
<g
   transform="translate(-28.762,-208.92704)"
   id="g3265">
	<polygon
   points="78.25,242.7 86.254,228.957 78.281,226.145 62.617,234.172 78.25,242.7 "
   id="polygon3267"
   style="fill:#8abeea" />
	<polygon
   points="62.617,234.172 78.25,242.7 78.25,242.7 75.153,248.028 "
   id="polygon3269"
   style="fill:#4fa9e6" />
	<polygon
   points="78.281,226.145 88.65,224.844 88.65,224.844 86.254,228.957 "
   id="polygon3271"
   style="fill:#2d87b1" />
	<polygon
   points="96.481,232.571 88.65,224.844 88.65,224.844 86.254,228.957 "
   id="polygon3273"
   style="fill:#2e9997" />
	<polygon
   points="62.617,234.172 51.35,248.288 51.35,248.288 64.452,260.778 69.434,257.836 75.153,248.028 "
   id="polygon3275"
   style="fill:#617987" />
	<polygon
   points="51.35,248.288 64.452,260.778 63.087,261.603 48.892,259.685 51.35,248.288 "
   id="polygon3277"
   style="fill:#e58221" />
	<polygon
   points="48.892,259.685 52.768,267.842 52.768,267.842 63.087,261.603 "
   id="polygon3279"
   style="fill:#540617" />
	<polygon
   points="60.809,272.643 52.768,267.842 52.768,267.842 63.087,261.603 65.705,261.907 66.555,262.777 "
   id="polygon3281"
   style="fill:#617987" />
	<polygon
   points="71.295,270.951 72.954,268.781 66.555,262.777 60.809,272.643 71.295,270.951 "
   id="polygon3283"
   style="fill:#4c555e" />
	<polygon
   points="88.65,224.844 105.745,225.885 99.756,233.719 96.481,232.571 88.65,224.844 "
   id="polygon3285"
   style="fill:#2d87b1" />
	<polygon
   points="99.756,233.719 104.103,235.208 104.103,235.208 105.745,225.885 "
   id="polygon3287"
   style="fill:#617987" />
	<polygon
   points="104.103,235.208 105.745,225.885 108.762,233.989 105.782,235.79 104.103,235.208 "
   id="polygon3289"
   style="fill:#2d87b1" />
	<polygon
   points="108.762,233.989 114.032,230.803 114.032,230.803 105.745,225.885 "
   id="polygon3291"
   style="fill:#2565aa" />
	<polygon
   points="114.032,230.803 121.104,241.196 109.989,237.348 108.762,233.989 114.032,230.803 "
   id="polygon3293"
   style="fill:#173942" />
	<polygon
   points="124.258,242.33 114.032,230.803 114.032,230.803 121.104,241.196 "
   id="polygon3295"
   style="fill:#0d1b1c" />
	<polygon
   points="124.258,242.33 128.929,252.699 128.929,252.699 121.104,241.196 "
   id="polygon3297"
   style="fill:#0d1b1c" />
	<polygon
   points="120.127,255.862 128.929,252.699 128.929,252.699 121.104,241.196 109.989,237.348 115.003,250.893 "
   id="polygon3299"
   style="fill:#1d6058" />
	<polygon
   points="108.762,233.989 109.989,237.348 109.989,237.348 105.782,235.79 "
   id="polygon3301"
   style="fill:#617987" />
	<polygon
   points="103.374,239.351 103.777,237.06 103.777,237.06 105.782,235.79 109.989,237.348 115.003,250.893 "
   id="polygon3303"
   style="fill:#45a23e" />
	<polygon
   points="103.777,237.06 104.103,235.208 104.103,235.208 105.782,235.79 "
   id="polygon3305"
   style="fill:#45a23e" />
	<polygon
   points="120.127,255.862 128.929,252.699 128.929,252.699 122.852,258.593 "
   id="polygon3307"
   style="fill:#307833" />
	<polygon
   points="128.929,252.699 122.852,258.593 125.322,261.11 129.32,258.658 128.929,252.699 "
   id="polygon3309"
   style="fill:#207635" />
	<polygon
   points="129.32,258.658 126.847,262.534 126.847,262.534 125.322,261.11 "
   id="polygon3311"
   style="fill:#173942" />
	<polygon
   points="126.847,262.534 125.322,261.11 120.008,264.371 120.512,265.773 126.847,262.534 "
   id="polygon3313"
   style="fill:#173942" />
	<polygon
   points="119.203,262.13 122.852,258.593 125.322,261.11 120.008,264.371 119.203,262.13 "
   id="polygon3315"
   style="fill:#173942" />
	<polygon
   points="119.203,262.13 122.852,258.593 120.127,255.862 117.301,256.878 119.203,262.13 "
   id="polygon3317"
   style="fill:#57b43b" />
	<polygon
   points="117.301,256.878 115.003,250.893 115.003,250.893 120.127,255.862 "
   id="polygon3319"
   style="fill:#194343" />
	<polygon
   points="65.705,261.907 64.452,260.778 69.434,257.836 66.952,262.096 65.705,261.907 "
   id="polygon3321"
   style="fill:#b60431" />
	<polygon
   points="69.486,274.061 71.295,270.951 71.295,270.951 73.639,272.672 "
   id="polygon3323"
   style="fill:#6f2e64" />
	<polygon
   points="75.562,281.958 84.535,280.665 73.639,272.672 69.486,274.061 75.562,281.958 "
   id="polygon3325"
   style="fill:#3f172e" />
	<polygon
   points="88.78,283.78 75.562,281.958 75.562,281.958 84.535,280.665 "
   id="polygon3327"
   style="fill:#3f172e" />
	<polygon
   points="71.295,270.951 73.639,272.672 76.011,271.716 72.954,268.781 71.295,270.951 "
   id="polygon3329"
   style="fill:#617987" />
	<polygon
   points="77.035,263.442 72.954,268.781 66.555,262.777 66.952,262.096 77.035,263.442 "
   id="polygon3331"
   style="fill:#cd4322" />
	<polygon
   points="88.78,283.78 96.417,278.848 96.417,278.848 85.332,280.501 "
   id="polygon3333"
   style="fill:#3f172e" />
	<polygon
   points="124.388,269.664 113.876,268.274 119.058,264.955 120.512,265.773 124.388,269.664 "
   id="polygon3335"
   style="fill:#12272a" />
	<polygon
   points="120.512,279.629 124.388,269.664 124.388,269.664 114.919,281.817 "
   id="polygon3337"
   style="fill:#291323" />
	<polygon
   points="120.512,279.629 110.662,287.279 110.662,287.279 114.919,281.817 "
   id="polygon3339"
   style="fill:#291323" />
	<polygon
   points="102.635,286.109 110.662,287.279 110.662,287.279 105.281,285.149 "
   id="polygon3341"
   style="fill:#291323" />
	<polygon
   points="102.635,286.109 98.355,282.348 98.355,282.348 105.281,285.149 "
   id="polygon3343"
   style="fill:#291323" />
	<polygon
   points="107.928,284.256 110.662,287.279 110.662,287.279 105.281,285.149 "
   id="polygon3345"
   style="fill:#123025" />
	<polygon
   points="107.928,284.256 110.662,287.279 110.662,287.279 114.919,281.817 "
   id="polygon3347"
   style="fill:#624426" />
	<polygon
   points="124.388,269.664 114.919,281.817 107.928,284.256 102.562,278.326 111.404,269.692 113.876,268.274 124.388,269.664 "
   id="polygon3349"
   style="fill:#123025" />
	<polygon
   points="105.281,285.149 107.928,284.256 102.562,278.326 98.355,282.348 105.281,285.149 "
   id="polygon3351"
   style="fill:#624426" />
	<polygon
   points="96.417,278.848 100.724,276.295 102.562,278.326 98.355,282.348 96.417,278.848 "
   id="polygon3353"
   style="fill:#0d1b1c" />
	<polygon
   points="111.404,269.692 100.724,276.295 100.724,276.295 102.562,278.326 "
   id="polygon3355"
   style="fill:#173942" />
	<polygon
   points="120.512,265.773 119.058,264.955 119.058,264.955 120.008,264.371 "
   id="polygon3357"
   style="fill:#12272a" />
	<polygon
   points="113.019,268.127 113.876,268.274 119.058,264.955 117.267,264.008 113.019,268.127 "
   id="polygon3359"
   style="fill:#173942" />
	<polygon
   points="119.203,262.13 120.008,264.371 119.058,264.955 117.267,264.008 119.203,262.13 "
   id="polygon3361"
   style="fill:#12272a" />
	<polygon
   points="119.203,262.13 117.301,256.878 109.398,259.718 117.267,264.008 119.203,262.13 "
   id="polygon3363"
   style="fill:#45a23e" />
	<polygon
   points="103.374,239.351 115.003,250.893 115.003,250.893 117.301,256.878 109.398,259.718 100.63,254.926 "
   id="polygon3365"
   style="fill:#2e9997" />
	<polygon
   points="99.114,263.532 109.398,259.718 109.398,259.718 100.63,254.926 "
   id="polygon3367"
   style="fill:#57b43b" />
	<polygon
   points="117.267,264.008 113.019,268.127 113.019,268.127 98.633,266.262 99.114,263.532 109.398,259.718 "
   id="polygon3369"
   style="fill:#307833" />
	<polygon
   points="111.404,269.692 113.019,268.127 113.019,268.127 98.633,266.262 97.518,272.749 100.724,276.295 "
   id="polygon3371"
   style="fill:#925497" />
	<polygon
   points="100.724,276.295 96.417,278.848 96.417,278.848 97.518,272.749 "
   id="polygon3373"
   style="fill:#6f2e64" />
	<polygon
   points="85.332,280.501 96.417,278.848 96.417,278.848 97.518,272.749 91.527,266.127 76.011,271.716 "
   id="polygon3375"
   style="fill:#4f1764" />
	<polygon
   points="85.332,280.501 84.535,280.665 73.639,272.672 76.011,271.716 85.332,280.501 "
   id="polygon3377"
   style="fill:#6f2e64" />
	<polygon
   points="88.78,283.78 85.332,280.501 85.332,280.501 84.535,280.665 "
   id="polygon3379"
   style="fill:#6f2e64" />
	<polygon
   points="64.452,260.778 65.705,261.907 65.705,261.907 63.087,261.603 "
   id="polygon3381"
   style="fill:#b60431" />
	<polygon
   points="66.952,262.096 65.705,261.907 65.705,261.907 66.555,262.777 "
   id="polygon3383"
   style="fill:#b60431" />
	<polygon
   points="72.954,268.781 77.035,263.442 77.035,263.442 90.696,265.21 91.527,266.127 76.011,271.716 "
   id="polygon3385"
   style="fill:#925497" />
	<polygon
   points="97.518,272.749 91.527,266.127 93.28,265.51 98.633,266.262 97.518,272.749 "
   id="polygon3387"
   style="fill:#925497" />
	<polygon
   points="98.633,266.262 99.114,263.532 99.114,263.532 93.28,265.51 "
   id="polygon3389"
   style="fill:#1a4848" />
	<polygon
   points="91.527,266.127 90.696,265.21 90.696,265.21 93.28,265.51 "
   id="polygon3391"
   style="fill:#123025" />
	<polygon
   points="111.404,269.692 113.019,268.127 113.019,268.127 113.876,268.274 "
   id="polygon3393"
   style="fill:#173942" />
	<polygon
   points="103.777,237.06 102.053,238.045 102.053,238.045 103.374,239.351 "
   id="polygon3395"
   style="fill:#45a23e" />
	<polygon
   points="102.053,238.045 103.777,237.06 103.777,237.06 104.103,235.208 99.756,233.719 98.852,234.901 "
   id="polygon3397"
   style="fill:#2e9997" />
	<polygon
   points="96.481,232.571 99.756,233.719 99.756,233.719 98.852,234.901 "
   id="polygon3399"
   style="fill:#45a23e" />
	<polygon
   points="102.053,238.045 91.541,244.466 91.541,244.466 98.852,234.901 "
   id="polygon3401"
   style="fill:#2d87b1" />
	<polygon
   points="78.887,252.156 69.434,257.836 69.434,257.836 75.153,248.028 "
   id="polygon3403"
   style="fill:#cd4322" />
	<polygon
   points="66.952,262.096 77.035,263.442 77.035,263.442 82.565,256.222 78.887,252.156 69.434,257.836 "
   id="polygon3405"
   style="fill:#e58221" />
	<polygon
   points="77.035,263.442 90.696,265.21 90.696,265.21 82.565,256.222 "
   id="polygon3407"
   style="fill:#3f172e" />
	<polygon
   points="78.25,242.7 75.153,248.028 78.887,252.156 86.736,247.306 78.25,242.7 "
   id="polygon3409"
   style="fill:#2d87b1" />
	<polygon
   points="78.25,242.7 86.254,228.957 96.481,232.571 98.852,234.901 91.541,244.466 86.736,247.306 78.25,242.7 "
   id="polygon3411"
   style="fill:#4fa9e6" />
	<polygon
   points="88.59,248.326 91.541,244.466 91.541,244.466 86.736,247.306 "
   id="polygon3413"
   style="fill:#2565aa" />
	<polygon
   points="88.59,248.326 82.565,256.222 78.887,252.156 86.736,247.306 88.59,248.326 "
   id="polygon3415"
   style="fill:#2d87b1" />
	<polygon
   points="88.59,248.326 82.565,256.222 90.696,265.21 93.28,265.51 99.114,263.532 100.63,254.926 88.59,248.326 "
   id="polygon3417"
   style="fill:#617987" />
	<polygon
   points="100.63,254.926 88.59,248.326 88.59,248.326 91.541,244.466 102.053,238.045 103.374,239.351 "
   id="polygon3419"
   style="fill:#2565aa" />
</g>
<g
   transform="translate(-28.762,-208.92704)"
   id="g3421">
	<defs
   id="defs3423">
		<rect
   width="309.07901"
   height="17.726999"
   x="159.36501"
   y="247.841"
   id="SVGID_1_" />
	</defs>
	<clipPath
   id="SVGID_2_">
		<use
   id="use3427"
   style="overflow:visible"
   x="0"
   y="0"
   width="841.89001"
   height="595.28003"
   xlink:href="#SVGID_1_" />
	</clipPath>
	<polyline
   clip-path="url(#SVGID_2_)"
   points="225.798,251.712 230.046,251.712 230.046,264.823 234.112,264.823    234.112,251.712 238.359,251.712 238.359,248.561 225.798,248.561 225.798,251.712  "
   id="polyline3429"
   style="fill:#7cb0d2" />
	<polyline
   clip-path="url(#SVGID_2_)"
   points="238.368,264.823 242.433,264.823 242.433,257.971 248.485,257.971    248.485,264.823 252.551,264.823 252.551,248.561 248.485,248.561 248.485,254.408 242.433,254.408 242.433,248.561    238.368,248.561 238.368,264.823  "
   id="polyline3431"
   style="fill:#7cb0d2" />
	<polyline
   clip-path="url(#SVGID_2_)"
   points="266.742,264.823 266.742,261.67 258.154,261.67 258.154,257.834    265.532,257.834 265.532,254.682 258.154,254.682 258.154,251.712 266.057,251.712 266.057,248.561 254.089,248.561    254.089,264.823 266.742,264.823  "
   id="polyline3433"
   style="fill:#7cb0d2" />
	<polyline
   clip-path="url(#SVGID_2_)"
   points="270.587,264.823 274.903,264.823 280.522,248.561 276.251,248.561    272.826,260.163 272.779,260.163 269.468,248.561 265.151,248.561 270.587,264.823  "
   id="polyline3435"
   style="fill:#386765" />
	<rect
   width="4.0650001"
   height="16.261999"
   x="280.62201"
   y="248.561"
   clip-path="url(#SVGID_2_)"
   id="rect3437"
   style="fill:#386765" />
	<path
   d="m 286.226,264.823 h 4.065 v -5.847 h 2.581 l 3.198,5.847 h 4.545 l -3.723,-6.532 c 2.033,-0.594 3.357,-2.284 3.357,-4.385 0,-3.654 -2.238,-5.345 -5.892,-5.345 h -8.131 v 16.262 m 4.065,-13.247 h 3.723 c 1.302,0.023 2.17,0.685 2.17,2.193 0,1.507 -0.868,2.169 -2.17,2.191 h -3.723 v -4.384 z"
   clip-path="url(#SVGID_2_)"
   id="path3439"
   style="fill:#386765;fill-rule:evenodd" />
	<polyline
   clip-path="url(#SVGID_2_)"
   points="299.8,251.712 304.048,251.712 304.048,264.823 308.114,264.823    308.114,251.712 312.361,251.712 312.361,248.561 299.8,248.561 299.8,251.712  "
   id="polyline3441"
   style="fill:#386765" />
	<path
   d="m 326.142,248.561 h -4.066 v 10.255 c 0,1.827 -0.708,3.175 -2.832,3.175 -2.101,0 -2.809,-1.348 -2.809,-3.175 v -10.255 h -4.065 v 10.598 c 0,4.454 3.768,6.121 6.874,6.121 3.129,0 6.898,-1.667 6.898,-6.121 v -10.598"
   clip-path="url(#SVGID_2_)"
   id="path3443"
   style="fill:#386765" />
	<path
   d="m 332.293,259.25 2.009,-6.714 h 0.046 l 2.01,6.714 h -4.065 m -6.12,5.573 h 4.339 l 0.822,-2.558 h 6.007 l 0.822,2.558 h 4.361 l -6.143,-16.262 h -4.203 l -6.005,16.262 z"
   clip-path="url(#SVGID_2_)"
   id="path3445"
   style="fill:#386765;fill-rule:evenodd" />
	<polyline
   clip-path="url(#SVGID_2_)"
   points="342.556,264.823 352.97,264.823 352.97,261.397 346.621,261.397    346.621,248.561 342.556,248.561 342.556,264.823  "
   id="polyline3447"
   style="fill:#386765" />
	<path
   d="m 356.611,251.576 h 3.38 c 1.348,0 2.124,0.32 2.124,1.69 0,1.188 -0.822,1.689 -2.124,1.689 h -3.38 v -3.379 m 0.045,6.395 h 4.043 c 1.506,0 2.01,0.594 2.01,1.941 0,1.051 -0.594,1.896 -2.742,1.896 h -3.311 v -3.837 z m -3.928,6.852 h 7.4 c 4.134,0 6.646,-1.279 6.646,-4.637 0,-2.398 -1.781,-3.562 -3.997,-3.723 v -0.045 c 2.216,-0.503 3.403,-1.6 3.403,-3.678 0,-3.037 -2.215,-4.18 -5.504,-4.18 h -7.948 v 16.263 z"
   clip-path="url(#SVGID_2_)"
   id="path3449"
   style="fill:#7cb0d2;fill-rule:evenodd" />
	<path
   d="m 367.604,264.823 h 4.065 v -5.847 h 2.582 l 3.197,5.847 h 4.545 l -3.723,-6.532 c 2.032,-0.594 3.358,-2.284 3.358,-4.385 0,-3.654 -2.238,-5.345 -5.893,-5.345 h -8.131 v 16.262 m 4.065,-13.247 h 3.723 c 1.301,0.023 2.17,0.685 2.17,2.193 0,1.507 -0.869,2.169 -2.17,2.191 h -3.723 v -4.384 z"
   clip-path="url(#SVGID_2_)"
   id="path3451"
   style="fill:#7cb0d2;fill-rule:evenodd" />
	<path
   d="m 387.094,259.25 2.01,-6.714 h 0.046 l 2.01,6.714 h -4.066 m -6.121,5.573 h 4.339 l 0.823,-2.558 h 6.006 l 0.822,2.558 h 4.362 l -6.144,-16.262 h -4.202 l -6.006,16.262 z"
   clip-path="url(#SVGID_2_)"
   id="path3453"
   style="fill:#7cb0d2;fill-rule:evenodd" />
	<rect
   width="4.0650001"
   height="16.261999"
   x="397.35699"
   y="248.561"
   clip-path="url(#SVGID_2_)"
   id="rect3455"
   style="fill:#7cb0d2" />
	<polyline
   clip-path="url(#SVGID_2_)"
   points="402.96,264.823 406.661,264.823 406.661,254.59 406.706,254.59    412.667,264.823 416.732,264.823 416.732,248.561 413.032,248.561 413.032,258.953 412.986,258.953 407.071,248.561    402.96,248.561 402.96,264.823  "
   id="polyline3457"
   style="fill:#7cb0d2" />
	<polyline
   clip-path="url(#SVGID_2_)"
   points="163.808,264.807 167.852,264.807 170.715,253.741 170.761,253.741    173.646,264.807 177.85,264.807 182.031,248.629 178.054,248.629 175.646,260.171 175.601,260.171 172.646,248.629    168.943,248.629 166.103,260.171 166.058,260.171 163.626,248.629 159.582,248.629 163.808,264.807  "
   id="polyline3459"
   style="fill:#4a9643" />
	<polyline
   clip-path="url(#SVGID_2_)"
   points="185.205,264.807 189.249,264.807 192.112,253.741 192.157,253.741    195.043,264.807 199.246,264.807 203.427,248.629 199.451,248.629 197.042,260.171 196.997,260.171 194.043,248.629    190.339,248.629 187.499,260.171 187.454,260.171 185.023,248.629 180.979,248.629 185.205,264.807  "
   id="polyline3461"
   style="fill:#4a9643" />
	<polyline
   clip-path="url(#SVGID_2_)"
   points="206.601,264.807 210.645,264.807 213.508,253.741 213.554,253.741    216.439,264.807 220.643,264.807 224.824,248.629 220.847,248.629 218.438,260.171 218.394,260.171 215.439,248.629    211.736,248.629 208.896,260.171 208.851,260.171 206.419,248.629 202.375,248.629 206.601,264.807  "
   id="polyline3463"
   style="fill:#4a9643" />
	<rect
   width="3.681"
   height="3.8169999"
   x="223.703"
   y="260.98901"
   clip-path="url(#SVGID_2_)"
   id="rect3465"
   style="fill:#4a9643" />
	<polyline
   clip-path="url(#SVGID_2_)"
   points="163.808,264.807 167.852,264.807 170.715,253.741 170.761,253.741    173.646,264.807 177.85,264.807 182.031,248.629 178.054,248.629 175.646,260.171 175.601,260.171 172.646,248.629    168.943,248.629 166.103,260.171 166.058,260.171 163.626,248.629 159.582,248.629 163.808,264.807  "
   id="polyline3467"
   style="fill:#4a9643" />
	<polyline
   clip-path="url(#SVGID_2_)"
   points="185.205,264.807 189.249,264.807 192.112,253.741 192.157,253.741    195.043,264.807 199.246,264.807 203.427,248.629 199.451,248.629 197.042,260.171 196.997,260.171 194.043,248.629    190.339,248.629 187.499,260.171 187.454,260.171 185.023,248.629 180.979,248.629 185.205,264.807  "
   id="polyline3469"
   style="fill:#4a9643" />
	<polyline
   clip-path="url(#SVGID_2_)"
   points="206.601,264.807 210.645,264.807 213.508,253.741 213.554,253.741    216.439,264.807 220.643,264.807 224.824,248.629 220.847,248.629 218.438,260.171 218.394,260.171 215.439,248.629    211.736,248.629 208.896,260.171 208.851,260.171 206.419,248.629 202.375,248.629 206.601,264.807  "
   id="polyline3471"
   style="fill:#4a9643" />
	<rect
   width="3.681"
   height="3.8169999"
   x="223.703"
   y="260.98901"
   clip-path="url(#SVGID_2_)"
   id="rect3473"
   style="fill:#4a9643" />
	<rect
   width="3.681"
   height="3.8169999"
   x="417.862"
   y="260.98901"
   clip-path="url(#SVGID_2_)"
   id="rect3475"
   style="fill:#4a9643" />
	<path
   d="m 437.396,256.717 c 0,-4.544 -3.022,-8.542 -8.18,-8.542 -5.158,0 -8.18,3.999 -8.18,8.542 0,4.544 3.022,8.544 8.18,8.544 5.157,0 8.18,-3.999 8.18,-8.544 m -4.045,0 c 0,2.5 -1.136,5.135 -4.135,5.135 -3.181,0 -4.136,-2.772 -4.136,-5.135 0,-3.635 1.772,-5.135 4.136,-5.135 2.999,0.001 4.135,2.591 4.135,5.135 z"
   clip-path="url(#SVGID_2_)"
   id="path3477"
   style="fill:#4a9643;fill-rule:evenodd" />
	<path
   d="m 438.501,264.807 h 4.045 v -5.816 h 2.567 l 3.181,5.816 h 4.521 l -3.704,-6.499 c 2.022,-0.591 3.341,-2.272 3.341,-4.362 0,-3.635 -2.227,-5.317 -5.862,-5.317 h -8.089 v 16.178 m 4.045,-13.179 h 3.704 c 1.294,0.023 2.158,0.682 2.158,2.182 0,1.5 -0.864,2.158 -2.158,2.181 h -3.704 v -4.363 z"
   clip-path="url(#SVGID_2_)"
   id="path3479"
   style="fill:#4a9643;fill-rule:evenodd" />
	<path
   d="m 468.259,252.219 c -1.591,-2.635 -4.271,-4.044 -7.452,-4.044 -5.271,0 -7.93,3.681 -7.93,8.611 0,4.931 2.477,8.476 7.361,8.476 1.977,0 3.658,-0.705 4.703,-1.909 v 1.454 h 3.136 v -9.021 h -6.998 v 3.136 h 3.59 c -0.183,2.067 -2.113,2.931 -3.59,2.931 -2.75,0 -4.158,-2 -4.158,-5.135 0,-3.544 1.681,-5.135 4.158,-5.135 1.704,0 3.021,0.727 3.817,2.113 l 3.363,-1.477"
   clip-path="url(#SVGID_2_)"
   id="path3481"
   style="fill:#4a9643" />
</g>
<g
   transform="translate(0,-501.63005)"
   id="g3483">
</g>
<g
   transform="translate(0,-501.63005)"
   id="g3485">
</g>
<g
   transform="translate(0,-501.63005)"
   id="g3487">
</g>
<g
   transform="translate(0,-501.63005)"
   id="g3489">
</g>
<g
   transform="translate(0,-501.63005)"
   id="g3491">
</g>
<g
   transform="translate(0,-501.63005)"
   id="g3493">
</g>
</svg>
