<?xml version="1.0" encoding="utf-8"?>
<!-- Generator: Adobe Illustrator 13.0.0, SVG Export Plug-In . SVG Version: 6.00 Build 14948)  -->
<!DOCTYPE svg PUBLIC "-//W3C//DTD SVG 1.1//EN" "http://www.w3.org/Graphics/SVG/1.1/DTD/svg11.dtd">
<svg version="1.1" id="Layer_1" xmlns="http://www.w3.org/2000/svg" xmlns:xlink="http://www.w3.org/1999/xlink" x="0px" y="0px"
	 width="1084.661px" height="717.955px" viewBox="0 0 1084.661 717.955" enable-background="new 0 0 1084.661 717.955"
	 xml:space="preserve">
<g>
	<polygon fill="#73ACCD" points="0,642.369 23.668,642.369 23.668,715.408 46.319,715.408 46.319,642.369 69.984,642.369 
		69.984,624.811 0,624.811 0,642.369 	"/>
	<polygon fill="#73ACCD" points="69.711,715.408 92.36,715.408 92.36,677.234 126.08,677.234 126.08,715.408 148.73,715.408 
		148.73,624.811 126.08,624.811 126.08,657.387 92.36,657.387 92.36,624.811 69.711,624.811 69.711,715.408 	"/>
	<polygon fill="#73ACCD" points="227.794,715.408 227.794,697.85 179.949,697.85 179.949,676.473 221.05,676.473 221.05,658.912 
		179.949,658.912 179.949,642.369 230.669,642.369 223.977,624.811 157.3,624.811 157.3,715.408 227.794,715.408 	"/>
	<polygon fill="#386766" points="249.218,715.408 273.266,715.408 304.567,624.811 280.774,624.811 261.687,689.451 
		261.431,689.451 242.982,624.811 218.932,624.811 249.218,715.408 	"/>
	<polygon fill="#386766" points="302.926,715.408 325.576,715.408 325.576,624.811 302.926,624.811 302.926,715.408 	"/>
	<path fill-rule="evenodd" clip-rule="evenodd" fill="#386766" d="M356.797,641.607h20.742c7.25,0.127,12.087,3.816,12.087,12.217
		c0,8.396-4.836,12.086-12.087,12.213h-20.742V641.607L356.797,641.607z M334.146,715.408h22.65v-32.574h14.378l17.814,32.574
		h25.323l-20.742-36.391c11.325-3.309,18.705-12.725,18.705-24.432c0-20.359-12.469-29.775-32.828-29.775h-45.3V715.408
		L334.146,715.408z"/>
	<polygon fill="#386766" points="409.774,642.369 433.442,642.369 433.442,715.408 456.093,715.408 456.093,642.369 
		479.759,642.369 479.759,624.811 409.774,624.811 409.774,642.369 	"/>
	<path fill="#386766" d="M555.216,624.811h-22.649v57.133c0,10.18-3.945,17.688-15.779,17.688c-11.707,0-15.651-7.508-15.651-17.688
		v-57.133h-22.648v59.041c0,24.814,20.995,34.104,38.3,34.104c17.434,0,38.428-9.289,38.428-34.104V624.811L555.216,624.811z"/>
	<path fill-rule="evenodd" clip-rule="evenodd" fill="#386766" d="M547.921,715.408h24.177l4.581-14.25h33.465l4.581,14.25h24.302
		l-34.228-90.598h-23.412L547.921,715.408L547.921,715.408z M582.021,684.361l11.197-37.41h0.255l11.199,37.41H582.021
		L582.021,684.361z"/>
	<polygon fill="#386766" points="638.878,715.408 696.902,715.408 696.902,696.322 661.527,696.322 661.527,624.811 
		638.878,624.811 638.878,715.408 	"/>
	<path fill-rule="evenodd" clip-rule="evenodd" fill="#73ACCD" d="M695.55,715.408h41.228c23.032,0,37.028-7.125,37.028-25.83
		c0-13.361-9.925-19.85-22.268-20.74v-0.254c12.343-2.801,18.96-8.908,18.96-20.488c0-16.924-12.344-23.285-30.667-23.285H695.55
		V715.408L695.55,715.408z M717.437,677.234h22.522c8.396,0,11.196,3.309,11.196,10.816c0,5.854-3.309,10.561-15.27,10.561h-18.449
		V677.234L717.437,677.234z M717.181,641.607h18.833c7.508,0,11.833,1.781,11.833,9.416c0,6.617-4.58,9.414-11.833,9.414h-18.833
		V641.607L717.181,641.607z"/>
	<path fill-rule="evenodd" clip-rule="evenodd" fill="#73ACCD" d="M798.443,641.607h20.742c7.252,0.127,12.088,3.816,12.088,12.217
		c0,8.396-4.836,12.086-12.088,12.213h-20.742V641.607L798.443,641.607z M775.795,715.408h22.648v-32.574h14.38l17.814,32.574
		h25.321l-20.742-36.391c11.325-3.309,18.705-12.725,18.705-24.432c0-20.359-12.469-29.775-32.827-29.775h-45.3V715.408
		L775.795,715.408z"/>
	<path fill-rule="evenodd" clip-rule="evenodd" fill="#73ACCD" d="M850.278,715.408h24.174l4.584-14.25h33.465l4.579,14.25h24.304
		l-34.228-90.598h-23.412L850.278,715.408L850.278,715.408z M884.379,684.361l11.197-37.41h0.253l11.199,37.41H884.379
		L884.379,684.361z"/>
	<polygon fill="#73ACCD" points="941.556,715.408 964.205,715.408 964.205,624.811 941.556,624.811 941.556,715.408 	"/>
	<polygon fill="#73ACCD" points="972.776,715.408 993.392,715.408 993.392,658.404 993.646,658.404 1026.856,715.408 
		1049.505,715.408 1049.505,624.811 1028.892,624.811 1028.892,682.707 1028.638,682.707 995.681,624.811 972.776,624.811 
		972.776,715.408 	"/>
	<polygon fill="#73ACCD" points="1077.291,715.408 1077.291,694.031 1056.677,694.031 1056.677,715.408 1077.291,715.408 	"/>
	<polygon fill="#BFD6E8" points="714.2,129.525 772.265,29.835 714.422,9.44 600.797,67.668 714.2,129.525 	"/>
	<polygon fill="#9EC7E7" points="714.2,129.525 691.729,168.181 600.797,67.668 714.2,129.525 	"/>
	<polygon fill="#73ACCD" points="789.644,0 772.265,29.835 714.422,9.44 789.644,0 	"/>
	<polygon fill="#6DBAB6" points="789.644,0 772.265,29.835 846.451,56.054 789.644,0 	"/>
	<polygon fill="#8C9FAC" points="519.067,170.066 614.103,260.672 650.244,239.327 691.729,168.181 600.797,67.668 519.067,170.066 
			"/>
	<polygon fill="#E8A337" points="519.067,170.066 614.103,260.672 604.207,266.656 501.231,252.738 519.067,170.066 	"/>
	<polygon fill="#712C2F" points="529.352,311.911 604.207,266.656 501.231,252.738 529.352,311.911 	"/>
	<polygon fill="#8C9FAC" points="529.352,311.911 604.207,266.656 623.198,268.86 629.365,275.173 587.682,346.739 529.352,311.911 
			"/>
	<polygon fill="#737A84" points="663.745,334.468 675.781,318.724 629.365,275.173 587.682,346.739 663.745,334.468 	"/>
	<polygon fill="#73ACCD" points="789.644,0 913.652,7.552 870.212,64.378 846.451,56.054 789.644,0 	"/>
	<polygon fill="#8C9FAC" points="901.74,75.185 913.652,7.552 870.212,64.378 901.74,75.185 	"/>
	<polygon fill="#73ACCD" points="901.74,75.185 913.652,7.552 935.533,66.341 913.919,79.409 901.74,75.185 	"/>
	<polygon fill="#6E8BC3" points="973.77,43.224 913.652,7.552 935.533,66.341 973.77,43.224 	"/>
	<polygon fill="#375D68" points="973.77,43.224 1025.062,118.622 944.435,90.706 935.533,66.341 973.77,43.224 	"/>
	<polygon fill="#1D3333" points="973.77,43.224 1025.062,118.622 1047.946,126.841 973.77,43.224 	"/>
	<polygon fill="#1D3333" points="1081.829,202.062 1025.062,118.622 1047.946,126.841 1081.829,202.062 	"/>
	<polygon fill="#42867B" points="1081.829,202.062 1025.062,118.622 944.435,90.706 980.809,188.962 1017.981,225.007 
		1081.829,202.062 	"/>
	<polygon fill="#8C9FAC" points="944.435,90.706 913.919,79.409 935.533,66.341 944.435,90.706 	"/>
	<polygon fill="#73BB5A" points="899.375,88.616 913.919,79.409 944.435,90.706 980.809,188.962 896.447,105.237 899.375,88.616 	
		"/>
	<polygon fill="#73BB5A" points="901.74,75.185 913.919,79.409 899.375,88.616 901.74,75.185 	"/>
	<polygon fill="#4C9C50" points="1081.829,202.062 1037.742,244.816 1017.981,225.007 1081.829,202.062 	"/>
	<polygon fill="#389A52" points="1081.829,202.062 1037.742,244.816 1055.665,263.081 1084.661,245.287 1081.829,202.062 	"/>
	<polygon fill="#375D68" points="1066.726,273.407 1055.665,263.081 1084.661,245.287 1066.726,273.407 	"/>
	<polygon fill="#375D68" points="1066.726,273.407 1055.665,263.081 1017.12,286.733 1020.769,296.907 1066.726,273.407 	"/>
	<polygon fill="#375D68" points="1011.278,270.479 1037.742,244.816 1055.665,263.081 1017.12,286.733 1011.278,270.479 	"/>
	<polygon fill="#89C660" points="1011.278,270.479 1037.742,244.816 1017.981,225.007 997.479,232.375 1011.278,270.479 	"/>
	<polygon fill="#386766" points="980.809,188.962 1017.981,225.007 997.479,232.375 980.809,188.962 	"/>
	<polygon fill="#D02E4C" points="623.198,268.86 614.103,260.672 650.244,239.327 632.244,270.231 623.198,268.86 	"/>
	<polygon fill="#9D4D8B" points="663.745,334.468 680.754,346.945 650.629,357.023 663.745,334.468 	"/>
	<polygon fill="#65314D" points="694.698,414.309 759.789,404.93 680.754,346.945 650.629,357.023 694.698,414.309 	"/>
	<polygon fill="#65314D" points="694.698,414.309 759.789,404.93 790.587,427.525 694.698,414.309 	"/>
	<polygon fill="#8C9FAC" points="663.745,334.468 680.754,346.945 697.962,340.014 675.781,318.724 663.745,334.468 	"/>
	<polygon fill="#DF6435" points="705.388,279.994 675.781,318.724 629.365,275.173 632.244,270.231 705.388,279.994 	"/>
	<polygon fill="#65314D" points="845.983,391.752 765.572,403.742 790.587,427.525 845.983,391.752 	"/>
	<polygon fill="#264548" points="1048.89,325.128 972.635,315.048 1010.225,290.965 1020.769,296.907 1048.89,325.128 	"/>
	<polygon fill="#46293D" points="1048.89,325.128 980.198,413.287 1020.769,397.416 1048.89,325.128 	"/>
	<polygon fill="#46293D" points="949.325,452.912 980.198,413.287 1020.769,397.416 949.325,452.912 	"/>
	<polygon fill="#46293D" points="949.325,452.912 910.287,437.461 891.096,444.416 949.325,452.912 	"/>
	<polygon fill="#46293D" points="860.043,417.141 910.287,437.461 891.096,444.416 860.043,417.141 	"/>
	<polygon fill="#24503E" points="949.325,452.912 910.287,437.461 929.482,430.98 949.325,452.912 	"/>
	<polygon fill="#85663B" points="949.325,452.912 980.198,413.287 929.482,430.98 949.325,452.912 	"/>
	<polygon fill="#24503E" points="1048.89,325.128 980.198,413.287 929.482,430.98 890.565,387.963 954.707,325.339 972.635,315.048 
		1048.89,325.128 	"/>
	<polygon fill="#85663B" points="910.287,437.461 929.482,430.98 890.565,387.963 860.043,417.141 910.287,437.461 	"/>
	<polygon fill="#1D3333" points="845.983,391.752 877.233,373.227 890.565,387.963 860.043,417.141 845.983,391.752 	"/>
	<polygon fill="#375D68" points="877.233,373.227 890.565,387.963 954.707,325.339 877.233,373.227 	"/>
	<polygon fill="#264548" points="1010.225,290.965 1017.12,286.733 1020.769,296.907 1010.225,290.965 	"/>
	<polygon fill="#375D68" points="966.418,313.983 972.635,315.048 1010.225,290.965 997.233,284.101 966.418,313.983 	"/>
	<polygon fill="#264548" points="1011.278,270.479 1017.12,286.733 1010.225,290.965 997.233,284.101 1011.278,270.479 	"/>
	<polygon fill="#73BB5A" points="1011.278,270.479 997.479,232.375 940.149,252.978 997.233,284.101 1011.278,270.479 	"/>
	<polygon fill="#6DBAB6" points="980.809,188.962 997.479,232.375 940.149,252.978 876.549,218.217 896.447,105.237 
		980.809,188.962 	"/>
	<polygon fill="#89C660" points="940.149,252.978 876.549,218.217 865.551,280.65 940.149,252.978 	"/>
	<polygon fill="#4C9C50" points="966.418,313.983 862.064,300.45 865.551,280.65 940.149,252.978 997.233,284.101 966.418,313.983 	
		"/>
	<polygon fill="#B57BB1" points="966.418,313.983 862.064,300.45 853.968,347.511 877.233,373.227 954.707,325.339 966.418,313.983 
			"/>
	<polygon fill="#9D4D8B" points="845.983,391.752 853.968,347.511 877.233,373.227 845.983,391.752 	"/>
	<polygon fill="#813A8F" points="845.983,391.752 853.968,347.511 810.509,299.474 697.962,340.014 765.572,403.742 
		845.983,391.752 	"/>
	<polygon fill="#9D4D8B" points="765.572,403.742 759.789,404.93 680.754,346.945 697.962,340.014 765.572,403.742 	"/>
	<polygon fill="#9D4D8B" points="765.572,403.742 759.789,404.93 790.587,427.525 765.572,403.742 	"/>
	<polygon fill="#D02E4C" points="623.198,268.86 604.207,266.656 614.103,260.672 623.198,268.86 	"/>
	<polygon fill="#D02E4C" points="623.198,268.86 629.365,275.173 632.244,270.231 623.198,268.86 	"/>
	<polygon fill="#B57BB1" points="705.388,279.994 804.488,292.819 810.509,299.474 697.962,340.014 675.781,318.724 
		705.388,279.994 	"/>
	<polygon fill="#B57BB1" points="853.968,347.511 810.509,299.474 823.233,294.995 862.064,300.45 853.968,347.511 	"/>
	<polygon fill="#3A6D6B" points="865.551,280.65 823.233,294.995 862.064,300.45 865.551,280.65 	"/>
	<polygon fill="#24503E" points="804.488,292.819 823.233,294.995 810.509,299.474 804.488,292.819 	"/>
	<polygon fill="#375D68" points="966.418,313.983 972.635,315.048 954.707,325.339 966.418,313.983 	"/>
	<polygon fill="#73BB5A" points="886.868,95.763 896.447,105.237 899.375,88.616 886.868,95.763 	"/>
	<polygon fill="#6DBAB6" points="899.375,88.616 901.74,75.185 870.212,64.378 863.65,72.962 886.868,95.763 899.375,88.616 	"/>
	<polygon fill="#73BB5A" points="870.212,64.378 863.65,72.962 846.451,56.054 870.212,64.378 	"/>
	<polygon fill="#73ACCD" points="810.615,142.341 863.65,72.962 886.868,95.763 810.615,142.341 	"/>
	<polygon fill="#DF6435" points="650.244,239.327 691.729,168.181 718.819,198.124 650.244,239.327 	"/>
	<polygon fill="#E8A337" points="705.388,279.994 745.502,227.619 718.819,198.124 650.244,239.327 632.244,270.231 
		705.388,279.994 	"/>
	<polygon fill="#65314D" points="804.488,292.819 745.502,227.619 705.388,279.994 804.488,292.819 	"/>
	<polygon fill="#73ACCD" points="714.2,129.525 691.729,168.181 718.819,198.124 775.755,162.94 714.2,129.525 	"/>
	<polygon fill="#9EC7E7" points="714.2,129.525 772.265,29.835 846.451,56.054 863.65,72.962 810.615,142.341 775.755,162.94 
		714.2,129.525 	"/>
	<polygon fill="#6E8BC3" points="810.615,142.341 775.755,162.94 789.209,170.341 810.615,142.341 	"/>
	<polygon fill="#73ACCD" points="789.209,170.341 745.502,227.619 718.819,198.124 775.755,162.94 789.209,170.341 	"/>
	<polygon fill="#8C9FAC" points="789.209,170.341 745.502,227.619 804.488,292.819 823.233,294.995 865.551,280.65 876.549,218.217 
		789.209,170.341 	"/>
	<polygon fill="#6E8BC3" points="789.209,170.341 810.615,142.341 886.868,95.763 896.447,105.237 876.549,218.217 789.209,170.341 
			"/>
</g>
</svg>
