<?xml version="1.0" encoding="UTF-8" standalone="no"?>
<!DOCTYPE svg PUBLIC "-//W3C//DTD SVG 1.1//EN"
 "http://www.w3.org/Graphics/SVG/1.1/DTD/svg11.dtd">
<!-- Generated by graphviz version 2.28.0 (20111028.1807)
 -->
<!-- Title: classes_coupling Pages: 1 -->
<svg width="908pt" height="580pt"
 viewBox="0.00 0.00 908.00 580.00" xmlns="http://www.w3.org/2000/svg" xmlns:xlink="http://www.w3.org/1999/xlink">
<g id="graph1" class="graph" transform="scale(1 1) rotate(0) translate(4 576)">
<title>classes_coupling</title>
<polygon fill="white" stroke="white" points="-4,5 -4,-576 905,-576 905,5 -4,5"/>
<!-- 0 -->
<g id="node1" class="node"><title>0</title>
<polygon fill="none" stroke="black" points="340.9,-497.2 340.9,-570.8 419.1,-570.8 419.1,-497.2 340.9,-497.2"/>
<text text-anchor="middle" x="380" y="-552.8" font-family="Times,serif" font-size="14.00">Coupling</text>
<polyline fill="none" stroke="black" points="340.9,-546 419.1,-546 "/>
<polyline fill="none" stroke="black" points="340.9,-522 419.1,-522 "/>
<text text-anchor="start" x="348.9" y="-504" font-family="Times,serif" font-size="14.00">configure()</text>
</g>
<!-- 1 -->
<g id="node2" class="node"><title>1</title>
<polygon fill="none" stroke="black" points="-0.265625,-282.4 -0.265625,-373.6 94.2656,-373.6 94.2656,-282.4 -0.265625,-282.4"/>
<text text-anchor="middle" x="47" y="-355.6" font-family="Times,serif" font-size="14.00">Difference</text>
<polyline fill="none" stroke="black" points="-0.265625,-348.8 94.2656,-348.8 "/>
<text text-anchor="start" x="7.73438" y="-330.8" font-family="Times,serif" font-size="14.00">a : FloatArray</text>
<text text-anchor="start" x="7.73438" y="-314" font-family="Times,serif" font-size="14.00">device_info</text>
<polyline fill="none" stroke="black" points="-0.265625,-307.2 94.2656,-307.2 "/>
<text text-anchor="middle" x="47" y="-289.2" font-family="Times,serif" font-size="14.00"> </text>
</g>
<!-- 1&#45;&gt;0 -->
<g id="edge2" class="edge"><title>1&#45;&gt;0</title>
<path fill="none" stroke="black" d="M56.3646,-373.773C64.4531,-401.758 78.9335,-436.453 104,-458 168.606,-513.534 270.587,-528.318 330.825,-532.029"/>
<polygon fill="none" stroke="black" points="330.672,-535.526 340.845,-532.568 331.048,-528.536 330.672,-535.526"/>
</g>
<!-- 2 -->
<g id="node3" class="node"><title>2</title>
<polygon fill="none" stroke="black" points="438.562,-257.2 438.562,-398.8 577.438,-398.8 577.438,-257.2 438.562,-257.2"/>
<text text-anchor="middle" x="508" y="-380.8" font-family="Times,serif" font-size="14.00">HyperbolicTangent</text>
<polyline fill="none" stroke="black" points="438.562,-374 577.438,-374 "/>
<text text-anchor="start" x="446.562" y="-356" font-family="Times,serif" font-size="14.00">a : FloatArray</text>
<text text-anchor="start" x="446.562" y="-339.2" font-family="Times,serif" font-size="14.00">sigma : FloatArray</text>
<text text-anchor="start" x="446.562" y="-322.4" font-family="Times,serif" font-size="14.00">normalise : Bool</text>
<text text-anchor="start" x="446.562" y="-305.6" font-family="Times,serif" font-size="14.00">b : FloatArray</text>
<text text-anchor="start" x="446.562" y="-288.8" font-family="Times,serif" font-size="14.00">midpoint : FloatArray</text>
<polyline fill="none" stroke="black" points="438.562,-282 577.438,-282 "/>
<text text-anchor="middle" x="508" y="-264" font-family="Times,serif" font-size="14.00"> </text>
</g>
<!-- 2&#45;&gt;0 -->
<g id="edge4" class="edge"><title>2&#45;&gt;0</title>
<path fill="none" stroke="black" d="M466.459,-398.973C454.831,-418.209 442.068,-439.001 430,-458 423.705,-467.91 416.805,-478.453 410.196,-488.407"/>
<polygon fill="none" stroke="black" points="407.121,-486.71 404.485,-496.972 412.945,-490.593 407.121,-486.71"/>
</g>
<!-- 3 -->
<g id="node4" class="node"><title>3</title>
<polygon fill="none" stroke="black" points="112.734,-282.4 112.734,-373.6 207.266,-373.6 207.266,-282.4 112.734,-282.4"/>
<text text-anchor="middle" x="160" y="-355.6" font-family="Times,serif" font-size="14.00">Kuramoto</text>
<polyline fill="none" stroke="black" points="112.734,-348.8 207.266,-348.8 "/>
<text text-anchor="start" x="120.734" y="-330.8" font-family="Times,serif" font-size="14.00">a : FloatArray</text>
<text text-anchor="start" x="120.734" y="-314" font-family="Times,serif" font-size="14.00">device_info</text>
<polyline fill="none" stroke="black" points="112.734,-307.2 207.266,-307.2 "/>
<text text-anchor="middle" x="160" y="-289.2" font-family="Times,serif" font-size="14.00"> </text>
</g>
<!-- 3&#45;&gt;0 -->
<g id="edge6" class="edge"><title>3&#45;&gt;0</title>
<path fill="none" stroke="black" d="M170.613,-373.668C179.035,-400.904 193.262,-434.818 216,-458 247.461,-490.076 295.186,-509.759 331.054,-520.863"/>
<polygon fill="none" stroke="black" points="330.25,-524.275 340.833,-523.77 332.245,-517.565 330.25,-524.275"/>
</g>
<!-- 4 -->
<g id="node5" class="node"><title>4</title>
<polygon fill="none" stroke="black" points="225.341,-274 225.341,-382 320.659,-382 320.659,-274 225.341,-274"/>
<text text-anchor="middle" x="273" y="-364" font-family="Times,serif" font-size="14.00">Linear</text>
<polyline fill="none" stroke="black" points="225.341,-357.2 320.659,-357.2 "/>
<text text-anchor="start" x="233.341" y="-339.2" font-family="Times,serif" font-size="14.00">a : FloatArray</text>
<text text-anchor="start" x="233.341" y="-322.4" font-family="Times,serif" font-size="14.00">device_info</text>
<text text-anchor="start" x="233.341" y="-305.6" font-family="Times,serif" font-size="14.00">b : FloatArray</text>
<polyline fill="none" stroke="black" points="225.341,-298.8 320.659,-298.8 "/>
<text text-anchor="middle" x="273" y="-280.8" font-family="Times,serif" font-size="14.00"> </text>
</g>
<!-- 4&#45;&gt;0 -->
<g id="edge8" class="edge"><title>4&#45;&gt;0</title>
<path fill="none" stroke="black" d="M294.024,-382.083C304.02,-405.77 316.686,-433.746 330,-458 335.591,-468.186 342.145,-478.772 348.633,-488.67"/>
<polygon fill="none" stroke="black" points="345.835,-490.782 354.292,-497.163 351.66,-486.901 345.835,-490.782"/>
</g>
<!-- 5 -->
<g id="node6" class="node"><title>5</title>
<polygon fill="none" stroke="black" points="595.307,-198.4 595.307,-457.6 742.693,-457.6 742.693,-198.4 595.307,-198.4"/>
<text text-anchor="middle" x="669" y="-439.6" font-family="Times,serif" font-size="14.00">PreSigmoidal</text>
<polyline fill="none" stroke="black" points="595.307,-432.8 742.693,-432.8 "/>
<text text-anchor="start" x="603.307" y="-414.8" font-family="Times,serif" font-size="14.00">sliceT : int, slice</text>
<text text-anchor="start" x="603.307" y="-398" font-family="Times,serif" font-size="14.00">meanOrNot</text>
<text text-anchor="start" x="603.307" y="-381.2" font-family="Times,serif" font-size="14.00">rightCall</text>
<text text-anchor="start" x="603.307" y="-364.4" font-family="Times,serif" font-size="14.00">G : FloatArray</text>
<text text-anchor="start" x="603.307" y="-347.6" font-family="Times,serif" font-size="14.00">H : FloatArray</text>
<text text-anchor="start" x="603.307" y="-330.8" font-family="Times,serif" font-size="14.00">dynamic : IntegerArray</text>
<text text-anchor="start" x="603.307" y="-314" font-family="Times,serif" font-size="14.00">Q : FloatArray</text>
<text text-anchor="start" x="603.307" y="-297.2" font-family="Times,serif" font-size="14.00">P : FloatArray</text>
<text text-anchor="start" x="603.307" y="-280.4" font-family="Times,serif" font-size="14.00">globalT : IntegerArray</text>
<text text-anchor="start" x="603.307" y="-263.6" font-family="Times,serif" font-size="14.00">theta : FloatArray</text>
<polyline fill="none" stroke="black" points="595.307,-256.8 742.693,-256.8 "/>
<text text-anchor="start" x="603.307" y="-238.8" font-family="Times,serif" font-size="14.00">configure()</text>
<text text-anchor="start" x="603.307" y="-222" font-family="Times,serif" font-size="14.00">call_static()</text>
<text text-anchor="start" x="603.307" y="-205.2" font-family="Times,serif" font-size="14.00">call_dynamic()</text>
</g>
<!-- 5&#45;&gt;0 -->
<g id="edge10" class="edge"><title>5&#45;&gt;0</title>
<path fill="none" stroke="black" d="M595.119,-450.094C592.161,-452.862 589.121,-455.507 586,-458 539.931,-494.808 474.173,-514.534 429.431,-524.372"/>
<polygon fill="none" stroke="black" points="428.438,-521.004 419.377,-526.494 429.884,-527.853 428.438,-521.004"/>
</g>
<!-- 6 -->
<g id="node7" class="node"><title>6</title>
<polygon fill="none" stroke="black" points="338.958,-282.4 338.958,-373.6 421.042,-373.6 421.042,-282.4 338.958,-282.4"/>
<text text-anchor="middle" x="380" y="-355.6" font-family="Times,serif" font-size="14.00">Scaling</text>
<polyline fill="none" stroke="black" points="338.958,-348.8 421.042,-348.8 "/>
<text text-anchor="start" x="346.958" y="-330.8" font-family="Times,serif" font-size="14.00">a : Float</text>
<text text-anchor="start" x="346.958" y="-314" font-family="Times,serif" font-size="14.00">device_info</text>
<polyline fill="none" stroke="black" points="338.958,-307.2 421.042,-307.2 "/>
<text text-anchor="middle" x="380" y="-289.2" font-family="Times,serif" font-size="14.00"> </text>
</g>
<!-- 6&#45;&gt;0 -->
<g id="edge12" class="edge"><title>6&#45;&gt;0</title>
<path fill="none" stroke="black" d="M380,-373.769C380,-407.357 380,-453.186 380,-487.055"/>
<polygon fill="none" stroke="black" points="376.5,-487.156 380,-497.156 383.5,-487.156 376.5,-487.156"/>
</g>
<!-- 7 -->
<g id="node8" class="node"><title>7</title>
<polygon fill="none" stroke="black" points="760.562,-248.8 760.562,-407.2 899.438,-407.2 899.438,-248.8 760.562,-248.8"/>
<text text-anchor="middle" x="830" y="-389.2" font-family="Times,serif" font-size="14.00">Sigmoidal</text>
<polyline fill="none" stroke="black" points="760.562,-382.4 899.438,-382.4 "/>
<text text-anchor="start" x="768.562" y="-364.4" font-family="Times,serif" font-size="14.00">pi_on_sqrt3</text>
<text text-anchor="start" x="768.562" y="-347.6" font-family="Times,serif" font-size="14.00">a : FloatArray</text>
<text text-anchor="start" x="768.562" y="-330.8" font-family="Times,serif" font-size="14.00">sigma : FloatArray</text>
<text text-anchor="start" x="768.562" y="-314" font-family="Times,serif" font-size="14.00">cmax : FloatArray</text>
<text text-anchor="start" x="768.562" y="-297.2" font-family="Times,serif" font-size="14.00">midpoint : FloatArray</text>
<text text-anchor="start" x="768.562" y="-280.4" font-family="Times,serif" font-size="14.00">cmin : FloatArray</text>
<polyline fill="none" stroke="black" points="760.562,-273.6 899.438,-273.6 "/>
<text text-anchor="middle" x="830" y="-255.6" font-family="Times,serif" font-size="14.00"> </text>
</g>
<!-- 7&#45;&gt;0 -->
<g id="edge14" class="edge"><title>7&#45;&gt;0</title>
<path fill="none" stroke="black" d="M796.035,-407.317C784.32,-426.467 769.399,-445.13 751,-458 699.528,-494.005 518.025,-518.061 429.411,-527.935"/>
<polygon fill="none" stroke="black" points="428.894,-524.47 419.336,-529.041 429.658,-531.429 428.894,-524.47"/>
</g>
<!-- 8 -->
<g id="node9" class="node"><title>8</title>
<polygon fill="none" stroke="black" points="760.562,-1.2 760.562,-142.8 899.438,-142.8 899.438,-1.2 760.562,-1.2"/>
<text text-anchor="middle" x="830" y="-124.8" font-family="Times,serif" font-size="14.00">SigmoidalJansenRit</text>
<polyline fill="none" stroke="black" points="760.562,-118 899.438,-118 "/>
<text text-anchor="start" x="768.562" y="-100" font-family="Times,serif" font-size="14.00">a : FloatArray</text>
<text text-anchor="start" x="768.562" y="-83.2" font-family="Times,serif" font-size="14.00">r : FloatArray</text>
<text text-anchor="start" x="768.562" y="-66.4" font-family="Times,serif" font-size="14.00">midpoint : FloatArray</text>
<text text-anchor="start" x="768.562" y="-49.6" font-family="Times,serif" font-size="14.00">cmin : FloatArray</text>
<text text-anchor="start" x="768.562" y="-32.8" font-family="Times,serif" font-size="14.00">cmax : FloatArray</text>
<polyline fill="none" stroke="black" points="760.562,-26 899.438,-26 "/>
<text text-anchor="middle" x="830" y="-8" font-family="Times,serif" font-size="14.00"> </text>
</g>
<!-- 8&#45;&gt;7 -->
<g id="edge16" class="edge"><title>8&#45;&gt;7</title>
<path fill="none" stroke="black" d="M830,-143.079C830,-172.627 830,-207.357 830,-238.633"/>
<polygon fill="none" stroke="black" points="826.5,-238.655 830,-248.655 833.5,-238.655 826.5,-238.655"/>
</g>
<!-- 9 -->
<g id="node10" class="node"><title>9</title>
<polygon fill="none" stroke="black" points="143.962,-18 143.962,-126 282.038,-126 282.038,-18 143.962,-18"/>
<text text-anchor="middle" x="213" y="-108" font-family="Times,serif" font-size="14.00">coupling_device_info</text>
<polyline fill="none" stroke="black" points="143.962,-101.2 282.038,-101.2 "/>
<text text-anchor="start" x="151.962" y="-83.2" font-family="Times,serif" font-size="14.00">inst</text>
<polyline fill="none" stroke="black" points="143.962,-76.4 282.038,-76.4 "/>
<text text-anchor="start" x="151.962" y="-58.4" font-family="Times,serif" font-size="14.00">cfpr()</text>
<text text-anchor="start" x="151.962" y="-41.6" font-family="Times,serif" font-size="14.00">n_cfpr()</text>
<text text-anchor="start" x="151.962" y="-24.8" font-family="Times,serif" font-size="14.00">kernel()</text>
</g>
<!-- 9&#45;&gt;1 -->
<g id="edge18" class="edge"><title>9&#45;&gt;1</title>
<path fill="none" stroke="black" d="M143.698,-116.297C127.168,-129.306 110.874,-144.766 98.917,-162 76.581,-194.193 63.5268,-236.432 56.0952,-270.113"/>
<polygon fill="black" stroke="black" points="56.0458,-270.352 58.7417,-277.04 53.6049,-282.101 50.9089,-275.413 56.0458,-270.352"/>
<text text-anchor="middle" x="132.042" y="-165.4" font-family="Times,serif" font-size="14.00" fill="green">device_info</text>
</g>
<!-- 9&#45;&gt;3 -->
<g id="edge20" class="edge"><title>9&#45;&gt;3</title>
<path fill="none" stroke="black" d="M185.54,-126.045C180.563,-137.629 175.985,-150.016 172.917,-162 163.92,-197.14 160.655,-237.748 159.657,-269.885"/>
<polygon fill="black" stroke="black" points="159.65,-270.206 163.51,-276.297 159.371,-282.202 155.512,-276.111 159.65,-270.206"/>
<text text-anchor="middle" x="206.042" y="-165.4" font-family="Times,serif" font-size="14.00" fill="green">device_info</text>
</g>
<!-- 9&#45;&gt;4 -->
<g id="edge22" class="edge"><title>9&#45;&gt;4</title>
<path fill="none" stroke="black" d="M229.38,-126.461C232.74,-138.127 236.125,-150.44 239,-162 247.162,-194.825 254.889,-231.665 260.907,-262.195"/>
<polygon fill="black" stroke="black" points="260.911,-262.217 265.987,-267.339 263.211,-273.995 258.135,-268.872 260.911,-262.217"/>
<text text-anchor="middle" x="277.042" y="-165.4" font-family="Times,serif" font-size="14.00" fill="green">device_info</text>
</g>
<!-- 9&#45;&gt;6 -->
<g id="edge24" class="edge"><title>9&#45;&gt;6</title>
<path fill="none" stroke="black" d="M281.955,-126.088C293.617,-137.108 304.881,-149.271 314,-162 337.466,-194.756 354.166,-237.034 364.897,-270.593"/>
<polygon fill="black" stroke="black" points="364.901,-270.606 370.494,-275.156 368.445,-282.07 362.851,-277.519 364.901,-270.606"/>
<text text-anchor="middle" x="358.042" y="-165.4" font-family="Times,serif" font-size="14.00" fill="green">device_info</text>
</g>
</g>
</svg>
