<?xml version="1.0" encoding="utf-8"?>
<!-- Generator: Adobe Illustrator 16.0.4, SVG Export Plug-In . SVG Version: 6.00 Build 0)  -->
<!DOCTYPE svg PUBLIC "-//W3C//DTD SVG 1.1//EN" "http://www.w3.org/Graphics/SVG/1.1/DTD/svg11.dtd">
<svg version="1.1" xmlns="http://www.w3.org/2000/svg" xmlns:xlink="http://www.w3.org/1999/xlink" x="0px" y="0px" width="300px"
	 height="1500px" viewBox="0 0 300 1500" style="enable-background:new 0 0 300 1500;" xml:space="preserve">
<g id="Ebene_2">
</g>
<g id="Ebene_1">
	<polygon style="fill-rule:evenodd;clip-rule:evenodd;fill:#662D91;" points="300,1329.719 0,1498.29 0,0.188 300,0.188 	"/>
	<g>
		<defs>
			<polygon id="SVGID_3_" points="300,1329.719 0,1498.29 0,498.29 300,498.29 			"/>
		</defs>
		<clipPath id="SVGID_2_">
			<use xlink:href="#SVGID_3_"  style="overflow:visible;"/>
		</clipPath>
		<g style="opacity:0.2;clip-path:url(#SVGID_2_);">
			
				<polygon style="fill-rule:evenodd;clip-rule:evenodd;fill:none;stroke:#FFFFFF;stroke-width:2.8216;stroke-miterlimit:10;" points="
				-448.551,1210.451 -511.455,1078.134 -471.562,893.256 -288.787,664.259 -34.683,534.052 133.548,512.934 410.866,529.828 
				545.303,609.596 711.18,796.6 786.962,964.804 793.293,1061.465 753.171,1124.373 650.397,1176.908 713.298,1240.018 
				650.397,1401.685 490.644,1525.8 360.433,1506.772 290.987,1445.781 259.541,1389.013 135.653,1469.006 -78.808,1439.461 
				-177.352,1311.357 -148.019,1260.917 -318.102,1288.353 			"/>
			
				<polygon style="fill-rule:evenodd;clip-rule:evenodd;fill:none;stroke:#FFFFFF;stroke-width:2.8216;stroke-miterlimit:10;" points="
				-35.18,802.588 94.672,579.663 -34.683,534.052 -288.787,664.259 			"/>
			
				<polygon style="fill-rule:evenodd;clip-rule:evenodd;fill:none;stroke:#FFFFFF;stroke-width:2.8216;stroke-miterlimit:10;" points="
				133.548,512.934 94.672,579.663 -34.683,534.052 			"/>
			
				<polygon style="fill-rule:evenodd;clip-rule:evenodd;fill:none;stroke:#FFFFFF;stroke-width:2.8216;stroke-miterlimit:10;" points="
				133.548,512.934 94.672,579.663 260.574,638.294 			"/>
			
				<polygon style="fill-rule:evenodd;clip-rule:evenodd;fill:none;stroke:#FFFFFF;stroke-width:2.8216;stroke-miterlimit:10;" points="
				133.548,512.934 410.866,529.828 313.701,656.904 260.574,638.294 			"/>
			
				<polygon style="fill-rule:evenodd;clip-rule:evenodd;fill:none;stroke:#FFFFFF;stroke-width:2.8216;stroke-miterlimit:10;" points="
				-78.808,1439.461 66.778,1418.495 -109.984,1288.812 -177.352,1311.357 			"/>
			
				<polygon style="fill-rule:evenodd;clip-rule:evenodd;fill:none;stroke:#FFFFFF;stroke-width:2.8216;stroke-miterlimit:10;" points="
				-78.808,1439.461 66.778,1418.495 135.653,1469.006 			"/>
			
				<polygon style="fill-rule:evenodd;clip-rule:evenodd;fill:none;stroke:#FFFFFF;stroke-width:2.8216;stroke-miterlimit:10;" points="
				259.541,1389.013 79.692,1415.843 135.653,1469.006 			"/>
			
				<polygon style="fill-rule:evenodd;clip-rule:evenodd;fill:none;stroke:#FFFFFF;stroke-width:2.8216;stroke-miterlimit:10;" points="
				290.987,1445.781 403.338,1491.236 360.433,1506.772 			"/>
			
				<polygon style="fill-rule:evenodd;clip-rule:evenodd;fill:none;stroke:#FFFFFF;stroke-width:2.8216;stroke-miterlimit:10;" points="
				403.338,1491.236 446.269,1476.736 359.215,1380.563 290.987,1445.781 			"/>
			
				<polygon style="fill-rule:evenodd;clip-rule:evenodd;fill:none;stroke:#FFFFFF;stroke-width:2.8216;stroke-miterlimit:10;" points="
				259.541,1389.013 329.437,1347.59 359.215,1380.563 290.987,1445.781 			"/>
			
				<polygon style="fill-rule:evenodd;clip-rule:evenodd;fill:none;stroke:#FFFFFF;stroke-width:2.8216;stroke-miterlimit:10;" points="
				528.837,1215.107 295.492,1184.839 303.288,1140.546 470.102,1078.684 597.768,1148.266 			"/>
			
				<polygon style="fill-rule:evenodd;clip-rule:evenodd;fill:none;stroke:#FFFFFF;stroke-width:2.8216;stroke-miterlimit:10;" points="
				528.837,1215.107 295.492,1184.839 277.387,1290.073 329.437,1347.59 502.674,1240.498 			"/>
			
				<polygon style="fill-rule:evenodd;clip-rule:evenodd;fill:none;stroke:#FFFFFF;stroke-width:2.8216;stroke-miterlimit:10;" points="
				259.541,1389.013 277.387,1290.073 329.437,1347.59 			"/>
			
				<polygon style="fill-rule:evenodd;clip-rule:evenodd;fill:none;stroke:#FFFFFF;stroke-width:2.8216;stroke-miterlimit:10;" points="
				259.541,1389.013 277.387,1290.073 180.206,1182.667 -71.499,1273.306 79.692,1415.843 			"/>
			
				<polygon style="fill-rule:evenodd;clip-rule:evenodd;fill:none;stroke:#FFFFFF;stroke-width:2.8216;stroke-miterlimit:10;" points="
				79.692,1415.843 66.778,1418.495 -109.984,1288.812 -71.499,1273.306 			"/>
			
				<polygon style="fill-rule:evenodd;clip-rule:evenodd;fill:none;stroke:#FFFFFF;stroke-width:2.8216;stroke-miterlimit:10;" points="
				79.692,1415.843 66.778,1418.495 135.653,1469.006 			"/>
			
				<polygon style="fill-rule:evenodd;clip-rule:evenodd;fill:none;stroke:#FFFFFF;stroke-width:2.8216;stroke-miterlimit:10;" points="
				-54.888,1139.09 166.721,1167.775 180.206,1182.667 -71.499,1273.306 -121.119,1225.706 			"/>
			
				<polygon style="fill-rule:evenodd;clip-rule:evenodd;fill:none;stroke:#FFFFFF;stroke-width:2.8216;stroke-miterlimit:10;" points="
				277.387,1290.073 180.206,1182.667 208.638,1172.626 295.492,1184.839 			"/>
			
				<polygon style="fill-rule:evenodd;clip-rule:evenodd;fill:none;stroke:#FFFFFF;stroke-width:2.8216;stroke-miterlimit:10;" points="
				303.288,1140.546 208.638,1172.626 295.492,1184.839 			"/>
			
				<polygon style="fill-rule:evenodd;clip-rule:evenodd;fill:none;stroke:#FFFFFF;stroke-width:2.8216;stroke-miterlimit:10;" points="
				166.721,1167.775 208.638,1172.626 180.206,1182.667 			"/>
			
				<polygon style="fill-rule:evenodd;clip-rule:evenodd;fill:none;stroke:#FFFFFF;stroke-width:2.8216;stroke-miterlimit:10;" points="
				378.898,711.114 384.222,681.074 313.701,656.904 299.037,676.104 350.973,727.09 			"/>
			
				<polygon style="fill-rule:evenodd;clip-rule:evenodd;fill:none;stroke:#FFFFFF;stroke-width:2.8216;stroke-miterlimit:10;" points="
				313.701,656.904 299.037,676.104 260.574,638.294 			"/>
			
				<polygon style="fill-rule:evenodd;clip-rule:evenodd;fill:none;stroke:#FFFFFF;stroke-width:2.8216;stroke-miterlimit:10;" points="
				180.426,831.252 299.037,676.104 350.973,727.09 			"/>
			
				<polygon style="fill-rule:evenodd;clip-rule:evenodd;fill:none;stroke:#FFFFFF;stroke-width:2.8216;stroke-miterlimit:10;" points="
				-54.888,1139.09 34.827,1021.957 -24.84,956.006 -178.208,1048.129 -218.462,1117.262 			"/>
			
				<polygon style="fill-rule:evenodd;clip-rule:evenodd;fill:none;stroke:#FFFFFF;stroke-width:2.8216;stroke-miterlimit:10;" points="
				166.721,1167.775 34.827,1021.957 -54.888,1139.09 			"/>
			
				<polygon style="fill-rule:evenodd;clip-rule:evenodd;fill:none;stroke:#FFFFFF;stroke-width:2.8216;stroke-miterlimit:10;" points="
				-35.18,802.588 -85.444,889.053 -24.84,956.006 102.487,877.329 			"/>
			
				<polygon style="fill-rule:evenodd;clip-rule:evenodd;fill:none;stroke:#FFFFFF;stroke-width:2.8216;stroke-miterlimit:10;" points="
				-35.18,802.588 94.672,579.663 260.574,638.294 299.037,676.104 180.426,831.252 102.487,877.329 			"/>
			
				<polygon style="fill-rule:evenodd;clip-rule:evenodd;fill:none;stroke:#FFFFFF;stroke-width:2.8216;stroke-miterlimit:10;" points="
				180.426,831.252 102.487,877.329 132.563,893.886 			"/>
			
				<polygon style="fill-rule:evenodd;clip-rule:evenodd;fill:none;stroke:#FFFFFF;stroke-width:2.8216;stroke-miterlimit:10;" points="
				132.563,893.886 34.827,1021.957 -24.84,956.006 102.487,877.329 			"/>
			
				<polygon style="fill-rule:evenodd;clip-rule:evenodd;fill:none;stroke:#FFFFFF;stroke-width:2.8216;stroke-miterlimit:10;" points="
				132.563,893.886 34.827,1021.957 166.721,1167.775 208.638,1172.626 303.288,1140.546 327.895,1000.945 			"/>
			
				<polygon style="fill-rule:evenodd;clip-rule:evenodd;fill:none;stroke:#FFFFFF;stroke-width:2.8216;stroke-miterlimit:10;" points="
				132.563,893.886 180.426,831.252 350.973,727.09 372.381,748.278 327.895,1000.945 			"/>
		</g>
	</g>
	<g>
		<defs>
			<rect id="SVGID_27_" x="344.41" y="977.727" width="1279" height="780"/>
		</defs>
		<clipPath id="SVGID_4_">
			<use xlink:href="#SVGID_27_"  style="overflow:visible;"/>
		</clipPath>
		<g style="clip-path:url(#SVGID_4_);">
			
				<polygon style="fill-rule:evenodd;clip-rule:evenodd;fill:none;stroke:#FFFFFF;stroke-width:4;stroke-miterlimit:10;stroke-opacity:0.2;" points="
				312.566,1377.296 243.246,1231.478 287.209,1027.74 488.633,775.378 768.661,631.885 954.054,608.613 1259.67,627.231 
				1407.822,715.136 1590.62,921.223 1674.137,1106.586 1681.109,1213.111 1636.895,1282.434 1523.635,1340.33 1592.955,1409.879 
				1523.635,1588.038 1347.589,1724.814 1204.088,1703.852 1127.557,1636.635 1092.902,1574.074 956.375,1662.23 720.037,1629.672 
				611.434,1488.496 643.761,1432.909 456.328,1463.145 			"/>
			
				<polygon style="fill-rule:evenodd;clip-rule:evenodd;fill:none;stroke:#FFFFFF;stroke-width:4;stroke-miterlimit:10;stroke-opacity:0.2;" points="
				287.209,1027.74 521.418,1251.045 610.492,1198.409 712.72,1023.103 488.633,775.378 			"/>
			
				<polygon style="fill-rule:evenodd;clip-rule:evenodd;fill:none;stroke:#FFFFFF;stroke-width:4;stroke-miterlimit:10;stroke-opacity:0.2;" points="
				287.209,1027.74 521.418,1251.045 497.037,1265.778 243.246,1231.478 			"/>
			
				<polygon style="fill-rule:evenodd;clip-rule:evenodd;fill:none;stroke:#FFFFFF;stroke-width:4;stroke-miterlimit:10;stroke-opacity:0.2;" points="
				312.566,1377.296 497.037,1265.778 243.246,1231.478 			"/>
		</g>
	</g>
</g>
</svg>
