<?xml version="1.0" encoding="utf-8"?>
<!-- Generator: Adobe Illustrator 16.0.4, SVG Export Plug-In . SVG Version: 6.00 Build 0)  -->
<!DOCTYPE svg PUBLIC "-//W3C//DTD SVG 1.1//EN" "http://www.w3.org/Graphics/SVG/1.1/DTD/svg11.dtd">
<svg version="1.1" id="Ebene_1" xmlns="http://www.w3.org/2000/svg" xmlns:xlink="http://www.w3.org/1999/xlink" x="0px" y="0px"
	 width="20.445px" height="20.445px" viewBox="0 0 20.445 20.445" style="enable-background:new 0 0 20.445 20.445;"
	 xml:space="preserve">
<path style="fill:#FFFFFF;" d="M0,8.837c0,4.872,3.964,8.835,8.836,8.835c1.888,0,3.636-0.6,5.074-1.613l4.386,4.387l2.149-2.15
	l-4.386-4.386c1.012-1.437,1.612-3.185,1.612-5.073C17.672,3.963,13.708,0,8.836,0S0,3.964,0,8.837z M3.039,8.837
	c0-3.197,2.6-5.797,5.797-5.797s5.797,2.601,5.797,5.797s-2.601,5.795-5.797,5.795C5.639,14.632,3.039,12.033,3.039,8.837z"/>
</svg>
