<?xml version="1.0" encoding="utf-8"?>
<!-- Generator: Adobe Illustrator 16.0.4, SVG Export Plug-In . SVG Version: 6.00 Build 0)  -->
<!DOCTYPE svg PUBLIC "-//W3C//DTD SVG 1.1//EN" "http://www.w3.org/Graphics/SVG/1.1/DTD/svg11.dtd">
<svg version="1.1" id="Ebene_1" xmlns="http://www.w3.org/2000/svg" xmlns:xlink="http://www.w3.org/1999/xlink" x="0px" y="0px"
	 width="153.154px" height="100.155px" viewBox="0 0 153.154 100.155" style="enable-background:new 0 0 153.154 100.155;"
	 xml:space="preserve">
<g>
	<g>
		<polygon style="fill-rule:evenodd;clip-rule:evenodd;fill:#2D86B1;" points="0,89.612 3.304,89.612 3.304,99.801 6.463,99.801 
			6.463,89.612 9.764,89.612 9.764,87.162 0,87.162 		"/>
		<polygon style="fill-rule:evenodd;clip-rule:evenodd;fill:#2D86B1;" points="9.77,99.801 12.93,99.801 12.93,94.477 
			17.635,94.477 17.635,99.801 20.793,99.801 20.793,87.162 17.635,87.162 17.635,91.706 12.93,91.706 12.93,87.162 9.77,87.162 		
			"/>
		<polygon style="fill-rule:evenodd;clip-rule:evenodd;fill:#2D86B1;" points="31.824,99.801 31.824,97.352 25.149,97.352 
			25.149,94.37 30.883,94.37 30.883,91.92 25.149,91.92 25.149,89.612 31.292,89.612 31.292,87.162 21.99,87.162 21.99,99.801 		"/>
		<polygon style="fill-rule:evenodd;clip-rule:evenodd;fill:#184343;" points="34.812,99.801 38.168,99.801 42.533,87.162 
			39.215,87.162 36.551,96.18 36.516,96.18 33.942,87.162 30.588,87.162 		"/>
		<rect x="42.611" y="87.162" style="fill-rule:evenodd;clip-rule:evenodd;fill:#184343;" width="3.159" height="12.639"/>
		<path style="fill-rule:evenodd;clip-rule:evenodd;fill:#184343;" d="M50.127,89.506h2.893c1.012,0.018,1.688,0.531,1.688,1.704
			c0,1.171-0.676,1.687-1.688,1.704h-2.893V89.506z M46.967,99.801h3.16v-4.543h2.006l2.485,4.543h3.532l-2.895-5.077
			c1.58-0.461,2.609-1.774,2.609-3.407c0-2.841-1.738-4.154-4.579-4.154h-6.319V99.801z"/>
		<polygon style="fill-rule:evenodd;clip-rule:evenodd;fill:#184343;" points="57.518,89.612 60.82,89.612 60.82,99.801 
			63.978,99.801 63.978,89.612 67.281,89.612 67.281,87.162 57.518,87.162 		"/>
		<path style="fill-rule:evenodd;clip-rule:evenodd;fill:#184343;" d="M77.99,87.162h-3.16v7.971c0,1.42-0.549,2.468-2.201,2.468
			c-1.633,0-2.183-1.048-2.183-2.468v-7.971h-3.16v8.236c0,3.462,2.93,4.757,5.343,4.757c2.434,0,5.361-1.295,5.361-4.757V87.162z"
			/>
		<path style="fill-rule:evenodd;clip-rule:evenodd;fill:#184343;" d="M78.016,99.801h3.371l0.641-1.986h4.667l0.641,1.986h3.39
			l-4.775-12.639h-3.267L78.016,99.801z M82.771,95.469l1.565-5.217h0.034l1.562,5.217H82.771z"/>
		<polygon style="fill-rule:evenodd;clip-rule:evenodd;fill:#184343;" points="90.749,99.801 98.842,99.801 98.842,97.138 
			93.908,97.138 93.908,87.162 90.749,87.162 		"/>
		<path style="fill-rule:evenodd;clip-rule:evenodd;fill:#2D86B1;" d="M98.654,99.801h5.752c3.213,0,5.164-0.994,5.164-3.604
			c0-1.864-1.384-2.769-3.107-2.894v-0.033c1.724-0.392,2.646-1.244,2.646-2.86c0-2.359-1.723-3.248-4.277-3.248h-6.178V99.801z
			 M101.708,94.477h3.141c1.172,0,1.563,0.461,1.563,1.508c0,0.817-0.462,1.474-2.132,1.474h-2.572V94.477z M101.672,89.506h2.629
			c1.047,0,1.649,0.249,1.649,1.314c0,0.922-0.64,1.313-1.649,1.313h-2.629V89.506z"/>
		<path style="fill-rule:evenodd;clip-rule:evenodd;fill:#2D86B1;" d="M113.376,89.506h2.894c1.012,0.018,1.687,0.531,1.687,1.704
			c0,1.171-0.675,1.687-1.687,1.704h-2.894V89.506z M110.217,99.801h3.159v-4.543h2.007l2.484,4.543h3.531l-2.893-5.077
			c1.579-0.461,2.609-1.774,2.609-3.407c0-2.841-1.739-4.154-4.578-4.154h-6.32V99.801z"/>
		<path style="fill-rule:evenodd;clip-rule:evenodd;fill:#2D86B1;" d="M120.605,99.801h3.373l0.641-1.986h4.669l0.638,1.986h3.391
			l-4.773-12.639h-3.27L120.605,99.801z M125.364,95.469l1.563-5.217h0.034l1.562,5.217H125.364z"/>
		<rect x="133.342" y="87.162" style="fill-rule:evenodd;clip-rule:evenodd;fill:#2D86B1;" width="3.159" height="12.639"/>
		<polygon style="fill-rule:evenodd;clip-rule:evenodd;fill:#2D86B1;" points="137.695,99.801 140.57,99.801 140.57,91.849 
			140.607,91.849 145.24,99.801 148.4,99.801 148.4,87.162 145.523,87.162 145.523,95.24 145.49,95.24 140.89,87.162 
			137.695,87.162 		"/>
		<rect x="149.4" y="96.819" style="fill-rule:evenodd;clip-rule:evenodd;fill:#2D86B1;" width="2.875" height="2.981"/>
	</g>
	<g>
		<polygon style="fill-rule:evenodd;clip-rule:evenodd;fill:none;" points="75.688,43.511 71.764,35.257 74.252,23.725 
			85.653,9.439 101.504,1.316 111.998,0 129.298,1.054 137.685,6.028 148.031,17.694 152.76,28.188 153.154,34.217 150.651,38.142 
			144.24,41.418 148.164,45.355 144.24,55.441 134.275,63.182 126.152,61.996 121.82,58.191 119.858,54.65 112.131,59.64 
			98.752,57.797 92.604,49.806 94.435,46.66 83.824,48.37 		"/>
		<polygon style="fill-rule:evenodd;clip-rule:evenodd;fill:#8ABDE7;" points="101.474,18.068 109.574,4.162 101.504,1.316 
			85.653,9.439 		"/>
		<polygon style="fill-rule:evenodd;clip-rule:evenodd;fill:#56A6DC;" points="101.474,18.068 98.338,23.463 85.653,9.439 		"/>
		<polygon style="fill-rule:evenodd;clip-rule:evenodd;fill:#2D86B1;" points="111.998,0 109.574,4.162 101.504,1.316 		"/>
		<polygon style="fill-rule:evenodd;clip-rule:evenodd;fill:#2D9997;" points="111.998,0 109.574,4.162 119.923,7.82 		"/>
		<polygon style="fill-rule:evenodd;clip-rule:evenodd;fill:#627986;" points="74.252,23.725 87.509,36.364 92.551,33.386 
			98.338,23.463 85.653,9.439 		"/>
		<polygon style="fill-rule:evenodd;clip-rule:evenodd;fill:#E48120;" points="74.252,23.725 87.509,36.364 86.129,37.198 
			71.764,35.257 		"/>
		<polygon style="fill-rule:evenodd;clip-rule:evenodd;fill:#520F1B;" points="75.688,43.511 86.129,37.198 71.764,35.257 		"/>
		<polygon style="fill-rule:evenodd;clip-rule:evenodd;fill:#627986;" points="75.688,43.511 86.129,37.198 88.778,37.507 
			89.639,38.387 83.824,48.37 		"/>
		<polygon style="fill-rule:evenodd;clip-rule:evenodd;fill:#4D555E;" points="94.435,46.66 96.112,44.463 89.639,38.387 
			83.824,48.37 		"/>
		<polygon style="fill-rule:evenodd;clip-rule:evenodd;fill:#2D86B1;" points="111.998,0 129.298,1.054 123.236,8.98 119.923,7.82 
					"/>
		<polygon style="fill-rule:evenodd;clip-rule:evenodd;fill:#627986;" points="127.637,10.487 129.298,1.054 123.236,8.98 		"/>
		<polygon style="fill-rule:evenodd;clip-rule:evenodd;fill:#2D86B1;" points="127.637,10.487 129.298,1.054 132.35,9.255 
			129.334,11.076 		"/>
		<polygon style="fill-rule:evenodd;clip-rule:evenodd;fill:#2566AA;" points="137.685,6.028 129.298,1.054 132.35,9.255 		"/>
		<polygon style="fill-rule:evenodd;clip-rule:evenodd;fill:#163942;" points="137.685,6.028 144.84,16.548 133.591,12.653 
			132.35,9.255 		"/>
		<polygon style="fill-rule:evenodd;clip-rule:evenodd;fill:#0D1B1C;" points="137.685,6.028 144.84,16.548 148.031,17.694 		"/>
		<polygon style="fill-rule:evenodd;clip-rule:evenodd;fill:#0D1B1C;" points="152.76,28.188 144.84,16.548 148.031,17.694 		"/>
		<polygon style="fill-rule:evenodd;clip-rule:evenodd;fill:#1E6158;" points="152.76,28.188 144.84,16.548 133.591,12.653 
			138.665,26.361 143.851,31.39 		"/>
		<polygon style="fill-rule:evenodd;clip-rule:evenodd;fill:#627986;" points="133.591,12.653 129.334,11.076 132.35,9.255 		"/>
		<polygon style="fill-rule:evenodd;clip-rule:evenodd;fill:#43A13D;" points="127.304,12.362 129.334,11.076 133.591,12.653 
			138.665,26.361 126.897,14.681 		"/>
		<polygon style="fill-rule:evenodd;clip-rule:evenodd;fill:#43A13D;" points="127.637,10.487 129.334,11.076 127.304,12.362 		"/>
		<polygon style="fill-rule:evenodd;clip-rule:evenodd;fill:#307933;" points="152.76,28.188 146.607,34.151 143.851,31.39 		"/>
		<polygon style="fill-rule:evenodd;clip-rule:evenodd;fill:#1E7735;" points="152.76,28.188 146.607,34.151 149.109,36.7 
			153.154,34.217 		"/>
		<polygon style="fill-rule:evenodd;clip-rule:evenodd;fill:#163942;" points="150.651,38.142 149.109,36.7 153.154,34.217 		"/>
		<polygon style="fill-rule:evenodd;clip-rule:evenodd;fill:#163942;" points="150.651,38.142 149.109,36.7 143.73,40 
			144.24,41.418 		"/>
		<polygon style="fill-rule:evenodd;clip-rule:evenodd;fill:#163942;" points="142.916,37.732 146.607,34.151 149.109,36.7 
			143.73,40 		"/>
		<polygon style="fill-rule:evenodd;clip-rule:evenodd;fill:#5AB03C;" points="142.916,37.732 146.607,34.151 143.851,31.39 
			140.992,32.418 		"/>
		<polygon style="fill-rule:evenodd;clip-rule:evenodd;fill:#184343;" points="138.665,26.361 143.851,31.39 140.992,32.418 		"/>
		<polygon style="fill-rule:evenodd;clip-rule:evenodd;fill:#B61734;" points="88.778,37.507 87.509,36.364 92.551,33.386 
			90.04,37.698 		"/>
		<polygon style="fill-rule:evenodd;clip-rule:evenodd;fill:#702E64;" points="94.435,46.66 96.807,48.4 92.604,49.806 		"/>
		<polygon style="fill-rule:evenodd;clip-rule:evenodd;fill:#3F172E;" points="98.752,57.797 107.834,56.489 96.807,48.4 
			92.604,49.806 		"/>
		<polygon style="fill-rule:evenodd;clip-rule:evenodd;fill:#3F172E;" points="98.752,57.797 107.834,56.489 112.131,59.64 		"/>
		<polygon style="fill-rule:evenodd;clip-rule:evenodd;fill:#627986;" points="94.435,46.66 96.807,48.4 99.207,47.432 
			96.112,44.463 		"/>
		<polygon style="fill-rule:evenodd;clip-rule:evenodd;fill:#CD4422;" points="100.244,39.06 96.112,44.463 89.639,38.387 
			90.04,37.698 		"/>
		<polygon style="fill-rule:evenodd;clip-rule:evenodd;fill:#3F172E;" points="119.858,54.65 108.639,56.323 112.131,59.64 		"/>
		<polygon style="fill-rule:evenodd;clip-rule:evenodd;fill:#112629;" points="148.164,45.355 137.525,43.95 142.768,40.591 
			144.24,41.418 		"/>
		<polygon style="fill-rule:evenodd;clip-rule:evenodd;fill:#291423;" points="148.164,45.355 138.58,57.654 144.24,55.441 		"/>
		<polygon style="fill-rule:evenodd;clip-rule:evenodd;fill:#291423;" points="134.275,63.182 138.58,57.654 144.24,55.441 		"/>
		<polygon style="fill-rule:evenodd;clip-rule:evenodd;fill:#291423;" points="134.275,63.182 128.828,61.027 126.152,61.996 		"/>
		<polygon style="fill-rule:evenodd;clip-rule:evenodd;fill:#291423;" points="121.82,58.191 128.828,61.027 126.152,61.996 		"/>
		<polygon style="fill-rule:evenodd;clip-rule:evenodd;fill:#123025;" points="134.275,63.182 128.828,61.027 131.506,60.122 		"/>
		<polygon style="fill-rule:evenodd;clip-rule:evenodd;fill:#624426;" points="134.275,63.182 138.58,57.654 131.506,60.122 		"/>
		<polygon style="fill-rule:evenodd;clip-rule:evenodd;fill:#123025;" points="148.164,45.355 138.58,57.654 131.506,60.122 
			126.076,54.122 135.025,45.386 137.525,43.95 		"/>
		<polygon style="fill-rule:evenodd;clip-rule:evenodd;fill:#624426;" points="128.828,61.027 131.506,60.122 126.076,54.122 
			121.82,58.191 		"/>
		<polygon style="fill-rule:evenodd;clip-rule:evenodd;fill:#0D1B1C;" points="119.858,54.65 124.219,52.065 126.076,54.122 
			121.82,58.191 		"/>
		<polygon style="fill-rule:evenodd;clip-rule:evenodd;fill:#163942;" points="124.219,52.065 126.076,54.122 135.025,45.386 		"/>
		<polygon style="fill-rule:evenodd;clip-rule:evenodd;fill:#112629;" points="142.768,40.591 143.73,40 144.24,41.418 		"/>
		<polygon style="fill-rule:evenodd;clip-rule:evenodd;fill:#163942;" points="136.657,43.802 137.525,43.95 142.768,40.591 
			140.957,39.633 		"/>
		<polygon style="fill-rule:evenodd;clip-rule:evenodd;fill:#112629;" points="142.916,37.732 143.73,40 142.768,40.591 
			140.957,39.633 		"/>
		<polygon style="fill-rule:evenodd;clip-rule:evenodd;fill:#43A13D;" points="142.916,37.732 140.992,32.418 132.994,35.291 
			140.957,39.633 		"/>
		<polygon style="fill-rule:evenodd;clip-rule:evenodd;fill:#2D9997;" points="138.665,26.361 140.992,32.418 132.994,35.291 
			124.123,30.442 126.897,14.681 		"/>
		<polygon style="fill-rule:evenodd;clip-rule:evenodd;fill:#5AB03C;" points="132.994,35.291 124.123,30.442 122.587,39.15 		"/>
		<polygon style="fill-rule:evenodd;clip-rule:evenodd;fill:#307933;" points="136.657,43.802 122.101,41.913 122.587,39.15 
			132.994,35.291 140.957,39.633 		"/>
		<polygon style="fill-rule:evenodd;clip-rule:evenodd;fill:#925497;" points="136.657,43.802 122.101,41.913 120.972,48.479 
			124.219,52.065 135.025,45.386 		"/>
		<polygon style="fill-rule:evenodd;clip-rule:evenodd;fill:#702E64;" points="119.858,54.65 120.972,48.479 124.219,52.065 		"/>
		<polygon style="fill-rule:evenodd;clip-rule:evenodd;fill:#4C2563;" points="119.858,54.65 120.972,48.479 114.909,41.778 
			99.207,47.432 108.639,56.323 		"/>
		<polygon style="fill-rule:evenodd;clip-rule:evenodd;fill:#702E64;" points="108.639,56.323 107.834,56.489 96.807,48.4 
			99.207,47.432 		"/>
		<polygon style="fill-rule:evenodd;clip-rule:evenodd;fill:#702E64;" points="108.639,56.323 107.834,56.489 112.131,59.64 		"/>
		<polygon style="fill-rule:evenodd;clip-rule:evenodd;fill:#B61734;" points="88.778,37.507 86.129,37.198 87.509,36.364 		"/>
		<polygon style="fill-rule:evenodd;clip-rule:evenodd;fill:#B61734;" points="88.778,37.507 89.639,38.387 90.04,37.698 		"/>
		<polygon style="fill-rule:evenodd;clip-rule:evenodd;fill:#925497;" points="100.244,39.06 114.068,40.849 114.909,41.778 
			99.207,47.432 96.112,44.463 		"/>
		<polygon style="fill-rule:evenodd;clip-rule:evenodd;fill:#925497;" points="120.972,48.479 114.909,41.778 116.683,41.151 
			122.101,41.913 		"/>
		<polygon style="fill-rule:evenodd;clip-rule:evenodd;fill:#1A4848;" points="122.587,39.15 116.683,41.151 122.101,41.913 		"/>
		<polygon style="fill-rule:evenodd;clip-rule:evenodd;fill:#123025;" points="114.068,40.849 116.683,41.151 114.909,41.778 		"/>
		<polygon style="fill-rule:evenodd;clip-rule:evenodd;fill:#163942;" points="136.657,43.802 137.525,43.95 135.025,45.386 		"/>
		<polygon style="fill-rule:evenodd;clip-rule:evenodd;fill:#43A13D;" points="125.562,13.358 126.897,14.681 127.304,12.362 		"/>
		<polygon style="fill-rule:evenodd;clip-rule:evenodd;fill:#2D9997;" points="127.304,12.362 127.637,10.487 123.236,8.98 
			122.322,10.178 125.562,13.358 		"/>
		<polygon style="fill-rule:evenodd;clip-rule:evenodd;fill:#43A13D;" points="123.236,8.98 122.322,10.178 119.923,7.82 		"/>
		<polygon style="fill-rule:evenodd;clip-rule:evenodd;fill:#2D86B1;" points="114.923,19.855 122.322,10.178 125.562,13.358 		"/>
		<polygon style="fill-rule:evenodd;clip-rule:evenodd;fill:#CD4422;" points="92.551,33.386 98.338,23.463 102.118,27.639 		"/>
		<polygon style="fill-rule:evenodd;clip-rule:evenodd;fill:#E48120;" points="100.244,39.06 105.84,31.753 102.118,27.639 
			92.551,33.386 90.04,37.698 		"/>
		<polygon style="fill-rule:evenodd;clip-rule:evenodd;fill:#3F172E;" points="114.068,40.849 105.84,31.753 100.244,39.06 		"/>
		<polygon style="fill-rule:evenodd;clip-rule:evenodd;fill:#2D86B1;" points="101.474,18.068 98.338,23.463 102.118,27.639 
			110.061,22.73 		"/>
		<polygon style="fill-rule:evenodd;clip-rule:evenodd;fill:#56A6DC;" points="101.474,18.068 109.574,4.162 119.923,7.82 
			122.322,10.178 114.923,19.855 110.061,22.73 		"/>
		<polygon style="fill-rule:evenodd;clip-rule:evenodd;fill:#2566AA;" points="114.923,19.855 110.061,22.73 111.938,23.763 		"/>
		<polygon style="fill-rule:evenodd;clip-rule:evenodd;fill:#2D86B1;" points="111.938,23.763 105.84,31.753 102.118,27.639 
			110.061,22.73 		"/>
		<polygon style="fill-rule:evenodd;clip-rule:evenodd;fill:#627986;" points="111.938,23.763 105.84,31.753 114.068,40.849 
			116.683,41.151 122.587,39.15 124.123,30.442 		"/>
		<polygon style="fill-rule:evenodd;clip-rule:evenodd;fill:#2566AA;" points="111.938,23.763 114.923,19.855 125.562,13.358 
			126.897,14.681 124.123,30.442 		"/>
	</g>
</g>
</svg>
