<?xml version="1.0" encoding="utf-8"?>
<!-- Generator: Adobe Illustrator 16.0.4, SVG Export Plug-In . SVG Version: 6.00 Build 0)  -->
<!DOCTYPE svg PUBLIC "-//W3C//DTD SVG 1.1//EN" "http://www.w3.org/Graphics/SVG/1.1/DTD/svg11.dtd">
<svg version="1.1" id="Ebene_1" xmlns="http://www.w3.org/2000/svg" xmlns:xlink="http://www.w3.org/1999/xlink" x="0px" y="0px"
	 width="138.503px" height="51.158px" viewBox="0 0 138.503 51.158" style="enable-background:new 0 0 138.503 51.158;"
	 xml:space="preserve">
<rect x="-22.672" y="-41.168" style="fill:none;stroke:#627986;stroke-miterlimit:10;" width="180" height="132"/>
<g id="layer1_1_" transform="translate(97.142897,-21.75554)">
	<path id="polygon10_1_" style="fill:#FFFFFF;" d="M37.269,32.02l-2.803,3.862l1.173,0.654l3.6-3.619L37.269,32.02z M-29.141,37.641
		l-0.379,0.826l-7.812,17.734h2.164l2.143-5.032h7.573l2.096,5.032h2.19l-7.612-17.734L-29.141,37.641z M-69.793,38.106
		c-5.766-0.004-9.37,4.305-9.37,9.299s3.633,9.152,9.37,9.152c1.862,0,3.723-0.623,5.236-1.719v-2.376
		c-1.403,1.403-3.312,2.312-5.302,2.312c-4.309,0-7.153-3.559-7.153-7.439c0-3.88,2.793-7.439,7.111-7.439
		c2.033,0,3.94,0.862,5.344,2.312v-2.376C-66.117,38.665-67.837,38.106-69.793,38.106z M-56.772,38.467v17.734h1.981v-8.706h6.016
		v-1.834h-6.016v-7.194H-56.772z M-46.076,38.467v17.734h1.978V38.467H-46.076z M-14.68,38.467v17.734h1.977v-7.786h2.666
		l4.024,7.786h2.294l-4.31-8.057c1.833-0.54,3.629-1.952,3.629-4.777c0-3.57-2.676-4.9-5.596-4.9H-14.68z M4.462,38.467v17.734
		h1.975V38.467H4.462z M13.896,38.467V40.3h4.286v15.901h1.976V40.3h4.327v-1.833H13.896z M31.633,38.467v17.734h9.598v-1.836
		h-7.624v-6.961h6.541v-1.834h-6.541V40.3h7.332v-1.833H31.633z M-12.703,40.3h2.45c2.042,0,3.873,0.815,3.873,3.067
		c0,2.254-1.568,3.308-3.854,3.308h-2.47V40.3z M-29.19,42.226l2.966,7.104h-6.002L-29.19,42.226z"/>
	<path id="path26_1_" style="fill:#FFFFFF;" d="M-97.143,47.335c0-14.129,11.383-25.579,25.799-25.579
		c6.312,0,12.091,2.286,16.551,6.077v3.937c-4.116-4.366-9.956-7.095-16.434-7.095c-12.634,0-22.51,10.109-22.51,22.58
		c0,12.472,9.882,22.581,22.51,22.581c6.478,0,12.317-2.728,16.434-7.095v4.096c-4.46,3.79-10.238,6.077-16.551,6.077
		C-85.75,72.914-97.143,61.461-97.143,47.335L-97.143,47.335L-97.143,47.335z"/>
	<path id="path30_1_" style="fill:#FFFFFF;" d="M-17.229,61.562c-0.221,0-0.404,0.186-0.404,0.406c0,0.216,0.184,0.4,0.404,0.4
		c0.217,0,0.4-0.185,0.4-0.4C-16.828,61.748-17.012,61.562-17.229,61.562z M-16.06,61.562c-0.028,0-0.056,0-0.08,0.008
		c-0.186,0.038-0.325,0.204-0.325,0.398c0,0.216,0.185,0.4,0.405,0.4c0.218,0,0.4-0.185,0.4-0.4
		C-15.659,61.748-15.842,61.562-16.06,61.562L-16.06,61.562z M-26.382,62.576c-0.144,0-0.28,0.011-0.411,0.041
		c-0.044,0.01-0.089,0.025-0.128,0.039c-0.045,0.014-0.083,0.026-0.12,0.045c-0.039,0.016-0.078,0.033-0.114,0.053
		c-0.367,0.192-0.606,0.537-0.606,0.989c0,0.329,0.078,0.55,0.245,0.727c0.021,0.024,0.049,0.046,0.074,0.071
		c0.055,0.044,0.116,0.089,0.184,0.129c0.069,0.038,0.147,0.073,0.228,0.107c0.165,0.068,0.357,0.135,0.58,0.2
		c0.087,0.026,0.169,0.051,0.241,0.076c0.52,0.175,0.704,0.334,0.704,0.616c0,0.305-0.159,0.496-0.486,0.572
		c-0.055,0.014-0.115,0.021-0.179,0.028c-0.063,0.005-0.132,0.01-0.204,0.01c-0.396,0-0.806-0.191-1.089-0.497l-0.449,0.439
		c0.311,0.361,0.75,0.609,1.267,0.666c0.074,0.007,0.149,0.01,0.227,0.01c1.073,0,1.548-0.516,1.548-1.271
		c0-0.234-0.046-0.423-0.141-0.574c-0.021-0.031-0.043-0.059-0.065-0.085c-0.223-0.284-0.618-0.446-1.136-0.602
		c-0.183-0.055-0.327-0.105-0.45-0.154c-0.059-0.021-0.109-0.051-0.157-0.075c-0.23-0.118-0.308-0.242-0.308-0.427
		c0-0.035,0.004-0.068,0.012-0.103c0.007-0.033,0.013-0.065,0.026-0.097c0.082-0.185,0.293-0.319,0.659-0.319
		c0.362,0,0.639,0.099,0.878,0.304c0.034,0.026,0.071,0.062,0.102,0.096l0.445-0.447C-25.379,62.783-25.811,62.576-26.382,62.576z
		 M-8.955,62.576c-0.772,0-1.38,0.443-1.38,1.167c0,0.748,0.424,0.973,1.309,1.234c0.701,0.211,0.948,0.37,0.948,0.692
		c0,0.305-0.162,0.496-0.489,0.572c-0.054,0.014-0.113,0.021-0.177,0.028c-0.063,0.005-0.133,0.01-0.205,0.01
		c-0.396,0-0.808-0.191-1.088-0.497l-0.448,0.439c0.309,0.361,0.751,0.609,1.265,0.666c0.072,0.007,0.152,0.01,0.228,0.01
		c1.073,0,1.547-0.516,1.547-1.271c0-0.234-0.048-0.423-0.141-0.574c-0.019-0.031-0.043-0.059-0.063-0.085
		c-0.225-0.284-0.619-0.446-1.139-0.602c-0.179-0.055-0.328-0.105-0.446-0.154c-0.062-0.021-0.111-0.051-0.158-0.075
		c-0.231-0.118-0.308-0.242-0.308-0.427c0-0.035,0.004-0.068,0.009-0.103c0.008-0.033,0.014-0.065,0.029-0.097
		c0.08-0.185,0.289-0.319,0.66-0.319c0.361,0,0.636,0.099,0.874,0.304c0.036,0.026,0.071,0.062,0.105,0.096l0.441-0.447
		C-7.954,62.783-8.386,62.576-8.955,62.576z M-50.555,62.64v2.428c0,1.157,0.538,1.83,1.574,1.83c1.044,0,1.612-0.639,1.612-1.812
		V62.64h-0.633v2.457c0,0.766-0.309,1.173-0.969,1.173c-0.627,0-0.958-0.427-0.958-1.217V62.64H-50.555z M-46.209,62.64v4.193h0.611
		v-2.176c0-0.235-0.007-0.813-0.007-0.969c0.065,0.107,0.212,0.356,0.313,0.515l1.671,2.63h0.597V62.64h-0.611v2.165
		c0,0.233,0.01,0.827,0.01,0.984c-0.06-0.109-0.242-0.418-0.351-0.591l-1.591-2.559H-46.209L-46.209,62.64z M-41.801,62.64v4.193
		h0.633V62.64H-41.801z M-40.211,62.64l1.457,4.193h0.665l1.434-4.193h-0.672l-0.86,2.666c-0.038,0.124-0.092,0.278-0.134,0.424
		c-0.044,0.142-0.08,0.269-0.099,0.346c-0.035-0.15-0.154-0.516-0.233-0.765l-0.875-2.671H-40.211z M-35.727,62.64v4.193h2.794
		v-0.611h-2.166v-1.326h1.207v-0.612h-1.207v-1.031h2.073V62.64H-35.727z M-31.939,62.64v4.193h0.617v-1.661h0.946l0.834,1.661
		h0.725l-0.861-1.717c0.57-0.143,0.927-0.557,0.927-1.227c0-0.863-0.616-1.25-1.348-1.25H-31.939z M-23.795,62.64v4.193h0.627V62.64
		H-23.795z M-22.211,62.64v0.617h1.225v3.576h0.627v-3.576h1.222V62.64H-22.211z M-16.962,62.64l-1.51,4.193h0.654l0.347-0.997
		h1.677l0.354,0.997h0.669l-1.525-4.193H-16.962z M-14.106,62.64v0.617h1.223v3.576h0.627v-3.576h1.223V62.64H-14.106z
		 M-6.402,62.64v4.193h0.596v-2.218c0-0.254-0.012-0.618-0.018-0.736c0.049,0.118,0.169,0.42,0.271,0.661l1.006,2.357l1.018-2.357
		c0.103-0.241,0.223-0.543,0.271-0.661c-0.006,0.118-0.011,0.482-0.011,0.736v2.218h0.617V62.64h-0.673l-0.918,2.234
		c-0.051,0.123-0.106,0.258-0.157,0.383c-0.05,0.127-0.095,0.249-0.124,0.335c-0.055-0.173-0.191-0.479-0.293-0.718l-0.936-2.234
		H-6.402L-6.402,62.64z M-1.462,62.64v4.193h2.79v-0.611H-0.83v-1.326h1.202v-0.612H-0.83v-1.031h2.073V62.64H-1.462z M2.326,62.64
		v4.193H3.47c1.099,0,2.041-0.619,2.041-2.1c0-1.479-0.914-2.094-2.041-2.094H2.326z M6.522,62.64v4.193h0.635V62.64H6.522z
		 M8.308,62.64v0.578h1.559c0.244,0,0.676-0.006,0.845-0.011c-0.109,0.107-0.339,0.379-0.471,0.541l-2.052,2.474v0.611h3.188v-0.581
		H9.726c-0.247,0-0.678,0.005-0.845,0.012c0.108-0.108,0.34-0.379,0.472-0.54l2.024-2.472V62.64H8.308z M12.484,62.64v4.193h0.629
		V62.64H12.484z M14.337,62.64v4.193h0.609v-2.176c0-0.235-0.005-0.813-0.005-0.969c0.065,0.107,0.213,0.356,0.313,0.515l1.674,2.63
		h0.593V62.64H16.91v2.165c0,0.233,0.012,0.827,0.012,0.984c-0.061-0.109-0.243-0.418-0.352-0.591l-1.591-2.559H14.337L14.337,62.64
		z M20.433,62.64v4.193h1.664c0.06,0,0.116-0.002,0.169-0.007c0.813-0.051,1.272-0.484,1.272-1.282c0-0.579-0.379-0.889-0.71-0.979
		c0.307-0.148,0.536-0.412,0.536-0.838c0-0.708-0.476-1.087-1.206-1.087H20.433L20.433,62.64z M24.582,62.64v4.193h2.792v-0.611
		H25.21v-1.326h1.206v-0.612H25.21v-1.031h2.071V62.64H24.582z M28.365,62.64v4.193h0.615v-1.661h0.948l0.832,1.661h0.726
		l-0.854-1.717c0.568-0.143,0.92-0.557,0.92-1.227c0-0.863-0.616-1.25-1.348-1.25H28.365z M32.627,62.64v4.193h2.718v-0.616h-2.09
		V62.64H32.627z M36.321,62.64v4.193h0.63V62.64H36.321z M38.173,62.64v4.193h0.611v-2.176c0-0.235-0.005-0.813-0.005-0.969
		c0.065,0.107,0.206,0.356,0.309,0.515l1.67,2.63h0.603V62.64h-0.611v2.165c0,0.233,0.005,0.827,0.005,0.984
		c-0.061-0.109-0.239-0.418-0.346-0.591l-1.597-2.559H38.173z M21.028,63.213h1.125c0.419,0,0.586,0.242,0.586,0.554
		c0,0.275-0.173,0.533-0.586,0.533h-1.125V63.213z M-31.322,63.235h1.223c0.427,0,0.71,0.24,0.71,0.676
		c0,0.456-0.291,0.672-0.71,0.672h-1.223V63.235z M28.98,63.235h1.224c0.424,0,0.714,0.24,0.714,0.676
		c0,0.456-0.294,0.672-0.714,0.672H28.98V63.235z M2.958,63.253H3.47c0.995,0,1.402,0.601,1.402,1.481
		c0,0.882-0.407,1.488-1.402,1.488H2.958V63.253z M-16.639,63.348c0.049,0.179,0.214,0.664,0.316,0.964l0.334,0.963h-1.292
		l0.334-0.957C-16.838,64.006-16.686,63.527-16.639,63.348z M21.028,64.869h1.137c0.472,0,0.746,0.261,0.746,0.692
		c0,0.413-0.205,0.698-0.762,0.698h-1.121V64.869z"/>
</g>
</svg>
