<?xml version="1.0" encoding="utf-8"?>
<!-- Generator: Adobe Illustrator 16.0.4, SVG Export Plug-In . SVG Version: 6.00 Build 0)  -->
<!DOCTYPE svg PUBLIC "-//W3C//DTD SVG 1.1//EN" "http://www.w3.org/Graphics/SVG/1.1/DTD/svg11.dtd">
<svg version="1.1" id="Ebene_1" xmlns="http://www.w3.org/2000/svg" xmlns:xlink="http://www.w3.org/1999/xlink" x="0px" y="0px"
	 width="151.219px" height="51.822px" viewBox="0 0 151.219 51.822" style="enable-background:new 0 0 151.219 51.822;"
	 xml:space="preserve">
<rect x="-13.799" y="-40.089" style="fill:none;stroke:#627986;stroke-miterlimit:10;" width="180" height="132"/>
<g>
	<path style="fill:#FFFFFF;" d="M30.597,24.887h-2.204l-1.391-4.049h-7.163l-1.368,4.049H16.27l5.695-16.854H24.9 M23.433,9.6
		l-3.012,9.341h6.022L23.433,9.6z"/>
	<path style="fill:#FFFFFF;" d="M33.329,7.523h2.124v3.061h-2.124 M33.329,12.561h2.125v12.326h-2.125V12.561z"/>
	<polyline style="fill:#FFFFFF;" points="37.935,24.887 41.983,18.686 38.011,12.561 40.211,12.561 43.147,17.093 46.085,12.561 
		48.285,12.561 44.288,18.686 48.361,24.887 46.135,24.887 43.147,20.307 40.188,24.887 	"/>
	<polyline style="fill:#FFFFFF;" points="65.611,11.22 65.279,24.886 63.181,24.886 63.762,8.029 66.521,8.029 71.381,21.063 
		76.241,8.029 79,8.029 79.583,24.886 77.482,24.886 77.151,11.22 72.848,22.709 69.914,22.709 	"/>
	<path style="fill:#FFFFFF;" d="M91.154,24.887h-1.796l-0.127-0.912c-1.088,0.76-2.505,1.166-3.998,1.166
		c-2.303,0-3.266-1.368-3.266-3.544c0-2.557,1.292-3.469,3.774-3.469h3.29v-1.922c0-1.546-0.685-2.077-2.685-2.077
		c-1.188,0.002-2.344,0.12-3.302,0.321l-0.229-1.696c1.162-0.304,2.342-0.448,3.657-0.448c3.518,0,4.68,1.369,4.68,4.001
		 M89.032,19.901h-3.141c-1.316,0-1.797,0.404-1.797,1.645c0,1.266,0.228,1.772,1.746,1.772c1.062,0,2.252-0.406,3.191-1.014V19.901
		z"/>
	<path style="fill:#FFFFFF;" d="M100.111,14.256c-1.165,0.557-2.507,1.417-3.518,2.126v8.505h-2.127V12.561h1.848l0.128,1.721
		c0.909-0.709,2.175-1.469,3.39-1.976"/>
	<path style="fill:#FFFFFF;" d="M105.68,25.141c-1.266,0-2.938-0.277-3.924-0.658l0.278-1.671c1.063,0.303,2.454,0.507,3.521,0.507
		c1.947,0,2.276-0.354,2.276-1.672c0-1.315-0.102-1.467-2.584-2.074c-3.06-0.759-3.338-1.393-3.338-3.949
		c0-2.277,1.011-3.314,4.25-3.314c1.188,0,2.483,0.151,3.496,0.43l-0.153,1.747c-1.037-0.204-2.406-0.354-3.417-0.354
		c-1.822,0-2.077,0.43-2.077,1.544c0,1.366,0.026,1.618,2.103,2.125c3.545,0.886,3.821,1.316,3.821,3.772
		C109.932,23.976,109.199,25.141,105.68,25.141"/>
	<path style="fill:#FFFFFF;" d="M117.513,23.318c1.215,0,2.557-0.229,3.896-0.584l0.28,1.696c-1.166,0.432-2.811,0.71-4.353,0.71
		c-3.647,0-4.887-1.747-4.887-4.531v-3.696c0-2.557,1.165-4.607,4.834-4.607c3.645,0,4.634,2.102,4.634,4.657v2.584h-7.341v1.037
		C114.577,22.533,115.106,23.318,117.513,23.318 M114.577,17.776h5.291v-1.015c0-1.721-0.585-2.684-2.584-2.684
		c-2,0-2.707,0.963-2.707,2.684V17.776z"/>
	<path style="fill:#FFFFFF;" d="M124.704,7.523h2.127v3.061h-2.127 M124.704,12.561h2.127v12.326h-2.127V12.561z"/>
	<polyline style="fill:#FFFFFF;" points="130.88,24.887 130.88,7.525 133.002,7.221 133.002,24.887 	"/>
	<polyline style="fill:#FFFFFF;" points="137.055,24.887 137.055,7.525 139.182,7.221 139.182,24.887 	"/>
	<path style="fill:#FFFFFF;" d="M146.813,23.318c1.218,0,2.556-0.229,3.897-0.584l0.278,1.696c-1.162,0.432-2.81,0.71-4.354,0.71
		c-3.643,0-4.884-1.747-4.884-4.531v-3.696c0-2.557,1.165-4.607,4.835-4.607c3.644,0,4.632,2.102,4.632,4.657v2.584h-7.341v1.037
		C143.878,22.533,144.41,23.318,146.813,23.318 M143.878,17.776h5.29v-1.015c0-1.721-0.582-2.684-2.581-2.684
		c-2.001,0-2.709,0.963-2.709,2.684V17.776z"/>
	<path style="fill:#FFFFFF;" d="M45.441,29.678v9.865c0,0.9,0.475,1.227,1.325,1.227c1.001,0,3.155-0.602,4.683-1.402v-9.689h1.452
		v12.191h-1.276l-0.102-1.1c-1.302,0.624-3.479,1.352-4.956,1.352c-1.904,0-2.579-1.076-2.579-2.754v-9.689"/>
	<path style="fill:#FFFFFF;" d="M64.937,41.872v-9.864c0-0.9-0.476-1.227-1.328-1.227c-1,0-3.153,0.601-4.68,1.401v9.689h-1.455
		V29.679h1.279l0.099,1.103c1.304-0.626,3.48-1.353,4.956-1.353c1.904,0,2.579,1.077,2.579,2.754v9.689"/>
	<path style="fill:#FFFFFF;" d="M70.192,29.623h1.453v2.678h-1.453 M70.192,33.741h1.45v8.131h-1.45V33.741z"/>
	<polyline style="fill:#FFFFFF;" points="80.931,41.872 78.701,41.872 74.569,29.679 76.047,29.679 79.803,40.844 83.581,29.679 
		85.058,29.679 	"/>
	<path style="fill:#FFFFFF;" d="M91.58,40.847c1.249,0,2.652-0.251,3.854-0.578l0.252,1.179c-1.126,0.4-2.728,0.674-4.207,0.674
		c-3.431,0-4.529-1.776-4.529-4.43v-3.83c0-2.503,1.126-4.433,4.554-4.433c3.431,0,4.435,1.93,4.435,4.433v2.354H88.4v1.525
		C88.4,39.918,89.152,40.847,91.58,40.847 M88.4,34.913h6.107v-1.103c0-2.053-0.727-3.13-3.005-3.13
		c-2.276,0-3.103,1.077-3.103,3.13V34.913z"/>
	<path style="fill:#FFFFFF;" d="M104.851,30.857c-1.274,0.553-2.68,1.477-3.856,2.253v8.762h-1.45V29.679h1.302l0.072,1.854
		c1.303-0.853,2.606-1.678,3.758-2.104"/>
	<path style="fill:#FFFFFF;" d="M110.89,42.121c-1.227,0-2.677-0.249-3.58-0.624l0.25-1.177c1.052,0.326,2.329,0.5,3.229,0.5
		c2.252,0,2.704-0.427,2.704-1.977c0-1.754-0.049-1.93-2.827-2.579c-3.057-0.728-3.307-1.479-3.307-3.706
		c0-2.026,0.976-3.13,3.981-3.13c1.127,0,2.503,0.151,3.454,0.427l-0.149,1.226c-0.976-0.198-2.402-0.35-3.405-0.35
		c-2.127,0-2.428,0.551-2.428,1.878c0,1.677,0.102,1.852,2.352,2.426c3.582,0.903,3.781,1.479,3.781,3.757
		C114.945,40.995,114.144,42.121,110.89,42.121"/>
	<path style="fill:#FFFFFF;" d="M118.471,29.623h1.452v2.678h-1.452 M118.471,33.741h1.45v8.131h-1.45V33.741z"/>
	<path style="fill:#FFFFFF;" d="M130.414,41.742c-0.701,0.277-1.388,0.379-2.267,0.379c-1.928,0-2.755-0.701-2.755-2.628v-8.562
		h-2.351v-1.253h2.351v-2.46l1.455-0.198v2.658h3.321l-0.15,1.253h-3.171v8.413c0,1.075,0.149,1.526,1.4,1.526
		c0.676,0,1.164-0.031,1.89-0.257"/>
	<path style="fill:#FFFFFF;" d="M137.103,40.847c1.249,0,2.654-0.251,3.854-0.578l0.251,1.179c-1.127,0.4-2.731,0.674-4.207,0.674
		c-3.432,0-4.529-1.776-4.529-4.43v-3.83c0-2.503,1.126-4.433,4.555-4.433s4.433,1.93,4.433,4.433v2.354h-7.537v1.525
		C133.922,39.918,134.674,40.847,137.103,40.847 M133.922,34.913h6.111v-1.103c0-2.053-0.728-3.13-3.007-3.13
		c-2.276,0-3.104,1.077-3.104,3.13V34.913z"/>
	<path style="fill:#FFFFFF;" d="M135.444,27.436c1.124-0.362,2.448-0.802,3.707-1.284l0.433,1.245
		c-1.233,0.489-2.601,0.892-3.737,1.199"/>
	<path style="fill:#FFFFFF;" d="M55.191,9.979c0,0-0.559,0.235-0.559,0.487V24.31c0,0.251,0.564,0.487,0.564,0.487
		s0.558-0.235,0.558-0.487V10.467C55.755,10.215,55.191,9.979,55.191,9.979"/>
	<path style="fill:#FFFFFF;" d="M55.12,24.979c-0.006-0.002-0.153-0.063-0.314-0.166c-0.149-0.107-0.351-0.223-0.372-0.506V10.465
		c0.021-0.279,0.223-0.397,0.369-0.506c0.156-0.1,0.303-0.161,0.311-0.164l0.076-0.034l0.077,0.034
		c0.007,0.002,0.156,0.064,0.312,0.164c0.151,0.108,0.353,0.225,0.377,0.506v7.001c0,1.554,0,2.988,0,2.988v3.854
		c-0.021,0.28-0.224,0.398-0.371,0.506c-0.157,0.103-0.304,0.164-0.312,0.166l-0.076,0.035"/>
	<path style="fill:#FFFFFF;" d="M54.834,24.312c0.005,0.009,0.016,0.025,0.034,0.044c0.035,0.041,0.094,0.084,0.153,0.123
		c0.063,0.04,0.128,0.073,0.174,0.098c0.035-0.017,0.081-0.041,0.127-0.067c0.107-0.06,0.218-0.158,0.23-0.197
		c0.005-0.002,0.002-0.004,0.002-0.004V10.469c0-0.001-0.002-0.004-0.002-0.007c-0.005-0.01-0.018-0.023-0.033-0.043
		c-0.034-0.038-0.093-0.084-0.154-0.123c-0.063-0.04-0.127-0.074-0.174-0.098c-0.036,0.017-0.081,0.039-0.125,0.068
		c-0.107,0.061-0.218,0.159-0.232,0.194c-0.003,0.004-0.002,0.004-0.002,0.004v7.001c0,1.554,0,2.988,0,2.988v3.852
		C54.832,24.306,54.832,24.308,54.834,24.312"/>
	<path style="fill:#FFFFFF;" d="M55.113,10.162l0.078-0.183L55.113,10.162z"/>
	<path style="fill:#FFFFFF;" d="M50.138,16.045c0,0-0.073,0.603,0.145,0.728l3.337,1.928c1.348,0.775,2.589,1.494,2.589,1.494
		l3.338,1.928c0.217,0.124,0.703-0.245,0.703-0.245s0.077-0.602-0.142-0.728l-3.339-1.926c0,0-1.24-0.719-2.59-1.496l-3.336-1.925
		C50.625,15.675,50.138,16.045,50.138,16.045"/>
	<path style="fill:#FFFFFF;" d="M59.447,22.294l-3.338-1.927c0,0-1.242-0.719-2.588-1.495l-3.34-1.927
		c-0.143-0.088-0.19-0.22-0.219-0.335c-0.029-0.119-0.036-0.238-0.036-0.34c0-0.138,0.013-0.244,0.016-0.25l0.008-0.084l0.068-0.05
		c0.021-0.003,0.35-0.293,0.715-0.312c0.067,0,0.139,0.014,0.21,0.054l3.336,1.928c1.349,0.776,2.59,1.494,2.59,1.494l3.337,1.927
		c0.144,0.086,0.192,0.22,0.221,0.335c0.028,0.118,0.036,0.238,0.036,0.339c0,0.14-0.015,0.245-0.015,0.25l-0.01,0.083l-0.067,0.052
		c-0.02,0.002-0.35,0.292-0.718,0.31C59.589,22.346,59.517,22.333,59.447,22.294"/>
	<path style="fill:#FFFFFF;" d="M59.653,21.948c0.048,0.003,0.187-0.047,0.291-0.109c0.043-0.026,0.085-0.051,0.115-0.071
		c0.002-0.034,0.005-0.073,0.005-0.116c0.007-0.137-0.035-0.311-0.056-0.329h-0.002l-3.337-1.927
		c-0.004-0.001-1.242-0.717-2.587-1.495l-3.335-1.925c0,0-0.007,0-0.015,0c-0.046-0.005-0.185,0.045-0.288,0.108
		c-0.045,0.024-0.086,0.052-0.117,0.071c-0.001,0.033-0.003,0.072-0.003,0.115c-0.006,0.14,0.034,0.313,0.058,0.33V16.6l3.335,1.928
		c1.349,0.777,2.587,1.494,2.591,1.494l3.335,1.926C59.646,21.948,59.648,21.948,59.653,21.948"/>
	<path style="fill:#FFFFFF;" d="M60.249,16.045c0,0,0.074,0.603-0.142,0.728L56.769,18.7c-1.346,0.775-2.59,1.494-2.59,1.494
		l-3.336,1.928c-0.218,0.124-0.705-0.245-0.705-0.245s-0.074-0.602,0.145-0.728l3.337-1.926c0,0,1.242-0.719,2.589-1.496
		l3.338-1.925C59.763,15.675,60.249,16.045,60.249,16.045"/>
	<path style="fill:#FFFFFF;" d="M50.733,22.346c-0.365-0.019-0.694-0.309-0.715-0.31l-0.067-0.054l-0.009-0.081
		c-0.003-0.005-0.016-0.113-0.016-0.25c0-0.104,0.007-0.222,0.036-0.341c0.028-0.115,0.076-0.247,0.221-0.334l3.338-1.928
		c0,0,1.241-0.716,2.589-1.494l3.336-1.928c0.069-0.041,0.143-0.052,0.207-0.052c0.368,0.016,0.698,0.308,0.718,0.312l-0.119,0.157
		l0.119-0.157l0.067,0.05l0.01,0.084c0,0.006,0.015,0.112,0.015,0.25c0,0.102-0.005,0.221-0.035,0.339
		c-0.032,0.115-0.08,0.247-0.22,0.336l-3.339,1.927c-1.348,0.776-2.587,1.495-2.587,1.495l-3.339,1.927
		c-0.068,0.039-0.141,0.052-0.207,0.052"/>
	<path style="fill:#FFFFFF;" d="M50.447,21.839c0.104,0.062,0.24,0.112,0.286,0.108c0.007,0,0.012,0,0.012,0l3.338-1.926
		c0.002-0.003,1.241-0.719,2.588-1.496l3.336-1.925c0-0.001,0.002-0.005,0.007-0.011c0.008-0.016,0.02-0.043,0.025-0.074
		c0.018-0.07,0.025-0.163,0.025-0.245c0-0.045-0.003-0.082-0.005-0.115c-0.03-0.021-0.072-0.047-0.115-0.072
		c-0.104-0.062-0.243-0.114-0.291-0.11c-0.005,0-0.007,0.003-0.01,0.003L56.309,17.9c-1.347,0.776-2.586,1.493-2.588,1.494
		l-3.336,1.926c-0.002,0.002-0.005,0.005-0.01,0.012c-0.007,0.015-0.019,0.041-0.026,0.073c-0.017,0.067-0.023,0.163-0.023,0.246
		c0,0.041,0.002,0.082,0.003,0.115C50.361,21.786,50.4,21.812,50.447,21.839"/>
	<line style="fill:#FFFFFF;" x1="59.644" y1="15.976" x2="59.644" y2="15.976"/>
	<path style="fill:#FFFFFF;" d="M0,25.925c0-2.715,0.234-5.258,0.702-7.622c0.469-2.366,1.177-4.695,2.131-6.987
		c0.952-2.292,2.132-4.59,3.534-6.893C7.212,3.021,7.961,2.041,8.499,1.39C9.054,0.714,9.642,0,10.451,0
		c0.884,0,1.32,0.241,1.32,0.727c0,0.162-0.413,1.138-1.241,2.929C9.703,5.443,8.927,7.319,8.199,9.278
		c-0.73,1.962-1.405,4.408-2.023,7.339c-0.621,2.932-0.931,6.034-0.931,9.308c0,3.236,0.304,6.303,0.915,9.199
		c0.612,2.896,1.479,5.405,2.261,7.525c0.784,2.122,1.396,4.027,2.178,5.708c0.782,1.681,1.173,2.593,1.173,2.737
		c0,0.485-0.437,0.728-1.32,0.728c-0.828,0-1.396-0.828-1.952-1.457c-0.558-0.631-1.268-1.636-2.132-3.023
		c-1.422-2.37-2.595-4.661-3.521-6.862c-0.927-2.205-1.632-4.493-2.118-6.868C0.242,31.239,0,28.676,0,25.925"/>
</g>
</svg>
