<?xml version="1.0" encoding="utf-8"?>
<!-- Generator: Adobe Illustrator 16.0.4, SVG Export Plug-In . SVG Version: 6.00 Build 0)  -->
<!DOCTYPE svg PUBLIC "-//W3C//DTD SVG 1.1//EN" "http://www.w3.org/Graphics/SVG/1.1/DTD/svg11.dtd">
<svg version="1.1" id="Ebene_1" xmlns="http://www.w3.org/2000/svg" xmlns:xlink="http://www.w3.org/1999/xlink" x="0px" y="0px"
	 width="134.854px" height="53.844px" viewBox="0 0 134.854 53.844" style="enable-background:new 0 0 134.854 53.844;"
	 xml:space="preserve">
<rect x="-22.573" y="-37.797" style="fill:none;stroke:#627986;stroke-miterlimit:10;" width="180" height="132"/>
<path style="fill:#FFFFFF;" d="M0,53.844V8.326C0,3.725,3.73,0,8.327,0h126.526v45.518c0,4.598-3.729,8.326-8.327,8.326H0z
	 M57.954,21.599h-4.227c0,0-3.018,8.366-3.564,9.877c-0.599-1.492-3.977-9.877-3.977-9.877h-5.043c0,0,6.535,15.424,6.651,15.702
	c-0.017,0.042-0.032,0.093-0.032,0.093c-0.569,1.427-0.944,1.973-2.624,1.973c-0.548,0-1.15-0.117-1.785-0.354l-0.468-0.172
	l-0.591,4.258l0.341,0.088c0.979,0.261,1.987,0.396,3.009,0.396c3.642,0,5.054-1.754,6.158-4.586l6.736-17.396H57.954z
	 M66.423,25.428c0.82,0,1.692,0.468,2.589,1.397l0.279,0.288l3.179-3.179l-0.254-0.279c-1.393-1.549-3.506-2.441-5.793-2.441
	c-5.01,0-8.644,3.52-8.644,8.366s3.634,8.359,8.644,8.359c1.416,0,4.111-0.597,5.747-2.233l0.276-0.271l-3.114-3.35l-0.29,0.381
	c-0.608,0.803-1.561,1.262-2.619,1.262c-2.663,0-4.054-2.085-4.054-4.147C62.369,27.515,63.76,25.428,66.423,25.428 M83.977,25.505
	v-4.009l-0.291-0.043l-1.468-0.239c-1.693,0-3.16,0.724-4.152,1.948v-1.563h-4.592v15.962h4.592v-8.519
	c0-0.034,0.045-3.426,3.68-3.426l2.192,0.347L83.977,25.505z M108.759,27.613c-1.621-0.359-2.615-0.613-2.615-1.353
	c0-0.957,1.186-1.211,1.812-1.211c1.13,0,1.97,0.44,2.647,1.382l0.262,0.361l3.127-2.815l-0.215-0.293
	c-1.152-1.567-3.243-2.471-5.724-2.471c-3.233,0-6.499,1.641-6.499,5.299c0,3.652,3.086,4.327,5.335,4.821
	c1.765,0.384,2.848,0.668,2.848,1.625c0,0.923-1.24,1.336-2.126,1.336c-1.434,0-2.361-0.693-3.309-1.732l-0.272-0.296l-3.105,2.909
	l0.257,0.293c1.481,1.664,3.513,2.471,6.206,2.471c3.2,0,6.941-1.377,6.941-5.266C114.328,28.832,111.108,28.125,108.759,27.613
	 M126.818,25.616v-4.018h-4.175v-5.991h-0.4h-4.19v5.991h-3.126v4.018h3.126v6.553c0,3.561,0.899,5.771,5.358,5.771
	c0.986,0,2.338-0.14,3.18-0.546l0.228-0.107v-4.231l-0.637,0.462c-0.375,0.277-1.182,0.401-1.82,0.401
	c-1.269,0-1.718-0.542-1.718-2.065v-6.236H126.818z M21.05,26.068c2.269-0.831,3.593-2.562,3.593-4.843
	c0-5.141-4.671-5.732-8.183-5.732H8.119V37.75h9.145c4.064,0,8.402-1.644,8.402-6.261C25.666,28.688,23.808,26.576,21.05,26.068
	 M13.265,19.889h3.13c1.161,0,3.104,0.279,3.104,2.144c0,2.073-2.21,2.233-2.884,2.233h-3.351V19.889z M17.45,33.35h-4.186v-4.684
	h3.503c1.711,0,3.753,0.392,3.753,2.264C20.521,32.718,18.935,33.35,17.45,33.35 M34.515,21.214c-2.728,0-5.119,0.906-6.732,2.555
	l-0.279,0.28l2.545,2.547l0.285-0.267c0.993-0.934,2.368-1.47,3.77-1.47c1.925,0,3.073,0.912,3.073,2.443v0.011h-0.547
	c-2.972,0-9.945,0-9.945,5.68c0,3.398,3.075,4.946,5.931,4.946c1.923,0,3.462-0.666,4.562-1.872v1.493h4.212v-9.121
	C41.388,26.281,41.388,21.214,34.515,21.214 M36.956,31.223c0,2.01-1.184,3.072-3.424,3.072c-0.78,0-2.251-0.33-2.251-1.586
	c0-1.305,1.726-1.94,5.287-1.94h0.388V31.223z M100.361,29.862c0-5.334-2.878-8.648-7.507-8.648c-5.014,0-8.65,3.52-8.65,8.366
	s3.637,8.359,8.65,8.359c2.743,0,5.008-1.074,6.72-3.183l0.262-0.317l-3.354-2.54l-0.246,0.304c-1.049,1.3-2.251,1.904-3.764,1.904
	c-1.844,0-3.162-1.102-3.551-2.802h11.44V29.862z M88.918,27.663c0.398-1.768,1.588-2.804,3.396-2.804
	c1.977,0,3.179,1.06,3.379,2.804H88.918z"/>
</svg>
